<svg xmlns="http://www.w3.org/2000/svg" width="60" height="61" viewBox="0 0 60 61">
  <path fill="#FFFFFF" d="M0.350545875,1.07346014 L55.0725944,1.07346014 L55.0725944,6.54814302 L0.350545875,6.54814302 L0.350545875,1.07346014 Z M5.16011383,9.3911134 L50.2599773,9.3911134 L50.2599773,14.2340251 L46.7330963,15.2868102 L46.7330963,19.0769368 L43.0994942,20.2348502 L43.0994942,57.9263598 L37.5418615,55.2941467 L37.5418615,23.0778206 C37.5418615,22.4460494 37.0077474,21.9199071 36.3664039,21.9199071 L35.939011,21.9199071 C35.2981757,21.9199071 34.7635534,22.4460494 34.7635534,23.0778206 L34.7635534,53.9259766 L29.0991996,51.1886351 L29.0991996,23.0778206 C29.0991996,22.4460494 28.5650855,21.9199071 27.923742,21.9199071 L27.4963491,21.9199071 C26.8550056,21.9199071 26.3208915,22.4460494 26.3208915,23.0778206 L26.3208915,51.1886351 L20.6565377,53.9259766 L20.6565377,23.0778206 C20.6565377,22.4460494 20.1224236,21.9199071 19.4810801,21.9199071 L19.0536872,21.9199071 C18.4128519,21.9199071 17.8782296,22.4460494 17.8782296,23.0778206 L17.8782296,55.2941467 L12.320597,57.9263598 L12.320597,20.2348502 L8.68699481,19.0769368 L8.68699481,15.2868102 L5.16011383,14.2340251 L5.16011383,9.3911134 Z" transform="translate(0 .602)"/>
</svg>
