<svg xmlns="http://www.w3.org/2000/svg" width="350" height="350" viewBox="0 0 350 350">
  <g fill="none" fill-rule="evenodd">
    <rect width="350" height="350" fill="#04284A"/>
    <g fill="#FFFFFE" fill-opacity=".18" transform="translate(82.36 87.475)">
      <polygon points=".457 29.343 285.715 29.343 285.715 .086 .457 .086"/>
      <path d="M29.714462,43.9716518 L29.714462,70.8379463 L47.1997816,76.8325063 L47.1997816,97.8873543 L65.6908811,104.309179 L65.6908811,314.600658 L93.8116618,299.700996 L93.8116618,120.204722 C93.8116618,116.658101 96.4536663,113.795747 99.6791991,113.795747 L101.714217,113.795747 C104.922156,113.795747 107.57589,116.658101 107.57589,120.204722 L107.57589,292.421428 L136.215688,277.223002 L136.215688,120.204722 C136.215688,116.658101 138.845963,113.795747 142.062699,113.795747 L144.115311,113.795747 C147.343776,113.795747 149.956457,116.658101 149.956457,120.204722 L149.956457,277.223002 L178.607985,292.421428 L178.607985,120.204722 C178.607985,116.658101 181.229463,113.795747 184.463793,113.795747 L186.504675,113.795747 C189.724344,113.795747 192.360483,116.658101 192.360483,120.204722 L192.360483,299.700996 L220.498858,314.600658 L220.498858,104.309179 L238.978228,97.8873543 L238.978228,76.8325063 L256.457683,70.8379463 L256.457683,43.9716518 L29.714462,43.9716518"/>
    </g>
  </g>
</svg>
