<?xml version="1.0" standalone="no"?>
<!DOCTYPE svg PUBLIC "-//W3C//DTD SVG 1.1//EN" "http://www.w3.org/Graphics/SVG/1.1/DTD/svg11.dtd" >
<svg xmlns="http://www.w3.org/2000/svg" xmlns:xlink="http://www.w3.org/1999/xlink" version="1.1">
<metadata>
Created by FontForge 20170908 at Thu Dec 13 22:46:35 2012
 By Tomas Celizna
Copyright (c) 2009 by Radim Pesko. All rights reserved.
</metadata>
<defs>
<font id="LarishNeue-Italic" horiz-adv-x="360" >
  <font-face 
    font-family="LarishNeue-Italic"
    font-weight="600"
    font-style="italic"
    font-stretch="normal"
    units-per-em="1000"
    panose-1="2 0 0 0 0 0 0 0 0 0"
    ascent="771"
    descent="-229"
    x-height="479"
    cap-height="728"
    bbox="-95.1119 -260 1101 1138"
    underline-thickness="50"
    underline-position="-50"
    stemh="37"
    stemv="39"
    unicode-range="U+000D-FB04"
  />
<missing-glyph horiz-adv-x="280" 
 />
    <glyph glyph-name="f_f" unicode="ff" horiz-adv-x="576" 
d="M343 37l88 360c3 11 -10 47 -18 47h-89l-147 -455c-34 -118 -115 -203 -212 -203c-37 0 -62 31 -60 65c2 38 26 67 67 74h23c26 -6 50 -33 46 -66h9c22 8 46 31 50 55c10 59 -45 62 -27 124l121 361c4 11 -17 45 -25 45h-88v35h134l21 59c46 129 130 228 241 228
c38 0 64 -28 64 -61v-27c41 52 91 88 147 88c38 0 64 -26 64 -60c0 -42 -31 -70 -69 -78h-24c-27 6 -49 32 -42 63h-10c-13 -6 -35 -29 -40 -53c-10 -48 23 -75 10 -124l-9 -35h101v-35h-110l-112 -455c-26 -120 -115 -203 -212 -203c-37 0 -62 31 -60 65c2 38 26 67 67 74
h23c26 -6 50 -33 46 -66h9c22 8 46 31 50 55c11 59 -42 60 -27 123zM345 514l-11 -35h115l19 61c11 38 31 79 52 109c-12 -10 -30 -18 -46 -21h-24c-27 6 -49 32 -42 63h-10c-22 -3 -59 -35 -64 -59c-10 -48 26 -69 11 -118z" />
    <glyph glyph-name="f_i" unicode="fi" horiz-adv-x="525" 
d="M379 692h-10c-22 -3 -58 -36 -63 -60c-10 -48 28 -69 13 -118l-10 -35h55c103 0 149 13 149 13l-65 -384c-3 -16 15 -37 28 -37c8 0 36 25 46 35l20 -26c-18 -21 -87 -90 -132 -91c-48 -1 -81 40 -78 87c3 51 55 301 58 319c3 16 -21 49 -35 49h-55l-123 -455
c-34 -118 -115 -203 -212 -203c-37 0 -62 31 -60 65c2 38 26 67 67 74h23c26 -6 50 -33 46 -66h9c22 8 46 31 50 55c10 59 -45 62 -27 124l102 370c3 11 -10 36 -18 36h-77v35h113l18 59c40 131 143 228 249 228c48 0 81 -34 81 -76c0 -48 -33 -80 -79 -87h-27
c-34 5 -67 47 -56 89z" />
    <glyph glyph-name="f_l" unicode="fl" horiz-adv-x="536" 
d="M343 698c-35 0 -60 -23 -69 -60c-12 -48 39 -75 28 -124l-8 -35h107c17 95 30 170 32 178h-19c-16 0 -57 41 -71 41zM563 770l-115 -662c-3 -16 15 -37 28 -37c8 0 36 25 46 35l19 -26c-18 -21 -86 -90 -131 -91c-48 -1 -80 40 -80 87l66 368h-110l-108 -454
c-28 -120 -116 -204 -213 -204c-37 0 -62 31 -60 65c2 38 26 67 67 74h23c26 -6 50 -33 46 -66h9c22 8 46 31 50 55c11 59 -42 60 -27 123l86 360c3 11 -14 47 -23 47h-67v35h106l16 61c34 131 107 230 212 230c70 0 103 -9 160 0z" />
    <glyph glyph-name="f_f_i" unicode="ffi" horiz-adv-x="779" 
d="M321 38l106 359c3 11 -14 47 -23 47h-78l-149 -455c-34 -118 -115 -203 -212 -203c-37 0 -62 31 -60 65c2 38 26 67 67 74h23c26 -6 50 -33 46 -66h9c22 8 46 31 50 55c10 59 -45 62 -27 124l122 359c3 11 -14 47 -23 47h-61v35h104l21 59c46 129 130 228 241 228
c38 0 64 -28 64 -61v-27c48 57 110 88 173 88c48 0 81 -34 81 -76c0 -48 -33 -80 -79 -87h-27c-34 5 -67 47 -56 89h-10c-22 -3 -58 -36 -63 -60c-10 -48 28 -69 13 -118l-10 -35h55c103 0 149 13 149 13l-65 -384c-3 -16 15 -37 28 -37c8 0 36 25 46 35l20 -26
c-18 -21 -87 -90 -132 -91c-48 -1 -81 40 -78 87c3 51 51 296 54 314c3 16 -20 54 -34 54h-53l-128 -455c-34 -118 -115 -203 -212 -203c-37 0 -62 31 -60 65c2 38 26 67 67 74h23c26 -6 50 -33 46 -66h9c22 8 46 31 50 55c10 59 -45 62 -27 124zM520 649
c-11 -11 -30 -17 -46 -21h-24c-27 6 -49 32 -42 63h-10c-22 -3 -59 -35 -64 -59c-10 -48 26 -69 11 -118l-11 -35h113l18 59c13 43 31 78 55 111z" />
    <glyph glyph-name="f_f_l" unicode="ffl" horiz-adv-x="800" 
d="M827 770l-114 -662c-3 -16 15 -37 28 -37c8 0 36 25 46 35l19 -26c-18 -21 -86 -90 -131 -91c-48 -1 -80 40 -80 87l66 368h-110l-108 -454c-28 -120 -116 -204 -213 -204c-37 0 -62 31 -60 65c2 38 26 67 67 74h23c26 -6 50 -33 46 -66h9c22 8 46 31 50 55
c11 59 -42 60 -27 123l86 360c3 11 -13 47 -21 47h-78l-148 -455c-34 -118 -115 -203 -212 -203c-37 0 -62 31 -60 65c2 38 26 67 67 74h23c26 -6 50 -33 46 -66h9c22 8 46 31 50 55c10 59 -45 62 -27 124l124 370c3 11 -10 36 -18 36h-68v35h104l21 59
c46 129 130 228 241 228c40 0 64 -26 65 -58c33 38 79 62 126 62c70 0 102 -9 159 0zM698 657h-19c-16 0 -57 41 -71 41c-35 0 -59 -23 -69 -60c-12 -48 39 -75 28 -124l-8 -35h107zM448 479l15 61c9 41 30 89 48 115c-15 -16 -31 -22 -49 -27h-24c-27 6 -46 33 -39 64h-10
c-22 -3 -49 -31 -55 -60c-10 -48 26 -69 11 -118l-11 -35h114z" />
    <glyph glyph-name="f_b" unicode="fb" horiz-adv-x="804" 
d="M615 429c-57 0 -118 -50 -132 -128c-9 -41 -19 -94 -22 -136c-5 -73 31 -113 81 -113c51 0 105 51 126 127c12 42 22 95 23 137c2 69 -24 113 -76 113zM403 770c70 0 103 -9 160 0l-59 -346c26 28 77 66 142 66c98 0 160 -61 160 -183c0 -146 -111 -317 -266 -317
c-63 0 -107 54 -122 85h-6l-81 -75h-9l74 444h-110l-108 -454c-28 -120 -116 -204 -213 -204c-37 0 -62 31 -60 65c2 38 26 67 67 74h23c26 -6 50 -33 46 -66h9c22 8 46 31 50 55c11 59 -42 60 -27 123l86 360c3 11 -13 47 -21 47h-72v35h109l17 61c36 129 106 230 211 230z
M275 638c-12 -48 38 -75 27 -124l-8 -35h107l32 178h-19c-16 0 -57 41 -71 41c-35 0 -59 -23 -68 -60z" />
    <glyph glyph-name="f_h" unicode="fh" horiz-adv-x="795" 
d="M563 770l-69 -403c45 47 124 123 183 123c75 0 122 -72 99 -142c-22 -68 -55 -171 -75 -242c-4 -17 15 -35 28 -35c10 0 39 25 49 37l19 -26c-25 -34 -81 -91 -126 -91c-54 0 -98 47 -83 110c20 82 54 182 75 245c7 21 -27 58 -46 58c-36 0 -129 -90 -131 -104l-53 -300
h-115l78 444h-110l-108 -454c-28 -120 -116 -204 -213 -204c-37 0 -62 31 -60 65c2 38 26 67 67 74h23c26 -6 50 -33 46 -66h9c22 8 46 31 50 55c11 59 -42 60 -27 123l86 360c3 11 -13 47 -21 47h-69v35h106l17 61c36 129 106 230 211 230c70 0 103 -9 160 0zM294 479h107
l32 178h-19c-16 0 -57 41 -71 41c-35 0 -59 -23 -68 -60c-12 -48 38 -75 27 -124z" />
    <glyph glyph-name="g_f" unicode="gf" horiz-adv-x="836" 
d="M633 37l65 360c3 13 -19 47 -31 47h-64v35h111l17 61c35 118 115 226 213 226c38 0 64 -26 64 -60c0 -42 -31 -70 -69 -78h-24c-27 6 -49 32 -42 63h-10c-13 -6 -35 -29 -40 -53c-10 -48 24 -75 14 -124l-6 -35h93v-35h-100l-82 -455c-27 -120 -117 -203 -214 -203
c-37 0 -62 31 -60 65c2 38 26 67 67 74h23c26 -6 50 -33 46 -66h9c22 8 43 31 47 55c11 59 -42 60 -27 123zM133 -40c-7 -42 91 -41 209 -39c23 0 37 -10 37 -26c0 -60 -111 -67 -154 -68c-42 0 -164 47 -158 82c5 27 45 46 66 51zM476 305c3 19 48 80 65 80h32l-36 148
c-69 10 -95 -122 -100 -192h-6c7 84 -46 149 -129 149c-121 0 -217 -81 -217 -205c0 -79 62 -124 95 -133c-74 -15 -147 -50 -147 -105c0 -37 42 -63 76 -66c-57 -15 -121 -45 -121 -95c0 -64 101 -100 230 -100c131 0 247 53 247 155c0 51 -44 84 -106 83
c-70 -1 -119 -1 -172 5c-30 3 -49 19 -49 41c0 26 15 44 54 51h63c120 0 206 89 221 184zM256 178c-50 0 -75 45 -71 97c2 24 7 52 13 77c14 59 52 92 103 92c46 0 75 -41 71 -100c-2 -25 -8 -55 -14 -78c-14 -53 -51 -88 -102 -88z" />
    <glyph glyph-name="f_k" unicode="fk" horiz-adv-x="761" 
d="M433 657h-19c-16 0 -57 41 -71 41c-35 0 -59 -23 -68 -60c-12 -48 38 -75 27 -124l-8 -35h107zM563 770l-106 -556h7l165 164c10 10 -15 66 -33 66h-50l6 35h276v-35h-20c-17 0 -109 -61 -125 -76l-75 -69l109 -215c7 -14 26 -41 41 -48v-36l-115 -12l-39 47l-84 180
l-60 -55l-26 -160h-117l78 444h-109l-108 -454c-28 -120 -116 -204 -213 -204c-37 0 -62 31 -60 65c2 38 26 67 67 74h23c26 -6 50 -33 46 -66h9c22 8 46 31 50 55c11 59 -42 60 -27 123l86 360c3 11 -18 47 -26 47h-63v35h105l17 61c36 129 106 230 211 230
c70 0 103 -9 160 0z" />
    <glyph glyph-name="f_f_k" unicode="ffk" horiz-adv-x="1034" 
d="M836 770l-106 -556h7l165 164c10 10 -15 66 -33 66h-50l6 35h276v-35h-20c-17 0 -109 -61 -125 -76l-75 -69l109 -215c7 -14 26 -41 41 -48v-36l-115 -12l-39 47l-84 180l-60 -55l-26 -160h-117l78 444h-109l-108 -454c-28 -120 -116 -204 -213 -204c-37 0 -62 31 -60 65
c2 38 26 67 67 74h23c26 -6 50 -33 46 -66h9c22 8 46 31 50 55c11 59 -42 60 -27 123l86 360c3 11 -18 47 -26 47h-82l-147 -455c-34 -118 -115 -203 -212 -203c-37 0 -62 31 -60 65c2 38 26 67 67 74h23c26 -6 50 -33 46 -66h9c22 8 46 31 50 55c10 59 -45 62 -27 124
l121 361c4 11 -17 45 -25 45h-88v35h134l21 59c46 129 130 228 241 228c38 0 64 -28 64 -61v-6c35 44 80 71 135 71c70 0 103 -9 160 0zM706 657h-19c-16 0 -57 41 -71 41c-35 0 -59 -23 -68 -60c-12 -48 38 -75 27 -124l-8 -35h107zM345 514l-11 -35h114l17 61
c10 35 22 68 37 97c-9 -4 -19 -8 -28 -9h-24c-27 6 -49 32 -42 63h-10c-22 -3 -59 -35 -64 -59c-10 -48 26 -69 11 -118z" />
    <glyph glyph-name=".notdef" horiz-adv-x="280" 
 />
    <glyph glyph-name=".null" horiz-adv-x="0" 
 />
    <glyph glyph-name=".null" horiz-adv-x="0" 
 />
    <glyph glyph-name="CR" unicode="&#xd;" horiz-adv-x="0" 
 />
    <glyph glyph-name="space" unicode=" " horiz-adv-x="280" 
 />
    <glyph glyph-name="exclam" unicode="!" horiz-adv-x="259" 
d="M147 206v454c0 50 41 81 89 81c44 0 78 -32 72 -80l-137 -455h-24zM66 79c0 -43 36 -79 81 -79s81 36 81 79s-36 79 -81 79s-81 -36 -81 -79z" />
    <glyph glyph-name="quotedbl" unicode="&#x22;" horiz-adv-x="350" 
d="M256 701l-15 -96l-87 -239h-27v298c6 39 41 69 78 69c24 0 43 -11 51 -32zM290 701l-14 -96l1 -239h27l104 298c6 39 -19 69 -56 69c-24 0 -46 -11 -62 -32z" />
    <glyph glyph-name="numbersign" unicode="#" horiz-adv-x="674" 
d="M60 224h130l56 255h-119v64h133l40 185h72l-40 -185h168l40 185h72l-40 -185h123v-64h-137l-56 -255h126v-64h-140l-34 -160h-72l34 160h-168l-34 -160h-72l34 160h-116v64zM318 479l-56 -255h168l56 255h-168z" />
    <glyph glyph-name="dollar" unicode="$" horiz-adv-x="548" 
d="M386 801l-12 -73h40l12 73h42l-13 -74c15 -6 40 -18 54 -18c20 0 35 6 46 19h32l-30 -238h-34c2 14 -23 144 -76 183l-42 -255c71 -35 134 -97 134 -193c0 -121 -80 -211 -205 -225l-17 -103h-42l16 103h-39l-17 -103h-42l18 105c-16 9 -35 21 -58 21
c-24 0 -40 -10 -52 -23h-32l29 260h36c-3 -45 12 -176 86 -209l41 263c-97 63 -121 129 -121 196c0 108 74 197 193 219l11 72h42zM375 251l-33 -203c53 4 102 43 102 102c0 50 -32 80 -69 101zM335 271l-35 21l-40 -247h38zM292 484l32 199c-44 -8 -92 -47 -92 -101
c0 -38 27 -77 60 -98zM330 460l36 -21l39 244h-38z" />
    <glyph glyph-name="percent" unicode="%" horiz-adv-x="721" 
d="M651 728h64l-567 -728h-66zM245 434c39 0 72 34 86 87c8 30 12 57 15 87c5 54 -14 92 -50 92c-42 0 -73 -31 -87 -87c-7 -28 -12 -57 -14 -86c-3 -53 11 -93 50 -93zM241 388c-70 0 -126 53 -126 142c0 110 74 212 185 212c77 0 125 -52 125 -138
c0 -107 -76 -216 -184 -216zM511 34c39 0 72 34 86 87c8 30 12 57 15 87c5 54 -14 92 -50 92c-42 0 -73 -31 -87 -87c-7 -28 -12 -57 -14 -86c-3 -53 11 -93 50 -93zM507 -12c-70 0 -126 53 -126 142c0 110 74 212 185 212c77 0 125 -52 125 -138c0 -107 -76 -216 -184 -216
z" />
    <glyph glyph-name="ampersand" unicode="&#x26;" horiz-adv-x="714" 
d="M625 339c35 55 -4 111 -65 101v39h194c5 -62 -39 -115 -91 -177c-39 -47 -92 -97 -138 -134l31 -66c14 -33 39 -56 51 -65h39v-37h-47c-75 0 -143 31 -178 79c-49 -45 -124 -88 -193 -88c-88 0 -149 63 -149 151c0 116 110 196 205 246l-16 34c-12 25 -25 67 -25 114
c0 124 87 216 199 216c88 0 148 -48 148 -133s-83 -159 -169 -208l86 -203c40 35 80 72 118 131zM398 120l-95 229c-75 -44 -122 -104 -121 -175c1 -63 45 -99 98 -99c40 0 81 19 118 45zM377 508l26 -59c63 48 98 108 98 171c0 45 -31 82 -79 82c-65 0 -119 -54 -119 -114
c0 -55 54 -34 74 -80z" />
    <glyph glyph-name="quotesingle" unicode="'" horiz-adv-x="213" 
d="M130 364v299c7 39 37 70 79 70c40 0 68 -32 61 -71l-114 -298h-26z" />
    <glyph glyph-name="parenleft" unicode="(" horiz-adv-x="335" 
d="M204 281c-51 -309 21 -396 81 -484l-38 -34c-60 56 -198 258 -154 520c43 260 248 458 327 514l27 -36c-99 -94 -196 -193 -243 -480z" />
    <glyph glyph-name="parenright" unicode=")" horiz-adv-x="335" 
d="M204 279c51 309 -21 396 -81 484l38 34c60 -56 198 -258 154 -520c-43 -260 -248 -458 -327 -514l-27 36c99 94 196 193 243 480z" />
    <glyph glyph-name="asterisk" unicode="*" horiz-adv-x="476" 
d="M326 355l-41 40c5 38 24 103 31 149c-29 -40 -53 -91 -81 -126h-56v50c30 25 95 61 132 89c-49 -7 -110 -25 -154 -30l-36 36l36 36c43 -3 106 -23 154 -30c-40 31 -98 62 -132 89v50h56c26 -30 55 -87 81 -124c-7 42 -25 113 -29 147l39 39l39 -39
c-4 -38 -23 -102 -30 -147c31 42 52 87 82 124h56v-50c-35 -28 -93 -58 -133 -89c47 6 110 25 155 30l36 -36l-36 -36c-45 4 -107 23 -155 30c41 -30 98 -60 133 -89v-50h-56c-27 32 -55 88 -83 126c7 -46 26 -111 31 -149z" />
    <glyph glyph-name="plus" unicode="+" horiz-adv-x="636" 
d="M405 558v-232h231v-75h-231v-238h-81v238h-232v75h232v232h81z" />
    <glyph glyph-name="comma" unicode="," horiz-adv-x="262" 
d="M226 75l-4 -27c-21 -141 -141 -169 -222 -161v43c71 -9 141 14 153 70h-28c-31 9 -59 43 -55 82c5 47 41 76 85 76c45 0 78 -39 71 -83z" />
    <glyph glyph-name="hyphen" unicode="-" horiz-adv-x="309" 
d="M80 330h264l-20 -115h-265z" />
    <glyph glyph-name="period" unicode="." horiz-adv-x="255" 
d="M59 79c0 43 36 79 81 79s81 -36 81 -79s-36 -79 -81 -79s-81 36 -81 79z" />
    <glyph glyph-name="slash" unicode="/" horiz-adv-x="378" 
d="M378 806l55 -20l-377 -1001l-56 21z" />
    <glyph glyph-name="zero" unicode="0" horiz-adv-x="567" 
d="M406 742c129 0 198 -129 198 -279c0 -206 -118 -475 -324 -475c-137 0 -197 134 -197 290c0 209 121 464 323 464zM444 254c21 86 34 170 42 255c11 111 -15 177 -82 177c-105 0 -144 -126 -162 -201c-19 -78 -36 -172 -44 -255c-11 -116 18 -183 84 -183
c101 0 145 136 162 207z" />
    <glyph glyph-name="one" unicode="1" horiz-adv-x="435" 
d="M415 743l-121 -646c-3 -17 26 -60 39 -60h40v-37h-310v37h43c12 0 57 42 61 60l83 425c3 16 -22 48 -33 48h-54v37c85 16 135 47 178 106z" />
    <glyph glyph-name="two" unicode="2" horiz-adv-x="485" 
d="M130 111l314 2v-113h-423v34c27 89 162 229 289 332c54 43 104 97 104 170c0 65 -45 110 -108 110c-79 0 -136 -71 -182 -133l-41 32c57 83 134 197 270 197c103 0 183 -75 183 -181c0 -113 -88 -193 -185 -256c-83 -54 -202 -142 -221 -194z" />
    <glyph glyph-name="three" unicode="3" horiz-adv-x="507" 
d="M181 373v39l113 42c53 34 86 73 86 125c0 45 -33 76 -79 76c-52 0 -121 -39 -165 -76l-27 38c57 50 163 124 254 124c76 0 133 -44 133 -119c0 -81 -66 -146 -147 -183c69 2 156 -34 156 -133c0 -211 -282 -337 -472 -345v54c137 6 340 104 340 272c0 92 -80 120 -192 86
z" />
    <glyph glyph-name="four" unicode="4" horiz-adv-x="540" 
d="M312 251l54 306h-5c-73 -102 -139 -185 -242 -306h193zM284 97l15 83h-265v49c167 195 249 302 357 455c68 29 129 59 129 59l-82 -492h94v-71h-106l-14 -83c-3 -18 26 -60 39 -60h16v-37h-298v37h53c13 0 58 42 62 60z" />
    <glyph glyph-name="five" unicode="5" horiz-adv-x="503" 
d="M456 742l35 -112s-28 -12 -271 -11l-57 -188c49 45 113 94 180 94c101 0 173 -60 173 -165c0 -217 -289 -399 -497 -399v54c166 0 375 135 375 305c0 68 -41 112 -112 112c-44 0 -87 -31 -143 -73l-39 23l95 346h47c214 0 214 14 214 14z" />
    <glyph glyph-name="six" unicode="6" horiz-adv-x="551" 
d="M551 756v-55c-160 5 -313 -146 -326 -302c26 36 81 91 173 91c94 0 159 -73 159 -195c0 -151 -108 -307 -264 -307c-127 0 -196 116 -196 269c0 253 189 501 454 499zM218 232c0 -98 38 -178 98 -178c86 0 124 105 124 195c0 94 -39 160 -99 160
c-83 0 -123 -89 -123 -177z" />
    <glyph glyph-name="seven" unicode="7" horiz-adv-x="276" 
d="M188 0h-153c224 391 389 587 417 619c0 0 -21 -5 -272 -5c-15 0 -56 -39 -61 -48h-41l74 162h396v-37l-50 -76c-73 -103 -285 -533 -310 -615z" />
    <glyph glyph-name="eight" unicode="8" horiz-adv-x="542" 
d="M439 177c0 62 -77 95 -120 119c-20 11 -38 20 -40 34c-81 -40 -138 -98 -138 -173c0 -68 58 -110 129 -110c88 0 169 50 169 130zM379 428c53 33 105 96 105 156c-2 62 -47 106 -107 106c-65 0 -127 -53 -127 -109c2 -47 43 -89 96 -123c12 -8 32 -16 33 -30zM233 364
c-35 28 -96 86 -96 165c0 128 135 213 261 213c88 0 177 -49 177 -140c0 -92 -82 -166 -152 -199c64 -39 124 -82 124 -166c0 -142 -150 -249 -285 -249c-120 0 -218 63 -218 168c0 103 106 172 189 208z" />
    <glyph glyph-name="nine" unicode="9" horiz-adv-x="542" 
d="M92 -26v55c160 -5 323 149 341 305c-26 -36 -81 -90 -173 -90c-94 0 -159 78 -159 194c0 151 108 304 264 304c127 0 196 -116 196 -269c0 -253 -204 -501 -469 -499zM439 501c0 98 -37 175 -97 175c-86 0 -124 -102 -124 -192c0 -94 39 -159 99 -159
c82 0 122 88 122 176z" />
    <glyph glyph-name="colon" unicode=":" horiz-adv-x="245" 
d="M79 78c0 34 28 62 63 62s63 -28 63 -62s-28 -62 -63 -62s-63 28 -63 62zM114 395c0 43 36 79 81 79s81 -36 81 -79s-36 -79 -81 -79s-81 36 -81 79z" />
    <glyph glyph-name="semicolon" unicode=";" horiz-adv-x="260" 
d="M130 390c0 34 28 62 63 62s63 -28 63 -62s-28 -62 -63 -62s-63 28 -63 62zM220 75l-4 -27c-25 -140 -141 -169 -222 -161v43c71 -9 139 14 151 70h-27c-31 9 -58 43 -54 82c5 47 41 76 85 76c45 0 77 -39 71 -83z" />
    <glyph glyph-name="less" unicode="&#x3c;" horiz-adv-x="500" 
d="M121 299l297 -207v-92l-388 274v51l483 273v-82z" />
    <glyph glyph-name="equal" unicode="=" horiz-adv-x="640" 
d="M88 414h544v-77h-544v77zM88 242h544v-77h-544v77z" />
    <glyph glyph-name="greater" unicode="&#x3e;" horiz-adv-x="500" 
d="M441 299l-297 207v92l388 -274v-51l-483 -273v82z" />
    <glyph glyph-name="question" unicode="?" horiz-adv-x="363" 
d="M126 285c0 125 183 201 183 312c0 39 -26 64 -64 64c-41 0 -69 -30 -69 -70v-112h-48v113c0 99 76 150 165 150c73 0 130 -50 130 -124c0 -150 -217 -213 -217 -330c0 -16 12 -28 30 -28c17 0 35 13 38 34l19 88h40l-19 -92c-12 -57 -55 -88 -106 -88
c-47 0 -82 34 -82 83zM119 61c0 -34 28 -61 63 -61s63 27 63 61s-28 61 -63 61s-63 -27 -63 -61z" />
    <glyph glyph-name="at" unicode="@" horiz-adv-x="789" 
d="M502 92h-6c-27 -56 -80 -93 -134 -93c-80 0 -144 61 -144 157c0 142 86 304 235 304c45 0 82 -30 100 -69l87 62h9l-77 -352c-5 -24 6 -41 25 -41c69 0 132 129 132 265c0 152 -91 253 -237 253c-206 0 -363 -191 -363 -428c0 -157 100 -261 266 -261h107v-56h-108
c-190 0 -326 125 -326 317c0 242 167 481 425 481c183 0 293 -131 293 -306c0 -173 -92 -325 -217 -325c-47 0 -74 37 -67 92zM378 55c49 0 86 50 106 117c11 37 21 82 25 121c7 67 -9 122 -56 122c-52 0 -86 -48 -109 -114c-12 -34 -22 -78 -26 -117c-7 -69 8 -129 60 -129
z" />
    <glyph glyph-name="A" unicode="A" horiz-adv-x="682" 
d="M458 102l-17 109h-212l-55 -108c0 -17 21 -66 34 -66h40v-37h-228v37h13c13 1 70 48 84 66l302 597l65 43l124 -641c10 -16 46 -65 58 -65h16v-37h-322v37h38c15 1 60 48 60 65zM388 521h-5l-131 -260h181z" />
    <glyph glyph-name="B" unicode="B" horiz-adv-x="650" 
d="M319 404h82c49 0 105 34 121 110c4 18 6 32 8 50c8 71 -40 118 -94 118h-40c-12 0 -35 -22 -37 -34zM568 411l-68 -19c56 -3 157 -40 157 -153c0 -166 -173 -239 -330 -239h-282v37h18c14 0 57 44 60 60l89 535c2 14 -28 59 -40 59h-44v37h315c125 0 222 -43 222 -152
c0 -68 -34 -129 -97 -165zM311 357l-46 -274c-2 -11 16 -33 25 -33h49c74 0 141 51 161 129c5 20 7 35 9 56c8 82 -56 122 -114 122h-84z" />
    <glyph glyph-name="C" unicode="C" horiz-adv-x="689" 
d="M487 692c-87 0 -174 -59 -210 -230c-14 -62 -23 -122 -30 -185c-14 -125 55 -214 165 -214c88 0 170 43 233 127h57c-63 -107 -173 -199 -322 -202c-182 -4 -280 117 -280 314c0 204 166 440 394 440c71 0 107 -34 159 -34c17 0 34 7 44 20h37l-61 -252h-39
c0 59 -30 216 -147 216z" />
    <glyph glyph-name="D" unicode="D" horiz-adv-x="683" 
d="M548 280c11 47 22 121 27 169c18 174 -46 232 -148 232h-21c-13 0 -48 -35 -49 -50l-90 -533c-3 -15 25 -48 35 -48h22c97 0 184 58 224 230zM128 728h303c161 0 282 -114 282 -296c0 -235 -177 -432 -402 -432h-266v37h18c13 0 56 40 59 58l90 537c2 14 -28 59 -40 59
h-44v37z" />
    <glyph glyph-name="E" unicode="E" horiz-adv-x="658" 
d="M693 728l-34 -199h-34c3 20 -71 151 -86 151h-159c-4 0 -18 -14 -19 -20l-43 -263h73c15 0 85 60 85 75v18h38v-239h-38v21c0 17 -70 76 -85 76h-82l-47 -276c0 -6 8 -22 13 -22h186c34 0 128 166 128 188h36v-238h-580v37h20c13 0 54 41 57 57l90 537
c3 17 -27 60 -40 60h-44v37h565z" />
    <glyph glyph-name="F" unicode="F" horiz-adv-x="616" 
d="M686 728l-44 -208h-34c4 28 -64 160 -84 160h-144c-5 0 -18 -14 -19 -20l-45 -274h96c13 0 88 59 88 74v30h39v-269h-39v40c0 16 -73 76 -87 76h-106l-40 -240c-3 -16 24 -60 37 -60h78v-37h-337v37h18c12 0 57 44 60 60l89 534c3 18 -28 60 -40 60h-44v37h558z" />
    <glyph glyph-name="G" unicode="G" horiz-adv-x="711" 
d="M510 742c83 0 114 -34 165 -34c18 0 34 7 44 20h37l-60 -252h-40c6 73 -35 216 -148 216c-99 0 -185 -63 -227 -228c-13 -51 -27 -139 -33 -192c-14 -130 36 -218 135 -218h11c47 0 103 36 123 73l-1 105c0 15 -36 59 -47 59h-87v39h373v-39h-61c-11 0 -50 -43 -50 -58
l1 -233h-12l-72 84c-43 -54 -101 -96 -185 -96c-175 0 -276 126 -276 307c0 214 162 447 410 447z" />
    <glyph glyph-name="H" unicode="H" horiz-adv-x="722" 
d="M316 396h248l40 235c1 14 -33 60 -44 60h-37v37h299v-37h-19c-10 0 -57 -46 -59 -60l-89 -534c-3 -16 25 -60 38 -60h38v-37h-321v37h44c12 0 57 44 60 60l41 244h-248l-41 -244c-3 -16 28 -60 39 -60h40v-37h-300v37h19c12 0 56 44 59 60l89 534c2 14 -32 60 -40 60h-44
v37h324v-37h-37c-10 0 -57 -46 -59 -60z" />
    <glyph glyph-name="I" unicode="I" horiz-adv-x="352" 
d="M361 0h-316v37h28c12 0 57 44 60 60l89 534c2 15 -28 60 -41 60h-50v37h321v-37h-28c-14 0 -59 -45 -61 -60l-90 -534c-2 -16 25 -60 38 -60h50v-37z" />
    <glyph glyph-name="J" unicode="J" horiz-adv-x="399" 
d="M103 -150c-53 0 -83 35 -83 91v59h52v-59c0 -21 13 -35 34 -35c33 0 55 25 59 62l77 662c2 15 -31 61 -42 61h-54v37h313v-37h-19c-13 0 -53 -46 -55 -61l-62 -522c-23 -123 -115 -258 -220 -258z" />
    <glyph glyph-name="K" unicode="K" horiz-adv-x="711" 
d="M377 329l-87 -91l-24 -141c-3 -17 26 -60 37 -60h34v-37h-292v37h19c14 0 56 43 59 60l89 534c3 16 -28 60 -40 60h-44v37h328v-37h-38c-13 0 -57 -45 -59 -60l-65 -310h7l289 301c12 13 -20 69 -32 69h-41v37h269v-37h-17c-13 0 -104 -63 -113 -73l-179 -186l154 -330
c7 -16 48 -65 61 -65h18v-37h-314v37h37c14 0 49 47 43 61z" />
    <glyph glyph-name="L" unicode="L" horiz-adv-x="603" 
d="M128 728h353v-37h-63c-12 0 -58 -43 -61 -60l-91 -543c-2 -13 15 -34 24 -34h131c37 0 120 180 123 210h39v-264h-538v37h20c12 0 55 43 57 59l90 535c3 17 -29 60 -41 60h-43v37z" />
    <glyph glyph-name="M" unicode="M" horiz-adv-x="877" 
d="M394 -27l-134 608h-5l-79 -484c-2 -14 29 -60 39 -60h23v-37h-193v37h19c13 0 55 44 58 60l90 534c2 15 -31 60 -41 60h-44v37h250l99 -503h6l287 503h208v-37h-18c-11 0 -57 -47 -59 -60l-89 -534c-3 -14 26 -60 37 -60h21v-37h-305v37h43c11 0 57 46 59 60l85 484h-6z
" />
    <glyph glyph-name="N" unicode="N" horiz-adv-x="708" 
d="M723 623l-107 -642l-339 617h-5l-78 -485c-3 -16 40 -76 52 -76h46v-37h-247v37h19c11 0 73 60 75 76l87 512c1 15 -31 66 -40 66h-41v37h223l241 -449h5l56 344c3 16 -33 68 -43 68h-44v37h225v-37h-19c-12 0 -63 -52 -66 -68z" />
    <glyph glyph-name="O" unicode="O" horiz-adv-x="762" 
d="M512 742c179 -1 294 -138 288 -316c-12 -223 -182 -438 -413 -438c-178 0 -289 132 -286 313c0 223 187 442 411 441zM504 689c-105 0 -196 -94 -226 -222c-14 -59 -31 -158 -37 -218c-13 -132 44 -202 155 -202c101 0 193 87 226 216c15 59 31 158 36 218
c11 132 -44 208 -154 208z" />
    <glyph glyph-name="P" unicode="P" horiz-adv-x="607" 
d="M433 683h-39c-11 0 -34 -22 -36 -34l-53 -311h46c72 0 153 48 171 121c7 29 13 60 15 91c6 77 -39 133 -104 133zM297 286l-31 -190c-2 -15 27 -59 39 -59h44v-37h-304v37h18c11 0 57 43 59 59l89 536c3 15 -28 59 -41 59h-42v37h316c127 0 228 -61 228 -179
c0 -158 -159 -272 -327 -265z" />
    <glyph glyph-name="Q" unicode="Q" horiz-adv-x="757" 
d="M790 432c0 -194 -129 -337 -290 -410v-4l103 -18l257 -196v-10h-163l-231 169c-22 17 -49 26 -85 25c-176 -5 -281 135 -281 315c0 224 182 439 408 439c177 0 282 -127 282 -310zM651 481c11 132 -43 208 -153 208c-96 0 -193 -93 -223 -221c-14 -59 -31 -158 -36 -218
c-11 -132 41 -201 151 -201c96 0 188 89 222 215c16 59 34 157 39 217z" />
    <glyph glyph-name="R" unicode="R" horiz-adv-x="676" 
d="M421 265c-12 39 -32 60 -52 60h-64l-38 -228c-2 -15 27 -60 40 -60h45v-37h-307v37h20c11 0 55 45 58 60l89 535c3 15 -28 59 -40 59h-44v37h317c130 0 230 -50 230 -166c0 -115 -102 -198 -227 -212l100 -18c42 -112 85 -210 127 -285c3 -5 11 -10 21 -10v-37l-147 -12
l-34 37c-38 79 -71 166 -94 240zM360 649l-47 -273h68c48 7 118 41 139 114c7 25 10 50 12 76c6 74 -42 117 -96 117h-40c-12 0 -34 -22 -36 -34z" />
    <glyph glyph-name="S" unicode="S" horiz-adv-x="578" 
d="M323 44c80 0 138 38 138 112c0 81 -84 117 -145 150c-96 52 -172 118 -172 216c0 131 102 219 241 219c58 0 105 -30 143 -30c17 0 38 6 48 17h32l-50 -206h-35c4 42 -55 172 -138 172c-74 0 -125 -41 -125 -106c0 -77 73 -116 130 -147c94 -51 188 -104 188 -219
c0 -142 -108 -233 -256 -233c-58 0 -99 32 -148 32c-21 0 -37 -8 -51 -21h-33v238h37c-5 -50 104 -194 196 -194z" />
    <glyph glyph-name="T" unicode="T" horiz-adv-x="664" 
d="M588 680h-76l-97 -583c-3 -15 25 -60 38 -60h51v-37h-345v37h51c13 0 57 46 60 60l97 583h-76c-28 0 -157 -164 -159 -190h-37s36 128 57 252h34c15 -14 91 -14 111 -14h298c21 0 94 0 115 14h34c-20 -124 -25 -252 -25 -252h-34c0 29 -74 190 -97 190z" />
    <glyph glyph-name="U" unicode="U" horiz-adv-x="709" 
d="M722 614l-48 -365c-22 -164 -145 -261 -300 -261c-143 0 -252 121 -222 285l65 354c2 11 -32 64 -39 64h-43v37h309v-37h-23c-9 0 -59 -53 -61 -64l-67 -367c-21 -117 38 -191 135 -190c105 1 180 79 193 177l48 367c1 13 -39 77 -48 77h-46v37h234v-37h-17
c-9 0 -68 -64 -70 -77z" />
    <glyph glyph-name="V" unicode="V" horiz-adv-x="670" 
d="M350 613l70 -405h4l197 404c5 18 -25 79 -39 79h-45v37h248v-37h-16c-11 0 -75 -59 -91 -80l-294 -583l-62 -38l-127 622c-7 15 -42 79 -54 79h-16v37h329v-37h-44c-15 0 -57 -58 -60 -78z" />
    <glyph glyph-name="W" unicode="W" horiz-adv-x="937" 
d="M557 522l-210 -493l-62 -39l-90 616c-3 17 -45 85 -57 85h-13v37h324v-37h-47c-13 0 -57 -64 -61 -83l40 -371h3l157 373l128 132l66 -504h4l150 370c3 19 -26 83 -37 83h-48v37h248v-37h-12c-12 0 -86 -68 -95 -84l-253 -578l-62 -39l-68 532h-5z" />
    <glyph glyph-name="X" unicode="X" horiz-adv-x="694" 
d="M146 119l206 228l-125 264c-5 13 -55 80 -69 80h-14v37h335v-37h-39c-10 0 -46 -60 -49 -76l65 -149h5l132 149c3 18 -17 76 -28 76h-41v37h260v-37h-13c-10 0 -83 -51 -107 -77l-180 -199l140 -296c7 -15 48 -82 62 -82h14v-37h-343v37h48c14 0 54 58 54 78l-79 180h-5
l-157 -179c-4 -18 17 -79 31 -79h44v-37h-263v37h18c12 0 80 61 98 82z" />
    <glyph glyph-name="Y" unicode="Y" horiz-adv-x="641" 
d="M448 304l-34 -207c-3 -14 26 -60 37 -60h51v-37h-339v37h51c10 0 54 46 57 60l36 208l-102 306c-5 13 -51 80 -65 80h-19v37h330v-37h-43c-12 0 -50 -57 -55 -76l70 -259h6l152 256c2 18 -15 79 -26 79h-42v37h237v-37h-17c-15 -3 -84 -64 -95 -80z" />
    <glyph glyph-name="Z" unicode="Z" horiz-adv-x="604" 
d="M510 679h-185c-18 0 -127 -136 -130 -153h-35l31 202h508l-488 -677h186c41 0 152 174 152 200h38v-251h-537v41z" />
    <glyph glyph-name="bracketleft" unicode="[" horiz-adv-x="342" 
d="M253 812h226l-9 -42h-91c-10 0 -44 -31 -46 -44l-151 -896c-2 -12 21 -44 31 -44h92l-8 -42h-224z" />
    <glyph glyph-name="backslash" unicode="\" horiz-adv-x="378" 
d="M126 816l57 10l199 -1050l-59 -11z" />
    <glyph glyph-name="bracketright" unicode="]" horiz-adv-x="343" 
d="M179 -256h-226l9 42h91c10 0 44 31 46 44l151 896c2 12 -21 44 -31 44h-93l8 42h225z" />
    <glyph glyph-name="asciicircum" unicode="^" horiz-adv-x="614" 
d="M84 288l321 440h47l173 -440h-76l-133 344l-249 -344h-83z" />
    <glyph glyph-name="underscore" unicode="_" horiz-adv-x="504" 
d="M0 0h504l-12 -71h-503z" />
    <glyph glyph-name="grave" unicode="`" horiz-adv-x="415" 
d="M175 713h129l30 -176h-36z" />
    <glyph glyph-name="a" unicode="a" horiz-adv-x="572" 
d="M387 90h-5c-45 -71 -107 -101 -160 -101c-94 0 -149 70 -149 174c0 152 114 327 264 327c54 0 96 -25 116 -78l92 67h9l-81 -371c-3 -15 16 -36 29 -36c8 0 38 25 47 36l19 -26c-20 -26 -86 -90 -131 -91c-48 -1 -57 49 -50 99zM248 54c54 0 100 56 122 121
c13 39 24 96 30 137c11 72 -5 129 -62 129c-54 0 -101 -54 -126 -122c-14 -38 -26 -92 -31 -133c-9 -71 12 -132 67 -132z" />
    <glyph glyph-name="b" unicode="b" horiz-adv-x="548" 
d="M390 490c98 0 160 -61 160 -183c0 -146 -111 -317 -266 -317c-63 0 -107 54 -122 85h-6l-81 -75h-9l108 634c3 16 -27 48 -37 48h-22v32c108 23 192 57 192 57l-59 -347c26 28 77 66 142 66zM359 429c-57 0 -118 -50 -132 -128c-9 -41 -19 -94 -22 -136
c-5 -73 31 -113 81 -113c51 0 105 51 126 127c12 42 22 95 23 137c2 69 -24 113 -76 113z" />
    <glyph glyph-name="c" unicode="c" horiz-adv-x="462" 
d="M326 447c-96 -14 -145 -119 -145 -232c0 -78 45 -131 118 -131c101 0 150 98 150 98h37c-47 -109 -141 -193 -243 -193c-104 0 -170 82 -170 189c0 142 104 312 271 312c79 0 123 -45 143 -72l-94 -118c-29 0 -40 24 -29 56c14 41 14 91 -38 91z" />
    <glyph glyph-name="d" unicode="d" horiz-adv-x="569" 
d="M427 444l30 180c2 18 -25 59 -37 59h-48v31c108 21 219 57 219 57l-112 -661c-2 -16 15 -37 28 -37c8 0 36 25 46 35l19 -26c-18 -21 -84 -91 -129 -91c-48 0 -55 51 -51 98h-5c-48 -64 -106 -100 -157 -100c-97 0 -157 62 -157 173c0 152 109 328 259 328
c40 0 68 -13 95 -46zM250 53c64 0 104 56 122 122c11 40 22 96 27 137c9 72 -11 129 -68 129c-56 0 -99 -53 -121 -122c-13 -40 -25 -92 -29 -133c-7 -71 11 -133 69 -133z" />
    <glyph glyph-name="e" unicode="e" horiz-adv-x="463" 
d="M293 249c-43 -8 -72 -11 -108 -15c-13 -84 20 -151 100 -151c61 0 119 42 153 99h37c-47 -111 -139 -193 -232 -193c-116 0 -170 87 -170 191c0 141 121 310 256 310c73 0 128 -32 128 -104c0 -75 -77 -121 -164 -137zM188 268c20 3 62 10 106 22c47 13 89 48 89 92
c0 38 -24 65 -59 65c-65 -7 -125 -103 -136 -179z" />
    <glyph glyph-name="f" unicode="f" horiz-adv-x="306" 
d="M73 37l87 360c3 13 -19 47 -31 47h-59v35h109l19 61c35 118 122 226 220 226c38 0 64 -26 64 -60c0 -42 -31 -70 -69 -78h-24c-27 6 -49 32 -42 63h-10c-13 -6 -35 -29 -40 -53c-10 -48 21 -75 10 -124l-9 -35h94v-35h-103l-112 -455c-26 -120 -115 -203 -212 -203
c-37 0 -62 31 -60 65c2 38 26 67 67 74h23c26 -6 50 -33 46 -66h9c22 8 46 31 50 55c11 59 -42 60 -27 123z" />
    <glyph glyph-name="g" unicode="g" horiz-adv-x="502" 
d="M136 -40c-21 -5 -61 -24 -66 -51c-6 -35 116 -82 158 -82c43 1 156 8 156 68c0 16 -14 26 -37 26c-118 -2 -218 -3 -211 39zM479 305c-15 -95 -101 -184 -221 -184h-63c-39 -7 -54 -25 -54 -51c0 -22 19 -38 49 -41c53 -6 104 -6 174 -5c62 1 106 -32 106 -83
c0 -102 -118 -155 -249 -155c-129 0 -230 36 -230 100c0 50 64 80 121 95c-34 3 -76 29 -76 66c0 55 73 90 147 105c-33 9 -95 54 -95 133c0 124 96 205 217 205c83 0 136 -65 129 -149h6c5 70 22 202 91 192l31 -148h-27c-17 0 -53 -61 -56 -80zM259 178c51 0 88 35 102 88
c6 23 12 53 14 78c4 59 -25 100 -71 100c-51 0 -89 -33 -103 -92c-6 -25 -11 -53 -13 -77c-4 -52 21 -97 71 -97z" />
    <glyph glyph-name="h" unicode="h" horiz-adv-x="543" 
d="M336 101c20 82 54 182 75 245c7 21 -27 58 -46 58c-36 0 -129 -90 -131 -104l-52 -300h-116l110 634c3 17 -24 48 -36 48h-23v31c99 23 194 57 194 57l-68 -403c45 47 123 123 182 123c75 0 122 -72 99 -142c-22 -68 -55 -171 -75 -242c-4 -17 15 -35 28 -35
c10 0 39 25 49 37l19 -26c-25 -34 -81 -91 -126 -91c-54 0 -98 47 -83 110z" />
    <glyph glyph-name="i" unicode="i" horiz-adv-x="295" 
d="M91 76c2 51 48 253 51 271c3 16 -26 49 -37 49h-39v32c101 23 214 64 214 64c-14 -69 -65 -333 -73 -384c-2 -16 15 -37 28 -37c8 0 36 25 46 35l19 -26c-18 -21 -86 -90 -131 -91c-48 -1 -80 40 -78 87zM175 628c0 39 32 72 73 72c40 0 73 -33 73 -72s-33 -72 -73 -72
c-41 0 -73 33 -73 72z" />
    <glyph glyph-name="j" unicode="j" horiz-adv-x="292" 
d="M75 -129l81 454c3 17 -25 59 -36 59h-46v30c122 33 226 78 226 78l-89 -513c-16 -92 -93 -193 -174 -193c-44 0 -74 28 -65 82l13 78h41l-13 -77c-3 -18 8 -33 24 -33c17 0 35 15 38 35zM190 628c0 34 28 62 63 62s63 -28 63 -62s-28 -62 -63 -62s-63 28 -63 62z" />
    <glyph glyph-name="k" unicode="k" horiz-adv-x="510" 
d="M353 35l-84 180l-59 -55l-26 -160h-118l109 633c3 15 -26 49 -38 49h-27v30c104 21 202 58 202 58l-106 -556h7l165 164c10 10 -15 66 -33 66h-50l6 35h276v-35h-20c-17 0 -109 -61 -125 -76l-75 -69l109 -215c7 -14 26 -41 41 -48v-36l-115 -12z" />
    <glyph glyph-name="l" unicode="l" horiz-adv-x="281" 
d="M75 76c0 37 101 557 101 557c2 15 -28 49 -38 49h-24v31c105 24 194 58 194 58l-115 -663c-3 -16 15 -37 28 -37c8 0 36 25 46 35l19 -26c-18 -21 -86 -90 -131 -91c-48 -1 -80 40 -80 87z" />
    <glyph glyph-name="m" unicode="m" horiz-adv-x="809" 
d="M603 101l64 244c6 25 -15 63 -38 63c-38 0 -116 -92 -119 -108l-53 -300h-114l63 344c5 27 -15 64 -38 64c-37 0 -115 -93 -118 -109l-52 -299h-115l63 350c2 16 -24 48 -36 48h-41v30c80 22 168 63 168 63v-144h5c40 55 116 143 178 143c65 0 103 -74 85 -142
c40 52 117 142 181 142c75 0 112 -71 94 -142l-65 -242c-4 -15 15 -37 28 -37c8 0 40 28 49 39l19 -26c-18 -21 -82 -90 -127 -91c-48 -1 -96 51 -81 110z" />
    <glyph glyph-name="n" unicode="n" horiz-adv-x="563" 
d="M385 404c-36 0 -131 -90 -133 -104l-53 -300h-116l62 350c2 14 -24 48 -36 48h-40v30c83 26 176 63 176 63v-138h5c45 50 136 137 195 137c75 0 122 -72 99 -142c-22 -68 -55 -171 -75 -242c-4 -17 15 -35 28 -35c10 0 39 25 49 37l19 -26c-25 -34 -81 -91 -126 -91
c-54 0 -98 47 -83 110c20 82 54 182 75 245c7 21 -27 58 -46 58z" />
    <glyph glyph-name="o" unicode="o" horiz-adv-x="519" 
d="M262 45c53 0 110 56 128 129c13 52 21 100 25 153c6 73 -26 113 -83 113c-52 0 -106 -53 -125 -127c-13 -50 -21 -99 -25 -149c-6 -76 23 -119 80 -119zM256 -11c-114 0 -186 76 -186 200c0 151 118 301 267 301c116 0 187 -81 187 -203c0 -153 -119 -298 -268 -298z" />
    <glyph glyph-name="p" unicode="p" horiz-adv-x="568" 
d="M245 491v-95c27 38 89 94 164 94c98 0 161 -61 161 -183c0 -146 -111 -317 -266 -317c-53 0 -88 37 -101 83h-5l-23 -188c-2 -19 23 -55 35 -55h45v-36h-270v36h19c12 0 51 36 54 55l79 463c2 14 -28 48 -38 48h-34v30c96 27 180 65 180 65zM379 429
c-57 0 -117 -50 -132 -128c-8 -41 -18 -90 -22 -132c-7 -73 31 -117 81 -117c51 0 101 52 125 127c13 41 23 95 24 137c2 69 -26 113 -76 113z" />
    <glyph glyph-name="q" unicode="q" horiz-adv-x="531" 
d="M448 414l89 65h10l-124 -685h-112l45 206l22 75h-5c-46 -59 -92 -86 -143 -86c-97 0 -157 62 -157 173c0 152 109 328 259 328c51 0 90 -21 116 -76zM249 53c64 0 105 56 123 122c11 40 22 96 27 137c9 72 -11 129 -68 129c-56 0 -99 -53 -121 -122
c-13 -40 -25 -92 -29 -133c-7 -71 10 -133 68 -133z" />
    <glyph glyph-name="r" unicode="r" horiz-adv-x="393" 
d="M224 299h4c26 55 43 95 60 123c30 51 57 68 92 68c16 0 32 -4 50 -11v-81l-27 -29h-45c-43 0 -75 -35 -114 -105l-44 -264h-115l59 342c3 17 -27 48 -39 48h-36v30c77 28 155 71 155 71v-192z" />
    <glyph glyph-name="s" unicode="s" horiz-adv-x="427" 
d="M212 -11c-59 0 -138 43 -160 94c-23 52 65 82 84 29c12 -33 58 -70 94 -70c55 0 94 20 94 65c0 48 -64 64 -98 80c-63 29 -127 67 -127 137c0 92 85 165 189 165c54 0 122 -29 147 -83c23 -49 -61 -78 -77 -32c-11 31 -50 69 -82 69c-50 0 -88 -21 -88 -62s55 -65 96 -83
c57 -25 136 -55 136 -135c0 -97 -94 -174 -208 -174z" />
    <glyph glyph-name="t" unicode="t" horiz-adv-x="342" 
d="M274 422l-54 -305c-3 -19 19 -46 34 -46c23 0 65 38 75 48l20 -31c-18 -23 -99 -98 -157 -99c-47 -1 -103 47 -92 111l50 288c2 11 -15 36 -23 36h-58v55h96l64 129h78l-25 -129h110v-57h-118z" />
    <glyph glyph-name="u" unicode="u" horiz-adv-x="559" 
d="M280 380l-69 -237c-10 -36 7 -69 40 -69c31 0 91 47 127 89l55 316h113l-64 -366c-2 -13 15 -36 27 -36c10 0 36 24 47 34l19 -27c-18 -19 -85 -92 -127 -93c-51 -1 -72 44 -70 94l1 21h-5c-54 -61 -117 -118 -185 -118s-111 75 -94 141l72 242c4 14 -15 37 -28 37
c-8 0 -36 -25 -46 -35l-23 23c18 21 87 93 132 94c56 1 94 -53 78 -110z" />
    <glyph glyph-name="v" unicode="v" horiz-adv-x="464" 
d="M276 167l119 221c8 13 -6 56 -17 56h-41v35h182v-35h-14c-11 0 -47 -37 -58 -56l-207 -363l-59 -36s-37 242 -69 399c-6 18 -36 56 -47 56h-22v35h192v-91c17 -96 35 -221 35 -221h6z" />
    <glyph glyph-name="w" unicode="w" horiz-adv-x="680" 
d="M496 184l97 202c7 14 -10 58 -21 58h-45l-8 35h201v-35h-18c-10 0 -49 -42 -60 -58l-182 -359l-54 -39s-20 208 -44 331h-5l-145 -292l-56 -39s-26 243 -50 397c-3 16 -32 59 -43 59h-20v35h178v-92c12 -96 22 -204 22 -204h4l100 225l96 106c28 -145 49 -330 49 -330h4z
" />
    <glyph glyph-name="x" unicode="x" horiz-adv-x="561" 
d="M331 296l92 86c9 14 -7 62 -17 62h-34v35h214v-35h-12c-12 -1 -84 -52 -95 -63l-127 -118l118 -167c7 -10 46 -60 59 -60h33v-36h-273v36h34c12 0 33 50 27 61l-74 109l-102 -109c-11 -13 10 -61 21 -61h35v-36h-220v36h14c12 1 80 52 90 62l141 144l-103 142
c-7 10 -46 60 -58 60h-36v35h271v-35h-32c-11 0 -31 -50 -24 -62z" />
    <glyph glyph-name="y" unicode="y" horiz-adv-x="453" 
d="M108 384c-5 15 -36 60 -47 60h-18v35h189v-96c17 -97 36 -224 36 -224h7l120 227c4 19 -14 58 -26 58h-32v35h185v-35h-15c-9 0 -49 -42 -61 -58l-205 -361l-110 -231h-67l115 232s-34 205 -71 358z" />
    <glyph glyph-name="z" unicode="z" horiz-adv-x="469" 
d="M30 36l352 352l-178 -2c-17 0 -60 -42 -66 -60h-28v153h414v-11l-369 -374l187 2c29 0 90 58 90 76h27l-26 -172h-403v36z" />
    <glyph glyph-name="braceleft" unicode="{" horiz-adv-x="342" 
d="M98 296v37c18 4 32 7 57 14c64 19 84 62 74 126c-8 53 -36 269 143 296v-39c-133 -36 -47 -138 -47 -240c0 -98 -82 -175 -177 -177c59 0 127 -38 127 -123c0 -116 -178 -250 -41 -291l-14 -39c-73 16 -96 64 -96 118c0 70 38 148 52 178c22 49 20 103 -29 123
c-21 9 -36 14 -49 17z" />
    <glyph glyph-name="bar" unicode="|" horiz-adv-x="276" 
d="M157 -206v976h60v-976h-60z" />
    <glyph glyph-name="braceright" unicode="}" horiz-adv-x="342" 
d="M341 333v-37c-9 -2 -25 -5 -57 -14c-64 -18 -84 -63 -74 -126c8 -53 36 -269 -143 -296v39c133 36 47 138 47 240c0 98 82 175 177 177c-59 0 -127 38 -127 123c0 116 178 250 41 291l14 39c73 -16 96 -64 96 -118c0 -70 -38 -148 -52 -178c-22 -49 -20 -102 29 -123
c26 -11 35 -13 49 -17z" />
    <glyph glyph-name="asciitilde" unicode="~" horiz-adv-x="620" 
d="M520 306c49 0 77 25 77 65h41c24 -91 -35 -173 -134 -173c-87 0 -238 78 -316 78c-49 0 -77 -25 -77 -65h-41c-24 91 35 173 134 173c105 0 250 -78 316 -78z" />
    <glyph glyph-name="nbspace" unicode="&#xa0;" horiz-adv-x="280" 
 />
    <glyph glyph-name="exclamdown" unicode="&#xa1;" horiz-adv-x="259" 
d="M212 321v-454c0 -50 -41 -81 -89 -81c-44 0 -78 32 -72 80l137 455h24zM293 448c0 -43 -36 -79 -81 -79s-81 36 -81 79s36 79 81 79s81 -36 81 -79z" />
    <glyph glyph-name="cent" unicode="&#xa2;" horiz-adv-x="505" 
d="M348 -7l-18 122c-20 -6 -42 -9 -65 -9c-102 0 -172 88 -172 195c0 112 58 237 167 285l-22 141l42 7l21 -135c17 4 34 6 53 6c79 0 123 -45 143 -72l-110 -120h-39l37 56c25 41 3 93 -49 93c-10 0 -20 -1 -29 -4l54 -358c54 22 92 80 104 145h37
c-14 -95 -63 -172 -131 -212l21 -132zM310 190h9l-52 349c-53 -36 -81 -120 -81 -205c0 -81 45 -144 124 -144z" />
    <glyph glyph-name="sterling" unicode="&#xa3;" horiz-adv-x="565" 
d="M252 343h-106v47h117c14 51 20 97 25 199c5 101 70 153 171 153c69 0 119 -50 119 -130v-65h-45v65c0 36 -23 63 -56 63c-44 0 -70 -31 -71 -78c-1 -87 -17 -160 -32 -207h99v-47h-110l-19 -45h161v-47h-179c-46 -71 -116 -130 -149 -145c47 2 116 6 253 3
c13 0 65 49 65 49h37l-77 -158h-402l-15 32c100 62 159 126 189 219h-119v47h132z" />
    <glyph glyph-name="currency" unicode="&#xa4;" horiz-adv-x="607" 
d="M86 297c0 54 18 104 48 145l-51 52l51 52l51 -52c41 31 93 50 148 50s106 -19 147 -50l50 50l50 -50l-50 -50c31 -41 50 -92 50 -147s-19 -107 -50 -148l53 -52l-52 -51l-53 52c-41 -30 -91 -48 -145 -48c-55 0 -107 18 -148 49l-50 -50l-50 50l50 50
c-31 41 -49 93 -49 148zM217 232l51 -51l-36 -36c29 -19 63 -30 101 -30c36 0 70 10 99 29l-36 36l52 52l36 -37c20 29 31 64 31 102c0 37 -11 72 -31 101l-36 -36l-50 50l36 36c-29 20 -64 31 -101 31c-38 0 -73 -11 -102 -31l37 -36l-52 -52l-36 36
c-19 -29 -29 -63 -29 -99c0 -38 11 -72 30 -101z" />
    <glyph glyph-name="yen" unicode="&#xa5;" horiz-adv-x="614" 
d="M406 253h148v-47h-161l-19 -109c-3 -14 28 -60 38 -60h47v-37h-327v37h47c10 0 54 46 57 60l21 109h-150v47h154l-9 45h-124v47h115l-65 266c-4 13 -52 80 -66 80h-33v37h334v-37h-37c-11 0 -45 -57 -50 -76l58 -291h7l153 288c2 18 -27 79 -38 79h-39v37h243v-37h-12
c-15 -3 -86 -64 -97 -80l-144 -266h117v-47h-143z" />
    <glyph glyph-name="brokenbar" unicode="&#xa6;" horiz-adv-x="299" 
d="M159 400v370h69v-370h-69zM159 -206v370h69v-370h-69z" />
    <glyph glyph-name="section" unicode="&#xa7;" horiz-adv-x="542" 
d="M242 462c-28 -20 -57 -57 -57 -96c0 -42 24 -74 64 -85c54 -15 134 -41 140 -70c29 21 58 58 58 97c0 42 -24 74 -64 85c-54 15 -134 41 -141 69zM422 194c45 -20 82 -78 82 -128c0 -121 -92 -197 -198 -197c-41 0 -78 25 -121 25c-15 0 -27 -6 -38 -17h-32l41 236h33
c1 -75 31 -196 112 -196c63 0 106 40 106 102c0 41 -22 72 -69 96c-37 19 -76 34 -116 49c-76 29 -128 60 -128 154c0 69 51 121 116 161c-45 21 -82 79 -82 129c0 121 92 197 198 197c41 0 78 -25 121 -25c15 0 27 6 38 17h32l-41 -236h-33c-1 75 -31 196 -112 196
c-63 0 -106 -40 -106 -102c0 -41 22 -72 69 -96c41 -21 81 -37 125 -52c68 -23 119 -73 119 -151c0 -70 -51 -122 -116 -162z" />
    <glyph glyph-name="dieresis" unicode="&#xa8;" horiz-adv-x="415" 
d="M470 621c0 -34 -28 -62 -63 -62s-63 28 -63 62s28 62 63 62s63 -28 63 -62zM266 621c0 -34 -28 -62 -63 -62s-63 28 -63 62s28 62 63 62s63 -28 63 -62z" />
    <glyph glyph-name="copyright" unicode="&#xa9;" horiz-adv-x="743" 
d="M476 551c-53 0 -105 -36 -129 -134c-9 -37 -12 -63 -16 -101c-5 -74 35 -123 101 -123c50 0 101 33 135 89h43c-37 -76 -108 -143 -197 -143c-109 0 -172 74 -172 179c0 137 94 273 236 273c40 0 62 -20 93 -20c8 0 25 5 31 14l20 -18l-20 -143h-33c3 20 -24 127 -92 127
zM492 741c178 0 280 -134 280 -315c0 -224 -168 -437 -394 -437c-175 0 -279 133 -279 310c0 217 164 442 393 442zM381 39c195 0 340 192 340 388c0 154 -90 267 -232 267c-196 0 -338 -198 -338 -396c0 -149 83 -259 230 -259z" />
    <glyph glyph-name="ordfeminine" unicode="&#xaa;" horiz-adv-x="434" 
d="M343 431h-4c-36 -48 -80 -77 -119 -77c-73 0 -123 52 -123 132c0 122 87 251 201 251c39 0 66 -15 89 -58l75 49h8l-61 -283c-3 -12 11 -28 21 -28c6 0 29 19 36 27l14 -20c-16 -19 -64 -68 -98 -68c-37 -1 -42 39 -39 75zM235 411c47 0 76 46 93 96c10 30 16 54 21 84
c9 55 -9 101 -52 101s-76 -43 -94 -95c-10 -28 -16 -51 -21 -82c-9 -54 9 -104 53 -104z" />
    <glyph glyph-name="guillemotleft" unicode="&#xab;" horiz-adv-x="565" 
d="M147 298l139 -167v-93l-199 232v58l274 232v-81zM351 298l138 -167v-93l-198 232v58l274 232v-81z" />
    <glyph glyph-name="logicalnot" unicode="&#xac;" horiz-adv-x="565" 
d="M450 58v193h-366v88h456v-234z" />
    <glyph glyph-name="uni00AD" unicode="&#xad;" horiz-adv-x="309" 
d="M80 330h264l-20 -115h-265z" />
    <glyph glyph-name="registered" unicode="&#xae;" horiz-adv-x="743" 
d="M404 382h42c29 0 64 19 76 62c4 15 6 28 7 42c3 45 -23 66 -54 66h-20c-7 0 -27 -17 -28 -25zM399 347l-23 -121v-59h-164v29h39c6 0 33 27 34 35l51 289c1 7 -18 34 -24 34h-17v28h187c72 0 140 -33 140 -100c0 -63 -54 -103 -125 -122l44 -18c12 -36 29 -87 68 -155
l-15 -20l-81 -12c-37 60 -63 192 -80 192h-34zM492 741c178 0 280 -134 280 -315c0 -224 -168 -437 -394 -437c-175 0 -279 133 -279 310c0 217 164 442 393 442zM381 39c195 0 340 192 340 388c0 154 -90 267 -232 267c-196 0 -338 -198 -338 -396c0 -149 83 -259 230 -259
z" />
    <glyph glyph-name="macron" unicode="&#xaf;" horiz-adv-x="415" 
d="M187 648h242l-16 -78h-243z" />
    <glyph glyph-name="degree" unicode="&#xb0;" horiz-adv-x="368" 
d="M113 597c0 81 66 145 149 145s150 -64 150 -144c0 -81 -67 -145 -150 -145s-149 63 -149 144zM173 597c0 -50 39 -91 89 -91s90 39 90 91s-40 92 -90 92s-89 -40 -89 -92z" />
    <glyph glyph-name="plusminus" unicode="&#xb1;" horiz-adv-x="577" 
d="M107 74h425v-74h-425v74zM361 572v-171h170v-75h-170v-169h-81v169h-173v75h173v171h81z" />
    <glyph glyph-name="two.sups" unicode="&#xb2;" 
d="M164 596l181 2v-72h-257v29c15 33 61 85 171 166c34 25 56 50 56 87c0 35 -26 60 -61 60c-43 0 -86 -40 -105 -60l-21 24c43 50 104 93 165 93c55 0 103 -41 103 -98c0 -69 -52 -115 -115 -147c-39 -20 -95 -56 -117 -84z" />
    <glyph glyph-name="three.sups" unicode="&#xb3;" 
d="M183 726v30l54 18c22 14 44 35 44 63c0 22 -16 37 -40 37c-26 0 -66 -25 -94 -46l-10 33c44 34 100 63 150 63c36 0 65 -22 65 -63c0 -40 -40 -77 -82 -97c39 5 88 -19 88 -67c0 -108 -155 -172 -252 -183v39c61 10 174 47 174 129c0 43 -43 59 -97 44z" />
    <glyph glyph-name="acute" unicode="&#xb4;" horiz-adv-x="415" 
d="M345 713h141l-191 -176h-37z" />
    <glyph glyph-name="uni00B5" unicode="&#xb5;" horiz-adv-x="561" 
d="M378 164l55 315h113l-64 -366c-2 -13 15 -36 27 -36c10 0 36 24 47 34l19 -27c-18 -19 -85 -92 -127 -93c-51 -1 -72 44 -70 94l1 21h-5c-54 -61 -122 -113 -188 -106l-28 -154l-125 -61l122 603c2 14 -23 56 -35 56h-29v35h193l-72 -334c-6 -37 6 -69 39 -69
c28 0 91 46 127 88z" />
    <glyph glyph-name="paragraph" unicode="&#xb6;" horiz-adv-x="433" 
d="M427 631l-128 -780l-75 -59l149 889h-52l-149 -887h-63l111 646h-35c-63 0 -108 51 -108 118c0 85 63 170 157 170h272v-37h-16c-14 0 -61 -45 -63 -60z" />
    <glyph glyph-name="periodcentered" unicode="&#xb7;" horiz-adv-x="293" 
d="M289 340c0 -44 -37 -81 -83 -81s-83 37 -83 81s37 81 83 81s83 -37 83 -81z" />
    <glyph glyph-name="cedilla" unicode="&#xb8;" horiz-adv-x="415" 
d="M167 -79l45 94h52l-53 -75c15 10 29 14 47 14c39 0 66 -27 66 -64c0 -65 -60 -103 -128 -103c-43 0 -76 23 -91 51l35 27c13 -19 33 -31 57 -31c33 0 59 20 59 47c0 19 -14 30 -32 30c-13 0 -22 -4 -34 -10z" />
    <glyph glyph-name="one.sups" unicode="&#xb9;" horiz-adv-x="332" 
d="M322 931l-56 -337c-2 -10 14 -33 20 -33h32v-35h-198v35h29c6 0 30 23 32 33l36 198c1 9 -11 27 -18 27h-36v28c77 8 116 65 116 65z" />
    <glyph glyph-name="ordmasculine" unicode="&#xba;" horiz-adv-x="435" 
d="M271 400c46 0 74 33 92 94c9 31 15 66 18 99c5 57 -14 104 -54 104c-48 0 -75 -38 -92 -98c-9 -32 -16 -66 -20 -99c-7 -56 14 -100 56 -100zM271 354c-90 0 -147 61 -147 156c0 115 87 227 204 227c80 0 146 -56 146 -151c0 -122 -88 -232 -203 -232z" />
    <glyph glyph-name="guillemotright" unicode="&#xbb;" horiz-adv-x="565" 
d="M505 299l-139 167v93l199 -232v-58l-274 -232v81zM301 299l-138 167v93l198 -232v-58l-274 -232v81z" />
    <glyph glyph-name="onequarter" unicode="&#xbc;" horiz-adv-x="729" 
d="M537 63l4 23h-156v36c128 130 235 257 235 257l57 18l-44 -265h45v-46h-53l-4 -23c-2 -10 14 -33 22 -33h14v-30h-192v30h38c7 0 32 23 34 33zM678 728h61l-572 -728h-58zM331 742l-56 -337c-2 -10 14 -33 20 -33h32v-35h-198v35h29c6 0 30 23 32 33l36 198
c1 9 -11 27 -18 27h-36v28c77 8 116 65 116 65zM547 129l24 142s-59 -72 -129 -142h105z" />
    <glyph glyph-name="onehalf" unicode="&#xbd;" horiz-adv-x="734" 
d="M676 72l-181 -2c22 28 78 64 117 84c63 32 115 78 115 147c0 57 -48 98 -103 98c-61 0 -122 -43 -165 -93l21 -24c19 20 62 60 105 60c35 0 61 -25 61 -60c0 -37 -22 -62 -56 -87c-110 -81 -156 -133 -171 -166v-29h257v72zM678 728h61l-572 -728h-58zM331 742l-56 -337
c-2 -10 14 -33 20 -33h32v-35h-198v35h29c6 0 30 23 32 33l36 198c1 9 -11 27 -18 27h-36v28c77 8 116 65 116 65z" />
    <glyph glyph-name="threequarters" unicode="&#xbe;" horiz-adv-x="738" 
d="M537 63l4 23h-156v36c128 130 235 257 235 257l57 18l-44 -265h45v-46h-53l-4 -23c-2 -10 14 -33 22 -33h14v-30h-192v30h38c7 0 32 23 34 33zM678 728h61l-572 -728h-58zM202 537v30l54 18c22 14 44 35 44 63c0 22 -16 37 -40 37c-26 0 -66 -25 -94 -46l-10 33
c44 34 100 63 150 63c36 0 65 -22 65 -63c0 -40 -40 -77 -82 -97c39 5 88 -19 88 -67c0 -108 -155 -172 -252 -183v39c61 10 174 47 174 129c0 43 -43 59 -97 44zM547 129l24 142s-59 -72 -129 -142h105z" />
    <glyph glyph-name="questiondown" unicode="&#xbf;" horiz-adv-x="363" 
d="M328 243c0 -125 -183 -201 -183 -312c0 -39 26 -64 64 -64c41 0 69 30 69 70v112h48v-113c0 -99 -76 -150 -165 -150c-73 0 -130 50 -130 124c0 150 217 213 217 330c0 16 -12 28 -30 28c-17 0 -35 -13 -38 -34l-19 -88h-40l19 92c12 57 55 88 106 88c47 0 82 -34 82 -83
zM210 465c0 34 28 61 63 61s63 -27 63 -61s-28 -61 -63 -61s-63 27 -63 61z" />
    <glyph glyph-name="Agrave" unicode="&#xc0;" horiz-adv-x="682" 
d="M441 211l17 -109c0 -17 -45 -64 -60 -65h-38v-37h322v37h-16c-12 0 -48 49 -58 65l-124 641l-65 -43l-302 -597c-14 -18 -71 -65 -84 -66h-13v-37h228v37h-40c-13 0 -34 49 -34 66l55 108h212zM383 521h5l45 -260h-181zM293 917h163l46 -140h-47z" />
    <glyph glyph-name="Aacute" unicode="&#xc1;" horiz-adv-x="682" 
d="M458 102l-17 109h-212l-55 -108c0 -17 21 -66 34 -66h40v-37h-228v37h13c13 1 70 48 84 66l302 597l65 43l124 -641c10 -16 46 -65 58 -65h16v-37h-322v37h38c15 1 60 48 60 65zM388 521h-5l-131 -260h181zM507 917h162l-209 -140h-49z" />
    <glyph glyph-name="Acircumflex" unicode="&#xc2;" horiz-adv-x="682" 
d="M441 211l17 -109c0 -17 -45 -64 -60 -65h-38v-37h322v37h-16c-12 0 -48 49 -58 65l-124 641l-65 -43l-302 -597c-14 -18 -71 -65 -84 -66h-13v-37h228v37h-40c-13 0 -34 49 -34 66l55 108h212zM383 521h5l45 -260h-181zM448 931h100l62 -154h-40l-81 77l-135 -77h-46z
" />
    <glyph glyph-name="Atilde" unicode="&#xc3;" horiz-adv-x="682" 
d="M458 102l-17 109h-212l-55 -108c0 -17 21 -66 34 -66h40v-37h-228v37h13c13 1 70 48 84 66l302 597l65 43l124 -641c10 -16 46 -65 58 -65h16v-37h-322v37h38c15 1 60 48 60 65zM388 521h-5l-131 -260h181zM614 820l-27 -21c-1 22 -13 40 -40 39
c-45 -2 -101 -51 -156 -51c-47 0 -74 37 -66 97l27 21c0 -22 18 -39 40 -39c54 0 102 50 156 50c47 0 75 -37 66 -96z" />
    <glyph glyph-name="Adieresis" unicode="&#xc4;" horiz-adv-x="682" 
d="M441 211l17 -109c0 -17 -45 -64 -60 -65h-38v-37h322v37h-16c-12 0 -48 49 -58 65l-124 641l-65 -43l-302 -597c-14 -18 -71 -65 -84 -66h-13v-37h228v37h-40c-13 0 -34 49 -34 66l55 108h212zM383 521h5l45 -260h-181zM646 840c0 -39 -31 -70 -71 -70s-72 31 -72 70
c0 38 32 70 72 70s71 -32 71 -70zM432 840c0 -39 -31 -70 -71 -70s-72 31 -72 70c0 38 32 70 72 70s71 -32 71 -70z" />
    <glyph glyph-name="Aring" unicode="&#xc5;" horiz-adv-x="682" 
d="M458 102l-17 109h-212l-55 -108c0 -17 21 -66 34 -66h40v-37h-228v37h13c13 1 70 48 84 66l302 597l65 43l124 -641c10 -16 46 -65 58 -65h16v-37h-322v37h38c15 1 60 48 60 65zM388 521h-5l-131 -260h181zM361 865c0 59 54 108 111 108c58 0 110 -49 110 -108
c0 -61 -52 -108 -110 -108c-57 0 -111 47 -111 108zM415 865c0 -34 23 -57 57 -57c33 0 56 23 56 57c0 33 -23 56 -56 56c-34 0 -57 -23 -57 -56z" />
    <glyph glyph-name="AE" unicode="&#xc6;" horiz-adv-x="910" 
d="M427 699l62 29h455l-34 -199h-33c3 20 -72 151 -87 151h-267c-5 0 -20 -17 -19 -23l46 -258h114c13 0 75 60 75 75v16h39l-2 -239h-37v23c0 16 -61 76 -75 76h-107l51 -278c1 -6 16 -22 21 -22h84c35 0 126 160 126 188h37v-238h-522v37h35c14 1 56 48 59 65l-15 109
h-212l-56 -108c0 -17 19 -66 32 -66h34v-37h-224v37h17c13 0 71 48 84 66zM388 521h-6l-135 -260h179z" />
    <glyph glyph-name="Ccedilla" unicode="&#xc7;" horiz-adv-x="689" 
d="M283 -79l34 71c-142 22 -217 137 -217 310c0 204 166 440 394 440c71 0 107 -34 159 -34c17 0 34 7 44 20h37l-61 -252h-39c0 59 -30 216 -147 216c-87 0 -174 -59 -210 -230c-14 -62 -23 -122 -30 -185c-14 -125 55 -214 165 -214c88 0 170 43 233 127h57
c-63 -107 -173 -199 -322 -202h-19l-34 -48c15 10 29 14 47 14c39 0 66 -27 66 -64c0 -65 -60 -103 -128 -103c-43 0 -76 23 -91 51l35 27c13 -19 33 -31 57 -31c33 0 59 20 59 47c0 19 -14 30 -32 30c-13 0 -22 -4 -34 -10z" />
    <glyph glyph-name="Egrave" unicode="&#xc8;" horiz-adv-x="658" 
d="M659 529l34 199h-565v-37h44c13 0 43 -43 40 -60l-90 -537c-3 -16 -44 -57 -57 -57h-20v-37h580v238h-36c0 -22 -94 -188 -128 -188h-186c-5 0 -13 16 -13 22l47 276h82c15 0 85 -59 85 -76v-21h38v239h-38v-18c0 -15 -70 -75 -85 -75h-73l43 263c1 6 15 20 19 20h159
c15 0 89 -131 86 -151h34zM285 917h163l46 -140h-47z" />
    <glyph glyph-name="Eacute" unicode="&#xc9;" horiz-adv-x="658" 
d="M693 728l-34 -199h-34c3 20 -71 151 -86 151h-159c-4 0 -18 -14 -19 -20l-43 -263h73c15 0 85 60 85 75v18h38v-239h-38v21c0 17 -70 76 -85 76h-82l-47 -276c0 -6 8 -22 13 -22h186c34 0 128 166 128 188h36v-238h-580v37h20c13 0 54 41 57 57l90 537
c3 17 -27 60 -40 60h-44v37h565zM473 917h162l-209 -140h-49z" />
    <glyph glyph-name="Ecircumflex" unicode="&#xca;" horiz-adv-x="658" 
d="M659 529l34 199h-565v-37h44c13 0 43 -43 40 -60l-90 -537c-3 -16 -44 -57 -57 -57h-20v-37h580v238h-36c0 -22 -94 -188 -128 -188h-186c-5 0 -13 16 -13 22l47 276h82c15 0 85 -59 85 -76v-21h38v239h-38v-18c0 -15 -70 -75 -85 -75h-73l43 263c1 6 15 20 19 20h159
c15 0 89 -131 86 -151h34zM428 931h100l62 -154h-40l-81 77l-135 -77h-46z" />
    <glyph glyph-name="Edieresis" unicode="&#xcb;" horiz-adv-x="658" 
d="M659 529l34 199h-565v-37h44c13 0 43 -43 40 -60l-90 -537c-3 -16 -44 -57 -57 -57h-20v-37h580v238h-36c0 -22 -94 -188 -128 -188h-186c-5 0 -13 16 -13 22l47 276h82c15 0 85 -59 85 -76v-21h38v239h-38v-18c0 -15 -70 -75 -85 -75h-73l43 263c1 6 15 20 19 20h159
c15 0 89 -131 86 -151h34zM628 840c0 -39 -31 -70 -71 -70s-72 31 -72 70c0 38 32 70 72 70s71 -32 71 -70zM414 840c0 -39 -31 -70 -71 -70s-72 31 -72 70c0 38 32 70 72 70s71 -32 71 -70z" />
    <glyph glyph-name="Igrave" unicode="&#xcc;" horiz-adv-x="352" 
d="M45 0h316v37h-50c-13 0 -40 44 -38 60l90 534c2 15 47 60 61 60h28v37h-321v-37h50c13 0 43 -45 41 -60l-89 -534c-3 -16 -48 -60 -60 -60h-28v-37zM155 917h163l46 -140h-47z" />
    <glyph glyph-name="Iacute" unicode="&#xcd;" horiz-adv-x="352" 
d="M361 0h-316v37h28c12 0 57 44 60 60l89 534c2 15 -28 60 -41 60h-50v37h321v-37h-28c-14 0 -59 -45 -61 -60l-90 -534c-2 -16 25 -60 38 -60h50v-37zM344 917h162l-209 -140h-49z" />
    <glyph glyph-name="Icircumflex" unicode="&#xce;" horiz-adv-x="352" 
d="M45 0h316v37h-50c-13 0 -40 44 -38 60l90 534c2 15 47 60 61 60h28v37h-321v-37h50c13 0 43 -45 41 -60l-89 -534c-3 -16 -48 -60 -60 -60h-28v-37zM290 931h100l62 -154h-40l-81 77l-135 -77h-46z" />
    <glyph glyph-name="Idieresis" unicode="&#xcf;" horiz-adv-x="352" 
d="M45 0h316v37h-50c-13 0 -40 44 -38 60l90 534c2 15 47 60 61 60h28v37h-321v-37h50c13 0 43 -45 41 -60l-89 -534c-3 -16 -48 -60 -60 -60h-28v-37zM494 840c0 -39 -31 -70 -71 -70s-72 31 -72 70c0 38 32 70 72 70s71 -32 71 -70zM280 840c0 -39 -31 -70 -71 -70
s-72 31 -72 70c0 38 32 70 72 70s71 -32 71 -70z" />
    <glyph glyph-name="Eth" unicode="&#xd0;" horiz-adv-x="683" 
d="M128 728h303c161 0 282 -114 282 -296c0 -235 -177 -432 -402 -432h-266v37h18c13 0 56 40 59 58l43 257h-85v48h93l39 232c2 14 -28 59 -40 59h-44v37zM507 400l-8 -48h-189l-43 -254c-3 -15 25 -48 35 -48h22c97 0 184 58 224 230c11 47 22 121 27 169
c18 174 -46 232 -148 232h-21c-13 0 -48 -35 -49 -50l-39 -231h189z" />
    <glyph glyph-name="Ntilde" unicode="&#xd1;" horiz-adv-x="708" 
d="M723 623l-107 -642l-339 617h-5l-78 -485c-3 -16 40 -76 52 -76h46v-37h-247v37h19c11 0 73 60 75 76l87 512c1 15 -31 66 -40 66h-41v37h223l241 -449h5l56 344c3 16 -33 68 -43 68h-44v37h225v-37h-19c-12 0 -63 -52 -66 -68zM651 820l-27 -21c-1 22 -13 40 -40 39
c-45 -2 -101 -51 -156 -51c-47 0 -74 37 -66 97l27 21c0 -22 18 -39 40 -39c54 0 102 50 156 50c47 0 75 -37 66 -96z" />
    <glyph glyph-name="Ograve" unicode="&#xd2;" horiz-adv-x="762" 
d="M512 742c-224 1 -411 -218 -411 -441c-3 -181 108 -313 286 -313c231 0 401 215 413 438c6 178 -109 315 -288 316zM504 689c110 0 165 -76 154 -208c-5 -60 -21 -159 -36 -218c-33 -129 -125 -216 -226 -216c-111 0 -168 70 -155 202c6 60 23 159 37 218
c30 128 121 222 226 222zM368 917h163l46 -140h-47z" />
    <glyph glyph-name="Oacute" unicode="&#xd3;" horiz-adv-x="762" 
d="M512 742c179 -1 294 -138 288 -316c-12 -223 -182 -438 -413 -438c-178 0 -289 132 -286 313c0 223 187 442 411 441zM504 689c-105 0 -196 -94 -226 -222c-14 -59 -31 -158 -37 -218c-13 -132 44 -202 155 -202c101 0 193 87 226 216c15 59 31 158 36 218
c11 132 -44 208 -154 208zM583 917h162l-209 -140h-49z" />
    <glyph glyph-name="Ocircumflex" unicode="&#xd4;" horiz-adv-x="762" 
d="M512 742c-224 1 -411 -218 -411 -441c-3 -181 108 -313 286 -313c231 0 401 215 413 438c6 178 -109 315 -288 316zM504 689c110 0 165 -76 154 -208c-5 -60 -21 -159 -36 -218c-33 -129 -125 -216 -226 -216c-111 0 -168 70 -155 202c6 60 23 159 37 218
c30 128 121 222 226 222zM510 931h100l62 -154h-40l-81 77l-135 -77h-46z" />
    <glyph glyph-name="Otilde" unicode="&#xd5;" horiz-adv-x="762" 
d="M512 742c179 -1 294 -138 288 -316c-12 -223 -182 -438 -413 -438c-178 0 -289 132 -286 313c0 223 187 442 411 441zM504 689c-105 0 -196 -94 -226 -222c-14 -59 -31 -158 -37 -218c-13 -132 44 -202 155 -202c101 0 193 87 226 216c15 59 31 158 36 218
c11 132 -44 208 -154 208zM677 820l-27 -21c-1 22 -13 40 -40 39c-45 -2 -101 -51 -156 -51c-47 0 -74 37 -66 97l27 21c0 -22 18 -39 40 -39c54 0 102 50 156 50c47 0 75 -37 66 -96z" />
    <glyph glyph-name="Odieresis" unicode="&#xd6;" horiz-adv-x="762" 
d="M512 742c-224 1 -411 -218 -411 -441c-3 -181 108 -313 286 -313c231 0 401 215 413 438c6 178 -109 315 -288 316zM504 689c110 0 165 -76 154 -208c-5 -60 -21 -159 -36 -218c-33 -129 -125 -216 -226 -216c-111 0 -168 70 -155 202c6 60 23 159 37 218
c30 128 121 222 226 222zM701 840c0 -39 -31 -70 -71 -70s-72 31 -72 70c0 38 32 70 72 70s71 -32 71 -70zM487 840c0 -39 -31 -70 -71 -70s-72 31 -72 70c0 38 32 70 72 70s71 -32 71 -70z" />
    <glyph glyph-name="multiply" unicode="&#xd7;" horiz-adv-x="640" 
d="M104 54l196 196l-198 199l51 52l199 -199l197 197l50 -50l-197 -197l200 -200l-52 -51l-199 199l-197 -196z" />
    <glyph glyph-name="Oslash" unicode="&#xd8;" horiz-adv-x="768" 
d="M208 47l-65 -76l-40 37l66 77c-45 55 -70 130 -68 216c0 223 189 442 413 441c67 -1 125 -20 171 -53l62 72l41 -37l-62 -72c51 -57 79 -136 76 -226c-12 -223 -182 -438 -413 -438c-72 0 -133 21 -181 59zM398 47c101 0 197 87 226 216c13 59 29 158 36 218
c4 34 2 64 -3 90l-394 -460c26 -42 73 -64 135 -64zM506 689c-105 0 -199 -93 -227 -222c-13 -59 -30 -158 -37 -218c-4 -29 -3 -55 1 -78l391 458c-27 39 -71 60 -128 60z" />
    <glyph glyph-name="Ugrave" unicode="&#xd9;" horiz-adv-x="709" 
d="M674 249l48 365c2 13 61 77 70 77h17v37h-234v-37h46c9 0 49 -64 48 -77l-48 -367c-13 -98 -88 -176 -193 -177c-97 -1 -156 73 -135 190l67 367c2 11 52 64 61 64h23v37h-309v-37h43c7 0 41 -53 39 -64l-65 -354c-30 -164 79 -285 222 -285c155 0 278 97 300 261z
M350 917h163l46 -140h-47z" />
    <glyph glyph-name="Uacute" unicode="&#xda;" horiz-adv-x="709" 
d="M722 614l-48 -365c-22 -164 -145 -261 -300 -261c-143 0 -252 121 -222 285l65 354c2 11 -32 64 -39 64h-43v37h309v-37h-23c-9 0 -59 -53 -61 -64l-67 -367c-21 -117 38 -191 135 -190c105 1 180 79 193 177l48 367c1 13 -39 77 -48 77h-46v37h234v-37h-17
c-9 0 -68 -64 -70 -77zM560 917h162l-209 -140h-49z" />
    <glyph glyph-name="Ucircumflex" unicode="&#xdb;" horiz-adv-x="709" 
d="M674 249l48 365c2 13 61 77 70 77h17v37h-234v-37h46c9 0 49 -64 48 -77l-48 -367c-13 -98 -88 -176 -193 -177c-97 -1 -156 73 -135 190l67 367c2 11 52 64 61 64h23v37h-309v-37h43c7 0 41 -53 39 -64l-65 -354c-30 -164 79 -285 222 -285c155 0 278 97 300 261z
M504 931h100l62 -154h-40l-81 77l-135 -77h-46z" />
    <glyph glyph-name="Udieresis" unicode="&#xdc;" horiz-adv-x="709" 
d="M674 249l48 365c2 13 61 77 70 77h17v37h-234v-37h46c9 0 49 -64 48 -77l-48 -367c-13 -98 -88 -176 -193 -177c-97 -1 -156 73 -135 190l67 367c2 11 52 64 61 64h23v37h-309v-37h43c7 0 41 -53 39 -64l-65 -354c-30 -164 79 -285 222 -285c155 0 278 97 300 261z
M698 840c0 -39 -31 -70 -71 -70s-72 31 -72 70c0 38 32 70 72 70s71 -32 71 -70zM484 840c0 -39 -31 -70 -71 -70s-72 31 -72 70c0 38 32 70 72 70s71 -32 71 -70z" />
    <glyph glyph-name="Yacute" unicode="&#xdd;" horiz-adv-x="641" 
d="M448 304l-34 -207c-3 -14 26 -60 37 -60h51v-37h-339v37h51c10 0 54 46 57 60l36 208l-102 306c-5 13 -51 80 -65 80h-19v37h330v-37h-43c-12 0 -50 -57 -55 -76l70 -259h6l152 256c2 18 -15 79 -26 79h-42v37h237v-37h-17c-15 -3 -84 -64 -95 -80zM518 917h162
l-209 -140h-49z" />
    <glyph glyph-name="Thorn" unicode="&#xde;" horiz-adv-x="593" 
d="M332 554l-57 -345h55c67 0 139 59 156 126c8 31 12 55 15 85c7 71 -37 134 -104 134h-65zM115 96l92 535c2 15 -28 60 -41 60h-50v37h320v-37h-28c-14 0 -59 -45 -61 -59l-6 -32h64c117 0 232 -54 232 -181c0 -164 -152 -262 -314 -262h-55l-10 -61c-2 -15 27 -59 39 -59
h44v-37h-304v37h19c11 0 57 43 59 59z" />
    <glyph glyph-name="germandbls" unicode="&#xdf;" horiz-adv-x="562" 
d="M397 478c20 -35 63 -63 108 -97s67 -80 67 -130c0 -143 -150 -264 -305 -263c-32 0 -56 6 -86 20l85 124h20c18 -35 53 -62 90 -62c60 0 103 44 103 105c0 44 -33 86 -74 119c-53 43 -102 80 -123 128l6 32l69 36c41 21 85 63 85 118c0 53 -37 101 -80 101
c-59 0 -73 -73 -91 -165l-107 -544l-24 -206h-113l25 206l98 519c30 161 176 250 291 250c61 0 110 -34 110 -104c0 -82 -84 -147 -154 -187z" />
    <glyph glyph-name="agrave" unicode="&#xe0;" horiz-adv-x="572" 
d="M382 90h5c-7 -50 2 -100 50 -99c45 1 111 65 131 91l-19 26c-9 -11 -39 -36 -47 -36c-13 0 -32 21 -29 36l81 371h-9l-92 -67c-20 53 -62 78 -116 78c-150 0 -264 -175 -264 -327c0 -104 55 -174 149 -174c53 0 115 30 160 101zM248 54c-55 0 -76 61 -67 132
c5 41 17 95 31 133c25 68 72 122 126 122c57 0 73 -57 62 -129c-6 -41 -17 -98 -30 -137c-22 -65 -68 -121 -122 -121zM236 713h129l30 -176h-36z" />
    <glyph glyph-name="aacute" unicode="&#xe1;" horiz-adv-x="572" 
d="M387 90h-5c-45 -71 -107 -101 -160 -101c-94 0 -149 70 -149 174c0 152 114 327 264 327c54 0 96 -25 116 -78l92 67h9l-81 -371c-3 -15 16 -36 29 -36c8 0 38 25 47 36l19 -26c-20 -26 -86 -90 -131 -91c-48 -1 -57 49 -50 99zM248 54c54 0 100 56 122 121
c13 39 24 96 30 137c11 72 -5 129 -62 129c-54 0 -101 -54 -126 -122c-14 -38 -26 -92 -31 -133c-9 -71 12 -132 67 -132zM405 713h141l-191 -176h-37z" />
    <glyph glyph-name="acircumflex" unicode="&#xe2;" horiz-adv-x="572" 
d="M382 90h5c-7 -50 2 -100 50 -99c45 1 111 65 131 91l-19 26c-9 -11 -39 -36 -47 -36c-13 0 -32 21 -29 36l81 371h-9l-92 -67c-20 53 -62 78 -116 78c-150 0 -264 -175 -264 -327c0 -104 55 -174 149 -174c53 0 115 30 160 101zM248 54c-55 0 -76 61 -67 132
c5 41 17 95 31 133c25 68 72 122 126 122c57 0 73 -57 62 -129c-6 -41 -17 -98 -30 -137c-22 -65 -68 -121 -122 -121zM368 713h86l54 -176h-41l-68 95l-131 -95h-43z" />
    <glyph glyph-name="atilde" unicode="&#xe3;" horiz-adv-x="572" 
d="M387 90h-5c-45 -71 -107 -101 -160 -101c-94 0 -149 70 -149 174c0 152 114 327 264 327c54 0 96 -25 116 -78l92 67h9l-81 -371c-3 -15 16 -36 29 -36c8 0 38 25 47 36l19 -26c-20 -26 -86 -90 -131 -91c-48 -1 -57 49 -50 99zM248 54c54 0 100 56 122 121
c13 39 24 96 30 137c11 72 -5 129 -62 129c-54 0 -101 -54 -126 -122c-14 -38 -26 -92 -31 -133c-9 -71 12 -132 67 -132zM532 587l-29 -23c-6 23 -14 42 -42 41c-48 -2 -94 -56 -152 -56c-49 0 -77 41 -70 104l29 23c0 -23 19 -41 42 -41c57 0 95 55 152 55
c49 0 78 -41 70 -103z" />
    <glyph glyph-name="adieresis" unicode="&#xe4;" horiz-adv-x="572" 
d="M382 90h5c-7 -50 2 -100 50 -99c45 1 111 65 131 91l-19 26c-9 -11 -39 -36 -47 -36c-13 0 -32 21 -29 36l81 371h-9l-92 -67c-20 53 -62 78 -116 78c-150 0 -264 -175 -264 -327c0 -104 55 -174 149 -174c53 0 115 30 160 101zM248 54c-55 0 -76 61 -67 132
c5 41 17 95 31 133c25 68 72 122 126 122c57 0 73 -57 62 -129c-6 -41 -17 -98 -30 -137c-22 -65 -68 -121 -122 -121zM551 621c0 -34 -28 -62 -63 -62s-63 28 -63 62s28 62 63 62s63 -28 63 -62zM347 621c0 -34 -28 -62 -63 -62s-63 28 -63 62s28 62 63 62s63 -28 63 -62z
" />
    <glyph glyph-name="aring" unicode="&#xe5;" horiz-adv-x="572" 
d="M387 90h-5c-45 -71 -107 -101 -160 -101c-94 0 -149 70 -149 174c0 152 114 327 264 327c54 0 96 -25 116 -78l92 67h9l-81 -371c-3 -15 16 -36 29 -36c8 0 38 25 47 36l19 -26c-20 -26 -86 -90 -131 -91c-48 -1 -57 49 -50 99zM248 54c54 0 100 56 122 121
c13 39 24 96 30 137c11 72 -5 129 -62 129c-54 0 -101 -54 -126 -122c-14 -38 -26 -92 -31 -133c-9 -71 12 -132 67 -132zM279 636c0 59 52 107 109 107c58 0 108 -48 108 -107c0 -61 -50 -107 -108 -107c-57 0 -109 46 -109 107zM332 636c0 -31 25 -56 56 -56
c30 0 55 25 55 56c0 30 -25 55 -55 55c-31 0 -56 -25 -56 -55z" />
    <glyph glyph-name="ae" unicode="&#xe6;" horiz-adv-x="782" 
d="M610 247c-47 -8 -107 -14 -107 -14c-13 -84 21 -150 101 -150c61 0 120 42 153 99h37c-45 -111 -139 -193 -232 -193c-43 0 -75 12 -98 32c-13 -19 -29 -33 -47 -33c-44 0 -34 55 -26 101h-7c-41 -69 -93 -100 -154 -100c-97 0 -157 62 -157 173c0 152 108 327 258 327
c51 0 88 -23 114 -76l45 66h9v-66c39 46 88 77 146 77c73 0 132 -34 132 -104c0 -81 -72 -123 -167 -139zM250 53c59 0 102 56 120 122c11 40 22 96 27 137c8 72 -12 129 -69 129c-56 0 -95 -53 -118 -122c-12 -37 -25 -92 -29 -133c-7 -71 11 -133 69 -133zM507 268
c0 0 54 9 106 22c47 12 89 44 89 92c0 39 -24 65 -59 65c-64 -7 -124 -103 -136 -179z" />
    <glyph glyph-name="ccedilla" unicode="&#xe7;" horiz-adv-x="462" 
d="M170 -79l34 72c-81 18 -131 92 -131 185c0 142 104 312 271 312c79 0 123 -45 143 -72l-94 -118c-29 0 -40 24 -29 56c14 41 14 91 -38 91c-96 -14 -145 -119 -145 -232c0 -78 45 -131 118 -131c101 0 150 98 150 98h37c-46 -107 -138 -190 -238 -193l-34 -49
c15 10 29 14 47 14c39 0 66 -27 66 -64c0 -65 -60 -103 -128 -103c-43 0 -76 23 -91 51l35 27c13 -19 33 -31 57 -31c33 0 59 20 59 47c0 19 -14 30 -32 30c-13 0 -22 -4 -34 -10z" />
    <glyph glyph-name="egrave" unicode="&#xe8;" horiz-adv-x="463" 
d="M293 249c-43 -8 -72 -11 -108 -15c-13 -84 20 -151 100 -151c61 0 119 42 153 99h37c-47 -111 -139 -193 -232 -193c-116 0 -170 87 -170 191c0 141 121 310 256 310c73 0 128 -32 128 -104c0 -75 -77 -121 -164 -137zM188 268c20 3 62 10 106 22c47 13 89 48 89 92
c0 38 -24 65 -59 65c-65 -7 -125 -103 -136 -179zM205 713h129l30 -176h-36z" />
    <glyph glyph-name="eacute" unicode="&#xe9;" horiz-adv-x="463" 
d="M293 249c-43 -8 -72 -11 -108 -15c-13 -84 20 -151 100 -151c61 0 119 42 153 99h37c-47 -111 -139 -193 -232 -193c-116 0 -170 87 -170 191c0 141 121 310 256 310c73 0 128 -32 128 -104c0 -75 -77 -121 -164 -137zM188 268c20 3 62 10 106 22c47 13 89 48 89 92
c0 38 -24 65 -59 65c-65 -7 -125 -103 -136 -179zM380 713h141l-191 -176h-37z" />
    <glyph glyph-name="ecircumflex" unicode="&#xea;" horiz-adv-x="463" 
d="M293 249c-43 -8 -72 -11 -108 -15c-13 -84 20 -151 100 -151c61 0 119 42 153 99h37c-47 -111 -139 -193 -232 -193c-116 0 -170 87 -170 191c0 141 121 310 256 310c73 0 128 -32 128 -104c0 -75 -77 -121 -164 -137zM188 268c20 3 62 10 106 22c47 13 89 48 89 92
c0 38 -24 65 -59 65c-65 -7 -125 -103 -136 -179zM338 713h86l54 -176h-41l-68 95l-131 -95h-43z" />
    <glyph glyph-name="edieresis" unicode="&#xeb;" horiz-adv-x="463" 
d="M293 249c-43 -8 -72 -11 -108 -15c-13 -84 20 -151 100 -151c61 0 119 42 153 99h37c-47 -111 -139 -193 -232 -193c-116 0 -170 87 -170 191c0 141 121 310 256 310c73 0 128 -32 128 -104c0 -75 -77 -121 -164 -137zM188 268c20 3 62 10 106 22c47 13 89 48 89 92
c0 38 -24 65 -59 65c-65 -7 -125 -103 -136 -179zM508 621c0 -34 -28 -62 -63 -62s-63 28 -63 62s28 62 63 62s63 -28 63 -62zM304 621c0 -34 -28 -62 -63 -62s-63 28 -63 62s28 62 63 62s63 -28 63 -62z" />
    <glyph glyph-name="igrave" unicode="&#xec;" horiz-adv-x="295" 
d="M91 76c2 51 48 253 51 271c3 16 -26 49 -37 49h-39v32c101 23 214 64 214 64c-14 -69 -65 -333 -73 -384c-2 -16 15 -37 28 -37c8 0 36 25 46 35l19 -26c-18 -21 -86 -90 -131 -91c-48 -1 -80 40 -78 87zM115 713h129l30 -176h-36z" />
    <glyph glyph-name="iacute" unicode="&#xed;" horiz-adv-x="295" 
d="M91 76c2 51 48 253 51 271c3 16 -26 49 -37 49h-39v32c101 23 214 64 214 64c-14 -69 -65 -333 -73 -384c-2 -16 15 -37 28 -37c8 0 36 25 46 35l19 -26c-18 -21 -86 -90 -131 -91c-48 -1 -80 40 -78 87zM249 713h141l-191 -176h-37z" />
    <glyph glyph-name="icircumflex" unicode="&#xee;" horiz-adv-x="295" 
d="M91 76c2 51 48 253 51 271c3 16 -26 49 -37 49h-39v32c101 23 214 64 214 64c-14 -69 -65 -333 -73 -384c-2 -16 15 -37 28 -37c8 0 36 25 46 35l19 -26c-18 -21 -86 -90 -131 -91c-48 -1 -80 40 -78 87zM222 713h86l54 -176h-41l-68 95l-131 -95h-43z" />
    <glyph glyph-name="idieresis" unicode="&#xef;" horiz-adv-x="295" 
d="M91 76c2 51 48 253 51 271c3 16 -26 49 -37 49h-39v32c101 23 214 64 214 64c-14 -69 -65 -333 -73 -384c-2 -16 15 -37 28 -37c8 0 36 25 46 35l19 -26c-18 -21 -86 -90 -131 -91c-48 -1 -80 40 -78 87zM398 621c0 -34 -28 -62 -63 -62s-63 28 -63 62s28 62 63 62
s63 -28 63 -62zM194 621c0 -34 -28 -62 -63 -62s-63 28 -63 62s28 62 63 62s63 -28 63 -62z" />
    <glyph glyph-name="eth" unicode="&#xf0;" horiz-adv-x="558" 
d="M473 379c27 77 23 150 -3 210l-205 -72v50l182 64c-32 46 -78 80 -133 97l18 38c80 -14 145 -52 189 -109l96 34v-50l-70 -25c22 -44 34 -95 34 -152c0 -218 -135 -473 -336 -473c-114 0 -182 69 -182 180c0 147 119 319 280 319c69 0 115 -47 130 -111zM241 45
c103 0 188 176 188 291c0 50 -28 94 -80 94c-103 0 -193 -180 -193 -291c0 -53 30 -94 85 -94z" />
    <glyph glyph-name="ntilde" unicode="&#xf1;" horiz-adv-x="563" 
d="M385 404c-36 0 -131 -90 -133 -104l-53 -300h-116l62 350c2 14 -24 48 -36 48h-40v30c83 26 176 63 176 63v-138h5c45 50 136 137 195 137c75 0 122 -72 99 -142c-22 -68 -55 -171 -75 -242c-4 -17 15 -35 28 -35c10 0 39 25 49 37l19 -26c-25 -34 -81 -91 -126 -91
c-54 0 -98 47 -83 110c20 82 54 182 75 245c7 21 -27 58 -46 58zM528 587l-29 -23c-6 23 -14 42 -42 41c-48 -2 -94 -56 -152 -56c-49 0 -77 41 -70 104l29 23c0 -23 19 -41 42 -41c57 0 95 55 152 55c49 0 78 -41 70 -103z" />
    <glyph glyph-name="ograve" unicode="&#xf2;" horiz-adv-x="519" 
d="M256 -11c149 0 268 145 268 298c0 122 -71 203 -187 203c-149 0 -267 -150 -267 -301c0 -124 72 -200 186 -200zM262 45c-57 0 -86 43 -80 119c4 50 12 99 25 149c19 74 73 127 125 127c57 0 89 -40 83 -113c-4 -53 -12 -101 -25 -153c-18 -73 -75 -129 -128 -129z
M226 713h129l30 -176h-36z" />
    <glyph glyph-name="oacute" unicode="&#xf3;" horiz-adv-x="519" 
d="M256 -11c-114 0 -186 76 -186 200c0 151 118 301 267 301c116 0 187 -81 187 -203c0 -153 -119 -298 -268 -298zM262 45c53 0 110 56 128 129c13 52 21 100 25 153c6 73 -26 113 -83 113c-52 0 -106 -53 -125 -127c-13 -50 -21 -99 -25 -149c-6 -76 23 -119 80 -119z
M398 713h141l-191 -176h-37z" />
    <glyph glyph-name="ocircumflex" unicode="&#xf4;" horiz-adv-x="519" 
d="M262 45c-57 0 -86 43 -80 119c4 50 12 99 25 149c19 74 73 127 125 127c57 0 89 -40 83 -113c-4 -53 -12 -101 -25 -153c-18 -73 -75 -129 -128 -129zM256 -11c149 0 268 145 268 298c0 122 -71 203 -187 203c-149 0 -267 -150 -267 -301c0 -124 72 -200 186 -200z
M351 713h86l54 -176h-41l-68 95l-131 -95h-43z" />
    <glyph glyph-name="otilde" unicode="&#xf5;" horiz-adv-x="519" 
d="M256 -11c-114 0 -186 76 -186 200c0 151 118 301 267 301c116 0 187 -81 187 -203c0 -153 -119 -298 -268 -298zM262 45c53 0 110 56 128 129c13 52 21 100 25 153c6 73 -26 113 -83 113c-52 0 -106 -53 -125 -127c-13 -50 -21 -99 -25 -149c-6 -76 23 -119 80 -119z
M514 587l-29 -23c-6 23 -14 42 -42 41c-48 -2 -94 -56 -152 -56c-49 0 -77 41 -70 104l29 23c0 -23 19 -41 42 -41c57 0 95 55 152 55c49 0 78 -41 70 -103z" />
    <glyph glyph-name="odieresis" unicode="&#xf6;" horiz-adv-x="519" 
d="M262 45c-57 0 -86 43 -80 119c4 50 12 99 25 149c19 74 73 127 125 127c57 0 89 -40 83 -113c-4 -53 -12 -101 -25 -153c-18 -73 -75 -129 -128 -129zM256 -11c149 0 268 145 268 298c0 122 -71 203 -187 203c-149 0 -267 -150 -267 -301c0 -124 72 -200 186 -200z
M532 621c0 -34 -28 -62 -63 -62s-63 28 -63 62s28 62 63 62s63 -28 63 -62zM328 621c0 -34 -28 -62 -63 -62s-63 28 -63 62s28 62 63 62s63 -28 63 -62z" />
    <glyph glyph-name="divide" unicode="&#xf7;" horiz-adv-x="572" 
d="M63 325h544v-74h-544v74zM408 93c0 -39 -30 -70 -71 -70c-40 0 -71 31 -71 70s31 70 71 70c41 0 71 -31 71 -70zM408 486c0 -39 -30 -70 -71 -70c-40 0 -71 31 -71 70s31 70 71 70c41 0 71 -31 71 -70z" />
    <glyph glyph-name="oslash" unicode="&#xf8;" horiz-adv-x="519" 
d="M127 36l-52 -54l-29 29l55 57c-19 32 -30 73 -30 121c0 151 118 301 267 301c50 0 92 -16 124 -43l49 51l31 -30l-52 -54c23 -33 35 -77 35 -127c0 -153 -119 -298 -268 -298c-54 0 -98 16 -130 47zM263 45c52 0 110 56 128 129c13 52 21 99 25 152v11l-228 -238
c11 -35 37 -54 75 -54zM333 440c-50 0 -107 -53 -125 -127c-12 -50 -21 -95 -26 -149v-11l227 238c-13 32 -39 49 -76 49z" />
    <glyph glyph-name="ugrave" unicode="&#xf9;" horiz-adv-x="559" 
d="M211 143l69 237c16 57 -22 111 -78 110c-45 -1 -114 -73 -132 -94l23 -23c10 10 38 35 46 35c13 0 32 -23 28 -37l-72 -242c-17 -66 26 -141 94 -141s131 57 185 118h5l-1 -21c-2 -50 19 -95 70 -94c42 1 109 74 127 93l-19 27c-11 -10 -37 -34 -47 -34
c-12 0 -29 23 -27 36l64 366h-113l-55 -316c-36 -42 -96 -89 -127 -89c-33 0 -50 33 -40 69zM230 713h129l30 -176h-36z" />
    <glyph glyph-name="uacute" unicode="&#xfa;" horiz-adv-x="559" 
d="M280 380l-69 -237c-10 -36 7 -69 40 -69c31 0 91 47 127 89l55 316h113l-64 -366c-2 -13 15 -36 27 -36c10 0 36 24 47 34l19 -27c-18 -19 -85 -92 -127 -93c-51 -1 -72 44 -70 94l1 21h-5c-54 -61 -117 -118 -185 -118s-111 75 -94 141l72 242c4 14 -15 37 -28 37
c-8 0 -36 -25 -46 -35l-23 23c18 21 87 93 132 94c56 1 94 -53 78 -110zM398 713h141l-191 -176h-37z" />
    <glyph glyph-name="ucircumflex" unicode="&#xfb;" horiz-adv-x="559" 
d="M211 143l69 237c16 57 -22 111 -78 110c-45 -1 -114 -73 -132 -94l23 -23c10 10 38 35 46 35c13 0 32 -23 28 -37l-72 -242c-17 -66 26 -141 94 -141s131 57 185 118h5l-1 -21c-2 -50 19 -95 70 -94c42 1 109 74 127 93l-19 27c-11 -10 -37 -34 -47 -34
c-12 0 -29 23 -27 36l64 366h-113l-55 -316c-36 -42 -96 -89 -127 -89c-33 0 -50 33 -40 69zM355 713h86l54 -176h-41l-68 95l-131 -95h-43z" />
    <glyph glyph-name="udieresis" unicode="&#xfc;" horiz-adv-x="559" 
d="M211 143l69 237c16 57 -22 111 -78 110c-45 -1 -114 -73 -132 -94l23 -23c10 10 38 35 46 35c13 0 32 -23 28 -37l-72 -242c-17 -66 26 -141 94 -141s131 57 185 118h5l-1 -21c-2 -50 19 -95 70 -94c42 1 109 74 127 93l-19 27c-11 -10 -37 -34 -47 -34
c-12 0 -29 23 -27 36l64 366h-113l-55 -316c-36 -42 -96 -89 -127 -89c-33 0 -50 33 -40 69zM537 621c0 -34 -28 -62 -63 -62s-63 28 -63 62s28 62 63 62s63 -28 63 -62zM333 621c0 -34 -28 -62 -63 -62s-63 28 -63 62s28 62 63 62s63 -28 63 -62z" />
    <glyph glyph-name="yacute" unicode="&#xfd;" horiz-adv-x="453" 
d="M108 384c-5 15 -36 60 -47 60h-18v35h189v-96c17 -97 36 -224 36 -224h7l120 227c4 19 -14 58 -26 58h-32v35h185v-35h-15c-9 0 -49 -42 -61 -58l-205 -361l-110 -231h-67l115 232s-34 205 -71 358zM346 713h141l-191 -176h-37z" />
    <glyph glyph-name="thorn" unicode="&#xfe;" horiz-adv-x="564" 
d="M56 -115l134 749c3 16 -27 48 -37 48h-22v32c108 23 192 57 192 57l-59 -347c26 28 77 66 142 66c98 0 160 -61 160 -183c0 -146 -111 -317 -266 -317c-52 0 -87 37 -100 83h-5l-23 -188c-2 -19 23 -55 35 -55h45v-36h-270v36h19c12 0 52 36 55 55zM222 169
c-7 -73 31 -117 81 -117c51 0 102 52 125 127c13 42 22 95 23 137c2 69 -24 113 -76 113c-57 0 -118 -50 -132 -128c-9 -41 -17 -90 -21 -132z" />
    <glyph glyph-name="ydieresis" unicode="&#xff;" horiz-adv-x="453" 
d="M108 384c37 -153 71 -358 71 -358l-115 -232h67l110 231l205 361c12 16 52 58 61 58h15v35h-185v-35h32c12 0 30 -39 26 -58l-120 -227h-7s-19 127 -36 224v96h-189v-35h18c11 0 42 -45 47 -60zM480 621c0 -34 -28 -62 -63 -62s-63 28 -63 62s28 62 63 62s63 -28 63 -62z
M276 621c0 -34 -28 -62 -63 -62s-63 28 -63 62s28 62 63 62s63 -28 63 -62z" />
    <glyph glyph-name="Amacron" unicode="&#x100;" horiz-adv-x="682" 
d="M458 102l-17 109h-212l-55 -108c0 -17 21 -66 34 -66h40v-37h-228v37h13c13 1 70 48 84 66l302 597l65 43l124 -641c10 -16 46 -65 58 -65h16v-37h-322v37h38c15 1 60 48 60 65zM388 521h-5l-131 -260h181zM363 879h247l-17 -80h-253z" />
    <glyph glyph-name="amacron" unicode="&#x101;" horiz-adv-x="572" 
d="M387 90h-5c-45 -71 -107 -101 -160 -101c-94 0 -149 70 -149 174c0 152 114 327 264 327c54 0 96 -25 116 -78l92 67h9l-81 -371c-3 -15 16 -36 29 -36c8 0 38 25 47 36l19 -26c-20 -26 -86 -90 -131 -91c-48 -1 -57 49 -50 99zM248 54c54 0 100 56 122 121
c13 39 24 96 30 137c11 72 -5 129 -62 129c-54 0 -101 -54 -126 -122c-14 -38 -26 -92 -31 -133c-9 -71 12 -132 67 -132zM274 648h242l-16 -78h-243z" />
    <glyph glyph-name="Abreve" unicode="&#x102;" horiz-adv-x="682" 
d="M458 102l-17 109h-212l-55 -108c0 -17 21 -66 34 -66h40v-37h-228v37h13c13 1 70 48 84 66l302 597l65 43l124 -641c10 -16 46 -65 58 -65h16v-37h-322v37h38c15 1 60 48 60 65zM388 521h-5l-131 -260h181zM461 775c-94 0 -128 64 -104 142l32 4c-7 -49 30 -64 78 -64
c57 0 111 19 139 67l32 -7c-25 -85 -99 -142 -177 -142z" />
    <glyph glyph-name="abreve" unicode="&#x103;" horiz-adv-x="572" 
d="M387 90h-5c-45 -71 -107 -101 -160 -101c-94 0 -149 70 -149 174c0 152 114 327 264 327c54 0 96 -25 116 -78l92 67h9l-81 -371c-3 -15 16 -36 29 -36c8 0 38 25 47 36l19 -26c-20 -26 -86 -90 -131 -91c-48 -1 -57 49 -50 99zM248 54c54 0 100 56 122 121
c13 39 24 96 30 137c11 72 -5 129 -62 129c-54 0 -101 -54 -126 -122c-14 -38 -26 -92 -31 -133c-9 -71 12 -132 67 -132zM372 537c-94 0 -124 68 -100 146l31 4c-7 -49 27 -71 75 -71c57 0 109 24 137 74l30 -7c-25 -85 -95 -146 -173 -146z" />
    <glyph glyph-name="Aogonek" unicode="&#x104;" horiz-adv-x="682" 
d="M458 102l-17 109h-212l-55 -108c0 -17 21 -66 34 -66h40v-37h-228v37h13c13 1 70 48 84 66l302 597l65 43l124 -641c10 -16 46 -65 58 -65h16v-37h-126c-45 -41 -58 -85 -63 -119c-2 -16 19 -37 33 -37c9 0 38 25 50 35l22 -26c-34 -35 -77 -84 -129 -84
c-58 0 -91 45 -81 92c11 49 87 121 117 139h-145v37h38c15 1 60 48 60 65zM388 521h-5l-131 -260h181z" />
    <glyph glyph-name="aogonek" unicode="&#x105;" horiz-adv-x="572" 
d="M504 21l-6 -5c-21 -14 -43 -24 -61 -25c-7 0 -14 1 -19 3c3 3 6 5 9 6l77 21l-6 -5c-61 -45 -77 -96 -83 -135c-2 -16 19 -37 33 -37c9 0 38 25 50 35l22 -26c-34 -35 -77 -84 -129 -84c-58 0 -91 45 -81 92c10 45 74 109 108 133c-32 11 -37 53 -31 96h-5
c-45 -71 -107 -101 -160 -101c-94 0 -149 70 -149 174c0 152 114 327 264 327c54 0 96 -25 116 -78l92 67h9l-81 -371c-3 -15 16 -36 29 -36c8 0 38 25 47 36l19 -26c-11 -15 -36 -41 -64 -61zM248 54c54 0 100 56 122 121c13 39 24 96 30 137c11 72 -5 129 -62 129
c-54 0 -101 -54 -126 -122c-14 -38 -26 -92 -31 -133c-9 -71 12 -132 67 -132z" />
    <glyph glyph-name="Cacute" unicode="&#x106;" horiz-adv-x="689" 
d="M487 692c-87 0 -174 -59 -210 -230c-14 -62 -23 -122 -30 -185c-14 -125 55 -214 165 -214c88 0 170 43 233 127h57c-63 -107 -173 -199 -322 -202c-182 -4 -280 117 -280 314c0 204 166 440 394 440c71 0 107 -34 159 -34c17 0 34 7 44 20h37l-61 -252h-39
c0 59 -30 216 -147 216zM539 917h162l-209 -140h-49z" />
    <glyph glyph-name="cacute" unicode="&#x107;" horiz-adv-x="462" 
d="M326 447c-96 -14 -145 -119 -145 -232c0 -78 45 -131 118 -131c101 0 150 98 150 98h37c-47 -109 -141 -193 -243 -193c-104 0 -170 82 -170 189c0 142 104 312 271 312c79 0 123 -45 143 -72l-94 -118c-29 0 -40 24 -29 56c14 41 14 91 -38 91zM379 713h141l-191 -176
h-37z" />
    <glyph glyph-name="Ccircumflex" unicode="&#x108;" horiz-adv-x="689" 
d="M487 692c-87 0 -174 -59 -210 -230c-14 -62 -23 -122 -30 -185c-14 -125 55 -214 165 -214c88 0 170 43 233 127h57c-63 -107 -173 -199 -322 -202c-182 -4 -280 117 -280 314c0 204 166 440 394 440c71 0 107 -34 159 -34c17 0 34 7 44 20h37l-61 -252h-39
c0 59 -30 216 -147 216zM485 931h100l62 -154h-40l-81 77l-135 -77h-46z" />
    <glyph glyph-name="ccircumflex" unicode="&#x109;" horiz-adv-x="462" 
d="M326 447c-96 -14 -145 -119 -145 -232c0 -78 45 -131 118 -131c101 0 150 98 150 98h37c-47 -109 -141 -193 -243 -193c-104 0 -170 82 -170 189c0 142 104 312 271 312c79 0 123 -45 143 -72l-94 -118c-29 0 -40 24 -29 56c14 41 14 91 -38 91zM339 713h86l54 -176h-41
l-68 95l-131 -95h-43z" />
    <glyph glyph-name="Cdotaccent" unicode="&#x10a;" horiz-adv-x="689" 
d="M487 692c-87 0 -174 -59 -210 -230c-14 -62 -23 -122 -30 -185c-14 -125 55 -214 165 -214c88 0 170 43 233 127h57c-63 -107 -173 -199 -322 -202c-182 -4 -280 117 -280 314c0 204 166 440 394 440c71 0 107 -34 159 -34c17 0 34 7 44 20h37l-61 -252h-39
c0 59 -30 216 -147 216zM598 848c0 -43 -33 -77 -78 -77c-44 0 -78 34 -78 77s34 77 78 77c45 0 78 -34 78 -77z" />
    <glyph glyph-name="cdotaccent" unicode="&#x10b;" horiz-adv-x="462" 
d="M326 447c-96 -14 -145 -119 -145 -232c0 -78 45 -131 118 -131c101 0 150 98 150 98h37c-47 -109 -141 -193 -243 -193c-104 0 -170 82 -170 189c0 142 104 312 271 312c79 0 123 -45 143 -72l-94 -118c-29 0 -40 24 -29 56c14 41 14 91 -38 91zM450 633
c0 -44 -37 -81 -83 -81s-83 37 -83 81s37 81 83 81s83 -37 83 -81z" />
    <glyph glyph-name="Ccaron" unicode="&#x10c;" horiz-adv-x="689" 
d="M487 692c-87 0 -174 -59 -210 -230c-14 -62 -23 -122 -30 -185c-14 -125 55 -214 165 -214c88 0 170 43 233 127h57c-63 -107 -173 -199 -322 -202c-182 -4 -280 117 -280 314c0 204 166 440 394 440c71 0 107 -34 159 -34c17 0 34 7 44 20h37l-61 -252h-39
c0 59 -30 216 -147 216zM549 777h-101l-62 154h39l82 -78l134 78h46z" />
    <glyph glyph-name="ccaron" unicode="&#x10d;" horiz-adv-x="462" 
d="M326 447c-96 -14 -145 -119 -145 -232c0 -78 45 -131 118 -131c101 0 150 98 150 98h37c-47 -109 -141 -193 -243 -193c-104 0 -170 82 -170 189c0 142 104 312 271 312c79 0 123 -45 143 -72l-94 -118c-29 0 -40 24 -29 56c14 41 14 91 -38 91zM383 537h-86l-58 176h41
l70 -95l134 95h43z" />
    <glyph glyph-name="Dcaron" unicode="&#x10e;" horiz-adv-x="683" 
d="M548 280c11 47 22 121 27 169c18 174 -46 232 -148 232h-21c-13 0 -48 -35 -49 -50l-90 -533c-3 -15 25 -48 35 -48h22c97 0 184 58 224 230zM128 728h303c161 0 282 -114 282 -296c0 -235 -177 -432 -402 -432h-266v37h18c13 0 56 40 59 58l90 537c2 14 -28 59 -40 59
h-44v37zM460 777h-101l-62 154h39l82 -78l134 78h46z" />
    <glyph glyph-name="dcaron" unicode="&#x10f;" horiz-adv-x="670" 
d="M427 444l30 180c2 18 -25 59 -37 59h-48v31c108 21 219 57 219 57l-112 -661c-2 -16 15 -37 28 -37c8 0 36 25 46 35l19 -26c-18 -21 -84 -91 -129 -91c-48 0 -55 51 -51 98h-5c-48 -64 -106 -100 -157 -100c-97 0 -157 62 -157 173c0 152 109 328 259 328
c40 0 68 -13 95 -46zM250 53c64 0 104 56 122 122c11 40 22 96 27 137c9 72 -11 129 -68 129c-56 0 -99 -53 -121 -122c-13 -40 -25 -92 -29 -133c-7 -71 11 -133 69 -133zM750 699l-4 -26c-13 -82 -82 -124 -145 -126v39c44 -1 82 23 91 53h-30c-25 6 -42 29 -42 59
c0 34 29 67 69 67c36 0 67 -30 61 -66z" />
    <glyph glyph-name="Dcroat" unicode="&#x110;" horiz-adv-x="683" 
d="M128 728h303c161 0 282 -114 282 -296c0 -235 -177 -432 -402 -432h-266v37h18c13 0 56 40 59 58l43 257h-85v48h93l39 232c2 14 -28 59 -40 59h-44v37zM507 400l-8 -48h-189l-43 -254c-3 -15 25 -48 35 -48h22c97 0 184 58 224 230c11 47 22 121 27 169
c18 174 -46 232 -148 232h-21c-13 0 -48 -35 -49 -50l-39 -231h189z" />
    <glyph glyph-name="dcroat" unicode="&#x111;" horiz-adv-x="569" 
d="M452 596l5 28c2 18 -25 59 -37 59h-48v31c108 21 219 57 219 57l-30 -175h82l-11 -56h-80l-73 -430c-2 -16 15 -37 28 -37c8 0 36 25 46 35l19 -26c-18 -21 -84 -91 -129 -91c-48 0 -55 51 -51 98h-5c-48 -64 -106 -100 -157 -100c-97 0 -157 62 -157 173
c0 152 109 328 259 328c40 0 68 -13 95 -46l16 96h-195l11 56h193zM250 53c64 0 104 56 122 122c11 40 22 96 27 137c9 72 -11 129 -68 129c-56 0 -99 -53 -121 -122c-13 -40 -25 -92 -29 -133c-7 -71 11 -133 69 -133z" />
    <glyph glyph-name="Emacron" unicode="&#x112;" horiz-adv-x="658" 
d="M693 728l-34 -199h-34c3 20 -71 151 -86 151h-159c-4 0 -18 -14 -19 -20l-43 -263h73c15 0 85 60 85 75v18h38v-239h-38v21c0 17 -70 76 -85 76h-82l-47 -276c0 -6 8 -22 13 -22h186c34 0 128 166 128 188h36v-238h-580v37h20c13 0 54 41 57 57l90 537
c3 17 -27 60 -40 60h-44v37h565zM344 879h247l-17 -80h-253z" />
    <glyph glyph-name="emacron" unicode="&#x113;" horiz-adv-x="463" 
d="M293 249c-43 -8 -72 -11 -108 -15c-13 -84 20 -151 100 -151c61 0 119 42 153 99h37c-47 -111 -139 -193 -232 -193c-116 0 -170 87 -170 191c0 141 121 310 256 310c73 0 128 -32 128 -104c0 -75 -77 -121 -164 -137zM188 268c20 3 62 10 106 22c47 13 89 48 89 92
c0 38 -24 65 -59 65c-65 -7 -125 -103 -136 -179zM232 648h242l-16 -78h-243z" />
    <glyph glyph-name="Ebreve" unicode="&#x114;" horiz-adv-x="658" 
d="M693 728l-34 -199h-34c3 20 -71 151 -86 151h-159c-4 0 -18 -14 -19 -20l-43 -263h73c15 0 85 60 85 75v18h38v-239h-38v21c0 17 -70 76 -85 76h-82l-47 -276c0 -6 8 -22 13 -22h186c34 0 128 166 128 188h36v-238h-580v37h20c13 0 54 41 57 57l90 537
c3 17 -27 60 -40 60h-44v37h565zM434 775c-94 0 -128 64 -104 142l32 4c-7 -49 30 -64 78 -64c57 0 111 19 139 67l32 -7c-25 -85 -99 -142 -177 -142z" />
    <glyph glyph-name="ebreve" unicode="&#x115;" horiz-adv-x="463" 
d="M293 249c-43 -8 -72 -11 -108 -15c-13 -84 20 -151 100 -151c61 0 119 42 153 99h37c-47 -111 -139 -193 -232 -193c-116 0 -170 87 -170 191c0 141 121 310 256 310c73 0 128 -32 128 -104c0 -75 -77 -121 -164 -137zM188 268c20 3 62 10 106 22c47 13 89 48 89 92
c0 38 -24 65 -59 65c-65 -7 -125 -103 -136 -179zM331 537c-94 0 -124 68 -100 146l31 4c-7 -49 27 -71 75 -71c57 0 109 24 137 74l30 -7c-25 -85 -95 -146 -173 -146z" />
    <glyph glyph-name="Edotaccent" unicode="&#x116;" horiz-adv-x="658" 
d="M659 529l34 199h-565v-37h44c13 0 43 -43 40 -60l-90 -537c-3 -16 -44 -57 -57 -57h-20v-37h580v238h-36c0 -22 -94 -188 -128 -188h-186c-5 0 -13 16 -13 22l47 276h82c15 0 85 -59 85 -76v-21h38v239h-38v-18c0 -15 -70 -75 -85 -75h-73l43 263c1 6 15 20 19 20h159
c15 0 89 -131 86 -151h34zM525 848c0 -43 -33 -77 -78 -77c-44 0 -78 34 -78 77s34 77 78 77c45 0 78 -34 78 -77z" />
    <glyph glyph-name="edotaccent" unicode="&#x117;" horiz-adv-x="463" 
d="M293 249c-43 -8 -72 -11 -108 -15c-13 -84 20 -151 100 -151c61 0 119 42 153 99h37c-47 -111 -139 -193 -232 -193c-116 0 -170 87 -170 191c0 141 121 310 256 310c73 0 128 -32 128 -104c0 -75 -77 -121 -164 -137zM188 268c20 3 62 10 106 22c47 13 89 48 89 92
c0 38 -24 65 -59 65c-65 -7 -125 -103 -136 -179zM438 633c0 -44 -37 -81 -83 -81s-83 37 -83 81s37 81 83 81s83 -37 83 -81z" />
    <glyph glyph-name="Eogonek" unicode="&#x118;" horiz-adv-x="658" 
d="M693 728l-34 -199h-34c3 20 -71 151 -86 151h-159c-4 0 -18 -14 -19 -20l-43 -263h73c15 0 85 60 85 75v18h38v-239h-38v21c0 17 -70 76 -85 76h-82l-47 -276c0 -6 8 -22 13 -22h186c34 0 128 166 128 188h36v-238h-61c-45 -41 -58 -85 -63 -119c-2 -16 19 -37 33 -37
c9 0 38 25 50 35l22 -26c-34 -35 -77 -84 -129 -84c-58 0 -91 45 -81 92c11 49 87 121 117 139h-468v37h20c13 0 54 41 57 57l90 537c3 17 -27 60 -40 60h-44v37h565z" />
    <glyph glyph-name="eogonek" unicode="&#x119;" horiz-adv-x="463" 
d="M293 249c-43 -8 -72 -11 -108 -15c-13 -84 20 -151 100 -151c61 0 119 42 153 99h37c-20 -47 -48 -89 -80 -121c-41 -50 -79 -106 -97 -180c-4 -16 19 -37 33 -37c9 0 38 25 50 35l22 -26c-34 -35 -77 -84 -129 -84c-58 0 -93 46 -78 92c15 47 56 96 98 136
c-17 -5 -34 -8 -51 -8c-116 0 -170 87 -170 191c0 141 121 310 256 310c73 0 128 -32 128 -104c0 -75 -77 -121 -164 -137zM188 268c20 3 62 10 106 22c47 13 89 48 89 92c0 38 -24 65 -59 65c-65 -7 -125 -103 -136 -179z" />
    <glyph glyph-name="Ecaron" unicode="&#x11a;" horiz-adv-x="658" 
d="M659 529l34 199h-565v-37h44c13 0 43 -43 40 -60l-90 -537c-3 -16 -44 -57 -57 -57h-20v-37h580v238h-36c0 -22 -94 -188 -128 -188h-186c-5 0 -13 16 -13 22l47 276h82c15 0 85 -59 85 -76v-21h38v239h-38v-18c0 -15 -70 -75 -85 -75h-73l43 263c1 6 15 20 19 20h159
c15 0 89 -131 86 -151h34zM492 777h-101l-62 154h39l82 -78l134 78h46z" />
    <glyph glyph-name="ecaron" unicode="&#x11b;" horiz-adv-x="463" 
d="M293 249c-43 -8 -72 -11 -108 -15c-13 -84 20 -151 100 -151c61 0 119 42 153 99h37c-47 -111 -139 -193 -232 -193c-116 0 -170 87 -170 191c0 141 121 310 256 310c73 0 128 -32 128 -104c0 -75 -77 -121 -164 -137zM188 268c20 3 62 10 106 22c47 13 89 48 89 92
c0 38 -24 65 -59 65c-65 -7 -125 -103 -136 -179zM373 537h-86l-58 176h41l70 -95l134 95h43z" />
    <glyph glyph-name="Gcircumflex" unicode="&#x11c;" horiz-adv-x="711" 
d="M510 742c83 0 114 -34 165 -34c18 0 34 7 44 20h37l-60 -252h-40c6 73 -35 216 -148 216c-99 0 -185 -63 -227 -228c-13 -51 -27 -139 -33 -192c-14 -130 36 -218 135 -218h11c47 0 103 36 123 73l-1 105c0 15 -36 59 -47 59h-87v39h373v-39h-61c-11 0 -50 -43 -50 -58
l1 -233h-12l-72 84c-43 -54 -101 -96 -185 -96c-175 0 -276 126 -276 307c0 214 162 447 410 447zM494 931h100l62 -154h-40l-81 77l-135 -77h-46z" />
    <glyph glyph-name="gcircumflex" unicode="&#x11d;" horiz-adv-x="502" 
d="M136 -40c-7 -42 93 -41 211 -39c23 0 37 -10 37 -26c0 -60 -113 -67 -156 -68c-42 0 -164 47 -158 82c5 27 45 46 66 51zM479 305c3 19 39 80 56 80h27l-31 148c-69 10 -86 -122 -91 -192h-6c7 84 -46 149 -129 149c-121 0 -217 -81 -217 -205c0 -79 62 -124 95 -133
c-74 -15 -147 -50 -147 -105c0 -37 42 -63 76 -66c-57 -15 -121 -45 -121 -95c0 -64 101 -100 230 -100c131 0 249 53 249 155c0 51 -44 84 -106 83c-70 -1 -121 -1 -174 5c-30 3 -49 19 -49 41c0 26 15 44 54 51h63c120 0 206 89 221 184zM259 178c-50 0 -75 45 -71 97
c2 24 7 52 13 77c14 59 52 92 103 92c46 0 75 -41 71 -100c-2 -25 -8 -55 -14 -78c-14 -53 -51 -88 -102 -88zM308 713h86l54 -176h-41l-68 95l-131 -95h-43z" />
    <glyph glyph-name="Gbreve" unicode="&#x11e;" horiz-adv-x="711" 
d="M510 742c83 0 114 -34 165 -34c18 0 34 7 44 20h37l-60 -252h-40c6 73 -35 216 -148 216c-99 0 -185 -63 -227 -228c-13 -51 -27 -139 -33 -192c-14 -130 36 -218 135 -218h11c47 0 103 36 123 73l-1 105c0 15 -36 59 -47 59h-87v39h373v-39h-61c-11 0 -50 -43 -50 -58
l1 -233h-12l-72 84c-43 -54 -101 -96 -185 -96c-175 0 -276 126 -276 307c0 214 162 447 410 447zM518 775c-94 0 -128 64 -104 142l32 4c-7 -49 30 -64 78 -64c57 0 111 19 139 67l32 -7c-25 -85 -99 -142 -177 -142z" />
    <glyph glyph-name="gbreve" unicode="&#x11f;" horiz-adv-x="502" 
d="M136 -40c-21 -5 -61 -24 -66 -51c-6 -35 116 -82 158 -82c43 1 156 8 156 68c0 16 -14 26 -37 26c-118 -2 -218 -3 -211 39zM479 305c-15 -95 -101 -184 -221 -184h-63c-39 -7 -54 -25 -54 -51c0 -22 19 -38 49 -41c53 -6 104 -6 174 -5c62 1 106 -32 106 -83
c0 -102 -118 -155 -249 -155c-129 0 -230 36 -230 100c0 50 64 80 121 95c-34 3 -76 29 -76 66c0 55 73 90 147 105c-33 9 -95 54 -95 133c0 124 96 205 217 205c83 0 136 -65 129 -149h6c5 70 22 202 91 192l31 -148h-27c-17 0 -53 -61 -56 -80zM259 178c51 0 88 35 102 88
c6 23 12 53 14 78c4 59 -25 100 -71 100c-51 0 -89 -33 -103 -92c-6 -25 -11 -53 -13 -77c-4 -52 21 -97 71 -97zM317 537c-94 0 -124 68 -100 146l31 4c-7 -49 27 -71 75 -71c57 0 109 24 137 74l30 -7c-25 -85 -95 -146 -173 -146z" />
    <glyph glyph-name="Gdotaccent" unicode="&#x120;" horiz-adv-x="711" 
d="M510 742c83 0 114 -34 165 -34c18 0 34 7 44 20h37l-60 -252h-40c6 73 -35 216 -148 216c-99 0 -185 -63 -227 -228c-13 -51 -27 -139 -33 -192c-14 -130 36 -218 135 -218h11c47 0 103 36 123 73l-1 105c0 15 -36 59 -47 59h-87v39h373v-39h-61c-11 0 -50 -43 -50 -58
l1 -233h-12l-72 84c-43 -54 -101 -96 -185 -96c-175 0 -276 126 -276 307c0 214 162 447 410 447zM606 848c0 -43 -33 -77 -78 -77c-44 0 -78 34 -78 77s34 77 78 77c45 0 78 -34 78 -77z" />
    <glyph glyph-name="gdotaccent" unicode="&#x121;" horiz-adv-x="502" 
d="M136 -40c-7 -42 93 -41 211 -39c23 0 37 -10 37 -26c0 -60 -113 -67 -156 -68c-42 0 -164 47 -158 82c5 27 45 46 66 51zM479 305c3 19 39 80 56 80h27l-31 148c-69 10 -86 -122 -91 -192h-6c7 84 -46 149 -129 149c-121 0 -217 -81 -217 -205c0 -79 62 -124 95 -133
c-74 -15 -147 -50 -147 -105c0 -37 42 -63 76 -66c-57 -15 -121 -45 -121 -95c0 -64 101 -100 230 -100c131 0 249 53 249 155c0 51 -44 84 -106 83c-70 -1 -121 -1 -174 5c-30 3 -49 19 -49 41c0 26 15 44 54 51h63c120 0 206 89 221 184zM259 178c-50 0 -75 45 -71 97
c2 24 7 52 13 77c14 59 52 92 103 92c46 0 75 -41 71 -100c-2 -25 -8 -55 -14 -78c-14 -53 -51 -88 -102 -88zM401 633c0 -44 -37 -81 -83 -81s-83 37 -83 81s37 81 83 81s83 -37 83 -81z" />
    <glyph glyph-name="Gcommaaccent" unicode="&#x122;" horiz-adv-x="711" 
d="M510 742c83 0 114 -34 165 -34c18 0 34 7 44 20h37l-60 -252h-40c6 73 -35 216 -148 216c-99 0 -185 -63 -227 -228c-13 -51 -27 -139 -33 -192c-14 -130 36 -218 135 -218h11c47 0 103 36 123 73l-1 105c0 15 -36 59 -47 59h-87v39h373v-39h-61c-11 0 -50 -43 -50 -58
l1 -233h-12l-72 84c-43 -54 -101 -96 -185 -96c-175 0 -276 126 -276 307c0 214 162 447 410 447zM395 -105l-4 -26c-13 -82 -85 -127 -148 -129v39c44 -1 85 26 94 56h-30c-25 6 -42 29 -42 59c0 34 29 67 69 67c36 0 67 -30 61 -66z" />
    <glyph glyph-name="gcommaaccent" unicode="&#x123;" horiz-adv-x="502" 
d="M136 -40c-7 -42 93 -41 211 -39c23 0 37 -10 37 -26c0 -60 -113 -67 -156 -68c-42 0 -164 47 -158 82c5 27 45 46 66 51zM479 305c3 19 39 80 56 80h27l-31 148c-69 10 -86 -122 -91 -192h-6c7 84 -46 149 -129 149c-121 0 -217 -81 -217 -205c0 -79 62 -124 95 -133
c-74 -15 -147 -50 -147 -105c0 -37 42 -63 76 -66c-57 -15 -121 -45 -121 -95c0 -64 101 -100 230 -100c131 0 249 53 249 155c0 51 -44 84 -106 83c-70 -1 -121 -1 -174 5c-30 3 -49 19 -49 41c0 26 15 44 54 51h63c120 0 206 89 221 184zM259 178c-50 0 -75 45 -71 97
c2 24 7 52 13 77c14 59 52 92 103 92c46 0 75 -41 71 -100c-2 -25 -8 -55 -14 -78c-14 -53 -51 -88 -102 -88zM252 613l4 26c13 82 85 127 148 129v-39c-44 1 -85 -26 -94 -56h30c25 -6 42 -29 42 -59c0 -34 -29 -67 -69 -67c-36 0 -67 30 -61 66z" />
    <glyph glyph-name="Hcircumflex" unicode="&#x124;" horiz-adv-x="722" 
d="M316 396h248l40 235c1 14 -33 60 -44 60h-37v37h299v-37h-19c-10 0 -57 -46 -59 -60l-89 -534c-3 -16 25 -60 38 -60h38v-37h-321v37h44c12 0 57 44 60 60l41 244h-248l-41 -244c-3 -16 28 -60 39 -60h40v-37h-300v37h19c12 0 56 44 59 60l89 534c2 14 -32 60 -40 60h-44
v37h324v-37h-37c-10 0 -57 -46 -59 -60zM487 931h100l62 -154h-40l-81 77l-135 -77h-46z" />
    <glyph glyph-name="hcircumflex" unicode="&#x125;" horiz-adv-x="543" 
d="M272 963h86l58 -166h-41l-71 93l-131 -93h-45zM336 101c20 82 54 182 75 245c7 21 -27 58 -46 58c-36 0 -129 -90 -131 -104l-52 -300h-116l110 634c3 17 -24 48 -36 48h-23v31c99 23 194 57 194 57l-68 -403c45 47 123 123 182 123c75 0 122 -72 99 -142
c-22 -68 -55 -171 -75 -242c-4 -17 15 -35 28 -35c10 0 39 25 49 37l19 -26c-25 -34 -81 -91 -126 -91c-54 0 -98 47 -83 110z" />
    <glyph glyph-name="Hbar" unicode="&#x126;" horiz-adv-x="722" 
d="M821 502h-99l-67 -405c-3 -16 25 -60 38 -60h38v-37h-321v37h44c12 0 57 44 60 60l41 244h-248l-41 -244c-3 -16 28 -60 39 -60h40v-37h-300v37h19c12 0 56 44 59 60l67 405h-100v48h108l14 81c2 14 -32 60 -40 60h-44v37h324v-37h-37c-10 0 -57 -46 -59 -60l-14 -81h248
l14 81c1 14 -33 60 -44 60h-37v37h299v-37h-19c-10 0 -57 -46 -59 -60l-14 -81h91v-48zM316 396h248l18 106h-248z" />
    <glyph glyph-name="hbar" unicode="&#x127;" horiz-adv-x="543" 
d="M336 101c20 82 54 182 75 245c7 21 -27 58 -46 58c-36 0 -129 -90 -131 -104l-52 -300h-116l93 540h-74l11 56h73l7 38c3 17 -24 48 -36 48h-23v31c99 23 194 57 194 57l-30 -174h199l-11 -56h-197l-29 -173c45 47 123 123 182 123c75 0 122 -72 99 -142
c-22 -68 -55 -171 -75 -242c-4 -17 15 -35 28 -35c10 0 39 25 49 37l19 -26c-25 -34 -81 -91 -126 -91c-54 0 -98 47 -83 110z" />
    <glyph glyph-name="Itilde" unicode="&#x128;" horiz-adv-x="352" 
d="M361 0h-316v37h28c12 0 57 44 60 60l89 534c2 15 -28 60 -41 60h-50v37h321v-37h-28c-14 0 -59 -45 -61 -60l-90 -534c-2 -16 25 -60 38 -60h50v-37zM460 820l-27 -21c-1 22 -13 40 -40 39c-45 -2 -101 -51 -156 -51c-47 0 -74 37 -66 97l27 21c0 -22 18 -39 40 -39
c54 0 102 50 156 50c47 0 75 -37 66 -96z" />
    <glyph glyph-name="itilde" unicode="&#x129;" horiz-adv-x="295" 
d="M91 76c2 51 48 253 51 271c3 16 -26 49 -37 49h-39v32c101 23 214 64 214 64c-14 -69 -65 -333 -73 -384c-2 -16 15 -37 28 -37c8 0 36 25 46 35l19 -26c-18 -21 -86 -90 -131 -91c-48 -1 -80 40 -78 87zM371 587l-29 -23c-6 23 -14 42 -42 41c-48 -2 -94 -56 -152 -56
c-49 0 -77 41 -70 104l29 23c0 -23 19 -41 42 -41c57 0 95 55 152 55c49 0 78 -41 70 -103z" />
    <glyph glyph-name="Imacron" unicode="&#x12a;" horiz-adv-x="352" 
d="M361 0h-316v37h28c12 0 57 44 60 60l89 534c2 15 -28 60 -41 60h-50v37h321v-37h-28c-14 0 -59 -45 -61 -60l-90 -534c-2 -16 25 -60 38 -60h50v-37zM207 879h247l-17 -80h-253z" />
    <glyph glyph-name="imacron" unicode="&#x12b;" horiz-adv-x="295" 
d="M91 76c2 51 48 253 51 271c3 16 -26 49 -37 49h-39v32c101 23 214 64 214 64c-14 -69 -65 -333 -73 -384c-2 -16 15 -37 28 -37c8 0 36 25 46 35l19 -26c-18 -21 -86 -90 -131 -91c-48 -1 -80 40 -78 87zM107 648h242l-16 -78h-243z" />
    <glyph glyph-name="Ibreve" unicode="&#x12c;" horiz-adv-x="352" 
d="M361 0h-316v37h28c12 0 57 44 60 60l89 534c2 15 -28 60 -41 60h-50v37h321v-37h-28c-14 0 -59 -45 -61 -60l-90 -534c-2 -16 25 -60 38 -60h50v-37zM314 775c-94 0 -128 64 -104 142l32 4c-7 -49 30 -64 78 -64c57 0 111 19 139 67l32 -7c-25 -85 -99 -142 -177 -142z
" />
    <glyph glyph-name="ibreve" unicode="&#x12d;" horiz-adv-x="295" 
d="M91 76c2 51 48 253 51 271c3 16 -26 49 -37 49h-39v32c101 23 214 64 214 64c-14 -69 -65 -333 -73 -384c-2 -16 15 -37 28 -37c8 0 36 25 46 35l19 -26c-18 -21 -86 -90 -131 -91c-48 -1 -80 40 -78 87zM214 537c-94 0 -124 68 -100 146l31 4c-7 -49 27 -71 75 -71
c57 0 109 24 137 74l30 -7c-25 -85 -95 -146 -173 -146z" />
    <glyph glyph-name="Iogonek" unicode="&#x12e;" horiz-adv-x="352" 
d="M176 0h-131v37h28c12 0 57 44 60 60l89 534c2 15 -28 60 -41 60h-50v37h321v-37h-28c-14 0 -59 -45 -61 -60l-90 -534c-2 -16 25 -60 38 -60h50v-37h-134c-45 -41 -58 -85 -63 -119c-2 -16 19 -37 33 -37c9 0 38 25 50 35l22 -26c-34 -35 -77 -84 -129 -84
c-58 0 -91 45 -81 92c11 49 87 121 117 139z" />
    <glyph glyph-name="iogonek" unicode="&#x12f;" horiz-adv-x="295" 
d="M160 0l77 21c-66 -47 -83 -100 -89 -140c-2 -16 19 -37 33 -37c9 0 38 25 50 35l22 -26c-34 -35 -77 -84 -129 -84c-58 0 -91 45 -81 92c9 44 70 105 104 131c-35 9 -58 44 -56 84c2 51 48 253 51 271c3 16 -26 49 -37 49h-39v32c101 23 214 64 214 64
c-14 -69 -65 -333 -73 -384c-2 -16 15 -37 28 -37c8 0 36 25 46 35l19 -26c-18 -21 -86 -90 -131 -91c-8 0 -15 1 -22 3zM175 628c0 39 32 72 73 72c40 0 73 -33 73 -72s-33 -72 -73 -72c-41 0 -73 33 -73 72z" />
    <glyph glyph-name="Idotaccent" unicode="&#x130;" horiz-adv-x="352" 
d="M45 0h316v37h-50c-13 0 -40 44 -38 60l90 534c2 15 47 60 61 60h28v37h-321v-37h50c13 0 43 -45 41 -60l-89 -534c-3 -16 -48 -60 -60 -60h-28v-37zM393 848c0 -43 -33 -77 -78 -77c-44 0 -78 34 -78 77s34 77 78 77c45 0 78 -34 78 -77z" />
    <glyph glyph-name="dotlessi" unicode="&#x131;" horiz-adv-x="309" 
d="M100 76c2 51 48 253 51 271c3 16 -26 49 -37 49h-39v32c101 23 214 64 214 64c-14 -69 -65 -333 -73 -384c-2 -16 15 -37 28 -37c8 0 36 25 46 35l19 -26c-18 -21 -86 -90 -131 -91c-48 -1 -80 40 -78 87z" />
    <glyph glyph-name="Jcircumflex" unicode="&#x134;" horiz-adv-x="399" 
d="M103 -150c-53 0 -83 35 -83 91v59h52v-59c0 -21 13 -35 34 -35c33 0 55 25 59 62l77 662c2 15 -31 61 -42 61h-54v37h313v-37h-19c-13 0 -53 -46 -55 -61l-62 -522c-23 -123 -115 -258 -220 -258zM295 931h100l62 -154h-40l-81 77l-135 -77h-46z" />
    <glyph glyph-name="jcircumflex" unicode="&#x135;" horiz-adv-x="292" 
d="M75 -129l81 454c3 17 -25 59 -36 59h-46v30c122 33 226 78 226 78l-89 -513c-16 -92 -93 -193 -174 -193c-44 0 -74 28 -65 82l13 78h41l-13 -77c-3 -18 8 -33 24 -33c17 0 35 15 38 35zM228 713h86l54 -176h-41l-68 95l-131 -95h-43z" />
    <glyph glyph-name="Kcommaaccent" unicode="&#x136;" horiz-adv-x="711" 
d="M377 329l-87 -91l-24 -141c-3 -17 26 -60 37 -60h34v-37h-292v37h19c14 0 56 43 59 60l89 534c3 16 -28 60 -40 60h-44v37h328v-37h-38c-13 0 -57 -45 -59 -60l-65 -310h7l289 301c12 13 -20 69 -32 69h-41v37h269v-37h-17c-13 0 -104 -63 -113 -73l-179 -186l154 -330
c7 -16 48 -65 61 -65h18v-37h-314v37h37c14 0 49 47 43 61zM418 -105l-4 -26c-13 -82 -85 -127 -148 -129v39c44 -1 85 26 94 56h-30c-25 6 -42 29 -42 59c0 34 29 67 69 67c36 0 67 -30 61 -66z" />
    <glyph glyph-name="kcommaaccent" unicode="&#x137;" horiz-adv-x="510" 
d="M353 35l-84 180l-59 -55l-26 -160h-118l109 633c3 15 -26 49 -38 49h-27v30c104 21 202 58 202 58l-106 -556h7l165 164c10 10 -15 66 -33 66h-50l6 35h276v-35h-20c-17 0 -109 -61 -125 -76l-75 -69l109 -215c7 -14 26 -41 41 -48v-36l-115 -12zM328 -105l-4 -26
c-13 -82 -85 -127 -148 -129v39c44 -1 85 26 94 56h-30c-25 6 -42 29 -42 59c0 34 29 67 69 67c36 0 67 -30 61 -66z" />
    <glyph glyph-name="Lacute" unicode="&#x139;" horiz-adv-x="603" 
d="M128 728h353v-37h-63c-12 0 -58 -43 -61 -60l-91 -543c-2 -13 15 -34 24 -34h131c37 0 120 180 123 210h39v-264h-538v37h20c12 0 55 43 57 59l90 535c3 17 -29 60 -41 60h-43v37zM363 917h162l-209 -140h-49z" />
    <glyph glyph-name="lacute" unicode="&#x13a;" horiz-adv-x="281" 
d="M75 76c0 37 101 557 101 557c2 15 -28 49 -38 49h-24v31c105 24 194 58 194 58l-115 -663c-3 -16 15 -37 28 -37c8 0 36 25 46 35l19 -26c-18 -21 -86 -90 -131 -91c-48 -1 -80 40 -80 87zM274 937h162l-209 -140h-49z" />
    <glyph glyph-name="Lcommaaccent" unicode="&#x13b;" horiz-adv-x="603" 
d="M128 728h353v-37h-63c-12 0 -58 -43 -61 -60l-91 -543c-2 -13 15 -34 24 -34h131c37 0 120 180 123 210h39v-264h-538v37h20c12 0 55 43 57 59l90 535c3 17 -29 60 -41 60h-43v37zM384 -105l-4 -26c-13 -82 -85 -127 -148 -129v39c44 -1 85 26 94 56h-30
c-25 6 -42 29 -42 59c0 34 29 67 69 67c36 0 67 -30 61 -66z" />
    <glyph glyph-name="lcommaaccent" unicode="&#x13c;" horiz-adv-x="281" 
d="M75 76c0 37 101 557 101 557c2 15 -28 49 -38 49h-24v31c105 24 194 58 194 58l-115 -663c-3 -16 15 -37 28 -37c8 0 36 25 46 35l19 -26c-18 -21 -86 -90 -131 -91c-48 -1 -80 40 -80 87zM195 -105l-4 -26c-13 -82 -85 -127 -148 -129v39c44 -1 85 26 94 56h-30
c-25 6 -42 29 -42 59c0 34 29 67 69 67c36 0 67 -30 61 -66z" />
    <glyph glyph-name="Lcaron" unicode="&#x13d;" horiz-adv-x="603" 
d="M128 728h353v-37h-63c-12 0 -58 -43 -61 -60l-91 -543c-2 -13 15 -34 24 -34h131c37 0 120 180 123 210h39v-264h-538v37h20c12 0 55 43 57 59l90 535c3 17 -29 60 -41 60h-43v37zM646 699l-4 -26c-13 -82 -82 -124 -145 -126v39c44 -1 82 23 91 53h-30
c-25 6 -42 29 -42 59c0 34 29 67 69 67c36 0 67 -30 61 -66z" />
    <glyph glyph-name="lcaron" unicode="&#x13e;" horiz-adv-x="387" 
d="M75 76c0 37 101 557 101 557c2 15 -28 49 -38 49h-24v31c105 24 194 58 194 58l-115 -663c-3 -16 15 -37 28 -37c8 0 36 25 46 35l19 -26c-18 -21 -86 -90 -131 -91c-48 -1 -80 40 -80 87zM464 699l-4 -26c-13 -82 -82 -124 -145 -126v39c44 -1 82 23 91 53h-30
c-25 6 -42 29 -42 59c0 34 29 67 69 67c36 0 67 -30 61 -66z" />
    <glyph glyph-name="Ldot" unicode="&#x13f;" horiz-adv-x="603" 
d="M128 728h353v-37h-63c-12 0 -58 -43 -61 -60l-91 -543c-2 -13 15 -34 24 -34h131c37 0 120 180 123 210h39v-264h-538v37h20c12 0 55 43 57 59l90 535c3 17 -29 60 -41 60h-43v37zM543 370c0 -44 -37 -81 -83 -81s-83 37 -83 81s37 81 83 81s83 -37 83 -81z" />
    <glyph glyph-name="ldot" unicode="&#x140;" horiz-adv-x="429" 
d="M75 76c0 37 101 557 101 557c2 15 -28 49 -38 49h-24v31c105 24 194 58 194 58l-115 -663c-3 -16 15 -37 28 -37c8 0 36 25 46 35l19 -26c-18 -21 -86 -90 -131 -91c-48 -1 -80 40 -80 87zM471 340c0 -44 -37 -81 -83 -81s-83 37 -83 81s37 81 83 81s83 -37 83 -81z" />
    <glyph glyph-name="Lslash" unicode="&#x141;" horiz-adv-x="603" 
d="M128 728h353v-37h-63c-12 0 -58 -43 -61 -60l-42 -247l229 129l-11 -63l-228 -129l-39 -233c-2 -13 15 -34 24 -34h131c37 0 120 180 123 210h39v-264h-538v37h20c12 0 55 43 57 59l22 134l-87 -49l11 63l87 49l57 338c3 17 -29 60 -41 60h-43v37z" />
    <glyph glyph-name="lslash" unicode="&#x142;" horiz-adv-x="285" 
d="M345 428l-97 -46l-47 -274c-3 -16 15 -37 28 -37c8 0 36 25 46 35l19 -26c-18 -21 -86 -90 -131 -91c-48 -1 -80 40 -80 87c0 16 20 129 42 248l-73 -34v50l83 39c25 131 49 254 49 254c2 15 -28 49 -38 49h-24v31c105 24 194 58 194 58l-58 -334l87 42v-51z" />
    <glyph glyph-name="Nacute" unicode="&#x143;" horiz-adv-x="708" 
d="M723 623l-107 -642l-339 617h-5l-78 -485c-3 -16 40 -76 52 -76h46v-37h-247v37h19c11 0 73 60 75 76l87 512c1 15 -31 66 -40 66h-41v37h223l241 -449h5l56 344c3 16 -33 68 -43 68h-44v37h225v-37h-19c-12 0 -63 -52 -66 -68zM545 917h162l-209 -140h-49z" />
    <glyph glyph-name="nacute" unicode="&#x144;" horiz-adv-x="563" 
d="M385 404c-36 0 -131 -90 -133 -104l-53 -300h-116l62 350c2 14 -24 48 -36 48h-40v30c83 26 176 63 176 63v-138h5c45 50 136 137 195 137c75 0 122 -72 99 -142c-22 -68 -55 -171 -75 -242c-4 -17 15 -35 28 -35c10 0 39 25 49 37l19 -26c-25 -34 -81 -91 -126 -91
c-54 0 -98 47 -83 110c20 82 54 182 75 245c7 21 -27 58 -46 58zM399 713h141l-191 -176h-37z" />
    <glyph glyph-name="Ncommaaccent" unicode="&#x145;" horiz-adv-x="708" 
d="M723 623l-107 -642l-339 617h-5l-78 -485c-3 -16 40 -76 52 -76h46v-37h-247v37h19c11 0 73 60 75 76l87 512c1 15 -31 66 -40 66h-41v37h223l241 -449h5l56 344c3 16 -33 68 -43 68h-44v37h225v-37h-19c-12 0 -63 -52 -66 -68zM449 -105l-4 -26
c-13 -82 -85 -127 -148 -129v39c44 -1 85 26 94 56h-30c-25 6 -42 29 -42 59c0 34 29 67 69 67c36 0 67 -30 61 -66z" />
    <glyph glyph-name="ncommaaccent" unicode="&#x146;" horiz-adv-x="563" 
d="M385 404c-36 0 -131 -90 -133 -104l-53 -300h-116l62 350c2 14 -24 48 -36 48h-40v30c83 26 176 63 176 63v-138h5c45 50 136 137 195 137c75 0 122 -72 99 -142c-22 -68 -55 -171 -75 -242c-4 -17 15 -35 28 -35c10 0 39 25 49 37l19 -26c-25 -34 -81 -91 -126 -91
c-54 0 -98 47 -83 110c20 82 54 182 75 245c7 21 -27 58 -46 58zM335 -105l-4 -26c-13 -82 -85 -127 -148 -129v39c44 -1 85 26 94 56h-30c-25 6 -42 29 -42 59c0 34 29 67 69 67c36 0 67 -30 61 -66z" />
    <glyph glyph-name="Ncaron" unicode="&#x147;" horiz-adv-x="708" 
d="M723 623l-107 -642l-339 617h-5l-78 -485c-3 -16 40 -76 52 -76h46v-37h-247v37h19c11 0 73 60 75 76l87 512c1 15 -31 66 -40 66h-41v37h223l241 -449h5l56 344c3 16 -33 68 -43 68h-44v37h225v-37h-19c-12 0 -63 -52 -66 -68zM542 777h-101l-62 154h39l82 -78l134 78
h46z" />
    <glyph glyph-name="ncaron" unicode="&#x148;" horiz-adv-x="563" 
d="M385 404c-36 0 -131 -90 -133 -104l-53 -300h-116l62 350c2 14 -24 48 -36 48h-40v30c83 26 176 63 176 63v-138h5c45 50 136 137 195 137c75 0 122 -72 99 -142c-22 -68 -55 -171 -75 -242c-4 -17 15 -35 28 -35c10 0 39 25 49 37l19 -26c-25 -34 -81 -91 -126 -91
c-54 0 -98 47 -83 110c20 82 54 182 75 245c7 21 -27 58 -46 58zM405 537h-86l-58 176h41l70 -95l134 95h43z" />
    <glyph glyph-name="Eng" unicode="&#x14a;" horiz-adv-x="708" 
d="M466 -150c-50 0 -85 37 -85 91v59h52v-59c0 -21 14 -35 35 -35c33 0 52 25 58 62l23 132l-272 498h-5l-78 -485c-3 -16 40 -76 52 -76h46v-37h-247v37h19c11 0 73 60 75 76l87 512c1 15 -31 66 -40 66h-41v37h223l241 -449h5l56 344c3 16 -33 68 -43 68h-44v37h225v-37
h-19c-12 0 -63 -52 -66 -68l-92 -550c-21 -123 -60 -223 -165 -223z" />
    <glyph glyph-name="eng" unicode="&#x14b;" horiz-adv-x="563" 
d="M290 -130l141 476c6 21 -27 58 -46 58c-36 0 -131 -90 -133 -104l-53 -300h-116l62 350c2 14 -24 48 -36 48h-40v30c83 26 176 63 176 63v-138h5c45 50 136 137 195 137c75 0 119 -72 99 -142c-19 -68 -51 -171 -112 -371c-28 -89 -101 -191 -182 -191
c-44 0 -74 28 -65 82l10 59h41l-10 -58c-3 -18 8 -33 24 -33c17 0 34 15 40 34z" />
    <glyph glyph-name="Omacron" unicode="&#x14c;" horiz-adv-x="762" 
d="M512 742c179 -1 294 -138 288 -316c-12 -223 -182 -438 -413 -438c-178 0 -289 132 -286 313c0 223 187 442 411 441zM504 689c-105 0 -196 -94 -226 -222c-14 -59 -31 -158 -37 -218c-13 -132 44 -202 155 -202c101 0 193 87 226 216c15 59 31 158 36 218
c11 132 -44 208 -154 208zM427 879h247l-17 -80h-253z" />
    <glyph glyph-name="omacron" unicode="&#x14d;" horiz-adv-x="519" 
d="M262 45c53 0 110 56 128 129c13 52 21 100 25 153c6 73 -26 113 -83 113c-52 0 -106 -53 -125 -127c-13 -50 -21 -99 -25 -149c-6 -76 23 -119 80 -119zM256 -11c-114 0 -186 76 -186 200c0 151 118 301 267 301c116 0 187 -81 187 -203c0 -153 -119 -298 -268 -298z
M244 648h242l-16 -78h-243z" />
    <glyph glyph-name="Obreve" unicode="&#x14e;" horiz-adv-x="762" 
d="M512 742c179 -1 294 -138 288 -316c-12 -223 -182 -438 -413 -438c-178 0 -289 132 -286 313c0 223 187 442 411 441zM504 689c-105 0 -196 -94 -226 -222c-14 -59 -31 -158 -37 -218c-13 -132 44 -202 155 -202c101 0 193 87 226 216c15 59 31 158 36 218
c11 132 -44 208 -154 208zM528 775c-94 0 -128 64 -104 142l32 4c-7 -49 30 -64 78 -64c57 0 111 19 139 67l32 -7c-25 -85 -99 -142 -177 -142z" />
    <glyph glyph-name="obreve" unicode="&#x14f;" horiz-adv-x="519" 
d="M262 45c53 0 110 56 128 129c13 52 21 100 25 153c6 73 -26 113 -83 113c-52 0 -106 -53 -125 -127c-13 -50 -21 -99 -25 -149c-6 -76 23 -119 80 -119zM256 -11c-114 0 -186 76 -186 200c0 151 118 301 267 301c116 0 187 -81 187 -203c0 -153 -119 -298 -268 -298z
M355 537c-94 0 -124 68 -100 146l31 4c-7 -49 27 -71 75 -71c57 0 109 24 137 74l30 -7c-25 -85 -95 -146 -173 -146z" />
    <glyph glyph-name="Ohungarumlaut" unicode="&#x150;" horiz-adv-x="762" 
d="M512 742c179 -1 294 -138 288 -316c-12 -223 -182 -438 -413 -438c-178 0 -289 132 -286 313c0 223 187 442 411 441zM504 689c-105 0 -196 -94 -226 -222c-14 -59 -31 -158 -37 -218c-13 -132 44 -202 155 -202c101 0 193 87 226 216c15 59 31 158 36 218
c11 132 -44 208 -154 208zM656 917h147l-188 -140h-45zM488 917h143l-186 -140h-43z" />
    <glyph glyph-name="ohungarumlaut" unicode="&#x151;" horiz-adv-x="519" 
d="M256 -11c-114 0 -186 76 -186 200c0 151 118 301 267 301c116 0 187 -81 187 -203c0 -153 -119 -298 -268 -298zM262 45c53 0 110 56 128 129c13 52 21 100 25 153c6 73 -26 113 -83 113c-52 0 -106 -53 -125 -127c-13 -50 -21 -99 -25 -149c-6 -76 23 -119 80 -119z
M496 713h135l-196 -176h-42zM329 713h132l-184 -176h-40z" />
    <glyph glyph-name="OE" unicode="&#x152;" horiz-adv-x="970" 
d="M397 51c13 0 58 41 61 57l87 511c3 17 -28 60 -41 60c-106 0 -196 -89 -227 -218c-14 -58 -30 -147 -37 -207c-15 -132 46 -203 157 -203zM608 50h164c35 0 126 160 126 188h37v-238h-550c-178 0 -285 125 -285 306c0 223 186 422 410 422h494l-34 -199h-34
c3 20 -71 151 -86 151h-137c-4 0 -18 -14 -19 -20l-44 -263h43c15 0 85 60 85 75v18h38v-239h-38v21c0 17 -70 76 -85 76h-51l-47 -276c0 -6 8 -22 13 -22z" />
    <glyph glyph-name="oe" unicode="&#x153;" horiz-adv-x="777" 
d="M618 247c-47 -8 -106 -14 -106 -14c-13 -84 20 -150 100 -150c61 0 111 40 140 101h37c-38 -111 -126 -195 -219 -195c-76 0 -120 37 -140 84c-44 -47 -107 -84 -174 -84c-114 0 -186 76 -186 200c0 151 118 301 267 301c75 0 122 -37 152 -86c45 50 102 86 164 86
c73 0 132 -34 132 -104c0 -81 -72 -123 -167 -139zM262 45c52 0 110 56 128 129c13 52 21 100 25 153c6 73 -26 113 -83 113c-50 0 -107 -53 -125 -127c-12 -50 -20 -95 -25 -149c-7 -76 23 -119 80 -119zM515 268c0 0 54 9 106 22c47 12 89 44 89 92c0 39 -24 65 -59 65
c-64 -7 -125 -103 -136 -179z" />
    <glyph glyph-name="Racute" unicode="&#x154;" horiz-adv-x="676" 
d="M421 265c-12 39 -32 60 -52 60h-64l-38 -228c-2 -15 27 -60 40 -60h45v-37h-307v37h20c11 0 55 45 58 60l89 535c3 15 -28 59 -40 59h-44v37h317c130 0 230 -50 230 -166c0 -115 -102 -198 -227 -212l100 -18c42 -112 85 -210 127 -285c3 -5 11 -10 21 -10v-37l-147 -12
l-34 37c-38 79 -71 166 -94 240zM360 649l-47 -273h68c48 7 118 41 139 114c7 25 10 50 12 76c6 74 -42 117 -96 117h-40c-12 0 -34 -22 -36 -34zM456 917h162l-209 -140h-49z" />
    <glyph glyph-name="racute" unicode="&#x155;" horiz-adv-x="393" 
d="M224 299h4c26 55 43 95 60 123c30 51 57 68 92 68c16 0 32 -4 50 -11v-81l-27 -29h-45c-43 0 -75 -35 -114 -105l-44 -264h-115l59 342c3 17 -27 48 -39 48h-36v30c77 28 155 71 155 71v-192zM323 713h141l-191 -176h-37z" />
    <glyph glyph-name="Rcommaaccent" unicode="&#x156;" horiz-adv-x="676" 
d="M421 265c-12 39 -32 60 -52 60h-64l-38 -228c-2 -15 27 -60 40 -60h45v-37h-307v37h20c11 0 55 45 58 60l89 535c3 15 -28 59 -40 59h-44v37h317c130 0 230 -50 230 -166c0 -115 -102 -198 -227 -212l100 -18c42 -112 85 -210 127 -285c3 -5 11 -10 21 -10v-37l-147 -12
l-34 37c-38 79 -71 166 -94 240zM360 649l-47 -273h68c48 7 118 41 139 114c7 25 10 50 12 76c6 74 -42 117 -96 117h-40c-12 0 -34 -22 -36 -34zM460 -105l-4 -26c-13 -82 -85 -127 -148 -129v39c44 -1 85 26 94 56h-30c-25 6 -42 29 -42 59c0 34 29 67 69 67
c36 0 67 -30 61 -66z" />
    <glyph glyph-name="rcommaaccent" unicode="&#x157;" horiz-adv-x="393" 
d="M224 299h4c26 55 43 95 60 123c30 51 57 68 92 68c16 0 32 -4 50 -11v-81l-27 -29h-45c-43 0 -75 -35 -114 -105l-44 -264h-115l59 342c3 17 -27 48 -39 48h-36v30c77 28 155 71 155 71v-192zM194 -105l-4 -26c-13 -82 -85 -127 -148 -129v39c44 -1 85 26 94 56h-30
c-25 6 -42 29 -42 59c0 34 29 67 69 67c36 0 67 -30 61 -66z" />
    <glyph glyph-name="Rcaron" unicode="&#x158;" horiz-adv-x="676" 
d="M421 265c-12 39 -32 60 -52 60h-64l-38 -228c-2 -15 27 -60 40 -60h45v-37h-307v37h20c11 0 55 45 58 60l89 535c3 15 -28 59 -40 59h-44v37h317c130 0 230 -50 230 -166c0 -115 -102 -198 -227 -212l100 -18c42 -112 85 -210 127 -285c3 -5 11 -10 21 -10v-37l-147 -12
l-34 37c-38 79 -71 166 -94 240zM360 649l-47 -273h68c48 7 118 41 139 114c7 25 10 50 12 76c6 74 -42 117 -96 117h-40c-12 0 -34 -22 -36 -34zM470 777h-101l-62 154h39l82 -78l134 78h46z" />
    <glyph glyph-name="rcaron" unicode="&#x159;" horiz-adv-x="393" 
d="M224 299h4c26 55 43 95 60 123c30 51 57 68 92 68c16 0 32 -4 50 -11v-81l-27 -29h-45c-43 0 -75 -35 -114 -105l-44 -264h-115l59 342c3 17 -27 48 -39 48h-36v30c77 28 155 71 155 71v-192zM331 537h-86l-58 176h41l70 -95l134 95h43z" />
    <glyph glyph-name="Sacute" unicode="&#x15a;" horiz-adv-x="578" 
d="M323 44c80 0 138 38 138 112c0 81 -84 117 -145 150c-96 52 -172 118 -172 216c0 131 102 219 241 219c58 0 105 -30 143 -30c17 0 38 6 48 17h32l-50 -206h-35c4 42 -55 172 -138 172c-74 0 -125 -41 -125 -106c0 -77 73 -116 130 -147c94 -51 188 -104 188 -219
c0 -142 -108 -233 -256 -233c-58 0 -99 32 -148 32c-21 0 -37 -8 -51 -21h-33v238h37c-5 -50 104 -194 196 -194zM456 917h162l-209 -140h-49z" />
    <glyph glyph-name="sacute" unicode="&#x15b;" horiz-adv-x="427" 
d="M212 -11c-59 0 -138 43 -160 94c-23 52 65 82 84 29c12 -33 58 -70 94 -70c55 0 94 20 94 65c0 48 -64 64 -98 80c-63 29 -127 67 -127 137c0 92 85 165 189 165c54 0 122 -29 147 -83c23 -49 -61 -78 -77 -32c-11 31 -50 69 -82 69c-50 0 -88 -21 -88 -62s55 -65 96 -83
c57 -25 136 -55 136 -135c0 -97 -94 -174 -208 -174zM330 713h141l-191 -176h-37z" />
    <glyph glyph-name="Scircumflex" unicode="&#x15c;" horiz-adv-x="578" 
d="M323 44c80 0 138 38 138 112c0 81 -84 117 -145 150c-96 52 -172 118 -172 216c0 131 102 219 241 219c58 0 105 -30 143 -30c17 0 38 6 48 17h32l-50 -206h-35c4 42 -55 172 -138 172c-74 0 -125 -41 -125 -106c0 -77 73 -116 130 -147c94 -51 188 -104 188 -219
c0 -142 -108 -233 -256 -233c-58 0 -99 32 -148 32c-21 0 -37 -8 -51 -21h-33v238h37c-5 -50 104 -194 196 -194zM393 931h100l62 -154h-40l-81 77l-135 -77h-46z" />
    <glyph glyph-name="scircumflex" unicode="&#x15d;" horiz-adv-x="427" 
d="M212 -11c-59 0 -138 43 -160 94c-23 52 65 82 84 29c12 -33 58 -70 94 -70c55 0 94 20 94 65c0 48 -64 64 -98 80c-63 29 -127 67 -127 137c0 92 85 165 189 165c54 0 122 -29 147 -83c23 -49 -61 -78 -77 -32c-11 31 -50 69 -82 69c-50 0 -88 -21 -88 -62s55 -65 96 -83
c57 -25 136 -55 136 -135c0 -97 -94 -174 -208 -174zM292 713h86l54 -176h-41l-68 95l-131 -95h-43z" />
    <glyph glyph-name="Scedilla" unicode="&#x15e;" horiz-adv-x="578" 
d="M264 -79l33 70c-45 7 -81 30 -123 30c-21 0 -37 -8 -51 -21h-33v238h37c-5 -50 104 -194 196 -194c80 0 138 38 138 112c0 81 -84 117 -145 150c-96 52 -172 118 -172 216c0 131 102 219 241 219c58 0 105 -30 143 -30c17 0 38 6 48 17h32l-50 -206h-35
c4 42 -55 172 -138 172c-74 0 -125 -41 -125 -106c0 -77 73 -116 130 -147c94 -51 188 -104 188 -219c0 -135 -98 -224 -235 -232l-35 -50c15 10 29 14 47 14c39 0 66 -27 66 -64c0 -65 -60 -103 -128 -103c-43 0 -76 23 -91 51l35 27c13 -19 33 -31 57 -31
c33 0 59 20 59 47c0 19 -14 30 -32 30c-13 0 -22 -4 -34 -10z" />
    <glyph glyph-name="scedilla" unicode="&#x15f;" horiz-adv-x="427" 
d="M136 -79l35 74c-50 13 -102 48 -119 88c-23 52 65 82 84 29c12 -33 58 -70 94 -70c55 0 94 20 94 65c0 48 -64 64 -98 80c-63 29 -127 67 -127 137c0 92 85 165 189 165c54 0 122 -29 147 -83c23 -49 -61 -78 -77 -32c-11 31 -50 69 -82 69c-50 0 -88 -21 -88 -62
s55 -65 96 -83c57 -25 136 -55 136 -135c0 -97 -93 -173 -206 -174l-34 -49c15 10 29 14 47 14c39 0 66 -27 66 -64c0 -65 -60 -103 -128 -103c-43 0 -76 23 -91 51l35 27c13 -19 33 -31 57 -31c33 0 59 20 59 47c0 19 -14 30 -32 30c-13 0 -22 -4 -34 -10z" />
    <glyph glyph-name="Scaron" unicode="&#x160;" horiz-adv-x="578" 
d="M323 44c80 0 138 38 138 112c0 81 -84 117 -145 150c-96 52 -172 118 -172 216c0 131 102 219 241 219c58 0 105 -30 143 -30c17 0 38 6 48 17h32l-50 -206h-35c4 42 -55 172 -138 172c-74 0 -125 -41 -125 -106c0 -77 73 -116 130 -147c94 -51 188 -104 188 -219
c0 -142 -108 -233 -256 -233c-58 0 -99 32 -148 32c-21 0 -37 -8 -51 -21h-33v238h37c-5 -50 104 -194 196 -194zM452 777h-101l-62 154h39l82 -78l134 78h46z" />
    <glyph glyph-name="scaron" unicode="&#x161;" horiz-adv-x="427" 
d="M212 -11c-59 0 -138 43 -160 94c-23 52 65 82 84 29c12 -33 58 -70 94 -70c55 0 94 20 94 65c0 48 -64 64 -98 80c-63 29 -127 67 -127 137c0 92 85 165 189 165c54 0 122 -29 147 -83c23 -49 -61 -78 -77 -32c-11 31 -50 69 -82 69c-50 0 -88 -21 -88 -62s55 -65 96 -83
c57 -25 136 -55 136 -135c0 -97 -94 -174 -208 -174zM340 537h-86l-58 176h41l70 -95l134 95h43z" />
    <glyph glyph-name="uni0162" unicode="&#x162;" horiz-adv-x="664" 
d="M267 -79l38 79h-146v37h51c13 0 57 46 60 60l97 583h-76c-28 0 -157 -164 -159 -190h-37s36 128 57 252h34c15 -14 91 -14 111 -14h298c21 0 94 0 115 14h34c-20 -124 -25 -252 -25 -252h-34c0 29 -74 190 -97 190h-76l-97 -583c-3 -15 25 -60 38 -60h51v-37h-151
l-42 -60c15 10 29 14 47 14c39 0 66 -27 66 -64c0 -65 -60 -103 -128 -103c-43 0 -76 23 -91 51l35 27c13 -19 33 -31 57 -31c33 0 59 20 59 47c0 19 -14 30 -32 30c-13 0 -22 -4 -34 -10z" />
    <glyph glyph-name="uni0163" unicode="&#x163;" horiz-adv-x="342" 
d="M119 -79l36 77c-34 16 -63 54 -55 102l50 288c2 11 -15 36 -23 36h-58v55h96l64 129h78l-25 -129h110v-57h-118l-54 -305c-3 -19 19 -46 34 -46c23 0 65 38 75 48l20 -31c-18 -23 -94 -94 -152 -99l-34 -49c15 10 29 14 47 14c39 0 66 -27 66 -64
c0 -65 -60 -103 -128 -103c-43 0 -76 23 -91 51l35 27c13 -19 33 -31 57 -31c33 0 59 20 59 47c0 19 -14 30 -32 30c-13 0 -22 -4 -34 -10z" />
    <glyph glyph-name="Tcaron" unicode="&#x164;" horiz-adv-x="664" 
d="M588 680h-76l-97 -583c-3 -15 25 -60 38 -60h51v-37h-345v37h51c13 0 57 46 60 60l97 583h-76c-28 0 -157 -164 -159 -190h-37s36 128 57 252h34c15 -14 91 -14 111 -14h298c21 0 94 0 115 14h34c-20 -124 -25 -252 -25 -252h-34c0 29 -74 190 -97 190zM503 777h-101
l-62 154h39l82 -78l134 78h46z" />
    <glyph glyph-name="tcaron" unicode="&#x165;" horiz-adv-x="399" 
d="M274 422l-54 -305c-3 -19 19 -46 34 -46c23 0 65 38 75 48l20 -31c-18 -23 -99 -98 -157 -99c-47 -1 -103 47 -92 111l50 288c2 11 -15 36 -23 36h-58v55h96l64 129h78l-25 -129h110v-57h-118zM490 689l-4 -26c-13 -82 -82 -124 -145 -126v39c44 -1 82 23 91 53h-30
c-25 6 -42 29 -42 59c0 34 29 67 69 67c36 0 67 -30 61 -66z" />
    <glyph glyph-name="Tbar" unicode="&#x166;" horiz-adv-x="664" 
d="M588 680h-76l-50 -299h133v-48h-141l-39 -236c-3 -15 25 -60 38 -60h51v-37h-345v37h51c13 0 57 46 60 60l39 236h-138v48h146l50 299h-76c-28 0 -157 -164 -159 -190h-37s36 128 57 252h34c15 -14 91 -14 111 -14h298c21 0 94 0 115 14h34c-20 -124 -25 -252 -25 -252
h-34c0 29 -74 190 -97 190z" />
    <glyph glyph-name="tbar" unicode="&#x167;" horiz-adv-x="342" 
d="M274 422l-23 -131h121v-56h-131l-21 -118c-3 -19 19 -46 34 -46c23 0 65 38 75 48l20 -31c-18 -23 -99 -98 -157 -99c-47 -1 -103 47 -92 111l23 135h-75v56h85l17 97c2 11 -15 36 -23 36h-58v55h96l64 129h78l-25 -129h110v-57h-118z" />
    <glyph glyph-name="Utilde" unicode="&#x168;" horiz-adv-x="709" 
d="M722 614l-48 -365c-22 -164 -145 -261 -300 -261c-143 0 -252 121 -222 285l65 354c2 11 -32 64 -39 64h-43v37h309v-37h-23c-9 0 -59 -53 -61 -64l-67 -367c-21 -117 38 -191 135 -190c105 1 180 79 193 177l48 367c1 13 -39 77 -48 77h-46v37h234v-37h-17
c-9 0 -68 -64 -70 -77zM672 820l-27 -21c-1 22 -13 40 -40 39c-45 -2 -101 -51 -156 -51c-47 0 -74 37 -66 97l27 21c0 -22 18 -39 40 -39c54 0 102 50 156 50c47 0 75 -37 66 -96z" />
    <glyph glyph-name="utilde" unicode="&#x169;" horiz-adv-x="559" 
d="M280 380l-69 -237c-10 -36 7 -69 40 -69c31 0 91 47 127 89l55 316h113l-64 -366c-2 -13 15 -36 27 -36c10 0 36 24 47 34l19 -27c-18 -19 -85 -92 -127 -93c-51 -1 -72 44 -70 94l1 21h-5c-54 -61 -117 -118 -185 -118s-111 75 -94 141l72 242c4 14 -15 37 -28 37
c-8 0 -36 -25 -46 -35l-23 23c18 21 87 93 132 94c56 1 94 -53 78 -110zM516 587l-29 -23c-6 23 -14 42 -42 41c-48 -2 -94 -56 -152 -56c-49 0 -77 41 -70 104l29 23c0 -23 19 -41 42 -41c57 0 95 55 152 55c49 0 78 -41 70 -103z" />
    <glyph glyph-name="Umacron" unicode="&#x16a;" horiz-adv-x="709" 
d="M722 614l-48 -365c-22 -164 -145 -261 -300 -261c-143 0 -252 121 -222 285l65 354c2 11 -32 64 -39 64h-43v37h309v-37h-23c-9 0 -59 -53 -61 -64l-67 -367c-21 -117 38 -191 135 -190c105 1 180 79 193 177l48 367c1 13 -39 77 -48 77h-46v37h234v-37h-17
c-9 0 -68 -64 -70 -77zM422 879h247l-17 -80h-253z" />
    <glyph glyph-name="umacron" unicode="&#x16b;" horiz-adv-x="559" 
d="M280 380l-69 -237c-10 -36 7 -69 40 -69c31 0 91 47 127 89l55 316h113l-64 -366c-2 -13 15 -36 27 -36c10 0 36 24 47 34l19 -27c-18 -19 -85 -92 -127 -93c-51 -1 -72 44 -70 94l1 21h-5c-54 -61 -117 -118 -185 -118s-111 75 -94 141l72 242c4 14 -15 37 -28 37
c-8 0 -36 -25 -46 -35l-23 23c18 21 87 93 132 94c56 1 94 -53 78 -110zM261 648h242l-16 -78h-243z" />
    <glyph glyph-name="Ubreve" unicode="&#x16c;" horiz-adv-x="709" 
d="M722 614l-48 -365c-22 -164 -145 -261 -300 -261c-143 0 -252 121 -222 285l65 354c2 11 -32 64 -39 64h-43v37h309v-37h-23c-9 0 -59 -53 -61 -64l-67 -367c-21 -117 38 -191 135 -190c105 1 180 79 193 177l48 367c1 13 -39 77 -48 77h-46v37h234v-37h-17
c-9 0 -68 -64 -70 -77zM522 775c-94 0 -128 64 -104 142l32 4c-7 -49 30 -64 78 -64c57 0 111 19 139 67l32 -7c-25 -85 -99 -142 -177 -142z" />
    <glyph glyph-name="ubreve" unicode="&#x16d;" horiz-adv-x="559" 
d="M280 380l-69 -237c-10 -36 7 -69 40 -69c31 0 91 47 127 89l55 316h113l-64 -366c-2 -13 15 -36 27 -36c10 0 36 24 47 34l19 -27c-18 -19 -85 -92 -127 -93c-51 -1 -72 44 -70 94l1 21h-5c-54 -61 -117 -118 -185 -118s-111 75 -94 141l72 242c4 14 -15 37 -28 37
c-8 0 -36 -25 -46 -35l-23 23c18 21 87 93 132 94c56 1 94 -53 78 -110zM365 537c-94 0 -124 68 -100 146l31 4c-7 -49 27 -71 75 -71c57 0 109 24 137 74l30 -7c-25 -85 -95 -146 -173 -146z" />
    <glyph glyph-name="Uring" unicode="&#x16e;" horiz-adv-x="709" 
d="M722 614l-48 -365c-22 -164 -145 -261 -300 -261c-143 0 -252 121 -222 285l65 354c2 11 -32 64 -39 64h-43v37h309v-37h-23c-9 0 -59 -53 -61 -64l-67 -367c-21 -117 38 -191 135 -190c105 1 180 79 193 177l48 367c1 13 -39 77 -48 77h-46v37h234v-37h-17
c-9 0 -68 -64 -70 -77zM409 865c0 59 54 108 111 108c58 0 110 -49 110 -108c0 -61 -52 -108 -110 -108c-57 0 -111 47 -111 108zM463 865c0 -34 23 -57 57 -57c33 0 56 23 56 57c0 33 -23 56 -56 56c-34 0 -57 -23 -57 -56z" />
    <glyph glyph-name="uring" unicode="&#x16f;" horiz-adv-x="559" 
d="M280 380l-69 -237c-10 -36 7 -69 40 -69c31 0 91 47 127 89l55 316h113l-64 -366c-2 -13 15 -36 27 -36c10 0 36 24 47 34l19 -27c-18 -19 -85 -92 -127 -93c-51 -1 -72 44 -70 94l1 21h-5c-54 -61 -117 -118 -185 -118s-111 75 -94 141l72 242c4 14 -15 37 -28 37
c-8 0 -36 -25 -46 -35l-23 23c18 21 87 93 132 94c56 1 94 -53 78 -110zM267 636c0 59 52 107 109 107c58 0 108 -48 108 -107c0 -61 -50 -107 -108 -107c-57 0 -109 46 -109 107zM320 636c0 -31 25 -56 56 -56c30 0 55 25 55 56c0 30 -25 55 -55 55c-31 0 -56 -25 -56 -55z
" />
    <glyph glyph-name="Uhungarumlaut" unicode="&#x170;" horiz-adv-x="709" 
d="M722 614l-48 -365c-22 -164 -145 -261 -300 -261c-143 0 -252 121 -222 285l65 354c2 11 -32 64 -39 64h-43v37h309v-37h-23c-9 0 -59 -53 -61 -64l-67 -367c-21 -117 38 -191 135 -190c105 1 180 79 193 177l48 367c1 13 -39 77 -48 77h-46v37h234v-37h-17
c-9 0 -68 -64 -70 -77zM658 917h147l-188 -140h-45zM490 917h143l-186 -140h-43z" />
    <glyph glyph-name="uhungarumlaut" unicode="&#x171;" horiz-adv-x="559" 
d="M280 380l-69 -237c-10 -36 7 -69 40 -69c31 0 91 47 127 89l55 316h113l-64 -366c-2 -13 15 -36 27 -36c10 0 36 24 47 34l19 -27c-18 -19 -85 -92 -127 -93c-51 -1 -72 44 -70 94l1 21h-5c-54 -61 -117 -118 -185 -118s-111 75 -94 141l72 242c4 14 -15 37 -28 37
c-8 0 -36 -25 -46 -35l-23 23c18 21 87 93 132 94c56 1 94 -53 78 -110zM508 713h135l-196 -176h-42zM341 713h132l-184 -176h-40z" />
    <glyph glyph-name="Uogonek" unicode="&#x172;" horiz-adv-x="709" 
d="M722 614l-48 -365c-15 -108 -73 -187 -156 -229c-65 -46 -82 -99 -88 -139c-2 -16 19 -37 33 -37c9 0 38 25 50 35l22 -26c-34 -35 -77 -84 -129 -84c-58 0 -91 45 -81 92c10 44 71 106 106 132c-19 -3 -38 -5 -57 -5c-143 0 -252 121 -222 285l65 354
c2 11 -32 64 -39 64h-43v37h309v-37h-23c-9 0 -59 -53 -61 -64l-67 -367c-21 -117 38 -191 135 -190c105 1 180 79 193 177l48 367c1 13 -39 77 -48 77h-46v37h234v-37h-17c-9 0 -68 -64 -70 -77z" />
    <glyph glyph-name="uogonek" unicode="&#x173;" horiz-adv-x="559" 
d="M280 380l-69 -237c-10 -36 7 -69 40 -69c31 0 91 47 127 89l55 316h113l-64 -366c-2 -13 15 -36 27 -36c10 0 36 24 47 34l19 -27c-13 -13 -48 -52 -83 -75c-53 -44 -68 -91 -73 -128c-2 -16 19 -37 33 -37c9 0 38 25 50 35l22 -26c-34 -35 -77 -84 -129 -84
c-58 0 -91 45 -81 92c10 46 75 110 109 134c-33 12 -47 49 -45 90l1 21h-5c-54 -61 -117 -118 -185 -118s-111 75 -94 141l72 242c4 14 -15 37 -28 37c-8 0 -36 -25 -46 -35l-23 23c18 21 87 93 132 94c56 1 94 -53 78 -110z" />
    <glyph glyph-name="Wcircumflex" unicode="&#x174;" horiz-adv-x="937" 
d="M557 522l-210 -493l-62 -39l-90 616c-3 17 -45 85 -57 85h-13v37h324v-37h-47c-13 0 -57 -64 -61 -83l40 -371h3l157 373l128 132l66 -504h4l150 370c3 19 -26 83 -37 83h-48v37h248v-37h-12c-12 0 -86 -68 -95 -84l-253 -578l-62 -39l-68 532h-5zM631 931h100l62 -154
h-40l-81 77l-135 -77h-46z" />
    <glyph glyph-name="wcircumflex" unicode="&#x175;" horiz-adv-x="680" 
d="M496 184l97 202c7 14 -10 58 -21 58h-45l-8 35h201v-35h-18c-10 0 -49 -42 -60 -58l-182 -359l-54 -39s-20 208 -44 331h-5l-145 -292l-56 -39s-26 243 -50 397c-3 16 -32 59 -43 59h-20v35h178v-92c12 -96 22 -204 22 -204h4l100 225l96 106c28 -145 49 -330 49 -330h4z
M412 713h86l54 -176h-41l-68 95l-131 -95h-43z" />
    <glyph glyph-name="Ycircumflex" unicode="&#x176;" horiz-adv-x="641" 
d="M448 304l-34 -207c-3 -14 26 -60 37 -60h51v-37h-339v37h51c10 0 54 46 57 60l36 208l-102 306c-5 13 -51 80 -65 80h-19v37h330v-37h-43c-12 0 -50 -57 -55 -76l70 -259h6l152 256c2 18 -15 79 -26 79h-42v37h237v-37h-17c-15 -3 -84 -64 -95 -80zM450 931h100l62 -154
h-40l-81 77l-135 -77h-46z" />
    <glyph glyph-name="ycircumflex" unicode="&#x177;" horiz-adv-x="453" 
d="M108 384c37 -153 71 -358 71 -358l-115 -232h67l110 231l205 361c12 16 52 58 61 58h15v35h-185v-35h32c12 0 30 -39 26 -58l-120 -227h-7s-19 127 -36 224v96h-189v-35h18c11 0 42 -45 47 -60zM309 713h86l54 -176h-41l-68 95l-131 -95h-43z" />
    <glyph glyph-name="Ydieresis" unicode="&#x178;" horiz-adv-x="641" 
d="M448 304l-34 -207c-3 -14 26 -60 37 -60h51v-37h-339v37h51c10 0 54 46 57 60l36 208l-102 306c-5 13 -51 80 -65 80h-19v37h330v-37h-43c-12 0 -50 -57 -55 -76l70 -259h6l152 256c2 18 -15 79 -26 79h-42v37h237v-37h-17c-15 -3 -84 -64 -95 -80zM657 840
c0 -39 -31 -70 -71 -70s-72 31 -72 70c0 38 32 70 72 70s71 -32 71 -70zM443 840c0 -39 -31 -70 -71 -70s-72 31 -72 70c0 38 32 70 72 70s71 -32 71 -70z" />
    <glyph glyph-name="Zacute" unicode="&#x179;" horiz-adv-x="604" 
d="M510 679h-185c-18 0 -127 -136 -130 -153h-35l31 202h508l-488 -677h186c41 0 152 174 152 200h38v-251h-537v41zM469 917h162l-209 -140h-49z" />
    <glyph glyph-name="zacute" unicode="&#x17a;" horiz-adv-x="469" 
d="M30 36l352 352l-178 -2c-17 0 -60 -42 -66 -60h-28v153h414v-11l-369 -374l187 2c29 0 90 58 90 76h27l-26 -172h-403v36zM350 713h141l-191 -176h-37z" />
    <glyph glyph-name="Zdotaccent" unicode="&#x17b;" horiz-adv-x="604" 
d="M510 679h-185c-18 0 -127 -136 -130 -153h-35l31 202h508l-488 -677h186c41 0 152 174 152 200h38v-251h-537v41zM533 848c0 -43 -33 -77 -78 -77c-44 0 -78 34 -78 77s34 77 78 77c45 0 78 -34 78 -77z" />
    <glyph glyph-name="zdotaccent" unicode="&#x17c;" horiz-adv-x="469" 
d="M30 36l352 352l-178 -2c-17 0 -60 -42 -66 -60h-28v153h414v-11l-369 -374l187 2c29 0 90 58 90 76h27l-26 -172h-403v36zM420 633c0 -44 -37 -81 -83 -81s-83 37 -83 81s37 81 83 81s83 -37 83 -81z" />
    <glyph glyph-name="Zcaron" unicode="&#x17d;" horiz-adv-x="604" 
d="M510 679h-185c-18 0 -127 -136 -130 -153h-35l31 202h508l-488 -677h186c41 0 152 174 152 200h38v-251h-537v41zM495 777h-101l-62 154h39l82 -78l134 78h46z" />
    <glyph glyph-name="zcaron" unicode="&#x17e;" horiz-adv-x="469" 
d="M30 36l352 352l-178 -2c-17 0 -60 -42 -66 -60h-28v153h414v-11l-369 -374l187 2c29 0 90 58 90 76h27l-26 -172h-403v36zM365 537h-86l-58 176h41l70 -95l134 95h43z" />
    <glyph glyph-name="florin" unicode="&#x192;" horiz-adv-x="365" 
d="M105 0l83 392c3 11 -13 47 -21 47h-82v40h120l15 61c29 120 119 226 217 226c38 0 64 -26 64 -60c0 -42 -31 -70 -69 -78h-24c-27 6 -49 32 -42 63h-10c-13 -6 -35 -29 -40 -53c-10 -48 20 -75 10 -124l-7 -35h112l-8 -40h-112l-146 -645h-60v206z" />
    <glyph glyph-name="Aringacute" unicode="&#x1fa;" horiz-adv-x="682" 
d="M458 102l-17 109h-212l-55 -108c0 -17 21 -66 34 -66h40v-37h-228v37h13c13 1 70 48 84 66l302 597l65 43l124 -641c10 -16 46 -65 58 -65h16v-37h-322v37h38c15 1 60 48 60 65zM363 865c0 59 54 108 111 108c58 0 110 -49 110 -108c0 -61 -52 -108 -110 -108
c-57 0 -111 47 -111 108zM388 521h-5l-131 -260h181zM548 1138h162l-209 -140h-49zM417 865c0 -34 23 -57 57 -57c33 0 56 23 56 57c0 33 -23 56 -56 56c-34 0 -57 -23 -57 -56z" />
    <glyph glyph-name="aringacute" unicode="&#x1fb;" horiz-adv-x="572" 
d="M387 90h-5c-45 -71 -107 -101 -160 -101c-94 0 -149 70 -149 174c0 152 114 327 264 327c54 0 96 -25 116 -78l92 67h9l-81 -371c-3 -15 16 -36 29 -36c8 0 38 25 47 36l19 -26c-20 -26 -86 -90 -131 -91c-48 -1 -57 49 -50 99zM248 54c54 0 100 56 122 121
c13 39 24 96 30 137c11 72 -5 129 -62 129c-54 0 -101 -54 -126 -122c-14 -38 -26 -92 -31 -133c-9 -71 12 -132 67 -132zM278 633c0 59 52 107 109 107c58 0 108 -48 108 -107c0 -61 -50 -107 -108 -107c-57 0 -109 46 -109 107zM479 957h141l-191 -176h-37zM331 633
c0 -31 25 -56 56 -56c30 0 55 25 55 56c0 30 -25 55 -55 55c-31 0 -56 -25 -56 -55z" />
    <glyph glyph-name="AEacute" unicode="&#x1fc;" horiz-adv-x="910" 
d="M427 699l62 29h455l-34 -199h-33c3 20 -72 151 -87 151h-267c-5 0 -20 -17 -19 -23l46 -258h114c13 0 75 60 75 75v16h39l-2 -239h-37v23c0 16 -61 76 -75 76h-107l51 -278c1 -6 16 -22 21 -22h84c35 0 126 160 126 188h37v-238h-522v37h35c14 1 56 48 59 65l-15 109
h-212l-56 -108c0 -17 19 -66 32 -66h34v-37h-224v37h17c13 0 71 48 84 66zM388 521h-6l-135 -260h179zM698 917h162l-209 -140h-49z" />
    <glyph glyph-name="aeacute" unicode="&#x1fd;" horiz-adv-x="782" 
d="M610 247c-47 -8 -107 -14 -107 -14c-13 -84 21 -150 101 -150c61 0 120 42 153 99h37c-45 -111 -139 -193 -232 -193c-43 0 -75 12 -98 32c-13 -19 -29 -33 -47 -33c-44 0 -34 55 -26 101h-7c-41 -69 -93 -100 -154 -100c-97 0 -157 62 -157 173c0 152 108 327 258 327
c51 0 88 -23 114 -76l45 66h9v-66c39 46 88 77 146 77c73 0 132 -34 132 -104c0 -81 -72 -123 -167 -139zM250 53c59 0 102 56 120 122c11 40 22 96 27 137c8 72 -12 129 -69 129c-56 0 -95 -53 -118 -122c-12 -37 -25 -92 -29 -133c-7 -71 11 -133 69 -133zM507 268
c0 0 54 9 106 22c47 12 89 44 89 92c0 39 -24 65 -59 65c-64 -7 -124 -103 -136 -179zM536 713h141l-191 -176h-37z" />
    <glyph glyph-name="Oslashacute" unicode="&#x1fe;" horiz-adv-x="768" 
d="M208 47l-65 -76l-40 37l66 77c-45 55 -70 130 -68 216c0 223 189 442 413 441c67 -1 125 -20 171 -53l62 72l41 -37l-62 -72c51 -57 79 -136 76 -226c-12 -223 -182 -438 -413 -438c-72 0 -133 21 -181 59zM398 47c101 0 197 87 226 216c13 59 29 158 36 218
c4 34 2 64 -3 90l-394 -460c26 -42 73 -64 135 -64zM506 689c-105 0 -199 -93 -227 -222c-13 -59 -30 -158 -37 -218c-4 -29 -3 -55 1 -78l391 458c-27 39 -71 60 -128 60zM569 917h162l-209 -140h-49z" />
    <glyph glyph-name="oslashacute" unicode="&#x1ff;" horiz-adv-x="519" 
d="M127 36l-52 -54l-29 29l55 57c-19 32 -30 73 -30 121c0 151 118 301 267 301c50 0 92 -16 124 -43l49 51l31 -30l-52 -54c23 -33 35 -77 35 -127c0 -153 -119 -298 -268 -298c-54 0 -98 16 -130 47zM263 45c52 0 110 56 128 129c13 52 21 99 25 152v11l-228 -238
c11 -35 37 -54 75 -54zM333 440c-50 0 -107 -53 -125 -127c-12 -50 -21 -95 -26 -149v-11l227 238c-13 32 -39 49 -76 49zM398 713h141l-191 -176h-37z" />
    <glyph glyph-name="uni0218" unicode="&#x218;" horiz-adv-x="578" 
d="M323 44c80 0 138 38 138 112c0 81 -84 117 -145 150c-96 52 -172 118 -172 216c0 131 102 219 241 219c58 0 105 -30 143 -30c17 0 38 6 48 17h32l-50 -206h-35c4 42 -55 172 -138 172c-74 0 -125 -41 -125 -106c0 -77 73 -116 130 -147c94 -51 188 -104 188 -219
c0 -142 -108 -233 -256 -233c-58 0 -99 32 -148 32c-21 0 -37 -8 -51 -21h-33v238h37c-5 -50 104 -194 196 -194zM374 -105l-4 -26c-13 -82 -85 -127 -148 -129v39c44 -1 85 26 94 56h-30c-25 6 -42 29 -42 59c0 34 29 67 69 67c36 0 67 -30 61 -66z" />
    <glyph glyph-name="uni0219" unicode="&#x219;" horiz-adv-x="427" 
d="M212 -11c-59 0 -138 43 -160 94c-23 52 65 82 84 29c12 -33 58 -70 94 -70c55 0 94 20 94 65c0 48 -64 64 -98 80c-63 29 -127 67 -127 137c0 92 85 165 189 165c54 0 122 -29 147 -83c23 -49 -61 -78 -77 -32c-11 31 -50 69 -82 69c-50 0 -88 -21 -88 -62s55 -65 96 -83
c57 -25 136 -55 136 -135c0 -97 -94 -174 -208 -174zM253 -105l-4 -26c-13 -82 -85 -127 -148 -129v39c44 -1 85 26 94 56h-30c-25 6 -42 29 -42 59c0 34 29 67 69 67c36 0 67 -30 61 -66z" />
    <glyph glyph-name="uni021A" unicode="&#x21a;" horiz-adv-x="664" 
d="M588 680h-76l-97 -583c-3 -15 25 -60 38 -60h51v-37h-345v37h51c13 0 57 46 60 60l97 583h-76c-28 0 -157 -164 -159 -190h-37s36 128 57 252h34c15 -14 91 -14 111 -14h298c21 0 94 0 115 14h34c-20 -124 -25 -252 -25 -252h-34c0 29 -74 190 -97 190zM377 -105l-4 -26
c-13 -82 -85 -127 -148 -129v39c44 -1 85 26 94 56h-30c-25 6 -42 29 -42 59c0 34 29 67 69 67c36 0 67 -30 61 -66z" />
    <glyph glyph-name="uni021B" unicode="&#x21b;" horiz-adv-x="342" 
d="M274 422l-54 -305c-3 -19 19 -46 34 -46c23 0 65 38 75 48l20 -31c-18 -23 -99 -98 -157 -99c-47 -1 -103 47 -92 111l50 288c2 11 -15 36 -23 36h-58v55h96l64 129h78l-25 -129h110v-57h-118zM221 -105l-4 -26c-13 -82 -85 -127 -148 -129v39c44 -1 85 26 94 56h-30
c-25 6 -42 29 -42 59c0 34 29 67 69 67c36 0 67 -30 61 -66z" />
    <glyph glyph-name="circumflex" unicode="&#x2c6;" horiz-adv-x="415" 
d="M284 713h86l54 -176h-41l-68 95l-131 -95h-43z" />
    <glyph glyph-name="caron" unicode="&#x2c7;" horiz-adv-x="415" 
d="M325 537h-86l-58 176h41l70 -95l134 95h43z" />
    <glyph glyph-name="breve" unicode="&#x2d8;" horiz-adv-x="415" 
d="M280 537c-94 0 -124 68 -100 146l31 4c-7 -49 27 -71 75 -71c57 0 109 24 137 74l30 -7c-25 -85 -95 -146 -173 -146z" />
    <glyph glyph-name="dotaccent" unicode="&#x2d9;" horiz-adv-x="415" 
d="M376 633c0 -44 -37 -81 -83 -81s-83 37 -83 81s37 81 83 81s83 -37 83 -81z" />
    <glyph glyph-name="ring" unicode="&#x2da;" horiz-adv-x="415" 
d="M186 636c0 59 52 107 109 107c58 0 108 -48 108 -107c0 -61 -50 -107 -108 -107c-57 0 -109 46 -109 107zM239 636c0 -31 25 -56 56 -56c30 0 55 25 55 56c0 30 -25 55 -55 55c-31 0 -56 -25 -56 -55z" />
    <glyph glyph-name="ogonek" unicode="&#x2db;" horiz-adv-x="415" 
d="M222 0l77 21c-66 -47 -83 -100 -89 -140c-2 -16 19 -37 33 -37c9 0 38 25 50 35l22 -26c-34 -35 -77 -84 -129 -84c-58 0 -91 45 -81 92c11 49 87 121 117 139z" />
    <glyph glyph-name="tilde" unicode="&#x2dc;" horiz-adv-x="415" 
d="M454 587l-29 -23c-6 23 -14 42 -42 41c-48 -2 -94 -56 -152 -56c-49 0 -77 41 -70 104l29 23c0 -23 19 -41 42 -41c57 0 95 55 152 55c49 0 78 -41 70 -103z" />
    <glyph glyph-name="hungarumlaut" unicode="&#x2dd;" horiz-adv-x="440" 
d="M430 713h135l-196 -176h-42zM263 713h132l-184 -176h-40z" />
    <glyph glyph-name="pi" unicode="&#x3c0;" horiz-adv-x="639" 
d="M162 92v309h-88l36 78h504v-78h-62v-309c0 -17 36 -56 48 -56h22v-36h-249v36h18c13 0 42 38 42 56v309h-152v-309c0 -17 27 -56 39 -56h18v-36h-247v36h20c13 0 51 38 51 56z" />
    <glyph glyph-name="Wgrave" unicode="&#x1e80;" horiz-adv-x="937" 
d="M557 522l-210 -493l-62 -39l-90 616c-3 17 -45 85 -57 85h-13v37h324v-37h-47c-13 0 -57 -64 -61 -83l40 -371h3l157 373l128 132l66 -504h4l150 370c3 19 -26 83 -37 83h-48v37h248v-37h-12c-12 0 -86 -68 -95 -84l-253 -578l-62 -39l-68 532h-5zM461 917h163l46 -140
h-47z" />
    <glyph glyph-name="wgrave" unicode="&#x1e81;" horiz-adv-x="680" 
d="M496 184l97 202c7 14 -10 58 -21 58h-45l-8 35h201v-35h-18c-10 0 -49 -42 -60 -58l-182 -359l-54 -39s-20 208 -44 331h-5l-145 -292l-56 -39s-26 243 -50 397c-3 16 -32 59 -43 59h-20v35h178v-92c12 -96 22 -204 22 -204h4l100 225l96 106c28 -145 49 -330 49 -330h4z
M283 713h129l30 -176h-36z" />
    <glyph glyph-name="Wacute" unicode="&#x1e82;" horiz-adv-x="937" 
d="M557 522l-210 -493l-62 -39l-90 616c-3 17 -45 85 -57 85h-13v37h324v-37h-47c-13 0 -57 -64 -61 -83l40 -371h3l157 373l128 132l66 -504h4l150 370c3 19 -26 83 -37 83h-48v37h248v-37h-12c-12 0 -86 -68 -95 -84l-253 -578l-62 -39l-68 532h-5zM689 917h162l-209 -140
h-49z" />
    <glyph glyph-name="wacute" unicode="&#x1e83;" horiz-adv-x="680" 
d="M496 184l97 202c7 14 -10 58 -21 58h-45l-8 35h201v-35h-18c-10 0 -49 -42 -60 -58l-182 -359l-54 -39s-20 208 -44 331h-5l-145 -292l-56 -39s-26 243 -50 397c-3 16 -32 59 -43 59h-20v35h178v-92c12 -96 22 -204 22 -204h4l100 225l96 106c28 -145 49 -330 49 -330h4z
M468 713h141l-191 -176h-37z" />
    <glyph glyph-name="Wdieresis" unicode="&#x1e84;" horiz-adv-x="937" 
d="M557 522l-210 -493l-62 -39l-90 616c-3 17 -45 85 -57 85h-13v37h324v-37h-47c-13 0 -57 -64 -61 -83l40 -371h3l157 373l128 132l66 -504h4l150 370c3 19 -26 83 -37 83h-48v37h248v-37h-12c-12 0 -86 -68 -95 -84l-253 -578l-62 -39l-68 532h-5zM826 840
c0 -39 -31 -70 -71 -70s-72 31 -72 70c0 38 32 70 72 70s71 -32 71 -70zM612 840c0 -39 -31 -70 -71 -70s-72 31 -72 70c0 38 32 70 72 70s71 -32 71 -70z" />
    <glyph glyph-name="wdieresis" unicode="&#x1e85;" horiz-adv-x="680" 
d="M496 184l97 202c7 14 -10 58 -21 58h-45l-8 35h201v-35h-18c-10 0 -49 -42 -60 -58l-182 -359l-54 -39s-20 208 -44 331h-5l-145 -292l-56 -39s-26 243 -50 397c-3 16 -32 59 -43 59h-20v35h178v-92c12 -96 22 -204 22 -204h4l100 225l96 106c28 -145 49 -330 49 -330h4z
M596 621c0 -34 -28 -62 -63 -62s-63 28 -63 62s28 62 63 62s63 -28 63 -62zM392 621c0 -34 -28 -62 -63 -62s-63 28 -63 62s28 62 63 62s63 -28 63 -62z" />
    <glyph glyph-name="Ygrave" unicode="&#x1ef2;" horiz-adv-x="641" 
d="M448 304l-34 -207c-3 -14 26 -60 37 -60h51v-37h-339v37h51c10 0 54 46 57 60l36 208l-102 306c-5 13 -51 80 -65 80h-19v37h330v-37h-43c-12 0 -50 -57 -55 -76l70 -259h6l152 256c2 18 -15 79 -26 79h-42v37h237v-37h-17c-15 -3 -84 -64 -95 -80zM306 917h163l46 -140
h-47z" />
    <glyph glyph-name="ygrave" unicode="&#x1ef3;" horiz-adv-x="453" 
d="M108 384c37 -153 71 -358 71 -358l-115 -232h67l110 231l205 361c12 16 52 58 61 58h15v35h-185v-35h32c12 0 30 -39 26 -58l-120 -227h-7s-19 127 -36 224v96h-189v-35h18c11 0 42 -45 47 -60zM184 713h129l30 -176h-36z" />
    <glyph glyph-name="endash" unicode="&#x2013;" horiz-adv-x="549" 
d="M82 330h505l-15 -91h-505z" />
    <glyph glyph-name="emdash" unicode="&#x2014;" horiz-adv-x="794" 
d="M58 330h794l-13 -79h-794z" />
    <glyph glyph-name="quoteleft" unicode="&#x2018;" horiz-adv-x="186" 
d="M90 554l5 26c19 97 91 153 194 148v-41c-62 6 -124 -23 -135 -73h28c27 -6 45 -31 45 -61c0 -37 -29 -74 -74 -74c-39 0 -71 32 -63 75z" />
    <glyph glyph-name="quoteright" unicode="&#x2019;" horiz-adv-x="220" 
d="M293 653l-5 -26c-18 -95 -91 -153 -194 -148v41c62 -6 123 23 134 73h-27c-27 6 -45 31 -45 61c0 37 29 74 74 74c39 0 71 -32 63 -75z" />
    <glyph glyph-name="quotesinglbase" unicode="&#x201a;" horiz-adv-x="208" 
d="M192 60l-5 -26c-18 -95 -91 -153 -194 -148v41c62 -6 123 23 134 73h-27c-27 6 -45 31 -45 61c0 37 29 74 74 74c39 0 71 -32 63 -75z" />
    <glyph glyph-name="quotedblleft" unicode="&#x201c;" horiz-adv-x="354" 
d="M90 554l5 26c18 95 91 153 194 148v-41c-62 6 -123 -23 -134 -73h27c27 -6 45 -31 45 -61c0 -37 -29 -74 -74 -74c-39 0 -71 32 -63 75zM423 728v-41c-49 -5 -91 -32 -100 -73h27c27 -6 45 -31 45 -61c0 -37 -29 -74 -74 -74c-39 0 -71 32 -63 75l5 26
c16 84 76 140 160 148z" />
    <glyph glyph-name="quotedblright" unicode="&#x201d;" horiz-adv-x="385" 
d="M458 653l-5 -26c-18 -95 -91 -153 -194 -148v41c62 -6 123 23 134 73h-27c-27 6 -45 31 -45 61c0 37 29 74 74 74c39 0 71 -32 63 -75zM125 479v41c49 5 91 32 100 73h-27c-27 6 -45 31 -45 61c0 37 29 74 74 74c39 0 71 -32 63 -75l-5 -26c-16 -84 -76 -140 -160 -148z
" />
    <glyph glyph-name="quotedblbase" unicode="&#x201e;" horiz-adv-x="376" 
d="M360 60l-5 -26c-18 -95 -91 -153 -194 -148v41c62 -6 123 23 134 73h-27c-27 6 -45 31 -45 61c0 37 29 74 74 74c39 0 71 -32 63 -75zM27 -114v41c49 5 91 32 100 73h-27c-27 6 -45 31 -45 61c0 37 29 74 74 74c39 0 71 -32 63 -75l-5 -26c-16 -84 -76 -140 -160 -148z
" />
    <glyph glyph-name="dagger" unicode="&#x2020;" horiz-adv-x="465" 
d="M136 527l162 -34l8 234l50 15l46 -15l-73 -234l171 34l8 -48l-24 -49l-159 33l-46 -463l-25 -99h-75v99l114 463l-174 -33l-7 49z" />
    <glyph glyph-name="daggerdbl" unicode="&#x2021;" horiz-adv-x="465" 
d="M236 251l57 212l-174 -33l-7 49l24 48l162 -34l8 234l50 15l46 -15l-73 -234l171 34l8 -48l-24 -49l-159 33l-12 -212l-35 -71l170 32l8 -49l-24 -47l-159 33l-9 -234l-47 -15l-44 16l69 233l-170 -33l-8 47l24 49l158 -32z" />
    <glyph glyph-name="bullet" unicode="&#x2022;" horiz-adv-x="340" 
d="M229 534c77 0 138 -60 138 -136s-61 -136 -138 -136s-138 60 -138 136s61 136 138 136z" />
    <glyph glyph-name="ellipsis" unicode="&#x2026;" horiz-adv-x="719" 
d="M221 79c0 -43 -36 -79 -81 -79s-81 36 -81 79s36 79 81 79s81 -36 81 -79zM695 62c0 -34 -28 -62 -63 -62s-63 28 -63 62s28 62 63 62s63 -28 63 -62zM468 70c0 -39 -30 -70 -71 -70c-40 0 -71 31 -71 70s31 70 71 70c41 0 71 -31 71 -70z" />
    <glyph glyph-name="perthousand" unicode="&#x2030;" horiz-adv-x="808" 
d="M624 237h-9c3 -11 4 -22 4 -33c0 -107 -73 -216 -181 -216c-70 0 -126 53 -126 142c0 110 74 212 185 212h7c-3 11 -4 24 -4 37c0 110 72 212 183 212c77 0 125 -52 125 -138c0 -107 -76 -216 -184 -216zM205 388c-70 0 -126 53 -126 142c0 110 74 212 185 212
c77 0 125 -52 125 -138c0 -107 -76 -216 -184 -216zM628 283c39 0 72 34 86 87c8 30 12 57 15 87c5 54 -14 92 -50 92c-42 0 -73 -31 -87 -87c-7 -28 -12 -57 -14 -86c-3 -53 11 -93 50 -93zM442 34c39 0 72 34 86 87c8 30 12 57 15 87c5 54 -14 92 -50 92
c-42 0 -73 -31 -87 -87c-7 -28 -12 -57 -14 -86c-3 -53 11 -93 50 -93zM209 434c39 0 72 34 86 87c8 30 12 57 15 87c5 54 -14 92 -50 92c-42 0 -73 -31 -87 -87c-7 -28 -12 -57 -14 -86c-3 -53 11 -93 50 -93zM589 728h60l-542 -728h-61z" />
    <glyph glyph-name="guilsinglleft" unicode="&#x2039;" horiz-adv-x="325" 
d="M134 298l165 -158v-94l-228 220v64l309 241v-81z" />
    <glyph glyph-name="guilsinglright" unicode="&#x203a;" horiz-adv-x="325" 
d="M57 129l244 171l-157 178v93l223 -240v-65l-310 -220v83z" />
    <glyph glyph-name="interrobang" unicode="&#x203d;" horiz-adv-x="475" 
d="M181 389l16 8v274c0 43 32 69 72 69c35 0 62 -23 62 -58c23 35 67 57 110 57c66 0 117 -46 117 -118c0 -134 -163 -200 -292 -252l-20 -92c-11 -51 -42 -82 -89 -82c-43 0 -79 33 -79 82c0 52 46 84 103 112zM313 588l-34 -155c67 29 173 82 173 153c0 40 -26 63 -65 63
c-37 0 -66 -26 -74 -61zM197 279v60c-30 -13 -64 -36 -64 -60c0 -19 13 -32 31 -32s33 14 33 32zM134 73c0 -40 34 -73 75 -73s75 33 75 73s-34 73 -75 73s-75 -33 -75 -73z" />
    <glyph glyph-name="fraction" unicode="&#x2044;" horiz-adv-x="682" 
d="M714 728h70l-692 -728h-68z" />
    <glyph glyph-name="zero.sups" unicode="&#x2070;" 
d="M283 925c82 0 126 -70 126 -151c0 -111 -75 -257 -204 -257c-86 0 -125 73 -125 157c0 113 77 251 203 251zM306 661c11 46 20 92 25 138c7 60 -9 93 -50 93c-63 0 -87 -66 -98 -106c-12 -42 -22 -93 -27 -138c-7 -63 11 -94 51 -94c61 0 88 69 99 107z" />
    <glyph glyph-name="four.sups" unicode="&#x2074;" 
d="M207 589l4 23h-156v36c128 130 235 257 235 257l57 18l-44 -265h45v-46h-53l-4 -23c-2 -10 14 -33 22 -33h14v-30h-192v30h38c7 0 32 23 34 33zM217 655l24 142s-59 -72 -129 -142h105z" />
    <glyph glyph-name="five.sups" unicode="&#x2075;" 
d="M334 924l23 -61s-20 -7 -176 -6l-36 -98c31 25 74 50 117 50c64 0 106 -34 106 -91c0 -117 -175 -215 -309 -215v38c107 0 225 64 225 155c0 36 -19 61 -62 61c-28 0 -58 -17 -93 -40l-27 15l62 185h31c137 0 139 7 139 7z" />
    <glyph glyph-name="six.sups" unicode="&#x2076;" 
d="M370 927v-36c-102 3 -198 -72 -206 -156c16 19 51 50 105 50c61 0 99 -43 99 -109c0 -82 -60 -160 -160 -160c-81 0 -124 60 -124 142c0 137 117 270 286 269zM161 643c0 -53 25 -87 63 -87c51 0 71 48 71 97c0 51 -25 85 -63 85c-48 0 -71 -48 -71 -95z" />
    <glyph glyph-name="seven.sups" unicode="&#x2077;" 
d="M171 526h-97c144 212 243 310 261 328c0 0 -6 -3 -167 -3c-9 0 -36 -22 -39 -27h-29l47 93h255v-22l-32 -41c-47 -56 -183 -283 -199 -328z" />
    <glyph glyph-name="eight.sups" unicode="&#x2078;" 
d="M166 721c-23 16 -60 47 -60 89c0 69 82 115 162 115c55 0 105 -30 105 -81c0 -56 -44 -85 -88 -102c40 -20 76 -51 76 -96c0 -77 -90 -129 -177 -129c-76 0 -132 34 -132 91c0 56 61 94 114 113zM292 618c0 34 -46 52 -71 67l-27 17c-51 -22 -80 -53 -80 -93
c0 -34 30 -55 74 -55c56 0 104 23 104 64zM235 770l22 -14c33 18 62 51 62 83c0 34 -27 57 -63 57c-49 0 -79 -28 -79 -58c0 -26 25 -47 58 -68z" />
    <glyph glyph-name="nine.sups" unicode="&#x2079;" 
d="M88 514v36c102 -3 198 72 206 156c-16 -19 -51 -50 -105 -50c-61 0 -99 43 -99 109c0 82 60 160 160 160c81 0 124 -60 124 -142c0 -137 -117 -270 -286 -269zM297 802c0 53 -25 87 -63 87c-51 0 -71 -48 -71 -97c0 -51 25 -85 63 -85c48 0 71 48 71 95z" />
    <glyph glyph-name="zero.sinf" unicode="&#x2080;" 
d="M283 198c82 0 126 -70 126 -151c0 -111 -75 -257 -204 -257c-86 0 -125 73 -125 157c0 113 77 251 203 251zM306 -66c11 46 20 92 25 138c7 60 -9 93 -50 93c-63 0 -87 -66 -98 -106c-12 -42 -22 -93 -27 -138c-7 -63 11 -94 51 -94c61 0 88 69 99 107z" />
    <glyph glyph-name="one.sinf" unicode="&#x2081;" horiz-adv-x="332" 
d="M322 203l-56 -337c-2 -10 14 -33 20 -33h32v-35h-198v35h29c6 0 30 23 32 33l36 198c1 9 -11 27 -18 27h-36v28c77 8 116 65 116 65z" />
    <glyph glyph-name="two.sinf" unicode="&#x2082;" 
d="M164 -132l181 2v-72h-257v29c15 33 61 85 171 166c34 25 56 50 56 87c0 35 -26 60 -61 60c-43 0 -86 -40 -105 -60l-21 24c43 50 104 93 165 93c55 0 103 -41 103 -98c0 -69 -52 -115 -115 -147c-39 -20 -95 -56 -117 -84z" />
    <glyph glyph-name="three.sinf" unicode="&#x2083;" 
d="M183 -2v30l54 18c22 14 44 35 44 63c0 22 -16 37 -40 37c-26 0 -66 -25 -94 -46l-10 33c44 34 100 63 150 63c36 0 65 -22 65 -63c0 -40 -40 -77 -82 -97c39 5 88 -19 88 -67c0 -108 -155 -172 -252 -183v39c61 10 174 47 174 129c0 43 -43 59 -97 44z" />
    <glyph glyph-name="four.sinf" unicode="&#x2084;" 
d="M207 -139l4 23h-156v36c128 130 235 257 235 257l57 18l-44 -265h45v-46h-53l-4 -23c-2 -10 14 -33 22 -33h14v-30h-192v30h38c7 0 32 23 34 33zM217 -73l24 142s-59 -72 -129 -142h105z" />
    <glyph glyph-name="five.sinf" unicode="&#x2085;" 
d="M334 196l23 -61s-20 -7 -176 -6l-36 -98c31 25 74 50 117 50c64 0 106 -34 106 -91c0 -117 -175 -215 -309 -215v38c107 0 225 64 225 155c0 36 -19 61 -62 61c-28 0 -58 -17 -93 -40l-27 15l62 185h31c137 0 139 7 139 7z" />
    <glyph glyph-name="six.sinf" unicode="&#x2086;" 
d="M370 201v-36c-102 3 -198 -72 -206 -156c16 19 51 50 105 50c61 0 99 -43 99 -109c0 -82 -60 -160 -160 -160c-81 0 -124 60 -124 142c0 137 117 270 286 269zM161 -83c0 -53 25 -87 63 -87c51 0 71 48 71 97c0 51 -25 85 -63 85c-48 0 -71 -48 -71 -95z" />
    <glyph glyph-name="seven.sinf" unicode="&#x2087;" 
d="M171 -202h-97c144 212 243 310 261 328c0 0 -6 -3 -167 -3c-9 0 -36 -22 -39 -27h-29l47 93h255v-22l-32 -41c-47 -56 -183 -283 -199 -328z" />
    <glyph glyph-name="eight.sinf" unicode="&#x2088;" 
d="M166 -6c-23 16 -60 47 -60 89c0 69 82 115 162 115c55 0 105 -30 105 -81c0 -56 -44 -85 -88 -102c40 -20 76 -51 76 -96c0 -77 -90 -129 -177 -129c-76 0 -132 34 -132 91c0 56 61 94 114 113zM292 -109c0 34 -46 52 -71 67l-27 17c-51 -22 -80 -53 -80 -93
c0 -34 30 -55 74 -55c56 0 104 23 104 64zM235 43l22 -14c33 18 62 51 62 83c0 34 -27 57 -63 57c-49 0 -79 -28 -79 -58c0 -26 25 -47 58 -68z" />
    <glyph glyph-name="nine.sinf" unicode="&#x2089;" 
d="M88 -213v36c102 -3 198 72 206 156c-16 -19 -51 -50 -105 -50c-61 0 -99 43 -99 109c0 82 60 160 160 160c81 0 124 -60 124 -142c0 -137 -117 -270 -286 -269zM297 75c0 53 -25 87 -63 87c-51 0 -71 -48 -71 -97c0 -51 25 -85 63 -85c48 0 71 48 71 95z" />
    <glyph glyph-name="Euro" unicode="&#x20ac;" horiz-adv-x="628" 
d="M477 692c-99 0 -181 -77 -200 -253h215v-47h-219v-47h251v-47h-263c-23 -169 32 -247 125 -247c87 0 152 56 186 138h54c-48 -111 -127 -201 -265 -201c-147 0 -230 137 -225 310h-80v47h95v47h-63v47h71c46 179 167 303 321 303c58 0 94 -32 138 -32c15 0 32 3 44 18h37
l-72 -238h-39c17 96 -30 202 -111 202z" />
    <glyph glyph-name="trademark" unicode="&#x2122;" horiz-adv-x="893" 
d="M349 698l-54 -322c-2 -8 13 -34 19 -34h40v-29h-220v29h39c4 0 31 26 33 34l54 322h-33c-12 0 -93 -126 -102 -137h-21c19 62 41 170 41 170l86 -3h155l88 3s-13 -105 -17 -170h-21c-5 11 -45 137 -54 137h-33zM635 301l-67 341l-45 -266c-2 -8 16 -34 22 -34h29v-29
h-159v29h40c5 0 29 26 31 34l49 290c1 9 -16 34 -21 34h-15v28h143l48 -262l147 262h130v-28h-15c-7 0 -34 -26 -35 -34l-48 -290c-2 -8 15 -34 22 -34h17v-29h-195v29h38c6 0 31 26 32 34l45 264z" />
    <glyph glyph-name="uni2126" unicode="&#x2126;" horiz-adv-x="688" 
d="M392 742c175 0 300 -141 300 -320c0 -150 -130 -274 -215 -323h86c15 0 64 49 64 49h31l-51 -148h-194v92c33 25 132 103 148 223c8 61 9 140 2 201c-15 126 -88 178 -171 178c-85 0 -156 -52 -171 -178c-7 -61 -5 -140 2 -201c14 -120 115 -198 148 -223v-92h-194
l-51 148h31s49 -49 64 -49h86c-85 50 -215 173 -215 323c0 179 125 320 300 320z" />
    <glyph glyph-name="partialdiff" unicode="&#x2202;" horiz-adv-x="560" 
d="M377 685c-58 0 -106 -84 -128 -147h-29v161c49 25 99 43 182 43c106 0 192 -86 191 -268c0 -220 -132 -484 -336 -484c-114 0 -182 69 -182 180c0 142 126 320 280 320c69 0 115 -47 130 -111c35 181 -24 306 -108 306zM253 44c103 0 188 177 188 292c0 50 -28 94 -80 94
c-103 0 -193 -181 -193 -292c0 -53 30 -94 85 -94z" />
    <glyph glyph-name="uni2206" unicode="&#x2206;" horiz-adv-x="644" 
d="M580 100l-223 596l-223 -596h446zM310 728h94l239 -629l-20 -99h-532l-20 99z" />
    <glyph glyph-name="product" unicode="&#x220f;" horiz-adv-x="732" 
d="M92 728h639v-37h-15c-12 0 -55 -46 -55 -60v-740c0 -16 39 -60 53 -60h15v-37h-291v37h36c13 0 55 44 55 60v783h-233v-783c0 -16 42 -60 55 -60h36v-37h-295v37h16c13 0 53 44 53 60v740c0 14 -46 60 -55 60h-14v37z" />
    <glyph glyph-name="summation" unicode="&#x2211;" horiz-adv-x="580" 
d="M390 284v-46l-205 -395h202c20 0 138 140 138 157h39l-19 -206h-530l241 467l-240 467h529l19 -206h-39c0 17 -118 157 -138 157h-201z" />
    <glyph glyph-name="minus" unicode="&#x2212;" horiz-adv-x="644" 
d="M92 326h544v-75h-544v75z" />
    <glyph glyph-name="radical" unicode="&#x221a;" horiz-adv-x="631" 
d="M147 315h-81l21 78h162l152 -473l227 849h62l-256 -938l-111 -46z" />
    <glyph glyph-name="infinity" unicode="&#x221e;" horiz-adv-x="657" 
d="M376 212c-38 -48 -94 -95 -167 -95c-85 0 -153 67 -153 161c0 95 68 162 152 162c68 0 120 -39 168 -95c48 56 100 95 168 95c84 0 152 -67 152 -162c0 -94 -68 -161 -153 -161c-73 0 -129 47 -167 95zM328 279c-25 42 -58 97 -112 97c-57 0 -94 -41 -94 -98
c0 -58 38 -95 94 -95c54 0 87 52 112 96zM424 279c25 -44 58 -96 112 -96c56 0 94 37 94 95c0 57 -37 98 -94 98c-54 0 -87 -55 -112 -97z" />
    <glyph glyph-name="integral" unicode="&#x222b;" horiz-adv-x="457" 
d="M101 37l203 503c46 114 122 226 220 226c38 0 64 -26 64 -60c0 -42 -31 -70 -69 -78h-24c-27 6 -49 32 -42 63h-10c-13 -6 -35 -29 -40 -53c-10 -48 28 -77 10 -124l-208 -525c-45 -114 -132 -203 -229 -203c-37 0 -62 31 -60 65c2 38 26 67 67 74h23
c26 -6 50 -33 46 -66h11c22 8 44 31 48 55c11 59 -34 63 -10 123z" />
    <glyph glyph-name="therefore" unicode="&#x2234;" horiz-adv-x="755" 
d="M483 557c0 -43 -36 -79 -81 -79s-81 36 -81 79s36 79 81 79s81 -36 81 -79zM735 62c0 -34 -28 -62 -63 -62s-63 28 -63 62s28 62 63 62s63 -28 63 -62zM212 70c0 -39 -30 -70 -71 -70c-40 0 -71 31 -71 70s31 70 71 70c41 0 71 -31 71 -70z" />
    <glyph glyph-name="because" unicode="&#x2235;" horiz-adv-x="755" 
d="M392 79c0 43 36 79 81 79s81 -36 81 -79s-36 -79 -81 -79s-81 36 -81 79zM140 574c0 34 28 62 63 62s63 -28 63 -62s-28 -62 -63 -62s-63 28 -63 62zM663 566c0 39 30 70 71 70c40 0 71 -31 71 -70s-31 -70 -71 -70c-41 0 -71 31 -71 70z" />
    <glyph glyph-name="approxequal" unicode="&#x2248;" horiz-adv-x="509" 
d="M203 440c100 0 158 -71 224 -71c45 0 73 27 72 64l41 -8c1 -73 -27 -141 -129 -141c-87 0 -146 71 -224 71c-45 0 -73 -27 -72 -64l-41 8c-1 72 30 141 129 141zM203 266c100 0 158 -71 224 -71c45 0 73 27 72 64l41 -8c1 -73 -27 -141 -129 -141c-87 0 -146 71 -224 71
c-45 0 -73 -27 -72 -64l-41 8c-1 72 30 141 129 141z" />
    <glyph glyph-name="notequal" unicode="&#x2260;" horiz-adv-x="578" 
d="M59 242h195l64 95h-259v77h311l126 187h76l-126 -187h157v-77h-208l-64 -95h272v-77h-323l-111 -165h-77l111 165h-144v77z" />
    <glyph glyph-name="lessequal" unicode="&#x2264;" horiz-adv-x="450" 
d="M54 69l286 -2l-244 202v61l440 268v-76l-368 -224l238 -201v-97h-352v69z" />
    <glyph glyph-name="greaterequal" unicode="&#x2265;" horiz-adv-x="450" 
d="M126 67l290 2v-69h-357v97l337 201l-290 224v76l358 -268v-61z" />
    <glyph glyph-name="lozenge" unicode="&#x25ca;" horiz-adv-x="555" 
d="M374 0h-106l-174 364l174 364h106l174 -364zM321 32l154 332l-154 332l-154 -332z" />
    <glyph glyph-name="commaaccent" unicode="&#xf6c3;" horiz-adv-x="251" 
d="M186 -105l-4 -26c-13 -82 -85 -127 -148 -129v39c44 -1 85 26 94 56h-30c-25 6 -42 29 -42 59c0 34 29 67 69 67c36 0 67 -30 61 -66z" />
    <glyph glyph-name="interfinity" horiz-adv-x="363" 
d="M433 606c0 -98 -96 -163 -147 -210c21 -29 41 -54 41 -91c0 -64 -49 -102 -113 -102c-51 0 -92 35 -92 86c0 54 42 97 79 132c-34 41 -76 92 -76 152c0 91 72 165 170 165c76 0 138 -52 138 -132zM259 652c-51 0 -82 -34 -82 -83c0 -41 30 -82 59 -118
c41 41 91 77 91 138c0 38 -32 63 -68 63zM236 256c24 0 44 18 44 46c0 23 -14 44 -30 62c-18 -17 -48 -43 -48 -76c0 -18 12 -32 34 -32zM114 67c0 -37 31 -67 69 -67s69 30 69 67s-31 67 -69 67s-69 -30 -69 -67z" />
    <glyph glyph-name="at.case" horiz-adv-x="789" 
d="M538 203h-6c-27 -56 -80 -93 -134 -93c-80 0 -144 61 -144 157c0 142 86 304 235 304c45 0 82 -30 100 -69l87 62h9l-77 -352c-5 -24 6 -41 25 -41c69 0 132 129 132 265c0 152 -91 253 -237 253c-206 0 -363 -191 -363 -428c0 -157 100 -261 266 -261h107v-56h-108
c-190 0 -326 125 -326 317c0 242 167 481 425 481c183 0 293 -131 293 -306c0 -173 -92 -325 -217 -325c-47 0 -74 37 -67 92zM414 166c49 0 86 50 106 117c11 37 21 82 25 121c7 67 -9 122 -56 122c-52 0 -86 -48 -109 -114c-12 -34 -22 -78 -26 -117
c-7 -69 8 -129 60 -129z" />
    <glyph glyph-name="zero.tnum" horiz-adv-x="568" 
d="M409 742c129 0 198 -129 198 -279c0 -206 -118 -475 -324 -475c-137 0 -197 134 -197 290c0 209 121 464 323 464zM447 254c21 86 34 170 42 255c11 111 -15 177 -82 177c-105 0 -144 -126 -162 -201c-19 -78 -36 -172 -44 -255c-11 -116 18 -183 84 -183
c101 0 145 136 162 207z" />
    <glyph glyph-name="one.tnum" horiz-adv-x="568" 
d="M481 743l-121 -646c-3 -17 26 -60 39 -60h40v-37h-310v37h43c12 0 57 42 61 60l83 425c3 16 -22 48 -33 48h-54v37c85 16 135 47 178 106z" />
    <glyph glyph-name="two.tnum" horiz-adv-x="568" 
d="M162 111l314 2v-113h-423v34c27 89 162 229 289 332c54 43 104 97 104 170c0 65 -45 110 -108 110c-79 0 -136 -71 -182 -133l-41 32c57 83 134 197 270 197c103 0 183 -75 183 -181c0 -113 -88 -193 -185 -256c-83 -54 -202 -142 -221 -194z" />
    <glyph glyph-name="three.tnum" horiz-adv-x="568" 
d="M221 373v39l113 42c53 34 86 73 86 125c0 45 -33 76 -79 76c-52 0 -121 -39 -165 -76l-27 38c57 50 163 124 254 124c76 0 133 -44 133 -119c0 -81 -66 -146 -147 -183c69 2 156 -34 156 -133c0 -211 -282 -337 -472 -345v54c137 6 340 104 340 272c0 92 -80 120 -192 86
z" />
    <glyph glyph-name="four.tnum" horiz-adv-x="568" 
d="M320 251l54 306h-5c-73 -102 -137 -185 -242 -306h193zM292 97l15 83h-265v49c167 195 249 302 357 455c68 29 129 59 129 59l-82 -492h94v-71h-106l-14 -83c-3 -18 26 -60 39 -60h16v-37h-298v37h53c13 0 58 42 62 60z" />
    <glyph glyph-name="five.tnum" horiz-adv-x="568" 
d="M499 742l35 -112s-28 -12 -271 -11l-57 -188c49 45 113 94 180 94c101 0 173 -60 173 -165c0 -217 -289 -399 -497 -399v54c166 0 375 135 375 305c0 68 -41 112 -112 112c-44 0 -87 -31 -143 -73l-39 23l95 346h47c214 0 214 14 214 14z" />
    <glyph glyph-name="six.tnum" horiz-adv-x="568" 
d="M549 756v-55c-160 5 -313 -146 -326 -302c26 36 81 91 173 91c94 0 159 -73 159 -195c0 -151 -108 -307 -264 -307c-127 0 -196 116 -196 269c0 253 189 501 454 499zM216 232c0 -98 38 -178 98 -178c86 0 124 105 124 195c0 94 -39 160 -99 160
c-83 0 -123 -89 -123 -177z" />
    <glyph glyph-name="seven.tnum" horiz-adv-x="568" 
d="M180 0h-153c224 391 389 587 417 619c0 0 -21 -5 -272 -5c-15 0 -56 -39 -61 -48h-41l74 162h396v-37l-50 -76c-73 -103 -285 -533 -310 -615z" />
    <glyph glyph-name="eight.tnum" horiz-adv-x="568" 
d="M460 177c0 62 -77 95 -120 119c-20 11 -38 20 -40 34c-81 -40 -138 -98 -138 -173c0 -68 58 -110 129 -110c88 0 169 50 169 130zM400 428c53 33 105 96 105 156c-2 62 -47 106 -107 106c-65 0 -127 -53 -127 -109c2 -47 43 -89 96 -123c12 -8 32 -16 33 -30zM254 364
c-35 28 -96 86 -96 165c0 128 135 213 261 213c88 0 177 -49 177 -140c0 -92 -82 -166 -152 -199c64 -39 124 -82 124 -166c0 -142 -150 -249 -285 -249c-120 0 -218 63 -218 168c0 103 106 172 189 208z" />
    <glyph glyph-name="nine.tnum" horiz-adv-x="568" 
d="M110 -26v55c160 -5 323 149 341 305c-26 -36 -81 -90 -173 -90c-94 0 -159 78 -159 194c0 151 108 304 264 304c127 0 196 -116 196 -269c0 -253 -204 -501 -469 -499zM457 501c0 98 -37 175 -97 175c-86 0 -124 -102 -124 -192c0 -94 39 -159 99 -159
c82 0 122 88 122 176z" />
    <glyph glyph-name="zero.onum" horiz-adv-x="562" 
d="M357 491c122 0 205 -85 205 -203c0 -166 -128 -300 -281 -300c-122 0 -205 88 -205 206c0 166 129 297 281 297zM141 200c0 -80 54 -135 140 -135c123 0 217 106 217 216c0 81 -59 133 -141 133c-120 0 -216 -105 -216 -214z" />
    <glyph glyph-name="one.onum" horiz-adv-x="467" 
d="M376 382l-55 -285c-4 -17 28 -60 43 -60h60v-37h-356v37h57c14 0 65 42 69 60l56 285c4 18 -31 60 -45 60h-58v37h351v-37h-55c-15 0 -63 -43 -67 -60z" />
    <glyph glyph-name="two.onum" horiz-adv-x="525" 
d="M164 98l265 5v-103h-379v34c37 85 138 141 262 205c64 33 109 71 109 114c0 39 -29 63 -75 63c-67 0 -139 -52 -192 -103l-33 35c64 70 161 144 270 144c78 0 135 -49 138 -118c4 -105 -96 -146 -199 -190c-85 -36 -142 -61 -166 -86z" />
    <glyph glyph-name="three.onum" horiz-adv-x="560" 
d="M159 156v40l121 37c42 23 93 58 93 113c0 44 -35 68 -91 68c-55 0 -122 -43 -172 -82l-28 40c69 59 168 121 272 121c82 0 140 -36 140 -104c0 -81 -77 -137 -159 -171c100 26 174 -33 174 -114c0 -213 -315 -331 -509 -339v58c168 13 380 105 382 257
c1 90 -99 121 -223 76z" />
    <glyph glyph-name="four.onum" horiz-adv-x="605" 
d="M344 71l53 257h-5c-81 -90 -154 -165 -254 -257h206zM288 -206l43 206h-286v52c165 158 234 228 375 384c67 23 130 56 130 56l-82 -421h106v-71h-120l-33 -166z" />
    <glyph glyph-name="five.onum" horiz-adv-x="555" 
d="M460 489l31 -106s-14 -19 -269 -12l-78 -169c66 43 137 86 208 86c94 0 160 -53 160 -142c0 -216 -288 -359 -512 -380v57c185 21 398 134 398 291c0 59 -44 94 -109 94c-54 0 -127 -45 -177 -79l-42 27l140 323l45 -1c192 -4 205 11 205 11z" />
    <glyph glyph-name="six.onum" horiz-adv-x="545" 
d="M578 746v-55c-163 8 -345 -135 -365 -292c26 36 81 91 173 91c94 0 159 -73 159 -195c0 -151 -108 -307 -264 -307c-127 0 -196 116 -196 269c0 253 206 494 493 489zM206 232c0 -98 38 -178 98 -178c86 0 124 105 124 195c0 94 -39 160 -99 160
c-83 0 -123 -89 -123 -177z" />
    <glyph glyph-name="seven.onum" horiz-adv-x="460" 
d="M106 -206h-94c178 268 268 388 421 580c0 0 -16 -5 -267 -5c-15 0 -64 -54 -69 -63h-41l81 173h395v-37l-44 -70c-139 -195 -221 -314 -382 -578z" />
    <glyph glyph-name="eight.onum" horiz-adv-x="545" 
d="M440 177c0 62 -76 97 -119 121c-20 11 -38 20 -40 34c-81 -40 -139 -100 -139 -175c0 -68 58 -110 129 -110c88 0 169 50 169 130zM380 427c53 33 105 97 105 157c-2 62 -47 106 -107 106c-65 0 -127 -53 -127 -109c2 -47 43 -90 96 -124c12 -8 32 -16 33 -30zM235 366
c-35 28 -97 84 -97 163c0 128 135 213 261 213c88 0 177 -49 177 -140c0 -92 -82 -167 -152 -200c64 -39 124 -81 124 -165c0 -142 -150 -249 -285 -249c-120 0 -218 63 -218 168c0 103 107 174 190 210z" />
    <glyph glyph-name="nine.onum" horiz-adv-x="545" 
d="M15 -235v58c167 -5 358 105 382 261c-26 -36 -79 -89 -171 -89c-94 0 -159 77 -159 193c0 151 106 304 262 304c127 0 196 -116 196 -269c0 -253 -224 -466 -510 -458zM403 251c0 98 -37 175 -97 175c-86 0 -124 -102 -124 -192c0 -94 39 -159 99 -159
c82 0 122 88 122 176z" />
    <glyph glyph-name="zero.numr" 
d="M283 736c82 0 126 -70 126 -151c0 -111 -75 -257 -204 -257c-86 0 -125 73 -125 157c0 113 77 251 203 251zM306 472c11 46 20 92 25 138c7 60 -9 93 -50 93c-63 0 -87 -66 -98 -106c-12 -42 -22 -93 -27 -138c-7 -63 11 -94 51 -94c61 0 88 69 99 107z" />
    <glyph glyph-name="one.numr" horiz-adv-x="312" 
d="M302 742l-56 -337c-2 -10 14 -33 20 -33h32v-35h-198v35h29c6 0 30 23 32 33l36 198c1 9 -11 27 -18 27h-36v28c77 8 116 65 116 65z" />
    <glyph glyph-name="two.numr" 
d="M164 407l181 2v-72h-257v29c15 33 61 85 171 166c34 25 56 50 56 87c0 35 -26 60 -61 60c-43 0 -86 -40 -105 -60l-21 24c43 50 104 93 165 93c55 0 103 -41 103 -98c0 -69 -52 -115 -115 -147c-39 -20 -95 -56 -117 -84z" />
    <glyph glyph-name="three.numr" 
d="M183 537v30l54 18c22 14 44 35 44 63c0 22 -16 37 -40 37c-26 0 -66 -25 -94 -46l-10 33c44 34 100 63 150 63c36 0 65 -22 65 -63c0 -40 -40 -77 -82 -97c39 5 88 -19 88 -67c0 -108 -155 -172 -252 -183v39c61 10 174 47 174 129c0 43 -43 59 -97 44z" />
    <glyph glyph-name="four.numr" 
d="M207 400l4 23h-156v36c128 130 235 257 235 257l57 18l-44 -265h45v-46h-53l-4 -23c-2 -10 14 -33 22 -33h14v-30h-192v30h38c7 0 32 23 34 33zM217 466l24 142s-59 -72 -129 -142h105z" />
    <glyph glyph-name="five.numr" 
d="M334 735l23 -61s-20 -7 -176 -6l-36 -98c31 25 74 50 117 50c64 0 106 -34 106 -91c0 -117 -175 -215 -309 -215v38c107 0 225 64 225 155c0 36 -19 61 -62 61c-28 0 -58 -17 -93 -40l-27 15l62 185h31c137 0 139 7 139 7z" />
    <glyph glyph-name="six.numr" 
d="M370 738v-36c-102 3 -198 -72 -206 -156c16 19 51 50 105 50c61 0 99 -43 99 -109c0 -82 -60 -160 -160 -160c-81 0 -124 60 -124 142c0 137 117 270 286 269zM161 454c0 -53 25 -87 63 -87c51 0 71 48 71 97c0 51 -25 85 -63 85c-48 0 -71 -48 -71 -95z" />
    <glyph glyph-name="seven.numr" 
d="M171 337h-97c144 212 243 310 261 328c0 0 -6 -3 -167 -3c-9 0 -36 -22 -39 -27h-29l47 93h255v-22l-32 -41c-47 -56 -183 -283 -199 -328z" />
    <glyph glyph-name="eight.numr" 
d="M166 532c-23 16 -60 47 -60 89c0 69 82 115 162 115c55 0 105 -30 105 -81c0 -56 -44 -85 -88 -102c40 -20 76 -51 76 -96c0 -77 -90 -129 -177 -129c-76 0 -132 34 -132 91c0 56 61 94 114 113zM292 429c0 34 -46 52 -71 67l-27 17c-51 -22 -80 -53 -80 -93
c0 -34 30 -55 74 -55c56 0 104 23 104 64zM235 581l22 -14c33 18 62 51 62 83c0 34 -27 57 -63 57c-49 0 -79 -28 -79 -58c0 -26 25 -47 58 -68z" />
    <glyph glyph-name="nine.numr" 
d="M88 325v36c102 -3 198 72 206 156c-16 -19 -51 -50 -105 -50c-61 0 -99 43 -99 109c0 82 60 160 160 160c81 0 124 -60 124 -142c0 -137 -117 -270 -286 -269zM297 613c0 53 -25 87 -63 87c-51 0 -71 -48 -71 -97c0 -51 25 -85 63 -85c48 0 71 48 71 95z" />
    <glyph glyph-name="zero.dnom" 
d="M283 400c82 0 126 -70 126 -151c0 -111 -75 -257 -204 -257c-86 0 -125 73 -125 157c0 113 77 251 203 251zM306 136c11 46 20 92 25 138c7 60 -9 93 -50 93c-63 0 -87 -66 -98 -106c-12 -42 -22 -93 -27 -138c-7 -63 11 -94 51 -94c61 0 88 69 99 107z" />
    <glyph glyph-name="one.dnom" horiz-adv-x="332" 
d="M322 405l-56 -337c-2 -10 14 -33 20 -33h32v-35h-198v35h29c6 0 30 23 32 33l36 198c1 9 -11 27 -18 27h-36v28c77 8 116 65 116 65z" />
    <glyph glyph-name="two.dnom" 
d="M164 70l181 2v-72h-257v29c15 33 61 85 171 166c34 25 56 50 56 87c0 35 -26 60 -61 60c-43 0 -86 -40 -105 -60l-21 24c43 50 104 93 165 93c55 0 103 -41 103 -98c0 -69 -52 -115 -115 -147c-39 -20 -95 -56 -117 -84z" />
    <glyph glyph-name="three.dnom" 
d="M183 200v30l54 18c22 14 44 35 44 63c0 22 -16 37 -40 37c-26 0 -66 -25 -94 -46l-10 33c44 34 100 63 150 63c36 0 65 -22 65 -63c0 -40 -40 -77 -82 -97c39 5 88 -19 88 -67c0 -108 -155 -172 -252 -183v39c61 10 174 47 174 129c0 43 -43 59 -97 44z" />
    <glyph glyph-name="four.dnom" 
d="M207 63l4 23h-156v36c128 130 235 257 235 257l57 18l-44 -265h45v-46h-53l-4 -23c-2 -10 14 -33 22 -33h14v-30h-192v30h38c7 0 32 23 34 33zM217 129l24 142s-59 -72 -129 -142h105z" />
    <glyph glyph-name="five.dnom" 
d="M334 398l23 -61s-20 -7 -176 -6l-36 -98c31 25 74 50 117 50c64 0 106 -34 106 -91c0 -117 -175 -215 -309 -215v38c107 0 225 64 225 155c0 36 -19 61 -62 61c-28 0 -58 -17 -93 -40l-27 15l62 185h31c137 0 139 7 139 7z" />
    <glyph glyph-name="six.dnom" 
d="M370 403v-36c-102 3 -198 -72 -206 -156c16 19 51 50 105 50c61 0 99 -43 99 -109c0 -82 -60 -160 -160 -160c-81 0 -124 60 -124 142c0 137 117 270 286 269zM161 119c0 -53 25 -87 63 -87c51 0 71 48 71 97c0 51 -25 85 -63 85c-48 0 -71 -48 -71 -95z" />
    <glyph glyph-name="seven.dnom" 
d="M171 0h-97c144 212 243 310 261 328c0 0 -6 -3 -167 -3c-9 0 -36 -22 -39 -27h-29l47 93h255v-22l-32 -41c-47 -56 -183 -283 -199 -328z" />
    <glyph glyph-name="eight.dnom" 
d="M166 196c-23 16 -60 47 -60 89c0 69 82 115 162 115c55 0 105 -30 105 -81c0 -56 -44 -85 -88 -102c40 -20 76 -51 76 -96c0 -77 -90 -129 -177 -129c-76 0 -132 34 -132 91c0 56 61 94 114 113zM292 93c0 34 -46 52 -71 67l-27 17c-51 -22 -80 -53 -80 -93
c0 -34 30 -55 74 -55c56 0 104 23 104 64zM235 245l22 -14c33 18 62 51 62 83c0 34 -27 57 -63 57c-49 0 -79 -28 -79 -58c0 -26 25 -47 58 -68z" />
    <glyph glyph-name="nine.dnom" 
d="M88 -11v36c102 -3 198 72 206 156c-16 -19 -51 -50 -105 -50c-61 0 -99 43 -99 109c0 82 60 160 160 160c81 0 124 -60 124 -142c0 -137 -117 -270 -286 -269zM297 277c0 53 -25 87 -63 87c-51 0 -71 -48 -71 -97c0 -51 25 -85 63 -85c48 0 71 48 71 95z" />
    <glyph glyph-name="commaaccent.salt" horiz-adv-x="200" 
d="M130 613l4 26c13 82 85 127 148 129v-39c-44 1 -85 -26 -94 -56h30c25 -6 42 -29 42 -59c0 -34 -29 -67 -69 -67c-36 0 -67 30 -61 66z" />
    <glyph glyph-name="caron.salt" horiz-adv-x="259" 
d="M321 699l-4 -26c-13 -82 -82 -124 -145 -126v39c44 -1 82 23 91 53h-30c-25 6 -42 29 -42 59c0 34 29 67 69 67c36 0 67 -30 61 -66z" />
    <glyph glyph-name="caron.case" horiz-adv-x="500" 
d="M406 777h-101l-62 154h39l82 -78l134 78h46z" />
    <glyph glyph-name="circumflex.case" horiz-adv-x="500" 
d="M355 931h100l62 -154h-40l-81 77l-135 -77h-46z" />
    <glyph glyph-name="acute.case" horiz-adv-x="500" 
d="M415 917h162l-209 -140h-49z" />
    <glyph glyph-name="grave.case" horiz-adv-x="500" 
d="M168 917h163l46 -140h-47z" />
    <glyph glyph-name="macron.case" horiz-adv-x="500" 
d="M258 879h247l-17 -80h-253z" />
    <glyph glyph-name="breve.case" horiz-adv-x="500" 
d="M374 775c-94 0 -128 64 -104 142l32 4c-7 -49 30 -64 78 -64c57 0 111 19 139 67l32 -7c-25 -85 -99 -142 -177 -142z" />
    <glyph glyph-name="ring.case" horiz-adv-x="500" 
d="M256 865c0 59 54 108 111 108c58 0 110 -49 110 -108c0 -61 -52 -108 -110 -108c-57 0 -111 47 -111 108zM310 865c0 -34 23 -57 57 -57c33 0 56 23 56 57c0 33 -23 56 -56 56c-34 0 -57 -23 -57 -56z" />
    <glyph glyph-name="tilde.case" horiz-adv-x="500" 
d="M511 820l-27 -21c-1 22 -13 40 -40 39c-45 -2 -101 -51 -156 -51c-47 0 -74 37 -66 97l27 21c0 -22 18 -39 40 -39c54 0 102 50 156 50c47 0 75 -37 66 -96z" />
    <glyph glyph-name="dotaccent.case" horiz-adv-x="500" 
d="M438 848c0 -43 -33 -77 -78 -77c-44 0 -78 34 -78 77s34 77 78 77c45 0 78 -34 78 -77z" />
    <glyph glyph-name="hungarumlaut.case" horiz-adv-x="500" 
d="M501 917h147l-188 -140h-45zM333 917h143l-186 -140h-43z" />
    <glyph glyph-name="dieresis.case" horiz-adv-x="500" 
d="M531 840c0 -39 -31 -70 -71 -70s-72 31 -72 70c0 38 32 70 72 70s71 -32 71 -70zM317 840c0 -39 -31 -70 -71 -70s-72 31 -72 70c0 38 32 70 72 70s71 -32 71 -70z" />
    <glyph glyph-name="germandbls.ss02" horiz-adv-x="613" 
d="M243 269l-66 -269h-117l97 397c3 13 -20 47 -32 47h-59v35h109l19 61c35 118 122 226 220 226c38 0 64 -26 64 -60c0 -42 -31 -70 -69 -78h-24c-27 6 -49 32 -42 63h-10c-13 -6 -35 -29 -40 -53c-10 -48 25 -76 10 -124l-69 -207l144 172h265v-35l-188 -188l54 -13
c46 -11 79 -50 77 -104c-6 -173 -299 -348 -495 -348c-35 0 -78 9 -96 32l104 132h36c-12 -53 16 -83 64 -83c117 0 278 93 284 198c3 50 -24 82 -67 93l-49 12v34l145 165h-141c-13 0 -108 -87 -128 -105z" />
    <glyph glyph-name="colon.ss01" horiz-adv-x="245" 
d="M276 396c0 -34 -28 -62 -63 -62s-63 28 -63 62s28 62 63 62s63 -28 63 -62zM241 79c0 -43 -36 -79 -81 -79s-81 36 -81 79s36 79 81 79s81 -36 81 -79z" />
    <glyph glyph-name="ellipsis.ss01" horiz-adv-x="719" 
d="M530 79c0 43 36 79 81 79s81 -36 81 -79s-36 -79 -81 -79s-81 36 -81 79zM56 62c0 34 28 62 63 62s63 -28 63 -62s-28 -62 -63 -62s-63 28 -63 62zM283 70c0 39 30 70 71 70c40 0 71 -31 71 -70s-31 -70 -71 -70c-41 0 -71 31 -71 70z" />
    <glyph glyph-name="arrow_right" horiz-adv-x="850" 
d="M70 250v82l676 -1l-33 25l-205 191h124s113 -120 244 -232v-46c-128 -108 -243 -232 -243 -232h-124l204 190l33 24z" />
    <glyph glyph-name="arrow_left" horiz-adv-x="850" 
d="M876 332v-82l-676 1l33 -24l204 -190h-124s-115 124 -243 232v46c131 112 244 232 244 232h124l-205 -191l-33 -25z" />
    <glyph glyph-name="arrow_down" horiz-adv-x="630" 
d="M327 728h82l-1 -676l24 33l190 204v-124s-124 -115 -232 -243h-46c-112 131 -232 244 -232 244v124l191 -205l25 -33z" />
    <glyph glyph-name="arrow_up" horiz-adv-x="630" 
d="M409 -78h-82l1 676l-25 -33l-191 -205v124s120 113 232 244h46c108 -128 232 -243 232 -243v-124l-190 204l-24 33z" />
    <glyph glyph-name="arrow_left_up" horiz-adv-x="820" 
d="M789 118l-58 -58l-477 479l6 -40l10 -279l-87 88s6 169 -8 336l32 32c172 -13 337 -8 337 -8l88 -88l-280 10l-41 6z" />
    <glyph glyph-name="arrow_left_down" horiz-adv-x="820" 
d="M731 676l58 -58l-478 -478l41 6l280 10l-88 -88s-165 5 -337 -8l-32 32c14 167 8 336 8 336l87 88l-10 -279l-6 -40z" />
    <glyph glyph-name="arrow_right_up" horiz-adv-x="820" 
d="M219 60l-58 58l478 478l-41 -6l-280 -10l88 88s165 -5 337 8l32 -32c-14 -167 -8 -336 -8 -336l-87 -88l10 279l6 40z" />
    <glyph glyph-name="arrow_right_down" horiz-adv-x="820" 
d="M165 618l58 58l477 -479l-6 40l-10 279l87 -88s-6 -169 8 -336l-32 -32c-172 13 -337 8 -337 8l-88 88l280 -10l41 -6z" />
    <glyph glyph-name="RP" horiz-adv-x="810" 
d="M421 433l-140 246l6 4l140 -247zM510 433l140 246l-6 4l-140 -247zM421 297l-140 -246l6 -4l140 247zM510 297l140 -246l-6 -4l-140 247zM398 319l-230 -164l4 -6l230 165zM533 411l230 164l-4 6l-230 -165zM398 411l-230 164l4 6l230 -165zM533 319l230 -164l-4 -6
l-230 165zM437 441l-87 269l7 2l86 -269zM437 289l-87 -269l7 -2l86 269zM494 441l87 269l-7 2l-86 -269zM494 289l87 -269l-7 -2l-86 269zM409 307l-190 -210l5 -5l190 211zM409 423l-190 210l5 5l190 -211zM522 423l190 210l-5 5l-190 -211zM522 307l190 -210l-5 -5
l-190 211zM390 335l-260 -114l3 -6l260 114zM541 395l260 114l-3 6l-260 -114zM541 335l260 -114l-3 -6l-260 114zM390 395l-260 114l3 6l260 -114zM385 379l-277 57l2 7l276 -58zM385 351l-277 -57l2 -7l276 58zM546 379l277 57l-2 7l-276 -58zM546 351l277 -57l-2 -7
l-276 58zM454 285l-31 -281l7 -1l30 281zM477 445l31 281l-7 1l-30 -281zM477 285l31 -281l-7 -1l-30 281zM454 445l-31 281l7 1l30 -281zM100 368h284v-6h-284v6zM830 368h-283v-6h283v6zM550 476l133 181l-6 5l-133 -182zM381 476l-133 181l6 5l133 -182zM381 254
l-133 -181l6 -5l133 182zM550 254l133 -181l-6 -5l-133 182zM433 501l-46 219l7 2l46 -220zM433 229l-46 -219l7 -2l46 220zM498 501l46 219l-7 2l-46 -220zM498 229l46 -219l-7 -2l-46 220zM462 225v-225h7v225h-7zM462 505v225h7v-225h-7zM588 299l196 -112l-3 -6
l-197 112zM343 299l-196 -112l3 -6l197 112zM343 431l-196 112l3 6l197 -112zM588 431l196 112l-3 6l-197 -112zM600 325l214 -68l-2 -7l-214 69zM600 405l214 68l-2 7l-214 -69zM331 325l-214 -68l2 -7l214 69zM331 405l-214 68l2 7l214 -69zM739 606l-5 5l-167 -151l4 -5z
M192 606l5 5l167 -151l-4 -5zM739 124l-5 -5l-167 151l4 5zM192 124l5 -5l167 151l-4 5zM407 491l-92 206l6 3l92 -206zM524 491l92 206l-6 3l-92 -206zM524 239l92 -206l-6 -3l-92 206zM407 239l-92 -206l6 -3l92 206zM829 331l-1 -7l-224 24l1 6zM102 399l1 7l224 -24
l-1 -6zM829 399l-1 7l-224 -24l1 -6zM102 331l1 -7l224 24l-1 6z" />
    <glyph glyph-name="threestars" horiz-adv-x="1086" 
d="M574 395l-37 36c5 34 22 93 27 135c-25 -36 -47 -83 -72 -114h-51v45c28 22 86 56 120 80c-45 -5 -100 -22 -140 -26l-32 32l32 32c39 -3 96 -21 140 -26c-36 27 -89 56 -120 79v46h51c23 -27 50 -79 72 -112c-5 38 -21 102 -25 133l35 35l35 -35
c-4 -35 -21 -92 -26 -133c27 38 46 79 73 112h51v-46c-32 -24 -85 -52 -121 -79c43 4 100 22 141 26l32 -32l-32 -32c-41 3 -97 21 -141 26c37 -26 89 -54 121 -80v-45h-51c-24 29 -50 80 -74 114c5 -42 22 -101 27 -135zM892 0l-37 36c5 34 22 93 27 135
c-25 -36 -47 -83 -72 -114h-51v45c28 22 86 56 120 80c-45 -5 -100 -22 -140 -26l-32 32l32 32c39 -3 96 -21 140 -26c-36 27 -89 56 -120 79v46h51c23 -27 50 -79 72 -112c-5 38 -21 102 -25 133l35 35l35 -35c-4 -35 -21 -92 -26 -133c27 38 46 79 73 112h51v-46
c-32 -24 -85 -52 -121 -79c43 4 100 22 141 26l32 -32l-32 -32c-41 3 -97 21 -141 26c37 -26 89 -54 121 -80v-45h-51c-24 29 -50 80 -74 114c5 -42 22 -101 27 -135zM256 0l-37 36c5 34 22 93 27 135c-25 -36 -47 -83 -72 -114h-51v45c28 22 86 56 120 80
c-45 -5 -100 -22 -140 -26l-32 32l32 32c39 -3 96 -21 140 -26c-36 27 -89 56 -120 79v46h51c23 -27 50 -79 72 -112c-5 38 -21 102 -25 133l35 35l35 -35c-4 -35 -21 -92 -26 -133c27 38 46 79 73 112h51v-46c-32 -24 -85 -52 -121 -79c43 4 100 22 141 26l32 -32l-32 -32
c-41 3 -97 21 -141 26c37 -26 89 -54 121 -80v-45h-51c-24 29 -50 80 -74 114c5 -42 22 -101 27 -135z" />
    </font>
</defs>
</svg>
