<?xml version="1.0" standalone="no"?>
<!DOCTYPE svg PUBLIC "-//W3C//DTD SVG 1.1//EN" "http://www.w3.org/Graphics/SVG/1.1/DTD/svg11.dtd" >
<svg xmlns="http://www.w3.org/2000/svg" xmlns:xlink="http://www.w3.org/1999/xlink" version="1.1">
<metadata>
Created by FontForge 20170908 at Thu Dec 13 22:46:42 2012
 By Tomas Celizna
Copyright (c) 2007 by Radim Pesko. All rights reserved.
</metadata>
<defs>
<font id="LarishNeue-Regular" horiz-adv-x="400" >
  <font-face 
    font-family="LarishNeue-Regular"
    font-weight="600"
    font-stretch="normal"
    units-per-em="1000"
    panose-1="2 0 0 0 0 0 0 0 0 0"
    ascent="771"
    descent="-229"
    x-height="479"
    cap-height="728"
    bbox="-8 -262 1052 1136"
    underline-thickness="50"
    underline-position="-50"
    stemh="37"
    stemv="126"
    unicode-range="U+000D-FB04"
  />
<missing-glyph horiz-adv-x="310" 
 />
    <glyph glyph-name="f_f" unicode="ff" horiz-adv-x="643" 
d="M233 511v-32h163v61c0 38 5 76 17 109l-36 -15h-27c-35 6 -58 34 -58 65l-9 8c-45 0 -97 -41 -97 -86c0 -48 47 -60 47 -110zM108 479v65c0 120 111 226 243 226c45 0 77 -33 77 -71v-15c27 51 71 86 132 86c46 0 77 -33 77 -73c0 -35 -21 -62 -59 -72h-28
c-32 6 -58 35 -58 66h-10c-11 -7 -17 -29 -17 -53c0 -48 57 -75 57 -124v-35h116v-51h-112v-337c0 -18 40 -55 52 -55h47v-36h-288v36h10c14 0 52 37 52 55v301c0 11 -22 36 -31 36h-132v-337c0 -18 38 -55 50 -55h10v-36h-258v36h19c14 0 51 37 51 55v301
c0 11 -20 36 -29 36h-64v51h93z" />
    <glyph glyph-name="f_i" unicode="fi" horiz-adv-x="622" 
d="M352 428h-118v-337c0 -18 41 -55 53 -55h13v-36h-262v36h19c14 0 51 37 51 55v301c0 11 -20 36 -29 36h-64v51h93v67c0 123 115 224 262 224c49 0 82 -36 82 -74c0 -36 -23 -63 -60 -71h-28c-32 6 -59 35 -59 66l-9 9c-61 15 -108 -47 -108 -76c0 -48 41 -63 41 -112v-33
h125c109 0 177 13 177 13v-401c0 -17 36 -55 48 -55h23v-36h-260v36h10c13 0 54 37 54 55v288c0 16 -42 49 -54 49z" />
    <glyph glyph-name="f_l" unicode="fl" horiz-adv-x="622" 
d="M530 771v-679c0 -17 37 -56 49 -56h23v-36h-261v36h11c13 0 55 38 55 56v336h-172v-337c0 -18 42 -55 54 -55h11v-36h-262v36h19c14 0 51 37 51 55v301c0 11 -20 36 -29 36h-64v51h93v61c0 120 69 230 192 230c70 0 103 -22 230 1zM407 679h-10c-47 -48 -151 12 -172 12
h-10c-18 -5 -44 -37 -44 -61c0 -48 59 -67 59 -116v-35h177v200z" />
    <glyph glyph-name="f_f_i" unicode="ffi" horiz-adv-x="913" 
d="M660 770c49 0 83 -36 83 -74c0 -36 -23 -63 -60 -71h-28c-32 6 -59 35 -59 66l-9 9c-62 18 -121 -39 -121 -76c0 -48 54 -63 54 -112v-33h125c109 0 177 13 177 13v-401c0 -17 36 -55 48 -55h23v-36h-260v36h10c13 0 54 37 54 55v288c0 16 -42 49 -54 49h-117v-337
c0 -18 40 -55 52 -55h12v-36h-253v36h10c14 0 52 37 52 55v301c0 11 -22 36 -31 36h-132v-337c0 -18 38 -55 50 -55h10v-36h-258v36h19c14 0 51 37 51 55v301c0 11 -20 36 -29 36h-64v51h93v65c0 120 118 226 250 226c45 0 79 -34 79 -72v-15c49 49 113 87 223 87zM233 479
h163v61c0 38 8 81 24 109l-37 -15h-27c-35 6 -57 34 -57 65l-9 8c-45 0 -104 -41 -104 -86c0 -48 47 -60 47 -110v-32z" />
    <glyph glyph-name="f_f_l" unicode="ffl" horiz-adv-x="913" 
d="M233 511v-32h163v61c0 38 8 81 24 109l-37 -15h-27c-35 6 -57 34 -57 65l-9 8c-45 0 -104 -41 -104 -86c0 -48 47 -60 47 -110zM437 698v-15c38 50 87 87 185 87c51 0 95 -18 199 1v-679c0 -17 37 -56 49 -56h23v-36h-261v36h11c13 0 55 38 55 56v336h-172v-337
c0 -18 42 -55 54 -55h11v-36h-254v36h10c14 0 52 37 52 55v301c0 11 -22 36 -31 36h-132v-337c0 -18 38 -55 50 -55h10v-36h-258v36h19c14 0 51 37 51 55v301c0 11 -20 36 -29 36h-64v51h93v65c0 120 118 226 250 226c45 0 79 -34 79 -72zM698 679h-10
c-47 -48 -138 12 -174 12h-10c-20 -5 -45 -37 -45 -61c0 -48 62 -67 62 -116v-35h177v200z" />
    <glyph glyph-name=".notdef" horiz-adv-x="310" 
 />
    <glyph glyph-name=".null" horiz-adv-x="0" 
 />
    <glyph glyph-name=".null" horiz-adv-x="0" 
 />
    <glyph glyph-name="CR" unicode="&#xd;" horiz-adv-x="0" 
 />
    <glyph glyph-name="space" unicode=" " horiz-adv-x="310" 
 />
    <glyph glyph-name="exclam" unicode="!" horiz-adv-x="293" 
d="M130 206l-64 455c0 48 36 79 81 79s81 -31 81 -79l-64 -455h-34zM65 79c0 -43 36 -79 81 -79s81 36 81 79s-36 79 -81 79s-81 -36 -81 -79z" />
    <glyph glyph-name="quotedbl" unicode="&#x22;" horiz-adv-x="393" 
d="M175 701v-96l-47 -239h-30l-58 298c0 39 32 69 73 69c26 0 49 -11 62 -32zM218 701v-96l47 -239h30l58 298c0 39 -32 69 -73 69c-26 0 -49 -11 -62 -32z" />
    <glyph glyph-name="numbersign" unicode="#" horiz-adv-x="715" 
d="M40 224h130l56 255h-119v64h133l40 185h72l-40 -185h168l40 185h72l-40 -185h123v-64h-137l-56 -255h126v-64h-140l-34 -160h-72l34 160h-168l-34 -160h-72l34 160h-116v64zM298 479l-56 -255h168l56 255h-168z" />
    <glyph glyph-name="dollar" unicode="$" horiz-adv-x="605" 
d="M276 801v-64c21 -1 32 -3 44 -5v69h47v-82c17 -4 32 -9 48 -9c21 0 41 7 53 18h35v-207h-38c-1 14 -43 87 -98 129v-229c16 -7 31 -12 47 -18c82 -32 141 -104 141 -199c0 -111 -79 -190 -188 -208v-99h-47v95c-14 0 -29 2 -44 6v-101h-47v113c-20 5 -40 11 -59 11
c-36 0 -56 -10 -69 -21h-36v229h40c0 -23 56 -120 124 -158v240l-49 26c-80 42 -130 107 -130 196c0 105 68 183 179 202v66h47zM448 142c0 58 -42 88 -81 106v-198c45 11 81 39 81 92zM320 268l-44 21v-239c13 -4 25 -6 38 -6h6v224zM156 596c0 -46 38 -88 73 -109v197
c-45 -10 -73 -41 -73 -88zM276 463l44 -21v235c-15 6 -30 10 -44 11v-225z" />
    <glyph glyph-name="percent" unicode="%" horiz-adv-x="786" 
d="M599 728h74l-491 -728h-75zM212 438c43 0 70 31 74 85c2 30 2 58 0 87c-4 54 -35 83 -75 83c-45 0 -71 -29 -75 -84c-2 -29 -2 -57 0 -86c4 -53 34 -85 76 -85zM211 387c-87 0 -171 67 -171 180c0 109 86 174 171 174s170 -65 170 -174c0 -113 -83 -180 -170 -180z
M578 40c43 0 70 31 74 85c2 30 2 58 0 87c-4 54 -35 83 -75 83c-45 0 -71 -29 -75 -84c-2 -29 -2 -57 0 -86c4 -53 34 -85 76 -85zM577 -11c-87 0 -171 67 -171 180c0 109 86 174 171 174s170 -65 170 -174c0 -113 -83 -180 -170 -180z" />
    <glyph glyph-name="ampersand" unicode="&#x26;" horiz-adv-x="847" 
d="M250 -12c-118 -3 -200 77 -200 192c0 107 91 174 173 217l-18 27c-25 33 -54 93 -54 157c0 101 84 168 181 168c96 0 166 -54 166 -141c0 -79 -57 -136 -109 -171l-21 -14l144 -194c28 30 94 98 104 133c-1 25 -39 80 -51 80h-72v37h344v-37h-28c-14 0 -92 -65 -107 -82
c-44 -47 -120 -131 -161 -174l68 -83c24 -31 54 -57 69 -66h27v-37h-89c-75 0 -129 47 -156 76l-12 14c-53 -53 -114 -100 -198 -102zM168 173c10 -24 27 -46 47 -65c57 -54 149 -27 200 25l-163 224c-63 -35 -115 -109 -84 -184zM340 462l19 17c31 27 55 70 55 126
c0 57 -41 97 -98 97c-59 0 -103 -42 -103 -94c0 -73 64 -49 96 -98z" />
    <glyph glyph-name="quotesingle" unicode="'" horiz-adv-x="226" 
d="M98 364l-58 298c0 39 32 71 73 71c40 0 73 -32 73 -71l-58 -298h-30z" />
    <glyph glyph-name="parenleft" unicode="(" horiz-adv-x="370" 
d="M182 281c0 -310 85 -394 168 -482l-35 -36c-77 56 -255 256 -255 518c0 260 178 460 255 516l35 -36c-91 -94 -168 -193 -168 -480z" />
    <glyph glyph-name="parenright" unicode=")" horiz-adv-x="370" 
d="M188 281c0 287 -77 386 -168 480l35 36c77 -56 255 -256 255 -516c0 -262 -178 -462 -255 -518l-35 36c83 88 168 172 168 482z" />
    <glyph glyph-name="asterisk" unicode="*" horiz-adv-x="490" 
d="M245 355l-41 40c5 38 24 103 31 149c-29 -40 -53 -91 -81 -126h-56v50c30 25 95 61 132 89c-49 -7 -110 -25 -154 -30l-36 36l36 36c43 -3 106 -23 154 -30c-40 31 -98 62 -132 89v50h56c26 -30 55 -87 81 -124c-7 42 -25 113 -29 147l39 39l39 -39
c-4 -38 -23 -102 -30 -147c31 42 52 87 82 124h56v-50c-35 -28 -93 -58 -133 -89c47 6 110 25 155 30l36 -36l-36 -36c-45 4 -107 23 -155 30c41 -30 98 -60 133 -89v-50h-56c-27 32 -55 88 -83 126c7 -46 26 -111 31 -149z" />
    <glyph glyph-name="plus" unicode="+" horiz-adv-x="640" 
d="M361 558v-232h231v-75h-231v-238h-81v238h-232v75h232v232h81z" />
    <glyph glyph-name="comma" unicode="," horiz-adv-x="285" 
d="M224 77v-35c2 -131 -128 -168 -203 -159l-1 43c67 -8 145 23 144 74h-38c-36 9 -64 41 -64 77c0 43 36 80 81 80s81 -37 81 -80z" />
    <glyph glyph-name="hyphen" unicode="-" horiz-adv-x="340" 
d="M25 330h290v-115h-290v115z" />
    <glyph glyph-name="period" unicode="." horiz-adv-x="282" 
d="M60 79c0 43 36 79 81 79s81 -36 81 -79s-36 -79 -81 -79s-81 36 -81 79z" />
    <glyph glyph-name="slash" unicode="/" horiz-adv-x="547" 
d="M455 771l62 -29l-424 -922l-63 30z" />
    <glyph glyph-name="zero" unicode="0" horiz-adv-x="629" 
d="M313 741c172 0 285 -185 285 -369c0 -190 -110 -385 -284 -385c-171 0 -284 186 -284 375c0 186 109 379 283 379zM314 46c68 0 125 68 132 207c3 61 3 194 0 256c-6 121 -43 176 -132 176c-68 0 -127 -61 -134 -200c-3 -61 -3 -194 0 -256c6 -121 45 -183 134 -183z" />
    <glyph glyph-name="one" unicode="1" horiz-adv-x="485" 
d="M318 739v-642c0 -17 40 -60 55 -60h42v-37h-338v37h43c14 0 57 42 57 60v421c0 16 -33 48 -45 48h-62v35c64 21 131 69 168 108z" />
    <glyph glyph-name="two" unicode="2" horiz-adv-x="538" 
d="M133 109h269c14 0 67 36 67 48h39l-62 -157h-429v34c34 90 160 224 266 334c37 39 67 94 63 149c-5 75 -58 129 -138 129c-64 0 -118 -50 -160 -103l-38 38c51 72 138 158 249 160c143 2 231 -82 230 -221c-1 -103 -82 -173 -155 -229c-78 -61 -177 -142 -201 -182z" />
    <glyph glyph-name="three" unicode="3" horiz-adv-x="565" 
d="M144 378v37l106 39c43 27 70 57 70 100c0 58 -43 99 -103 99c-55 0 -121 -37 -165 -73l-37 43c57 59 163 118 267 118c91 0 172 -48 172 -141c0 -83 -78 -135 -140 -161c85 2 201 -42 201 -165c0 -215 -301 -313 -454 -313l-10 61c106 2 324 67 324 233
c0 107 -103 152 -231 123z" />
    <glyph glyph-name="four" unicode="4" horiz-adv-x="608" 
d="M320 251l1 306h-5c-22 -34 -112 -185 -204 -306h208zM318 97v83h-293v52c149 195 245 357 304 452c68 25 131 55 131 55v-488h108v-71h-108v-83c0 -18 40 -60 55 -60h18v-37h-325v37h54c14 0 56 42 56 60z" />
    <glyph glyph-name="five" unicode="5" horiz-adv-x="560" 
d="M440 738l26 -113s-7 -13 -316 -5l-30 -184c54 39 115 78 193 78c115 0 205 -68 205 -193c0 -216 -279 -342 -453 -345l-7 62c127 7 332 106 332 247c0 92 -56 135 -143 135c-54 0 -106 -33 -148 -61l-42 23l50 346h53c278 -5 280 10 280 10z" />
    <glyph glyph-name="six" unicode="6" horiz-adv-x="616" 
d="M437 747l17 -57c-180 5 -286 -161 -278 -292c26 45 84 94 179 94c111 0 221 -89 221 -246c0 -141 -102 -259 -249 -259c-169 0 -277 167 -277 365c0 240 187 400 387 395zM194 298c0 -124 65 -243 146 -243c69 0 108 52 108 134c0 125 -65 223 -146 223
c-77 0 -108 -59 -108 -114z" />
    <glyph glyph-name="seven" unicode="7" horiz-adv-x="519" 
d="M217 0h-149c177 391 325 591 350 623c0 0 -71 -9 -303 -5c-15 0 -67 -71 -67 -71h-41l59 181h423l20 -34l-45 -79c-30 -49 -235 -533 -247 -615z" />
    <glyph glyph-name="eight" unicode="8" horiz-adv-x="607" 
d="M456 160c0 68 -99 106 -151 134c-24 13 -51 30 -51 30c-55 -29 -117 -59 -117 -145c0 -84 90 -132 162 -132c83 0 157 43 157 113zM330 447l19 -9c43 25 87 62 87 119c0 81 -63 132 -145 132c-61 0 -115 -38 -115 -92c0 -66 87 -118 154 -150zM200 361
c-49 32 -141 101 -141 193c0 114 126 187 246 187c113 0 228 -62 228 -176c0 -86 -74 -135 -130 -159c83 -45 169 -87 169 -204s-122 -215 -280 -215c-116 0 -257 59 -257 189c0 103 103 159 165 185z" />
    <glyph glyph-name="nine" unicode="9" horiz-adv-x="601" 
d="M171 -11l-14 61c119 0 273 141 266 290c-21 -32 -76 -87 -165 -88c-111 -1 -214 83 -222 251c-7 143 92 238 233 238c162 0 282 -146 282 -340c0 -251 -203 -412 -380 -412zM408 457c0 119 -74 225 -152 225s-106 -52 -106 -113c0 -125 78 -233 159 -231
c77 2 99 64 99 119z" />
    <glyph glyph-name="colon" unicode=":" horiz-adv-x="272" 
d="M73 89c0 34 28 62 63 62s63 -28 63 -62s-28 -62 -63 -62s-63 28 -63 62zM55 406c0 43 36 79 81 79s81 -36 81 -79s-36 -79 -81 -79s-81 36 -81 79z" />
    <glyph glyph-name="semicolon" unicode=";" horiz-adv-x="283" 
d="M222 77v-35c2 -131 -127 -168 -202 -159v43c67 -8 145 24 144 74h-40c-36 9 -64 41 -64 77c0 43 36 81 81 81s81 -38 81 -81zM79 390c0 34 28 62 63 62s63 -28 63 -62s-28 -62 -63 -62s-63 28 -63 62z" />
    <glyph glyph-name="less" unicode="&#x3c;" horiz-adv-x="500" 
d="M123 298l295 -204v-94l-388 274v51l440 273v-88z" />
    <glyph glyph-name="equal" unicode="=" horiz-adv-x="640" 
d="M48 414h544v-77h-544v77zM48 242h544v-77h-544v77z" />
    <glyph glyph-name="greater" unicode="&#x3e;" horiz-adv-x="500" 
d="M82 94l295 204l-347 212v88l440 -273v-51l-388 -274v94z" />
    <glyph glyph-name="question" unicode="?" horiz-adv-x="438" 
d="M243 575c0 38 -25 72 -69 72c-45 0 -72 -33 -72 -69v-54h-52v56c0 98 66 159 165 159c93 0 158 -62 158 -155c0 -136 -159 -187 -159 -289c0 -21 16 -35 36 -35c18 0 35 13 35 34v50h44v-54c0 -60 -56 -92 -104 -92c-65 0 -104 41 -104 104c0 94 122 184 122 273zM154 61
c0 -34 28 -61 63 -61s63 27 63 61s-28 61 -63 61s-63 -27 -63 -61z" />
    <glyph glyph-name="at" unicode="@" horiz-adv-x="876" 
d="M503 143v88l-84 -18c-37 -8 -71 -31 -71 -71c0 -43 29 -66 72 -66c32 0 78 44 83 67zM683 -166h-216c-255 0 -422 179 -422 419c0 224 178 393 405 393c224 0 381 -169 381 -393c0 -144 -86 -253 -206 -253c-49 0 -95 38 -109 85c-21 -32 -84 -86 -140 -86
c-77 0 -131 52 -131 127c0 91 82 112 145 125l114 22v79c0 52 -53 79 -88 79s-85 -18 -74 -60c13 -52 -24 -78 -76 -77l-21 18c-15 117 110 163 187 161c108 -1 187 -46 187 -129v-244c0 -16 24 -37 37 -37c61 0 111 74 111 190c0 197 -132 338 -318 338
c-190 0 -340 -142 -340 -338c0 -211 143 -359 355 -359h219v-60z" />
    <glyph glyph-name="A" unicode="A" horiz-adv-x="752" 
d="M482 102l-45 109h-231l-40 -108c3 -17 35 -66 50 -66h34v-37h-240v37h13c14 1 69 48 80 66l228 603l60 35l262 -639c12 -16 61 -65 75 -65h14v-37h-349v37h35c15 1 54 48 54 65zM320 521h-4l-94 -260h196z" />
    <glyph glyph-name="B" unicode="B" horiz-adv-x="719" 
d="M271 404h91c53 7 110 34 114 110c1 18 1 31 0 50c-2 70 -68 118 -126 118h-46c-12 0 -33 -22 -33 -34v-244zM549 412l-78 -20c105 -15 208 -62 208 -185c0 -132 -126 -207 -315 -207h-324v37h16c11 0 55 47 55 60v535c0 14 -43 59 -55 59h-16v37h315
c152 0 275 -56 275 -181c0 -67 -34 -111 -81 -135zM272 357v-274c0 -11 23 -33 33 -33h55c81 0 149 50 153 129c1 21 1 34 0 56c-2 81 -77 122 -141 122h-100z" />
    <glyph glyph-name="C" unicode="C" horiz-adv-x="758" 
d="M407 691c-96 0 -177 -58 -194 -229c-6 -62 -5 -123 2 -186c14 -125 94 -214 226 -214c96 0 180 43 234 127h63c-50 -107 -154 -199 -319 -202c-223 -4 -379 177 -379 380c0 222 149 382 366 374c79 -3 124 -33 182 -33c19 0 36 7 45 20h40v-249h-43
c0 38 -96 212 -223 212z" />
    <glyph glyph-name="D" unicode="D" horiz-adv-x="756" 
d="M547 280c3 47 3 121 0 169c-11 174 -94 232 -208 232h-23c-15 0 -45 -35 -45 -50v-533c0 -15 36 -48 48 -48h24c108 0 193 56 204 230zM716 366c0 -211 -185 -366 -373 -366h-303v37h16c15 0 55 40 55 58v538c0 17 -42 58 -55 58h-16v37h301c181 0 375 -142 375 -362z
" />
    <glyph glyph-name="E" unicode="E" horiz-adv-x="705" 
d="M608 728v-199h-37c0 20 -107 151 -124 151h-157c-6 0 -18 -14 -18 -20v-263h78c15 0 81 60 81 75v18h42v-239h-42v21c0 16 -66 76 -81 76h-78v-276c0 -6 12 -22 17 -22h158c38 0 193 166 193 188h40l-46 -238h-593v37h18c15 0 53 41 53 57v537c0 17 -42 60 -55 60h-17v37
h568z" />
    <glyph glyph-name="F" unicode="F" horiz-adv-x="641" 
d="M626 728v-208h-37c0 20 -120 160 -137 160h-162c-6 0 -18 -14 -18 -20v-274h123c15 0 81 59 81 74v19h42v-273h-42v55c0 16 -66 76 -82 76h-122v-240c0 -16 38 -60 53 -60h47v-37h-332v37h17c14 0 55 44 55 60v534c0 18 -42 60 -55 60h-17v37h586z" />
    <glyph glyph-name="G" unicode="G" horiz-adv-x="811" 
d="M412 690c-99 2 -182 -56 -199 -226c-6 -61 -6 -130 1 -192c14 -127 91 -219 205 -219c70 0 118 38 133 73v106c0 14 -41 59 -50 59h-93v39h377v-38h-34c-9 0 -51 -44 -51 -58v-234h-9l-85 84c-38 -51 -99 -97 -193 -97c-234 0 -374 163 -373 385c1 215 145 377 361 369
c74 -3 132 -33 199 -33c16 0 36 6 46 20h40v-249h-41c0 36 -109 208 -234 211z" />
    <glyph glyph-name="H" unicode="H" horiz-adv-x="811" 
d="M269 396h275v235c0 14 -46 60 -59 60h-28v37h314v-37h-15c-12 0 -55 -46 -55 -60v-534c0 -16 39 -60 53 -60h15v-37h-312v37h32c13 0 55 44 55 60v244h-275v-244c0 -16 42 -60 55 -60h31v-37h-315v37h16c13 0 53 44 53 60v534c0 14 -46 60 -55 60h-14v37h315v-37h-29
c-12 0 -57 -46 -57 -60v-235z" />
    <glyph glyph-name="I" unicode="I" horiz-adv-x="418" 
d="M370 0h-324v37h30c14 0 55 44 55 60v534c0 15 -42 60 -56 60h-30v37h328v-37h-29c-15 0 -57 -45 -57 -60v-534c0 -16 39 -60 54 -60h29v-37z" />
    <glyph glyph-name="J" unicode="J" horiz-adv-x="451" 
d="M137 -146c-82 0 -137 48 -137 125v21h59v-23c0 -27 23 -50 54 -50c33 0 60 28 60 60v644c0 15 -46 61 -58 61h-58v36h344v-36h-15c-13 0 -53 -46 -53 -61v-568c0 -122 -78 -209 -196 -209z" />
    <glyph glyph-name="K" unicode="K" horiz-adv-x="781" 
d="M352 331l-82 -93v-141c-1 -15 40 -60 53 -60h33v-37h-315v37h16c11 0 53 45 53 60v534c0 16 -42 60 -55 60h-15v37h316v-37h-32c-14 0 -55 -45 -55 -60v-308h7l254 299c11 13 -34 69 -48 69h-32v37h285v-37h-18c-15 0 -104 -63 -112 -73l-153 -173l231 -343
c11 -16 63 -65 77 -65h11v-37h-335v37h36c15 0 45 47 36 61z" />
    <glyph glyph-name="L" unicode="L" horiz-adv-x="684" 
d="M40 728h335v-37h-45c-14 0 -57 -43 -57 -60v-543c0 -13 22 -34 32 -34h120c42 0 207 181 207 197h42l-53 -251h-581v37h19c14 0 53 43 53 59v535c0 17 -43 60 -56 60h-16v37z" />
    <glyph glyph-name="M" unicode="M" horiz-adv-x="986" 
d="M448 -25l-271 604h-5v-482c0 -14 44 -60 55 -60h36v-37h-223v37h19c10 0 53 46 53 60v534c0 15 -44 60 -55 60h-17v37h236l216 -499h6l214 499h234v-37h-16c-12 0 -55 -47 -55 -60v-534c0 -14 41 -60 53 -60h16v-37h-317v37h36c12 0 54 46 54 60v482h-5z" />
    <glyph glyph-name="N" unicode="N" horiz-adv-x="817" 
d="M696 623v-642l-508 609h-3v-477c0 -16 58 -76 70 -76h37v-37h-252v37h14c13 0 70 60 70 76v512c0 15 -46 66 -56 66h-16v37h219l361 -446h5v341c0 16 -49 68 -61 68h-35v37h236v-37h-21c-13 0 -60 -52 -60 -68z" />
    <glyph glyph-name="O" unicode="O" horiz-adv-x="846" 
d="M426 -13c-214 0 -386 172 -386 375c0 216 165 379 380 379c214 0 386 -172 386 -375c0 -216 -165 -379 -380 -379zM427 47c119 0 191 74 209 200c9 65 9 154 0 218c-18 129 -97 221 -217 221c-117 0 -189 -75 -207 -200c-9 -65 -9 -154 0 -218c18 -129 95 -221 215 -221z
" />
    <glyph glyph-name="P" unicode="P" horiz-adv-x="679" 
d="M356 682h-52c-12 0 -33 -22 -33 -34v-318h75c71 0 135 55 142 126c3 32 3 60 0 91c-7 74 -68 135 -132 135zM273 277v-181c0 -15 40 -59 54 -59h50v-37h-334v37h15c12 0 53 43 53 59v536c0 15 -42 59 -55 59h-16v37h318c151 0 291 -64 291 -220
c0 -157 -147 -231 -304 -231h-72z" />
    <glyph glyph-name="Q" unicode="Q" horiz-adv-x="845" 
d="M424 -13h-4c-212 2 -380 173 -380 375c0 216 165 379 380 379c214 0 379 -172 379 -375c0 -161 -108 -308 -258 -360l102 -17l193 -172h-181l-172 148c-15 14 -34 22 -59 22zM426 47c119 0 191 74 209 200c9 65 9 154 0 218c-18 129 -97 221 -217 221
c-117 0 -189 -75 -207 -200c-9 -65 -9 -154 0 -218c18 -129 95 -221 215 -221z" />
    <glyph glyph-name="R" unicode="R" horiz-adv-x="765" 
d="M398 265c-12 20 -45 60 -62 60h-68v-228c0 -15 41 -60 55 -60h43v-37h-326v37h15c13 0 53 45 53 60v535c0 15 -43 59 -55 59h-13v37h310c165 0 286 -55 286 -193c0 -109 -111 -170 -197 -182l98 -18c80 -125 154 -242 197 -293c4 -5 12 -10 16 -10v-32h-172l-35 30
c-35 44 -97 155 -145 235zM268 649v-273h80c51 7 118 40 127 114c3 26 3 47 0 73c-9 74 -69 120 -129 120h-45c-12 0 -33 -22 -33 -34z" />
    <glyph glyph-name="S" unicode="S" horiz-adv-x="625" 
d="M520 728v-225h-39c-1 36 -105 185 -204 187c-69 1 -115 -32 -115 -92c0 -47 48 -86 86 -105c56 -28 122 -56 183 -81c93 -38 144 -106 144 -206c0 -131 -107 -219 -239 -219c-68 0 -119 39 -182 39c-23 0 -43 -8 -55 -26h-37v236h39c1 -39 136 -193 235 -193
c75 0 126 38 126 99c0 64 -52 90 -95 106c-63 24 -123 50 -182 82c-84 45 -135 113 -135 206c0 119 97 205 223 205c61 0 105 -31 160 -31c18 0 41 3 51 18h36z" />
    <glyph glyph-name="T" unicode="T" horiz-adv-x="725" 
d="M535 680l-93 -1v-582c0 -14 43 -60 54 -60h49v-37h-368v37h49c11 0 55 46 55 60v582l-91 1c-25 1 -129 -181 -141 -201h-39s17 138 17 262h38c18 -11 104 -13 127 -13h342c23 0 102 2 126 13h38c0 -124 17 -262 17 -262h-39c-12 20 -116 202 -141 201z" />
    <glyph glyph-name="U" unicode="U" horiz-adv-x="802" 
d="M692 614v-360c0 -163 -115 -267 -287 -267c-158 0 -300 123 -300 287v353c0 11 -47 64 -56 64h-19v37h328v-37h-37c-9 0 -56 -53 -56 -64v-366c0 -117 78 -192 186 -191c116 1 181 80 181 178v366c0 13 -57 77 -67 77h-39v37h246v-37h-16c-10 0 -64 -64 -64 -77z" />
    <glyph glyph-name="V" unicode="V" horiz-adv-x="746" 
d="M269 613l154 -402h4l147 401c1 18 -43 79 -58 79h-30v37h250v-37h-13c-12 0 -73 -59 -86 -80l-209 -567l-74 -69l-256 637c-10 15 -61 79 -75 79h-13v37h342v-37h-31c-15 0 -52 -58 -52 -78z" />
    <glyph glyph-name="W" unicode="W" horiz-adv-x="1062" 
d="M524 516l-142 -487l-61 -41l-222 618c-6 17 -64 85 -77 85h-12v37h343v-37h-38c-14 0 -51 -64 -52 -83l121 -362h3l101 355l121 146l166 -501h3l109 362c0 19 -44 83 -56 83h-41v37h262v-37h-14c-12 0 -82 -68 -89 -84l-184 -578l-62 -41l-173 528h-6z" />
    <glyph glyph-name="X" unicode="X" horiz-adv-x="776" 
d="M127 119l184 228l-186 264c-9 13 -75 80 -90 80h-15v37h351v-37h-23c-12 0 -41 -60 -41 -76l100 -146h4l117 146c0 18 -32 76 -44 76h-25v37h271v-37h-16c-11 0 -82 -51 -105 -77l-160 -199l210 -296c10 -15 69 -82 83 -82h14v-37h-365v37h39c13 0 46 61 45 78l-122 177
h-4l-141 -176c0 -18 35 -79 50 -79h38v-37h-276v37h14c14 0 76 61 93 82z" />
    <glyph glyph-name="Y" unicode="Y" horiz-adv-x="708" 
d="M430 313v-216c0 -14 41 -60 52 -60h20v-37h-301v37h21c11 0 52 46 52 60v216l-163 298c-8 13 -73 80 -89 80h-12v37h347v-37h-36c-13 0 -46 -57 -48 -76l124 -236h6l127 233c-2 18 -31 79 -44 79h-36v37h248v-37h-10c-17 -3 -84 -64 -92 -80z" />
    <glyph glyph-name="Z" unicode="Z" horiz-adv-x="644" 
d="M409 679h-178c-20 0 -138 -136 -138 -153h-39l19 202h541l-411 -677h156c37 0 212 182 212 200h43l-36 -251h-558v41z" />
    <glyph glyph-name="bracketleft" unicode="[" horiz-adv-x="385" 
d="M130 812h250v-42h-91c-11 0 -43 -31 -43 -44v-899c0 -12 31 -44 43 -44h91v-42h-250v1071z" />
    <glyph glyph-name="backslash" unicode="\" horiz-adv-x="547" 
d="M30 742l62 29l425 -921l-63 -30z" />
    <glyph glyph-name="bracketright" unicode="]" horiz-adv-x="385" 
d="M5 812h250v-1071h-250v42h91c12 0 43 32 43 44v899c0 13 -32 44 -43 44h-91v42z" />
    <glyph glyph-name="asciicircum" unicode="^" horiz-adv-x="680" 
d="M40 288l274 440h52l274 -440h-88l-212 343l-212 -343h-88z" />
    <glyph glyph-name="underscore" unicode="_" horiz-adv-x="560" 
d="M0 0h560v-71h-560v71z" />
    <glyph glyph-name="grave" unicode="`" horiz-adv-x="500" 
d="M100 713h150l50 -176h-42z" />
    <glyph glyph-name="a" unicode="a" horiz-adv-x="562" 
d="M431 -9c-53 -1 -82 40 -93 87h-5c-23 -31 -85 -89 -144 -89c-79 0 -138 56 -138 133c0 95 90 128 156 142l116 24v58c0 50 -35 89 -104 89c-48 0 -80 -31 -75 -74s-34 -70 -84 -62l-21 22c0 118 113 169 207 169c115 0 204 -56 204 -151v-229c0 -16 24 -37 38 -37
c9 0 35 27 44 39l26 -26c-14 -22 -79 -94 -127 -95zM324 141v107l-90 -25c-47 -13 -78 -39 -78 -85c0 -41 35 -72 76 -72c38 0 74 42 92 75z" />
    <glyph glyph-name="b" unicode="b" horiz-adv-x="617" 
d="M334 -11c-70 0 -133 51 -156 82h-6l-79 -71h-7v634c0 16 -38 48 -50 48h-18v32c116 27 196 57 196 57v-345c24 28 69 64 132 64c123 0 234 -87 234 -252c0 -159 -124 -249 -246 -249zM331 434c-61 0 -110 -59 -115 -131c-3 -41 -3 -92 0 -132c5 -73 43 -123 109 -123
c60 0 109 57 116 132c4 41 4 93 0 133c-7 73 -44 121 -110 121z" />
    <glyph glyph-name="c" unicode="c" horiz-adv-x="516" 
d="M276 443c-71 0 -123 -77 -123 -187c0 -98 66 -172 158 -172c113 0 155 93 155 93h40c-32 -109 -126 -188 -239 -188c-133 0 -227 107 -227 239c0 160 111 263 248 262c91 -1 146 -49 171 -72l-73 -121c-33 0 -45 24 -43 56c3 41 -10 90 -67 90z" />
    <glyph glyph-name="d" unicode="d" horiz-adv-x="622" 
d="M607 0h-165l-15 61c-28 -35 -87 -71 -153 -72c-123 -1 -234 100 -234 259c0 157 106 242 228 242c54 0 108 -24 138 -57v190c0 18 -39 59 -51 59h-29v31c112 23 208 57 208 57v-679c0 -18 38 -55 52 -55h21v-36zM283 432c-66 0 -97 -47 -106 -120c-5 -42 -5 -91 0 -134
c8 -72 52 -125 112 -125c68 0 112 44 116 117c2 40 2 88 0 129c-4 72 -62 133 -122 133z" />
    <glyph glyph-name="e" unicode="e" horiz-adv-x="530" 
d="M473 262l-306 -24c2 -83 62 -155 146 -155c67 0 119 32 157 86h40c-39 -110 -127 -180 -230 -180c-155 0 -238 116 -239 249c-1 150 105 253 246 252c138 -1 195 -115 195 -194zM165 283l192 18c7 55 -5 142 -81 142c-85 0 -113 -87 -111 -160z" />
    <glyph glyph-name="f" unicode="f" horiz-adv-x="353" 
d="M203 691h-10c-11 -7 -25 -29 -25 -53c0 -48 68 -75 68 -124v-35h111v-51h-109v-337c0 -18 40 -55 52 -55h44v-36h-296v36h19c14 0 51 37 51 55v301c0 11 -20 36 -29 36h-64v51h93v61c0 120 54 230 162 230c45 0 78 -33 78 -73c0 -35 -21 -62 -59 -72h-28
c-32 6 -58 35 -58 66z" />
    <glyph glyph-name="g" unicode="g" horiz-adv-x="588" 
d="M414 -79c-182 0 -249 18 -250 39c-23 -5 -59 -27 -59 -54c0 -35 141 -81 188 -81c40 1 167 5 167 62c0 19 -19 34 -46 34zM496 305c0 -106 -82 -184 -215 -184h-69c-31 0 -57 -16 -57 -43c0 -26 26 -43 51 -45c58 -5 117 -7 184 -7c91 0 153 -32 153 -105
c0 -96 -138 -138 -251 -138c-116 0 -272 27 -272 108c0 45 65 80 111 90c-39 5 -91 35 -91 80c0 57 83 83 137 91c-42 11 -129 62 -129 159c0 107 99 179 222 179c98 0 175 -59 192 -143h6c19 79 79 143 115 143v-130h-18c-15 0 -69 -38 -69 -55zM269 445
c-56 0 -83 -34 -90 -91c-3 -27 -3 -56 0 -83c6 -54 43 -101 97 -101c56 0 83 33 90 92c3 27 3 56 0 83c-6 55 -43 100 -97 100z" />
    <glyph glyph-name="h" unicode="h" horiz-adv-x="602" 
d="M83 91v543c0 17 -36 48 -48 48h-19v31c105 23 195 57 195 57v-388c44 45 110 108 178 108c78 0 134 -75 134 -142v-257c0 -15 38 -55 51 -55h13v-36h-260v36h26c12 0 43 39 43 55v245c0 31 -28 68 -56 68c-54 0 -129 -81 -129 -96v-217c0 -16 28 -55 40 -55h25v-36h-261
v36h17c13 0 51 38 51 55z" />
    <glyph glyph-name="i" unicode="i" horiz-adv-x="314" 
d="M97 347c0 16 -38 49 -50 49h-19v32c104 23 195 64 195 64v-400c0 -17 36 -56 48 -56h23v-36h-269v36h21c13 0 51 38 51 56v255zM85 628c0 39 32 72 73 72c40 0 73 -33 73 -72s-33 -72 -73 -72c-41 0 -73 33 -73 72z" />
    <glyph glyph-name="j" unicode="j" horiz-adv-x="323" 
d="M114 -132v457c0 17 -38 59 -51 59h-37v30c103 28 217 78 217 78v-513c0 -92 -65 -196 -156 -196c-49 0 -87 28 -87 82v70h45v-69c0 -18 15 -33 33 -33c19 0 36 15 36 35zM95 628c0 34 28 62 63 62s63 -28 63 -62s-28 -62 -63 -62s-63 28 -63 62z" />
    <glyph glyph-name="k" unicode="k" horiz-adv-x="598" 
d="M381 54l-115 162l-56 -50v-75c0 -15 28 -55 40 -55h14v-36h-248v36h16c13 0 51 41 51 56v528c0 15 -38 49 -50 49h-18v30c103 30 196 72 196 72v-543h4l149 142c15 15 -13 74 -29 74h-49v35h282v-35h-21c-12 0 -98 -62 -113 -76l-74 -68l142 -195c10 -14 59 -69 69 -69
h17v-36h-163s-26 29 -44 54z" />
    <glyph glyph-name="l" unicode="l" horiz-adv-x="311" 
d="M91 633c0 15 -40 49 -52 49h-17v31c104 22 195 58 195 58v-680c0 -16 40 -55 52 -55h22v-36h-276v36h21c14 0 55 39 55 55v542z" />
    <glyph glyph-name="m" unicode="m" horiz-adv-x="887" 
d="M216 308v-218c0 -16 29 -54 41 -54h22v-36h-251v36h14c13 0 47 37 47 54v260c0 16 -36 48 -48 48h-21v30c84 22 156 60 156 60l30 -118h5c43 46 107 120 175 120c65 0 108 -59 118 -110c43 45 106 110 177 110c83 0 133 -73 133 -142v-258c0 -16 30 -54 42 -54h16v-36
h-244v36h22c11 0 39 38 39 54v255c0 30 -29 63 -56 63c-42 0 -119 -70 -119 -86v-232c0 -16 28 -54 40 -54h22v-36h-249v36h21c11 0 41 38 41 54v254c0 30 -24 64 -52 64c-41 0 -121 -84 -121 -100z" />
    <glyph glyph-name="n" unicode="n" horiz-adv-x="603" 
d="M394 490c78 0 134 -75 134 -142v-257c0 -15 32 -55 45 -55h15v-36h-254v36h23c12 0 45 39 45 55v245c0 31 -29 68 -57 68c-47 0 -129 -77 -129 -94v-219c0 -16 30 -55 42 -55h23v-36h-256v36h17c13 0 47 38 47 55v259c0 14 -40 48 -50 48h-19v30c86 26 163 64 163 64
l26 -125c42 46 115 123 185 123z" />
    <glyph glyph-name="o" unicode="o" horiz-adv-x="583" 
d="M295 44c63 0 107 43 117 117c6 44 6 110 0 155c-10 73 -56 125 -122 125c-63 0 -106 -44 -116 -118c-6 -44 -6 -110 0 -155c10 -73 56 -124 121 -124zM293 -12c-126 0 -253 92 -253 250c0 152 128 253 252 253c132 0 251 -99 251 -251c0 -154 -120 -252 -250 -252z" />
    <glyph glyph-name="p" unicode="p" horiz-adv-x="620" 
d="M217 36v-151c0 -19 35 -55 47 -55h45v-36h-289v36h17c13 0 49 36 49 55v497c0 19 -37 57 -50 57h-21v40h169l12 -61c24 30 77 71 150 72c123 2 234 -87 234 -252c0 -159 -124 -251 -246 -249c-46 1 -91 22 -117 47zM331 435c-61 0 -110 -60 -115 -132
c-3 -41 -3 -92 0 -132c5 -73 43 -123 109 -123c60 0 109 57 116 132c4 41 4 93 0 133c-7 73 -44 122 -110 122z" />
    <glyph glyph-name="q" unicode="q" horiz-adv-x="611" 
d="M400 -115v155c-24 -27 -68 -50 -115 -51c-122 -3 -245 90 -245 249c0 165 119 254 242 252c71 -1 130 -43 156 -71l87 60h7v-594c0 -19 34 -55 47 -55h17v-36h-287v36h45c12 0 46 36 46 55zM289 51c66 0 105 50 114 123c5 40 4 94 -1 135c-9 72 -57 129 -120 129
c-66 0 -98 -47 -105 -120c-4 -40 -4 -92 0 -133c7 -72 51 -134 112 -134z" />
    <glyph glyph-name="r" unicode="r" horiz-adv-x="449" 
d="M192 337l54 81c26 37 57 72 112 72c45 0 76 -33 76 -73c0 -35 -21 -65 -59 -75h-29c-29 6 -50 31 -56 57c-15 0 -70 -87 -70 -100v-205c0 -16 38 -58 51 -58h54v-36h-303v36h19c12 0 50 42 50 58v250c0 17 -36 50 -52 50h-19v30c80 28 134 68 134 68l34 -155h4z" />
    <glyph glyph-name="s" unicode="s" horiz-adv-x="466" 
d="M58 166h29c0 -32 96 -125 171 -125c44 0 73 19 73 54c0 37 -35 55 -70 67c-37 13 -69 25 -107 43c-66 31 -107 77 -107 139c0 91 69 146 159 146c47 0 90 -25 124 -25c9 0 23 6 28 14h27v-152h-29c0 29 -84 117 -151 117c-45 0 -72 -21 -72 -55c0 -32 39 -51 75 -68
s70 -30 108 -44c59 -22 107 -65 107 -138c0 -93 -73 -152 -177 -150c-52 1 -98 28 -129 28c-11 0 -26 -8 -32 -17h-27v166z" />
    <glyph glyph-name="t" unicode="t" horiz-adv-x="377" 
d="M222 422v-306c0 -19 29 -46 46 -46c25 0 67 42 76 52l28 -31c-16 -23 -95 -102 -159 -103s-120 50 -120 114v286c0 11 -24 36 -34 36h-54v55h28c32 0 157 154 157 182h28v-182h123v-57h-119z" />
    <glyph glyph-name="u" unicode="u" horiz-adv-x="633" 
d="M402 84l-2 20c-51 -58 -133 -115 -191 -115c-74 0 -127 74 -127 141v258c0 14 -36 56 -49 56h-18v35h196v-334c0 -37 19 -69 56 -69c31 0 93 46 124 88v224c0 14 -37 56 -50 56h-33v35h212v-367c0 -13 23 -36 36 -36c11 0 35 24 46 34l26 -27c-16 -19 -77 -92 -124 -93
c-56 -1 -97 42 -102 94z" />
    <glyph glyph-name="v" unicode="v" horiz-adv-x="528" 
d="M310 167l90 221c-1 15 -17 56 -29 56h-25v35h177v-35h-19c-13 0 -44 -38 -54 -56l-153 -369l-44 -33l-182 402c-9 18 -42 56 -53 56h-13v35h266v-35h-25c-12 0 -31 -40 -32 -56l90 -221h6z" />
    <glyph glyph-name="w" unicode="w" horiz-adv-x="775" 
d="M570 181l76 205c-1 16 -21 58 -34 58h-35v35h193v-35h-17c-11 0 -46 -42 -55 -58l-142 -365l-47 -33l-121 333h-5l-106 -300l-51 -33l-153 397c-9 16 -44 59 -55 59h-13v35h269v-35h-32c-13 0 -32 -40 -33 -57l73 -205h4l75 217l87 80l118 -298h4z" />
    <glyph glyph-name="x" unicode="x" horiz-adv-x="557" 
d="M115 98l103 119l-126 167c-8 10 -58 60 -72 60h-15v35h277v-35h-21c-13 0 -24 -50 -15 -62l54 -70l60 70c11 12 -1 62 -12 62h-21v35h197v-35h-13c-13 -1 -83 -52 -93 -63l-89 -106l138 -179c7 -11 59 -60 73 -60h12v-36h-282v36h20c13 0 28 50 19 61l-61 81l-68 -81
c-11 -12 7 -61 20 -61h20v-36h-213v36h15c13 1 83 52 93 62z" />
    <glyph glyph-name="y" unicode="y" horiz-adv-x="551" 
d="M242 28l-161 356c-8 15 -51 60 -63 60h-8v35h276v-35h-26c-13 0 -37 -40 -37 -58l88 -216h6l99 216c1 19 -21 58 -34 58h-25v35h189v-35h-15c-11 0 -48 -42 -58 -58l-171 -364l-112 -229l-55 27z" />
    <glyph glyph-name="z" unicode="z" horiz-adv-x="469" 
d="M15 40l270 400h-126c-18 0 -94 -83 -94 -102h-31l6 141h414l-284 -433h116c32 0 136 102 137 120h31l-15 -166h-424v40z" />
    <glyph glyph-name="braceleft" unicode="{" horiz-adv-x="380" 
d="M60 296v37l53 17c52 17 71 74 55 123c-18 53 -88 260 104 296l8 -39c-158 -40 5 -164 -6 -277c-10 -93 -87 -136 -155 -139c68 -2 145 -46 155 -138c11 -113 -152 -237 6 -277l-8 -39c-192 36 -122 243 -104 296c16 49 -3 106 -55 123z" />
    <glyph glyph-name="bar" unicode="|" horiz-adv-x="307" 
d="M120 -206v976h67v-976h-67z" />
    <glyph glyph-name="braceright" unicode="}" horiz-adv-x="380" 
d="M320 333v-37l-53 -17c-52 -17 -71 -74 -55 -123c18 -53 88 -260 -104 -296l-8 39c158 40 -5 164 6 277c9 92 87 136 155 138c-68 3 -146 46 -155 139c-11 113 152 237 -6 277l8 39c192 -36 122 -243 104 -296c-16 -49 3 -106 55 -123z" />
    <glyph glyph-name="asciitilde" unicode="~" horiz-adv-x="630" 
d="M165 384c105 0 250 -78 316 -78c45 0 78 28 77 65h41c1 -73 -32 -173 -134 -173c-87 0 -238 78 -316 78c-45 0 -78 -28 -77 -65h-41c-1 72 35 173 134 173z" />
    <glyph glyph-name="nbspace" unicode="&#xa0;" horiz-adv-x="310" 
 />
    <glyph glyph-name="exclamdown" unicode="&#xa1;" horiz-adv-x="293" 
d="M130 317l-64 -455c0 -48 36 -79 81 -79s81 31 81 79l-64 455h-34zM65 446c0 43 36 79 81 79s81 -36 81 -79s-36 -79 -81 -79s-81 36 -81 79z" />
    <glyph glyph-name="cent" unicode="&#xa2;" horiz-adv-x="526" 
d="M381 -6l-44 121c-24 -7 -47 -9 -73 -9c-128 0 -227 109 -227 237c0 113 53 198 135 237l-52 139l44 16l52 -139c21 6 43 9 67 9c91 -1 146 -49 171 -72l-72 -115c-33 0 -43 22 -41 54c3 41 -13 87 -70 87c-14 0 -27 -3 -39 -8l124 -347c76 19 100 84 100 84h40
c-20 -68 -58 -126 -115 -156l45 -121zM145 397c0 -94 54 -190 162 -198h1l-116 326c-29 -29 -47 -74 -47 -128z" />
    <glyph glyph-name="sterling" unicode="&#xa3;" horiz-adv-x="626" 
d="M194 343h-79v47h79v174c0 105 60 177 172 177c104 0 155 -60 155 -154v-26h-54v34c0 40 -27 71 -67 71c-42 0 -72 -32 -72 -71l1 -205h171v-47h-172c-1 -16 -4 -31 -8 -45h146v-47h-166c-37 -71 -100 -124 -132 -144c51 2 152 6 303 3c15 0 64 48 64 48h41l-56 -158h-462
l-18 34c86 57 134 124 149 217h-74v47h79v45z" />
    <glyph glyph-name="currency" unicode="&#xa4;" horiz-adv-x="600" 
d="M53 300c0 54 18 104 48 145l-51 52l51 52l51 -52c41 31 93 50 148 50s106 -19 147 -50l50 50l50 -50l-50 -50c31 -41 50 -92 50 -147s-19 -107 -50 -148l53 -52l-52 -51l-53 52c-41 -30 -91 -48 -145 -48c-55 0 -107 18 -148 49l-50 -50l-50 50l50 50
c-31 41 -49 93 -49 148zM184 235l51 -51l-36 -36c29 -19 63 -30 101 -30c36 0 70 10 99 29l-36 36l52 52l36 -37c20 29 31 64 31 102c0 37 -11 72 -31 101l-36 -36l-50 50l36 36c-29 20 -64 31 -101 31c-38 0 -73 -11 -102 -31l37 -36l-52 -52l-36 36
c-19 -29 -29 -63 -29 -99c0 -38 11 -72 30 -101z" />
    <glyph glyph-name="yen" unicode="&#xa5;" horiz-adv-x="694" 
d="M425 285h154v-47h-157v-141c0 -14 41 -60 52 -60h19v-37h-297v37h20c11 0 52 46 52 60v141h-158v47h156l-21 45h-135v47h113l-114 234c-8 13 -67 80 -83 80h-16v37h348v-37h-30c-13 0 -47 -57 -49 -76l113 -268h5l117 265c-2 18 -32 79 -45 79h-31v37h246v-37h-14
c-17 -3 -84 -64 -92 -80l-111 -234h112v-47h-134z" />
    <glyph glyph-name="brokenbar" unicode="&#xa6;" horiz-adv-x="299" 
d="M115 400v370h69v-370h-69zM115 -206v370h69v-370h-69z" />
    <glyph glyph-name="section" unicode="&#xa7;" horiz-adv-x="574" 
d="M167 465c-14 -11 -32 -35 -36 -57c-12 -65 25 -113 87 -130s154 -40 187 -65c14 11 32 33 37 55c12 54 -22 110 -87 129c-62 18 -156 43 -188 68zM442 191c35 -23 71 -75 73 -137c4 -115 -98 -202 -220 -193c-43 3 -97 25 -136 25c-16 0 -33 -5 -45 -16h-35l-5 238h36
c1 -36 104 -196 194 -198c60 -1 106 34 106 92c0 47 -35 84 -84 106c-51 23 -101 42 -156 62c-79 29 -132 85 -129 167c3 71 41 116 91 148c-37 27 -70 75 -72 137c-4 115 93 200 216 191c42 -3 77 -25 116 -25c16 0 34 5 45 16h35l7 -238h-37c-1 36 -86 196 -176 198
c-62 1 -102 -32 -102 -90c0 -47 46 -90 83 -106c52 -23 101 -44 156 -63c80 -28 133 -84 130 -166c-3 -71 -41 -116 -91 -148z" />
    <glyph glyph-name="dieresis" unicode="&#xa8;" horiz-adv-x="500" 
d="M417 616c0 -34 -28 -62 -63 -62s-63 28 -63 62s28 62 63 62s63 -28 63 -62zM209 616c0 -34 -28 -62 -63 -62s-63 28 -63 62s28 62 63 62s63 -28 63 -62z" />
    <glyph glyph-name="copyright" unicode="&#xa9;" horiz-adv-x="824" 
d="M412 741c208 0 367 -169 367 -377s-159 -375 -367 -375s-367 167 -367 375s159 377 367 377zM412 40c179 0 309 142 309 324s-130 327 -309 327s-309 -145 -309 -327s130 -324 309 -324zM420 549c-59 0 -113 -33 -119 -132c-2 -37 -2 -63 2 -101c8 -74 61 -123 133 -123
c56 0 100 21 132 71h48c-31 -64 -95 -123 -192 -125c-134 -3 -227 104 -227 226c0 132 92 224 222 224c45 0 67 -20 101 -20c9 0 27 5 32 14l30 -22v-139h-36c0 20 -51 127 -126 127z" />
    <glyph glyph-name="ordfeminine" unicode="&#xaa;" horiz-adv-x="485" 
d="M353 355c-38 -1 -69 28 -77 66c-18 -24 -67 -67 -111 -67c-61 0 -111 41 -111 100c0 69 65 96 117 103c48 6 81 12 97 15v63c0 41 -42 61 -84 61c-27 0 -52 -20 -49 -48c4 -41 -28 -59 -65 -59l-16 13c-12 93 93 128 155 131c83 4 160 -35 160 -99v-187
c0 -10 19 -27 30 -27c7 0 26 19 34 27l22 -24c-14 -16 -65 -67 -102 -68zM267 469v68l-77 -13c-30 -5 -49 -25 -49 -57s27 -52 59 -52c26 0 62 32 67 54z" />
    <glyph glyph-name="guillemotleft" unicode="&#xab;" horiz-adv-x="600" 
d="M112 309l203 -169v-93l-280 236v51l280 236v-91zM352 309l203 -169v-93l-280 236v51l280 236v-91z" />
    <glyph glyph-name="logicalnot" unicode="&#xac;" horiz-adv-x="556" 
d="M416 58v193h-366v88h456v-234z" />
    <glyph glyph-name="uni00AD" unicode="&#xad;" horiz-adv-x="340" 
d="M25 330h290v-115h-290v115z" />
    <glyph glyph-name="registered" unicode="&#xae;" horiz-adv-x="824" 
d="M364 381h47c31 -1 71 18 73 62c1 15 1 28 0 42c-2 44 -40 66 -75 66h-20c-8 0 -25 -19 -25 -25v-145zM364 346v-121l5 -59h-152v29h21c7 0 32 27 32 35v289c0 7 -27 34 -33 34h-9v28h191c86 0 165 -26 165 -114c0 -60 -48 -96 -92 -108l29 -18c20 -36 52 -90 105 -158
l-13 -17h-97c-52 60 -93 180 -111 180h-41zM412 741c208 0 367 -169 367 -377s-159 -375 -367 -375s-367 167 -367 375s159 377 367 377zM412 40c179 0 309 141 309 324c0 182 -130 327 -309 327s-309 -145 -309 -327s130 -324 309 -324z" />
    <glyph glyph-name="macron" unicode="&#xaf;" horiz-adv-x="500" 
d="M113 654h274v-84h-274v84z" />
    <glyph glyph-name="degree" unicode="&#xb0;" horiz-adv-x="393" 
d="M50 595c0 83 63 146 146 146s147 -63 147 -146s-64 -145 -147 -145s-146 62 -146 145zM111 595c0 -50 36 -91 85 -91s86 41 86 91s-37 92 -86 92s-85 -42 -85 -92z" />
    <glyph glyph-name="plusminus" unicode="&#xb1;" horiz-adv-x="640" 
d="M107 74h426v-74h-426v74zM362 572v-171h170v-75h-170v-169h-81v169h-174v75h174v171h81z" />
    <glyph glyph-name="two.sups" unicode="&#xb2;" 
d="M114 602h162c8 0 37 28 37 28h28l-38 -97h-254v34c13 57 67 105 149 170c22 18 40 43 40 74c0 38 -26 64 -69 64c-35 0 -67 -29 -89 -57l-32 28c27 39 83 85 146 87c79 2 136 -47 136 -118c0 -63 -62 -109 -102 -132s-85 -40 -114 -81z" />
    <glyph glyph-name="three.sups" unicode="&#xb3;" 
d="M130 733v31l50 18c26 16 36 29 36 54c-1 27 -23 43 -50 42c-29 0 -62 -22 -89 -42l-18 33c42 32 94 63 150 63c43 0 86 -23 88 -72c0 -46 -36 -72 -72 -87c34 1 99 -14 103 -74c7 -115 -172 -177 -241 -180l-9 46c42 6 155 30 156 111c1 52 -47 63 -104 57z" />
    <glyph glyph-name="acute" unicode="&#xb4;" horiz-adv-x="500" 
d="M296 713h156l-194 -176h-42z" />
    <glyph glyph-name="uni00B5" unicode="&#xb5;" horiz-adv-x="633" 
d="M82 -217v605c0 14 -36 56 -49 56h-18v35h196v-334c0 -37 19 -69 56 -69c31 0 93 46 124 88v224c0 14 -29 56 -42 56h-44v35h215v-366c0 -13 23 -36 36 -36c11 0 35 24 46 34l26 -27c-16 -19 -77 -92 -124 -93c-56 -1 -93 43 -102 94l-3 16c-51 -58 -131 -110 -189 -109
v-130z" />
    <glyph glyph-name="paragraph" unicode="&#xb6;" horiz-adv-x="503" 
d="M398 631v-780l-71 -59v889h-58v-887h-68v646h-37c-79 0 -144 65 -144 144s65 144 144 144h309v-37h-18c-15 0 -57 -45 -57 -60z" />
    <glyph glyph-name="periodcentered" unicode="&#xb7;" horiz-adv-x="282" 
d="M224 340c0 -44 -37 -81 -83 -81s-83 37 -83 81s37 81 83 81s83 -37 83 -81z" />
    <glyph glyph-name="cedilla" unicode="&#xb8;" 
d="M130 -75l38 90h53l-48 -72c14 10 31 14 45 14c47 0 83 -33 83 -79c0 -59 -52 -98 -120 -98c-63 0 -94 44 -102 59l34 20c12 -18 34 -33 61 -33c30 0 52 18 52 44c0 27 -15 42 -40 42c-7 0 -16 -2 -27 -7z" />
    <glyph glyph-name="one.sups" unicode="&#xb9;" horiz-adv-x="392" 
d="M250 924v-323c0 -10 22 -33 29 -33h33v-35h-222v35h34c7 0 30 23 30 33v198c0 9 -18 27 -25 27h-42v28c70 25 131 70 131 70h32z" />
    <glyph glyph-name="ordmasculine" unicode="&#xba;" horiz-adv-x="485" 
d="M242 397c45 0 80 32 85 88c3 34 3 83 0 117c-5 56 -34 89 -84 89c-42 0 -81 -29 -85 -86c-3 -33 -3 -81 0 -116c5 -57 35 -92 84 -92zM242 351c-94 0 -190 77 -190 194s101 189 190 189s191 -72 191 -189s-98 -194 -191 -194z" />
    <glyph glyph-name="guillemotright" unicode="&#xbb;" horiz-adv-x="600" 
d="M285 140l203 169l-203 170v91l280 -236v-51l-280 -236v93zM45 140l203 169l-203 170v91l280 -236v-51l-280 -236v93z" />
    <glyph glyph-name="onequarter" unicode="&#xbc;" horiz-adv-x="800" 
d="M584 63v23h-172v36l207 257l59 18v-265h50v-46h-50v-23c0 -10 21 -33 30 -33h16v-30h-184v30h14c7 0 30 23 30 33zM618 728h71l-494 -728h-69zM230 728v-323c0 -10 22 -33 29 -33h28v-35h-212v35h29c7 0 30 23 30 33v198c0 9 -18 27 -25 27h-37v28c70 25 126 70 126 70
h32zM584 129v142l-117 -142h117z" />
    <glyph glyph-name="onehalf" unicode="&#xbd;" horiz-adv-x="800" 
d="M518 69h162c8 0 37 28 37 28h28l-38 -97h-254v34c13 57 67 105 149 170c22 18 40 43 40 74c0 38 -26 64 -69 64c-35 0 -67 -29 -89 -57l-32 28c27 39 83 85 146 87c79 2 136 -47 136 -118c0 -63 -62 -109 -102 -132s-85 -40 -114 -81zM606 728h71l-494 -728h-69zM218 728
v-323c0 -10 22 -33 29 -33h28v-35h-212v35h29c7 0 30 23 30 33v198c0 9 -18 27 -25 27h-37v28c70 25 126 70 126 70h32z" />
    <glyph glyph-name="threequarters" unicode="&#xbe;" horiz-adv-x="800" 
d="M576 63v23h-172v36l207 257l59 18v-265h50v-46h-50v-23c0 -10 21 -33 30 -33h16v-30h-184v30h14c7 0 30 23 30 33zM611 728h71l-494 -728h-69zM123 536v31l50 18c26 16 36 29 36 54c-1 27 -23 43 -50 42c-29 0 -62 -22 -89 -42l-18 33c42 32 94 63 150 63
c43 0 86 -23 88 -72c0 -46 -36 -72 -72 -87c34 1 99 -14 103 -74c7 -115 -172 -177 -241 -180l-9 46c42 6 155 30 156 111c1 52 -47 63 -104 57zM576 129v142l-117 -142h117z" />
    <glyph glyph-name="questiondown" unicode="&#xbf;" horiz-adv-x="438" 
d="M195 -53c0 -38 25 -72 69 -72c45 0 72 33 72 69v54h52v-56c0 -98 -66 -159 -165 -159c-93 0 -158 62 -158 155c0 136 159 187 159 289c0 21 -16 35 -36 35c-18 0 -35 -13 -35 -34v-50h-44v54c0 60 56 92 104 92c65 0 104 -41 104 -104c0 -94 -122 -184 -122 -273z
M153 461c0 34 28 61 63 61s63 -27 63 -61s-28 -61 -63 -61s-63 27 -63 61z" />
    <glyph glyph-name="Agrave" unicode="&#xc0;" horiz-adv-x="752" 
d="M482 102l-45 109h-231l-40 -108c3 -17 35 -66 50 -66h34v-37h-240v37h13c14 1 69 48 80 66l228 603l60 35l262 -639c12 -16 61 -65 75 -65h14v-37h-349v37h35c15 1 54 48 54 65zM320 521h-4l-94 -260h196zM194 917h165l51 -140h-49z" />
    <glyph glyph-name="Aacute" unicode="&#xc1;" horiz-adv-x="752" 
d="M482 102l-45 109h-231l-40 -108c3 -17 35 -66 50 -66h34v-37h-240v37h13c14 1 69 48 80 66l228 603l60 35l262 -639c12 -16 61 -65 75 -65h14v-37h-349v37h35c15 1 54 48 54 65zM320 521h-4l-94 -260h196zM397 917h165l-192 -140h-48z" />
    <glyph glyph-name="Acircumflex" unicode="&#xc2;" horiz-adv-x="752" 
d="M482 102l-45 109h-231l-40 -108c3 -17 35 -66 50 -66h34v-37h-240v37h13c14 1 69 48 80 66l228 603l60 35l262 -639c12 -16 61 -65 75 -65h14v-37h-349v37h35c15 1 54 48 54 65zM320 521h-4l-94 -260h196zM333 931h86l103 -154h-50l-96 73l-96 -73h-50z" />
    <glyph glyph-name="Atilde" unicode="&#xc3;" horiz-adv-x="752" 
d="M482 102l-45 109h-231l-40 -108c3 -17 35 -66 50 -66h34v-37h-240v37h13c14 1 69 48 80 66l228 603l60 35l262 -639c12 -16 61 -65 75 -65h14v-37h-349v37h35c15 1 54 48 54 65zM320 521h-4l-94 -260h196zM523 815l-25 -20c-8 20 -25 39 -53 38c-47 -1 -87 -48 -144 -48
c-51 0 -89 35 -93 94l24 19c6 -19 28 -31 54 -31c56 0 88 51 144 51c51 0 91 -44 93 -103z" />
    <glyph glyph-name="Adieresis" unicode="&#xc4;" horiz-adv-x="752" 
d="M482 102l-45 109h-231l-40 -108c3 -17 35 -66 50 -66h34v-37h-240v37h13c14 1 69 48 80 66l228 603l60 35l262 -639c12 -16 61 -65 75 -65h14v-37h-349v37h35c15 1 54 48 54 65zM320 521h-4l-94 -260h196zM554 840c0 -39 -31 -70 -71 -70s-72 31 -72 70c0 38 32 70 72 70
s71 -32 71 -70zM340 840c0 -39 -31 -70 -71 -70s-72 31 -72 70c0 38 32 70 72 70s71 -32 71 -70z" />
    <glyph glyph-name="Aring" unicode="&#xc5;" horiz-adv-x="752" 
d="M482 102l-45 109h-231l-40 -108c3 -17 35 -66 50 -66h34v-37h-240v37h13c14 1 69 48 80 66l228 603l60 35l262 -639c12 -16 61 -65 75 -65h14v-37h-349v37h35c15 1 54 48 54 65zM320 521h-4l-94 -260h196zM255 865c0 59 54 108 111 108c58 0 110 -49 110 -108
c0 -61 -52 -108 -110 -108c-57 0 -111 47 -111 108zM309 865c0 -34 23 -57 57 -57c33 0 56 23 56 57c0 33 -23 56 -56 56c-34 0 -57 -23 -57 -56z" />
    <glyph glyph-name="AE" unicode="&#xc6;" horiz-adv-x="1020" 
d="M350 706l59 22h513v-199h-37c0 20 -107 151 -124 151h-303c-6 0 -19 -17 -17 -23l97 -258h144c15 0 79 60 79 75v16h42v-239h-42v23c0 16 -63 76 -78 76h-127l107 -278c2 -6 22 -22 27 -22h71c38 0 194 166 194 188h40l-46 -238h-554v37h32c15 1 54 48 54 65l-38 109
h-235l-42 -108c3 -17 34 -66 49 -66h34v-37h-239v37h13c14 1 69 48 80 66zM335 521h-4l-103 -260h198z" />
    <glyph glyph-name="Ccedilla" unicode="&#xc7;" horiz-adv-x="758" 
d="M347 -75l27 64c-199 19 -334 189 -334 378c0 222 149 382 366 374c79 -3 124 -33 182 -33c19 0 36 7 45 20h40v-249h-43c0 38 -96 212 -223 212c-96 0 -177 -58 -194 -229c-6 -62 -5 -123 2 -186c14 -125 94 -214 226 -214c96 0 180 43 234 127h63
c-50 -107 -154 -199 -319 -202l-29 -44c14 10 31 14 45 14c47 0 83 -33 83 -79c0 -59 -52 -98 -120 -98c-63 0 -94 44 -102 59l34 20c12 -18 34 -33 61 -33c30 0 52 18 52 44c0 27 -15 42 -40 42c-7 0 -16 -2 -27 -7z" />
    <glyph glyph-name="Egrave" unicode="&#xc8;" horiz-adv-x="705" 
d="M608 728v-199h-37c0 20 -107 151 -124 151h-157c-6 0 -18 -14 -18 -20v-263h78c15 0 81 60 81 75v18h42v-239h-42v21c0 16 -66 76 -81 76h-78v-276c0 -6 12 -22 17 -22h158c38 0 193 166 193 188h40l-46 -238h-593v37h18c15 0 53 41 53 57v537c0 17 -42 60 -55 60h-17v37
h568zM187 917h165l51 -140h-49z" />
    <glyph glyph-name="Eacute" unicode="&#xc9;" horiz-adv-x="705" 
d="M608 728v-199h-37c0 20 -107 151 -124 151h-157c-6 0 -18 -14 -18 -20v-263h78c15 0 81 60 81 75v18h42v-239h-42v21c0 16 -66 76 -81 76h-78v-276c0 -6 12 -22 17 -22h158c38 0 193 166 193 188h40l-46 -238h-593v37h18c15 0 53 41 53 57v537c0 17 -42 60 -55 60h-17v37
h568zM367 917h165l-192 -140h-48z" />
    <glyph glyph-name="Ecircumflex" unicode="&#xca;" horiz-adv-x="705" 
d="M608 728v-199h-37c0 20 -107 151 -124 151h-157c-6 0 -18 -14 -18 -20v-263h78c15 0 81 60 81 75v18h42v-239h-42v21c0 16 -66 76 -81 76h-78v-276c0 -6 12 -22 17 -22h158c38 0 193 166 193 188h40l-46 -238h-593v37h18c15 0 53 41 53 57v537c0 17 -42 60 -55 60h-17v37
h568zM309 931h86l103 -154h-50l-96 73l-96 -73h-50z" />
    <glyph glyph-name="Edieresis" unicode="&#xcb;" horiz-adv-x="705" 
d="M608 728v-199h-37c0 20 -107 151 -124 151h-157c-6 0 -18 -14 -18 -20v-263h78c15 0 81 60 81 75v18h42v-239h-42v21c0 16 -66 76 -81 76h-78v-276c0 -6 12 -22 17 -22h158c38 0 193 166 193 188h40l-46 -238h-593v37h18c15 0 53 41 53 57v537c0 17 -42 60 -55 60h-17v37
h568zM528 840c0 -39 -31 -70 -71 -70s-72 31 -72 70c0 38 32 70 72 70s71 -32 71 -70zM314 840c0 -39 -31 -70 -71 -70s-72 31 -72 70c0 38 32 70 72 70s71 -32 71 -70z" />
    <glyph glyph-name="Igrave" unicode="&#xcc;" horiz-adv-x="418" 
d="M370 0h-324v37h30c14 0 55 44 55 60v534c0 15 -42 60 -56 60h-30v37h328v-37h-29c-15 0 -57 -45 -57 -60v-534c0 -16 39 -60 54 -60h29v-37zM46 917h165l51 -140h-49z" />
    <glyph glyph-name="Iacute" unicode="&#xcd;" horiz-adv-x="418" 
d="M370 0h-324v37h30c14 0 55 44 55 60v534c0 15 -42 60 -56 60h-30v37h328v-37h-29c-15 0 -57 -45 -57 -60v-534c0 -16 39 -60 54 -60h29v-37zM240 917h165l-192 -140h-48z" />
    <glyph glyph-name="Icircumflex" unicode="&#xce;" horiz-adv-x="418" 
d="M370 0h-324v37h30c14 0 55 44 55 60v534c0 15 -42 60 -56 60h-30v37h328v-37h-29c-15 0 -57 -45 -57 -60v-534c0 -16 39 -60 54 -60h29v-37zM166 931h86l103 -154h-50l-96 73l-96 -73h-50z" />
    <glyph glyph-name="Idieresis" unicode="&#xcf;" horiz-adv-x="418" 
d="M370 0h-324v37h30c14 0 55 44 55 60v534c0 15 -42 60 -56 60h-30v37h328v-37h-29c-15 0 -57 -45 -57 -60v-534c0 -16 39 -60 54 -60h29v-37zM388 840c0 -39 -31 -70 -71 -70s-72 31 -72 70c0 38 32 70 72 70s71 -32 71 -70zM174 840c0 -39 -31 -70 -71 -70s-72 31 -72 70
c0 38 32 70 72 70s71 -32 71 -70z" />
    <glyph glyph-name="Eth" unicode="&#xd0;" horiz-adv-x="756" 
d="M716 366c0 -211 -185 -366 -373 -366h-303v37h16c15 0 55 40 55 58v257h-70v48h70v233c0 17 -42 58 -55 58h-16v37h301c181 0 375 -142 375 -362zM547 280c3 47 3 121 0 169c-11 174 -94 232 -208 232h-23c-15 0 -45 -35 -45 -50v-231h194v-48h-194v-254
c0 -15 36 -48 48 -48h24c108 0 193 56 204 230z" />
    <glyph glyph-name="Ntilde" unicode="&#xd1;" horiz-adv-x="817" 
d="M696 623v-642l-508 609h-3v-477c0 -16 58 -76 70 -76h37v-37h-252v37h14c13 0 70 60 70 76v512c0 15 -46 66 -56 66h-16v37h219l361 -446h5v341c0 16 -49 68 -61 68h-35v37h236v-37h-21c-13 0 -60 -52 -60 -68zM566 815l-25 -20c-8 20 -25 39 -53 38
c-47 -1 -87 -48 -144 -48c-51 0 -89 35 -93 94l24 19c6 -19 28 -31 54 -31c56 0 88 51 144 51c51 0 91 -44 93 -103z" />
    <glyph glyph-name="Ograve" unicode="&#xd2;" horiz-adv-x="846" 
d="M426 -13c-214 0 -386 172 -386 375c0 216 165 379 380 379c214 0 386 -172 386 -375c0 -216 -165 -379 -380 -379zM427 47c119 0 191 74 209 200c9 65 9 154 0 218c-18 129 -97 221 -217 221c-117 0 -189 -75 -207 -200c-9 -65 -9 -154 0 -218c18 -129 95 -221 215 -221z
M260 917h165l51 -140h-49z" />
    <glyph glyph-name="Oacute" unicode="&#xd3;" horiz-adv-x="846" 
d="M426 -13c-214 0 -386 172 -386 375c0 216 165 379 380 379c214 0 386 -172 386 -375c0 -216 -165 -379 -380 -379zM427 47c119 0 191 74 209 200c9 65 9 154 0 218c-18 129 -97 221 -217 221c-117 0 -189 -75 -207 -200c-9 -65 -9 -154 0 -218c18 -129 95 -221 215 -221z
M454 917h165l-192 -140h-48z" />
    <glyph glyph-name="Ocircumflex" unicode="&#xd4;" horiz-adv-x="846" 
d="M426 -13c-214 0 -386 172 -386 375c0 216 165 379 380 379c214 0 386 -172 386 -375c0 -216 -165 -379 -380 -379zM427 47c119 0 191 74 209 200c9 65 9 154 0 218c-18 129 -97 221 -217 221c-117 0 -189 -75 -207 -200c-9 -65 -9 -154 0 -218c18 -129 95 -221 215 -221z
M380 931h86l103 -154h-50l-96 73l-96 -73h-50z" />
    <glyph glyph-name="Otilde" unicode="&#xd5;" horiz-adv-x="846" 
d="M426 -13c-214 0 -386 172 -386 375c0 216 165 379 380 379c214 0 386 -172 386 -375c0 -216 -165 -379 -380 -379zM427 47c119 0 191 74 209 200c9 65 9 154 0 218c-18 129 -97 221 -217 221c-117 0 -189 -75 -207 -200c-9 -65 -9 -154 0 -218c18 -129 95 -221 215 -221z
M581 815l-25 -20c-8 20 -25 39 -53 38c-47 -1 -87 -48 -144 -48c-51 0 -89 35 -93 94l24 19c6 -19 28 -31 54 -31c56 0 88 51 144 51c51 0 91 -44 93 -103z" />
    <glyph glyph-name="Odieresis" unicode="&#xd6;" horiz-adv-x="846" 
d="M426 -13c-214 0 -386 172 -386 375c0 216 165 379 380 379c214 0 386 -172 386 -375c0 -216 -165 -379 -380 -379zM427 47c119 0 191 74 209 200c9 65 9 154 0 218c-18 129 -97 221 -217 221c-117 0 -189 -75 -207 -200c-9 -65 -9 -154 0 -218c18 -129 95 -221 215 -221z
M601 840c0 -39 -31 -70 -71 -70s-72 31 -72 70c0 38 32 70 72 70s71 -32 71 -70zM387 840c0 -39 -31 -70 -71 -70s-72 31 -72 70c0 38 32 70 72 70s71 -32 71 -70z" />
    <glyph glyph-name="multiply" unicode="&#xd7;" horiz-adv-x="640" 
d="M72 54l196 196l-198 199l51 52l199 -199l197 197l50 -50l-197 -197l200 -200l-52 -51l-199 199l-197 -196z" />
    <glyph glyph-name="Oslash" unicode="&#xd8;" horiz-adv-x="846" 
d="M426 -13c-79 0 -151 23 -212 62l-66 -87l-51 39l66 87c-76 69 -123 167 -123 274c0 216 165 379 380 379c73 0 142 -20 200 -55l66 86l51 -39l-65 -85c82 -69 134 -171 134 -282c0 -216 -165 -379 -380 -379zM427 47c119 0 191 74 209 200c9 65 9 154 0 218
c-5 36 -15 69 -29 98l-337 -441c37 -47 90 -75 157 -75zM419 686c-117 0 -189 -75 -207 -200c-9 -65 -9 -154 0 -218c4 -31 12 -60 23 -86l334 437c-37 42 -88 67 -150 67z" />
    <glyph glyph-name="Ugrave" unicode="&#xd9;" horiz-adv-x="802" 
d="M692 614v-360c0 -163 -115 -267 -287 -267c-158 0 -300 123 -300 287v353c0 11 -47 64 -56 64h-19v37h328v-37h-37c-9 0 -56 -53 -56 -64v-366c0 -117 78 -192 186 -191c116 1 181 80 181 178v366c0 13 -57 77 -67 77h-39v37h246v-37h-16c-10 0 -64 -64 -64 -77zM277 917
h165l51 -140h-49z" />
    <glyph glyph-name="Uacute" unicode="&#xda;" horiz-adv-x="802" 
d="M692 614v-360c0 -163 -115 -267 -287 -267c-158 0 -300 123 -300 287v353c0 11 -47 64 -56 64h-19v37h328v-37h-37c-9 0 -56 -53 -56 -64v-366c0 -117 78 -192 186 -191c116 1 181 80 181 178v366c0 13 -57 77 -67 77h-39v37h246v-37h-16c-10 0 -64 -64 -64 -77zM476 917
h165l-192 -140h-48z" />
    <glyph glyph-name="Ucircumflex" unicode="&#xdb;" horiz-adv-x="802" 
d="M692 614v-360c0 -163 -115 -267 -287 -267c-158 0 -300 123 -300 287v353c0 11 -47 64 -56 64h-19v37h328v-37h-37c-9 0 -56 -53 -56 -64v-366c0 -117 78 -192 186 -191c116 1 181 80 181 178v366c0 13 -57 77 -67 77h-39v37h246v-37h-16c-10 0 -64 -64 -64 -77zM408 931
h86l103 -154h-50l-96 73l-96 -73h-50z" />
    <glyph glyph-name="Udieresis" unicode="&#xdc;" horiz-adv-x="802" 
d="M692 614v-360c0 -163 -115 -267 -287 -267c-158 0 -300 123 -300 287v353c0 11 -47 64 -56 64h-19v37h328v-37h-37c-9 0 -56 -53 -56 -64v-366c0 -117 78 -192 186 -191c116 1 181 80 181 178v366c0 13 -57 77 -67 77h-39v37h246v-37h-16c-10 0 -64 -64 -64 -77zM627 840
c0 -39 -31 -70 -71 -70s-72 31 -72 70c0 38 32 70 72 70s71 -32 71 -70zM413 840c0 -39 -31 -70 -71 -70s-72 31 -72 70c0 38 32 70 72 70s71 -32 71 -70z" />
    <glyph glyph-name="Yacute" unicode="&#xdd;" horiz-adv-x="708" 
d="M430 313v-216c0 -14 41 -60 52 -60h20v-37h-301v37h21c11 0 52 46 52 60v216l-163 298c-8 13 -73 80 -89 80h-12v37h347v-37h-36c-13 0 -46 -57 -48 -76l124 -236h6l127 233c-2 18 -31 79 -44 79h-36v37h248v-37h-10c-17 -3 -84 -64 -92 -80zM432 917h165l-192 -140h-48z
" />
    <glyph glyph-name="Thorn" unicode="&#xde;" horiz-adv-x="664" 
d="M266 547v-335h68c71 0 138 55 142 123c2 32 2 54 0 85c-5 71 -59 127 -132 127h-78zM108 96v536c0 16 -41 59 -53 59h-15v37h327v-37h-45c-14 0 -54 -44 -54 -59v-36l78 1c141 2 288 -58 288 -214c0 -157 -150 -224 -301 -224l-65 1v-64c0 -15 40 -59 54 -59h52v-37h-334
v37h15c12 0 53 43 53 59z" />
    <glyph glyph-name="germandbls" unicode="&#xdf;" horiz-adv-x="651" 
d="M388 478c35 -28 71 -54 127 -94c69 -50 100 -108 100 -170c1 -132 -130 -261 -286 -260c-34 0 -63 6 -98 20l72 113h36c26 -35 67 -48 95 -48c46 0 86 42 86 92c0 65 -32 109 -98 160c-48 38 -106 80 -163 127v36l70 36c43 22 72 58 72 101c0 59 -55 118 -107 118
c-66 0 -70 -73 -70 -165v-544h-199v36h18c14 0 52 37 52 55v428c0 166 148 251 276 251c76 0 143 -44 143 -133c0 -73 -66 -136 -126 -159z" />
    <glyph glyph-name="agrave" unicode="&#xe0;" horiz-adv-x="562" 
d="M431 -9c-53 -1 -82 40 -93 87h-5c-23 -31 -85 -89 -144 -89c-79 0 -138 56 -138 133c0 95 90 128 156 142l116 24v58c0 50 -35 89 -104 89c-48 0 -80 -31 -75 -74s-34 -70 -84 -62l-21 22c0 118 113 169 207 169c115 0 204 -56 204 -151v-229c0 -16 24 -37 38 -37
c9 0 35 27 44 39l26 -26c-14 -22 -79 -94 -127 -95zM324 141v107l-90 -25c-47 -13 -78 -39 -78 -85c0 -41 35 -72 76 -72c38 0 74 42 92 75zM124 713h150l50 -176h-42z" />
    <glyph glyph-name="aacute" unicode="&#xe1;" horiz-adv-x="562" 
d="M431 -9c-53 -1 -82 40 -93 87h-5c-23 -31 -85 -89 -144 -89c-79 0 -138 56 -138 133c0 95 90 128 156 142l116 24v58c0 50 -35 89 -104 89c-48 0 -80 -31 -75 -74s-34 -70 -84 -62l-21 22c0 118 113 169 207 169c115 0 204 -56 204 -151v-229c0 -16 24 -37 38 -37
c9 0 35 27 44 39l26 -26c-14 -22 -79 -94 -127 -95zM324 141v107l-90 -25c-47 -13 -78 -39 -78 -85c0 -41 35 -72 76 -72c38 0 74 42 92 75zM268 713h156l-194 -176h-42z" />
    <glyph glyph-name="acircumflex" unicode="&#xe2;" horiz-adv-x="562" 
d="M431 -9c-53 -1 -82 40 -93 87h-5c-23 -31 -85 -89 -144 -89c-79 0 -138 56 -138 133c0 95 90 128 156 142l116 24v58c0 50 -35 89 -104 89c-48 0 -80 -31 -75 -74s-34 -70 -84 -62l-21 22c0 118 113 169 207 169c115 0 204 -56 204 -151v-229c0 -16 24 -37 38 -37
c9 0 35 27 44 39l26 -26c-14 -22 -79 -94 -127 -95zM324 141v107l-90 -25c-47 -13 -78 -39 -78 -85c0 -41 35 -72 76 -72c38 0 74 42 92 75zM225 713h86l94 -176h-45l-92 86l-92 -86h-45z" />
    <glyph glyph-name="atilde" unicode="&#xe3;" horiz-adv-x="562" 
d="M431 -9c-53 -1 -82 40 -93 87h-5c-23 -31 -85 -89 -144 -89c-79 0 -138 56 -138 133c0 95 90 128 156 142l116 24v58c0 50 -35 89 -104 89c-48 0 -80 -31 -75 -74s-34 -70 -84 -62l-21 22c0 118 113 169 207 169c115 0 204 -56 204 -151v-229c0 -16 24 -37 38 -37
c9 0 35 27 44 39l26 -26c-14 -22 -79 -94 -127 -95zM428 587l-29 -23c-10 23 -21 41 -54 40c-52 -3 -83 -53 -145 -53c-56 0 -96 41 -99 104l28 23c6 -23 31 -40 55 -40c63 0 84 52 145 52c56 0 97 -41 99 -103zM324 141v107l-90 -25c-47 -13 -78 -39 -78 -85
c0 -41 35 -72 76 -72c38 0 74 42 92 75z" />
    <glyph glyph-name="adieresis" unicode="&#xe4;" horiz-adv-x="562" 
d="M431 -9c-53 -1 -82 40 -93 87h-5c-23 -31 -85 -89 -144 -89c-79 0 -138 56 -138 133c0 95 90 128 156 142l116 24v58c0 50 -35 89 -104 89c-48 0 -80 -31 -75 -74s-34 -70 -84 -62l-21 22c0 118 113 169 207 169c115 0 204 -56 204 -151v-229c0 -16 24 -37 38 -37
c9 0 35 27 44 39l26 -26c-14 -22 -79 -94 -127 -95zM324 141v107l-90 -25c-47 -13 -78 -39 -78 -85c0 -41 35 -72 76 -72c38 0 74 42 92 75zM434 616c0 -34 -28 -62 -63 -62s-63 28 -63 62s28 62 63 62s63 -28 63 -62zM226 616c0 -34 -28 -62 -63 -62s-63 28 -63 62
s28 62 63 62s63 -28 63 -62z" />
    <glyph glyph-name="aring" unicode="&#xe5;" horiz-adv-x="562" 
d="M431 -9c-53 -1 -82 40 -93 87h-5c-23 -31 -85 -89 -144 -89c-79 0 -138 56 -138 133c0 95 90 128 156 142l116 24v58c0 50 -35 89 -104 89c-48 0 -80 -31 -75 -74s-34 -70 -84 -62l-21 22c0 118 113 169 207 169c115 0 204 -56 204 -151v-229c0 -16 24 -37 38 -37
c9 0 35 27 44 39l26 -26c-14 -22 -79 -94 -127 -95zM324 141v107l-90 -25c-47 -13 -78 -39 -78 -85c0 -41 35 -72 76 -72c38 0 74 42 92 75zM147 636c0 59 52 107 109 107c58 0 108 -48 108 -107c0 -61 -50 -107 -108 -107c-57 0 -109 46 -109 107zM200 636
c0 -31 25 -56 56 -56c30 0 55 25 55 56c0 30 -25 55 -55 55c-31 0 -56 -25 -56 -55z" />
    <glyph glyph-name="ae" unicode="&#xe6;" horiz-adv-x="807" 
d="M749 262l-308 -18c2 -83 63 -161 147 -161c67 0 122 31 160 85h39c-39 -110 -128 -179 -231 -179c-90 0 -153 39 -191 98h-22c-23 -31 -89 -95 -162 -95c-79 0 -138 56 -138 133c0 95 86 126 152 136l121 16v69c0 50 -33 91 -102 91c-59 0 -80 -25 -74 -68
c5 -38 -31 -70 -79 -66l-21 21c0 121 115 166 209 166c71 0 123 -21 151 -59c42 38 98 59 163 59c138 -1 194 -116 194 -195zM441 286l192 13c3 57 -10 146 -86 146c-80 0 -108 -86 -106 -159zM319 138v98l-94 -14c-50 -9 -78 -33 -78 -81c0 -44 42 -77 85 -72
c33 4 76 46 87 69z" />
    <glyph glyph-name="ccedilla" unicode="&#xe7;" horiz-adv-x="516" 
d="M197 -75l28 68c-110 19 -185 117 -185 235c0 160 111 263 248 262c91 -1 146 -49 171 -72l-73 -121c-33 0 -45 24 -43 56c3 41 -10 90 -67 90c-71 0 -123 -77 -123 -187c0 -98 66 -172 158 -172c113 0 155 93 155 93h40c-32 -108 -124 -186 -236 -188l-30 -46
c14 10 31 14 45 14c47 0 83 -33 83 -79c0 -59 -52 -98 -120 -98c-63 0 -94 44 -102 59l34 20c12 -18 34 -33 61 -33c30 0 52 18 52 44c0 27 -15 42 -40 42c-7 0 -16 -2 -27 -7z" />
    <glyph glyph-name="egrave" unicode="&#xe8;" horiz-adv-x="530" 
d="M473 262l-306 -24c2 -83 62 -155 146 -155c67 0 119 32 157 86h40c-39 -110 -127 -180 -230 -180c-155 0 -238 116 -239 249c-1 150 105 253 246 252c138 -1 195 -115 195 -194zM165 283l192 18c7 55 -5 142 -81 142c-85 0 -113 -87 -111 -160zM126 713h150l50 -176h-42z
" />
    <glyph glyph-name="eacute" unicode="&#xe9;" horiz-adv-x="530" 
d="M473 262l-306 -24c2 -83 62 -155 146 -155c67 0 119 32 157 86h40c-39 -110 -127 -180 -230 -180c-155 0 -238 116 -239 249c-1 150 105 253 246 252c138 -1 195 -115 195 -194zM165 283l192 18c7 55 -5 142 -81 142c-85 0 -113 -87 -111 -160zM302 713h156l-194 -176
h-42z" />
    <glyph glyph-name="ecircumflex" unicode="&#xea;" horiz-adv-x="530" 
d="M473 262l-306 -24c2 -83 62 -155 146 -155c67 0 119 32 157 86h40c-39 -110 -127 -180 -230 -180c-155 0 -238 116 -239 249c-1 150 105 253 246 252c138 -1 195 -115 195 -194zM165 283l192 18c7 55 -5 142 -81 142c-85 0 -113 -87 -111 -160zM235 713h86l94 -176h-45
l-92 86l-92 -86h-45z" />
    <glyph glyph-name="edieresis" unicode="&#xeb;" horiz-adv-x="530" 
d="M473 262l-306 -24c2 -83 62 -155 146 -155c67 0 119 32 157 86h40c-39 -110 -127 -180 -230 -180c-155 0 -238 116 -239 249c-1 150 105 253 246 252c138 -1 195 -115 195 -194zM165 283l192 18c7 55 -5 142 -81 142c-85 0 -113 -87 -111 -160zM445 616
c0 -34 -28 -62 -63 -62s-63 28 -63 62s28 62 63 62s63 -28 63 -62zM237 616c0 -34 -28 -62 -63 -62s-63 28 -63 62s28 62 63 62s63 -28 63 -62z" />
    <glyph glyph-name="igrave" unicode="&#xec;" horiz-adv-x="314" 
d="M97 347c0 16 -38 49 -50 49h-19v32c104 23 195 64 195 64v-400c0 -17 36 -56 48 -56h23v-36h-269v36h21c13 0 51 38 51 56v255zM18 713h150l50 -176h-42z" />
    <glyph glyph-name="iacute" unicode="&#xed;" horiz-adv-x="314" 
d="M97 347c0 16 -38 49 -50 49h-19v32c104 23 195 64 195 64v-400c0 -17 36 -56 48 -56h23v-36h-269v36h21c13 0 51 38 51 56v255zM170 713h156l-194 -176h-42z" />
    <glyph glyph-name="icircumflex" unicode="&#xee;" horiz-adv-x="314" 
d="M97 347c0 16 -38 49 -50 49h-19v32c104 23 195 64 195 64v-400c0 -17 36 -56 48 -56h23v-36h-269v36h21c13 0 51 38 51 56v255zM114 713h86l94 -176h-45l-92 86l-92 -86h-45z" />
    <glyph glyph-name="idieresis" unicode="&#xef;" horiz-adv-x="314" 
d="M97 347c0 16 -38 49 -50 49h-19v32c104 23 195 64 195 64v-400c0 -17 36 -56 48 -56h23v-36h-269v36h21c13 0 51 38 51 56v255zM326 616c0 -34 -28 -62 -63 -62s-63 28 -63 62s28 62 63 62s63 -28 63 -62zM118 616c0 -34 -28 -62 -63 -62s-63 28 -63 62s28 62 63 62
s63 -28 63 -62z" />
    <glyph glyph-name="eth" unicode="&#xf0;" horiz-adv-x="598" 
d="M169 616l141 46c-34 29 -74 51 -120 66l13 42c63 -9 141 -42 186 -80l109 39v-62l-61 -22c65 -72 114 -172 114 -291c0 -203 -122 -365 -287 -365c-147 0 -231 108 -231 261c0 157 119 240 230 240c95 0 139 -42 169 -92c5 85 -20 153 -78 217l-185 -67v68zM410 297
c0 55 -31 114 -108 114c-81 0 -150 -100 -150 -225c0 -78 35 -133 104 -133c81 0 154 120 154 244z" />
    <glyph glyph-name="ntilde" unicode="&#xf1;" horiz-adv-x="603" 
d="M394 490c78 0 134 -75 134 -142v-257c0 -15 32 -55 45 -55h15v-36h-254v36h23c12 0 45 39 45 55v245c0 31 -29 68 -57 68c-47 0 -129 -77 -129 -94v-219c0 -16 30 -55 42 -55h23v-36h-256v36h17c13 0 47 38 47 55v259c0 14 -40 48 -50 48h-19v30c86 26 163 64 163 64
l26 -125c42 46 115 123 185 123zM474 587l-29 -23c-10 23 -21 41 -54 40c-52 -3 -83 -53 -145 -53c-56 0 -96 41 -99 104l28 23c6 -23 31 -40 55 -40c63 0 84 52 145 52c56 0 97 -41 99 -103z" />
    <glyph glyph-name="ograve" unicode="&#xf2;" horiz-adv-x="583" 
d="M293 -12c130 0 250 98 250 252c0 152 -119 251 -251 251c-124 0 -252 -101 -252 -253c0 -158 127 -250 253 -250zM295 44c-65 0 -111 51 -121 124c-6 45 -6 111 0 155c10 74 53 118 116 118c66 0 112 -52 122 -125c6 -45 6 -111 0 -155c-10 -74 -54 -117 -117 -117z
M134 713h150l50 -176h-42z" />
    <glyph glyph-name="oacute" unicode="&#xf3;" horiz-adv-x="583" 
d="M293 -12c-126 0 -253 92 -253 250c0 152 128 253 252 253c132 0 251 -99 251 -251c0 -154 -120 -252 -250 -252zM295 44c63 0 107 43 117 117c6 44 6 110 0 155c-10 73 -56 125 -122 125c-63 0 -106 -44 -116 -118c-6 -44 -6 -110 0 -155c10 -73 56 -124 121 -124z
M330 713h156l-194 -176h-42z" />
    <glyph glyph-name="ocircumflex" unicode="&#xf4;" horiz-adv-x="583" 
d="M295 44c-65 0 -111 51 -121 124c-6 45 -6 111 0 155c10 74 53 118 116 118c66 0 112 -52 122 -125c6 -45 6 -111 0 -155c-10 -74 -54 -117 -117 -117zM293 -12c130 0 250 98 250 252c0 152 -119 251 -251 251c-124 0 -252 -101 -252 -253c0 -158 127 -250 253 -250z
M248 713h86l94 -176h-45l-92 86l-92 -86h-45z" />
    <glyph glyph-name="otilde" unicode="&#xf5;" horiz-adv-x="583" 
d="M293 -12c-126 0 -253 92 -253 250c0 152 128 253 252 253c132 0 251 -99 251 -251c0 -154 -120 -252 -250 -252zM295 44c63 0 107 43 117 117c6 44 6 110 0 155c-10 73 -56 125 -122 125c-63 0 -106 -44 -116 -118c-6 -44 -6 -110 0 -155c10 -73 56 -124 121 -124z
M455 587l-29 -23c-10 23 -21 41 -54 40c-52 -3 -83 -53 -145 -53c-56 0 -96 41 -99 104l28 23c6 -23 31 -40 55 -40c63 0 84 52 145 52c56 0 97 -41 99 -103z" />
    <glyph glyph-name="odieresis" unicode="&#xf6;" horiz-adv-x="583" 
d="M295 44c-65 0 -111 51 -121 124c-6 45 -6 111 0 155c10 74 53 118 116 118c66 0 112 -52 122 -125c6 -45 6 -111 0 -155c-10 -74 -54 -117 -117 -117zM293 -12c130 0 250 98 250 252c0 152 -119 251 -251 251c-124 0 -252 -101 -252 -253c0 -158 127 -250 253 -250z
M461 616c0 -34 -28 -62 -63 -62s-63 28 -63 62s28 62 63 62s63 -28 63 -62zM253 616c0 -34 -28 -62 -63 -62s-63 28 -63 62s28 62 63 62s63 -28 63 -62z" />
    <glyph glyph-name="divide" unicode="&#xf7;" horiz-adv-x="640" 
d="M48 325h544v-74h-544v74zM393 93c0 -39 -30 -70 -71 -70c-40 0 -71 31 -71 70s31 70 71 70c41 0 71 -31 71 -70zM393 486c0 -39 -30 -70 -71 -70c-40 0 -71 31 -71 70s31 70 71 70c41 0 71 -31 71 -70z" />
    <glyph glyph-name="oslash" unicode="&#xf8;" horiz-adv-x="583" 
d="M140 37l-42 -47l-37 32l42 48c-39 42 -63 98 -63 168c0 152 128 253 252 253c52 0 102 -16 144 -44l37 43l38 -33l-37 -42c42 -43 69 -103 69 -175c0 -154 -120 -252 -250 -252c-55 0 -109 17 -153 49zM291 43c65 0 115 58 123 131c5 45 5 111 0 155l-3 15l-220 -249
c21 -34 57 -52 100 -52zM296 442c-66 0 -116 -59 -124 -132c-5 -45 -6 -111 -1 -155l1 -6l218 247c-21 30 -54 46 -94 46z" />
    <glyph glyph-name="ugrave" unicode="&#xf9;" horiz-adv-x="633" 
d="M402 84l-2 20c-51 -58 -133 -115 -191 -115c-74 0 -127 74 -127 141v258c0 14 -36 56 -49 56h-18v35h196v-334c0 -37 19 -69 56 -69c31 0 93 46 124 88v224c0 14 -37 56 -50 56h-33v35h212v-367c0 -13 23 -36 36 -36c11 0 35 24 46 34l26 -27c-16 -19 -77 -92 -124 -93
c-56 -1 -97 42 -102 94zM138 713h150l50 -176h-42z" />
    <glyph glyph-name="uacute" unicode="&#xfa;" horiz-adv-x="633" 
d="M402 84l-2 20c-51 -58 -133 -115 -191 -115c-74 0 -127 74 -127 141v258c0 14 -36 56 -49 56h-18v35h196v-334c0 -37 19 -69 56 -69c31 0 93 46 124 88v224c0 14 -37 56 -50 56h-33v35h212v-367c0 -13 23 -36 36 -36c11 0 35 24 46 34l26 -27c-16 -19 -77 -92 -124 -93
c-56 -1 -97 42 -102 94zM322 713h156l-194 -176h-42z" />
    <glyph glyph-name="ucircumflex" unicode="&#xfb;" horiz-adv-x="633" 
d="M402 84l-2 20c-51 -58 -133 -115 -191 -115c-74 0 -127 74 -127 141v258c0 14 -36 56 -49 56h-18v35h196v-334c0 -37 19 -69 56 -69c31 0 93 46 124 88v224c0 14 -37 56 -50 56h-33v35h212v-367c0 -13 23 -36 36 -36c11 0 35 24 46 34l26 -27c-16 -19 -77 -92 -124 -93
c-56 -1 -97 42 -102 94zM260 713h86l94 -176h-45l-92 86l-92 -86h-45z" />
    <glyph glyph-name="udieresis" unicode="&#xfc;" horiz-adv-x="633" 
d="M402 84l-2 20c-51 -58 -133 -115 -191 -115c-74 0 -127 74 -127 141v258c0 14 -36 56 -49 56h-18v35h196v-334c0 -37 19 -69 56 -69c31 0 93 46 124 88v224c0 14 -37 56 -50 56h-33v35h212v-367c0 -13 23 -36 36 -36c11 0 35 24 46 34l26 -27c-16 -19 -77 -92 -124 -93
c-56 -1 -97 42 -102 94zM464 616c0 -34 -28 -62 -63 -62s-63 28 -63 62s28 62 63 62s63 -28 63 -62zM256 616c0 -34 -28 -62 -63 -62s-63 28 -63 62s28 62 63 62s63 -28 63 -62z" />
    <glyph glyph-name="yacute" unicode="&#xfd;" horiz-adv-x="551" 
d="M242 28l-161 356c-8 15 -51 60 -63 60h-8v35h276v-35h-26c-13 0 -37 -40 -37 -58l88 -216h6l99 216c1 19 -21 58 -34 58h-25v35h189v-35h-15c-11 0 -48 -42 -58 -58l-171 -364l-112 -229l-55 27zM349 713h156l-194 -176h-42z" />
    <glyph glyph-name="thorn" unicode="&#xfe;" horiz-adv-x="618" 
d="M217 36v-151c0 -19 34 -55 46 -55h34v-36h-279v36h18c13 0 49 36 49 55v748c0 15 -40 49 -52 49h-18v31c102 25 195 58 195 58v-339c27 28 73 57 136 58c123 2 234 -87 234 -252c0 -159 -124 -251 -246 -249c-46 1 -91 22 -117 47zM331 435c-61 0 -110 -60 -115 -132
c-3 -41 -3 -92 0 -132c5 -73 43 -123 109 -123c60 0 109 57 116 132c4 41 4 93 0 133c-7 73 -44 122 -110 122z" />
    <glyph glyph-name="ydieresis" unicode="&#xff;" horiz-adv-x="551" 
d="M81 384l161 -356l-107 -208l55 -27l112 229l171 364c10 16 47 58 58 58h15v35h-189v-35h25c13 0 35 -39 34 -58l-99 -216h-6l-88 216c0 18 24 58 37 58h26v35h-276v-35h8c12 0 55 -45 63 -60zM469 616c0 -34 -28 -62 -63 -62s-63 28 -63 62s28 62 63 62s63 -28 63 -62z
M261 616c0 -34 -28 -62 -63 -62s-63 28 -63 62s28 62 63 62s63 -28 63 -62z" />
    <glyph glyph-name="Amacron" unicode="&#x100;" horiz-adv-x="752" 
d="M482 102l-45 109h-231l-40 -108c3 -17 35 -66 50 -66h34v-37h-240v37h13c14 1 69 48 80 66l228 603l60 35l262 -639c12 -16 61 -65 75 -65h14v-37h-349v37h35c15 1 54 48 54 65zM320 521h-4l-94 -260h196zM233 881h273v-81h-273v81z" />
    <glyph glyph-name="amacron" unicode="&#x101;" horiz-adv-x="562" 
d="M431 -9c-53 -1 -82 40 -93 87h-5c-23 -31 -85 -89 -144 -89c-79 0 -138 56 -138 133c0 95 90 128 156 142l116 24v58c0 50 -35 89 -104 89c-48 0 -80 -31 -75 -74s-34 -70 -84 -62l-21 22c0 118 113 169 207 169c115 0 204 -56 204 -151v-229c0 -16 24 -37 38 -37
c9 0 35 27 44 39l26 -26c-14 -22 -79 -94 -127 -95zM324 141v107l-90 -25c-47 -13 -78 -39 -78 -85c0 -41 35 -72 76 -72c38 0 74 42 92 75zM120 654h274v-84h-274v84z" />
    <glyph glyph-name="Abreve" unicode="&#x102;" horiz-adv-x="752" 
d="M482 102l-45 109h-231l-40 -108c3 -17 35 -66 50 -66h34v-37h-240v37h13c14 1 69 48 80 66l228 603l60 35l262 -639c12 -16 61 -65 75 -65h14v-37h-349v37h35c15 1 54 48 54 65zM320 521h-4l-94 -260h196zM369 776c-101 0 -155 64 -152 145l36 6c2 -51 54 -69 114 -69
c61 0 115 17 116 69l36 -6c3 -81 -50 -145 -150 -145z" />
    <glyph glyph-name="abreve" unicode="&#x103;" horiz-adv-x="562" 
d="M431 -9c-53 -1 -82 40 -93 87h-5c-23 -31 -85 -89 -144 -89c-79 0 -138 56 -138 133c0 95 90 128 156 142l116 24v58c0 50 -35 89 -104 89c-48 0 -80 -31 -75 -74s-34 -70 -84 -62l-21 22c0 118 113 169 207 169c115 0 204 -56 204 -151v-229c0 -16 24 -37 38 -37
c9 0 35 27 44 39l26 -26c-14 -22 -79 -94 -127 -95zM324 141v107l-90 -25c-47 -13 -78 -39 -78 -85c0 -41 35 -72 76 -72c38 0 74 42 92 75zM264 536c-101 0 -154 75 -151 156l35 6c0 -51 49 -79 114 -79c66 0 117 27 116 79l35 -6c3 -81 -49 -156 -149 -156z" />
    <glyph glyph-name="Aogonek" unicode="&#x104;" horiz-adv-x="752" 
d="M555 0h-162v37h35c15 1 54 48 54 65l-45 109h-231l-40 -108c3 -17 35 -66 50 -66h34v-37h-240v37h13c14 1 69 48 80 66l228 603l60 35l262 -639c12 -16 61 -65 75 -65h14v-37h-135c-21 -24 -67 -79 -67 -119c0 -16 24 -37 38 -37c9 0 35 25 45 35l26 -26
c-29 -35 -65 -84 -117 -84c-58 0 -98 45 -94 92c4 49 90 121 117 139zM320 521h-4l-94 -260h196z" />
    <glyph glyph-name="aogonek" unicode="&#x105;" horiz-adv-x="562" 
d="M431 -9c-53 -1 -82 40 -93 87h-5c-23 -31 -85 -89 -144 -89c-79 0 -138 56 -138 133c0 95 90 128 156 142l116 24v58c0 50 -35 89 -104 89c-48 0 -80 -31 -75 -74s-34 -70 -84 -62l-21 22c0 118 113 169 207 169c115 0 204 -56 204 -151v-229c0 -16 24 -37 38 -37
c9 0 35 27 44 39l26 -26c-7 -11 -26 -34 -49 -54c-26 -32 -82 -114 -82 -151c0 -16 24 -37 38 -37c9 0 35 25 45 35l26 -26c-29 -35 -65 -84 -117 -84c-58 0 -98 45 -94 92c3 43 72 104 107 130h-1zM324 141v107l-90 -25c-47 -13 -78 -39 -78 -85c0 -41 35 -72 76 -72
c38 0 74 42 92 75z" />
    <glyph glyph-name="Cacute" unicode="&#x106;" horiz-adv-x="758" 
d="M407 691c-96 0 -177 -58 -194 -229c-6 -62 -5 -123 2 -186c14 -125 94 -214 226 -214c96 0 180 43 234 127h63c-50 -107 -154 -199 -319 -202c-223 -4 -379 177 -379 380c0 222 149 382 366 374c79 -3 124 -33 182 -33c19 0 36 7 45 20h40v-249h-43
c0 38 -96 212 -223 212zM439 917h165l-192 -140h-48z" />
    <glyph glyph-name="cacute" unicode="&#x107;" horiz-adv-x="516" 
d="M276 443c-71 0 -123 -77 -123 -187c0 -98 66 -172 158 -172c113 0 155 93 155 93h40c-32 -109 -126 -188 -239 -188c-133 0 -227 107 -227 239c0 160 111 263 248 262c91 -1 146 -49 171 -72l-73 -121c-33 0 -45 24 -43 56c3 41 -10 90 -67 90zM300 713h156l-194 -176
h-42z" />
    <glyph glyph-name="Ccircumflex" unicode="&#x108;" horiz-adv-x="758" 
d="M407 691c-96 0 -177 -58 -194 -229c-6 -62 -5 -123 2 -186c14 -125 94 -214 226 -214c96 0 180 43 234 127h63c-50 -107 -154 -199 -319 -202c-223 -4 -379 177 -379 380c0 222 149 382 366 374c79 -3 124 -33 182 -33c19 0 36 7 45 20h40v-249h-43
c0 38 -96 212 -223 212zM376 931h86l103 -154h-50l-96 73l-96 -73h-50z" />
    <glyph glyph-name="ccircumflex" unicode="&#x109;" horiz-adv-x="516" 
d="M276 443c-71 0 -123 -77 -123 -187c0 -98 66 -172 158 -172c113 0 155 93 155 93h40c-32 -109 -126 -188 -239 -188c-133 0 -227 107 -227 239c0 160 111 263 248 262c91 -1 146 -49 171 -72l-73 -121c-33 0 -45 24 -43 56c3 41 -10 90 -67 90zM233 713h86l94 -176h-45
l-92 86l-92 -86h-45z" />
    <glyph glyph-name="Cdotaccent" unicode="&#x10a;" horiz-adv-x="758" 
d="M407 691c-96 0 -177 -58 -194 -229c-6 -62 -5 -123 2 -186c14 -125 94 -214 226 -214c96 0 180 43 234 127h63c-50 -107 -154 -199 -319 -202c-223 -4 -379 177 -379 380c0 222 149 382 366 374c79 -3 124 -33 182 -33c19 0 36 7 45 20h40v-249h-43
c0 38 -96 212 -223 212zM491 848c0 -43 -33 -77 -78 -77c-44 0 -78 34 -78 77s34 77 78 77c45 0 78 -34 78 -77z" />
    <glyph glyph-name="cdotaccent" unicode="&#x10b;" horiz-adv-x="516" 
d="M276 443c-71 0 -123 -77 -123 -187c0 -98 66 -172 158 -172c113 0 155 93 155 93h40c-32 -109 -126 -188 -239 -188c-133 0 -227 107 -227 239c0 160 111 263 248 262c91 -1 146 -49 171 -72l-73 -121c-33 0 -45 24 -43 56c3 41 -10 90 -67 90zM363 633
c0 -44 -37 -81 -83 -81s-83 37 -83 81s37 81 83 81s83 -37 83 -81z" />
    <glyph glyph-name="Ccaron" unicode="&#x10c;" horiz-adv-x="758" 
d="M407 691c-96 0 -177 -58 -194 -229c-6 -62 -5 -123 2 -186c14 -125 94 -214 226 -214c96 0 180 43 234 127h63c-50 -107 -154 -199 -319 -202c-223 -4 -379 177 -379 380c0 222 149 382 366 374c79 -3 124 -33 182 -33c19 0 36 7 45 20h40v-249h-43
c0 38 -96 212 -223 212zM457 777h-96l-99 154h50l97 -76l97 76h50z" />
    <glyph glyph-name="ccaron" unicode="&#x10d;" horiz-adv-x="516" 
d="M276 443c-71 0 -123 -77 -123 -187c0 -98 66 -172 158 -172c113 0 155 93 155 93h40c-32 -109 -126 -188 -239 -188c-133 0 -227 107 -227 239c0 160 111 263 248 262c91 -1 146 -49 171 -72l-73 -121c-33 0 -45 24 -43 56c3 41 -10 90 -67 90zM328 537h-96l-94 176h45
l97 -94l97 94h45z" />
    <glyph glyph-name="Dcaron" unicode="&#x10e;" horiz-adv-x="756" 
d="M547 280c3 47 3 121 0 169c-11 174 -94 232 -208 232h-23c-15 0 -45 -35 -45 -50v-533c0 -15 36 -48 48 -48h24c108 0 193 56 204 230zM716 366c0 -211 -185 -366 -373 -366h-303v37h16c15 0 55 40 55 58v538c0 17 -42 58 -55 58h-16v37h301c181 0 375 -142 375 -362z
M394 777h-96l-99 154h50l97 -76l97 76h50z" />
    <glyph glyph-name="dcaron" unicode="&#x10f;" horiz-adv-x="725" 
d="M607 0h-165l-15 61c-28 -35 -87 -71 -153 -72c-123 -1 -234 100 -234 259c0 157 106 242 228 242c54 0 108 -24 138 -57v190c0 18 -39 59 -51 59h-29v31c112 23 208 57 208 57v-679c0 -18 38 -55 52 -55h21v-36zM283 432c-66 0 -97 -47 -106 -120c-5 -42 -5 -91 0 -134
c8 -72 52 -125 112 -125c68 0 112 44 116 117c2 40 2 88 0 129c-4 72 -62 133 -122 133zM703 698v-28c1 -81 -68 -124 -123 -131v41c37 4 72 26 75 56h-31c-28 7 -51 33 -51 62c0 34 29 64 65 64s65 -30 65 -64z" />
    <glyph glyph-name="Dcroat" unicode="&#x110;" horiz-adv-x="756" 
d="M716 366c0 -211 -185 -366 -373 -366h-303v37h16c15 0 55 40 55 58v257h-70v48h70v233c0 17 -42 58 -55 58h-16v37h301c181 0 375 -142 375 -362zM547 280c3 47 3 121 0 169c-11 174 -94 232 -208 232h-23c-15 0 -45 -35 -45 -50v-231h194v-48h-194v-254
c0 -15 36 -48 48 -48h24c108 0 193 56 204 230z" />
    <glyph glyph-name="dcroat" unicode="&#x111;" horiz-adv-x="622" 
d="M607 0h-165l-15 61c-28 -35 -87 -71 -153 -72c-123 -1 -234 100 -234 259c0 157 106 242 228 242c54 0 108 -24 138 -57v103h-183v56h183v31c0 18 -39 59 -51 59h-29v31c112 23 208 57 208 57v-178h73v-56h-73v-445c0 -18 38 -55 52 -55h21v-36zM283 432
c-66 0 -97 -47 -106 -120c-5 -42 -5 -91 0 -134c8 -72 52 -125 112 -125c68 0 112 44 116 117c2 40 2 88 0 129c-4 72 -62 133 -122 133z" />
    <glyph glyph-name="Emacron" unicode="&#x112;" horiz-adv-x="705" 
d="M608 728v-199h-37c0 20 -107 151 -124 151h-157c-6 0 -18 -14 -18 -20v-263h78c15 0 81 60 81 75v18h42v-239h-42v21c0 16 -66 76 -81 76h-78v-276c0 -6 12 -22 17 -22h158c38 0 193 166 193 188h40l-46 -238h-593v37h18c15 0 53 41 53 57v537c0 17 -42 60 -55 60h-17v37
h568zM206 881h273v-81h-273v81z" />
    <glyph glyph-name="emacron" unicode="&#x113;" horiz-adv-x="530" 
d="M473 262l-306 -24c2 -83 62 -155 146 -155c67 0 119 32 157 86h40c-39 -110 -127 -180 -230 -180c-155 0 -238 116 -239 249c-1 150 105 253 246 252c138 -1 195 -115 195 -194zM165 283l192 18c7 55 -5 142 -81 142c-85 0 -113 -87 -111 -160zM140 654h274v-84h-274v84z
" />
    <glyph glyph-name="Ebreve" unicode="&#x114;" horiz-adv-x="705" 
d="M608 728v-199h-37c0 20 -107 151 -124 151h-157c-6 0 -18 -14 -18 -20v-263h78c15 0 81 60 81 75v18h42v-239h-42v21c0 16 -66 76 -81 76h-78v-276c0 -6 12 -22 17 -22h158c38 0 193 166 193 188h40l-46 -238h-593v37h18c15 0 53 41 53 57v537c0 17 -42 60 -55 60h-17v37
h568zM353 776c-101 0 -155 64 -152 145l36 6c2 -51 54 -69 114 -69c61 0 115 17 116 69l36 -6c3 -81 -50 -145 -150 -145z" />
    <glyph glyph-name="ebreve" unicode="&#x115;" horiz-adv-x="530" 
d="M473 262l-306 -24c2 -83 62 -155 146 -155c67 0 119 32 157 86h40c-39 -110 -127 -180 -230 -180c-155 0 -238 116 -239 249c-1 150 105 253 246 252c138 -1 195 -115 195 -194zM165 283l192 18c7 55 -5 142 -81 142c-85 0 -113 -87 -111 -160zM279 536
c-101 0 -154 75 -151 156l35 6c0 -51 49 -79 114 -79c66 0 117 27 116 79l35 -6c3 -81 -49 -156 -149 -156z" />
    <glyph glyph-name="Edotaccent" unicode="&#x116;" horiz-adv-x="705" 
d="M608 728v-199h-37c0 20 -107 151 -124 151h-157c-6 0 -18 -14 -18 -20v-263h78c15 0 81 60 81 75v18h42v-239h-42v21c0 16 -66 76 -81 76h-78v-276c0 -6 12 -22 17 -22h158c38 0 193 166 193 188h40l-46 -238h-593v37h18c15 0 53 41 53 57v537c0 17 -42 60 -55 60h-17v37
h568zM428 848c0 -43 -33 -77 -78 -77c-44 0 -78 34 -78 77s34 77 78 77c45 0 78 -34 78 -77z" />
    <glyph glyph-name="edotaccent" unicode="&#x117;" horiz-adv-x="530" 
d="M473 262l-306 -24c2 -83 62 -155 146 -155c67 0 119 32 157 86h40c-39 -110 -127 -180 -230 -180c-155 0 -238 116 -239 249c-1 150 105 253 246 252c138 -1 195 -115 195 -194zM165 283l192 18c7 55 -5 142 -81 142c-85 0 -113 -87 -111 -160zM353 633
c0 -44 -37 -81 -83 -81s-83 37 -83 81s37 81 83 81s83 -37 83 -81z" />
    <glyph glyph-name="Eogonek" unicode="&#x118;" horiz-adv-x="705" 
d="M516 0h-475v37h18c15 0 53 41 53 57v537c0 17 -42 60 -55 60h-17v37h568v-199h-37c0 20 -107 151 -124 151h-157c-6 0 -18 -14 -18 -20v-263h78c15 0 81 60 81 75v18h42v-239h-42v21c0 16 -66 76 -81 76h-78v-276c0 -6 12 -22 17 -22h158c38 0 193 166 193 188h40
l-46 -238h-66c-21 -24 -67 -79 -67 -119c0 -16 24 -37 38 -37c9 0 35 25 45 35l26 -26c-29 -35 -65 -84 -117 -84c-58 0 -98 45 -94 92c4 49 90 121 117 139z" />
    <glyph glyph-name="eogonek" unicode="&#x119;" horiz-adv-x="530" 
d="M473 262l-306 -24c2 -83 62 -155 146 -155c67 0 119 32 157 86h40c-15 -41 -36 -76 -62 -104c-78 -111 -77 -148 -77 -179c0 -16 24 -37 38 -37c9 0 35 25 45 35l26 -26c-29 -35 -65 -84 -117 -84c-58 0 -98 45 -94 92c2 32 49 93 89 137c-24 -9 -51 -14 -78 -14
c-155 0 -238 116 -239 249c-1 150 105 253 246 252c138 -1 195 -115 195 -194zM165 283l192 18c7 55 -5 142 -81 142c-85 0 -113 -87 -111 -160z" />
    <glyph glyph-name="Ecaron" unicode="&#x11a;" horiz-adv-x="705" 
d="M608 728v-199h-37c0 20 -107 151 -124 151h-157c-6 0 -18 -14 -18 -20v-263h78c15 0 81 60 81 75v18h42v-239h-42v21c0 16 -66 76 -81 76h-78v-276c0 -6 12 -22 17 -22h158c38 0 193 166 193 188h40l-46 -238h-593v37h18c15 0 53 41 53 57v537c0 17 -42 60 -55 60h-17v37
h568zM398 777h-96l-99 154h50l97 -76l97 76h50z" />
    <glyph glyph-name="ecaron" unicode="&#x11b;" horiz-adv-x="530" 
d="M473 262l-306 -24c2 -83 62 -155 146 -155c67 0 119 32 157 86h40c-39 -110 -127 -180 -230 -180c-155 0 -238 116 -239 249c-1 150 105 253 246 252c138 -1 195 -115 195 -194zM165 283l192 18c7 55 -5 142 -81 142c-85 0 -113 -87 -111 -160zM326 537h-96l-94 176h45
l97 -94l97 94h45z" />
    <glyph glyph-name="Gcircumflex" unicode="&#x11c;" horiz-adv-x="811" 
d="M412 690c-99 2 -182 -56 -199 -226c-6 -61 -6 -130 1 -192c14 -127 91 -219 205 -219c70 0 118 38 133 73v106c0 14 -41 59 -50 59h-93v39h377v-38h-34c-9 0 -51 -44 -51 -58v-234h-9l-85 84c-38 -51 -99 -97 -193 -97c-234 0 -374 163 -373 385c1 215 145 377 361 369
c74 -3 132 -33 199 -33c16 0 36 6 46 20h40v-249h-41c0 36 -109 208 -234 211zM364 931h86l103 -154h-50l-96 73l-96 -73h-50z" />
    <glyph glyph-name="gcircumflex" unicode="&#x11d;" horiz-adv-x="588" 
d="M414 -79c27 0 46 -15 46 -34c0 -57 -127 -61 -167 -62c-47 0 -188 46 -188 81c0 27 36 49 59 54c1 -21 68 -39 250 -39zM496 305c0 17 54 55 69 55h18v130c-36 0 -96 -64 -115 -143h-6c-17 84 -94 143 -192 143c-123 0 -222 -72 -222 -179c0 -97 87 -148 129 -159
c-54 -8 -137 -34 -137 -91c0 -45 52 -75 91 -80c-46 -10 -111 -45 -111 -90c0 -81 156 -108 272 -108c113 0 251 42 251 138c0 73 -62 105 -153 105c-67 0 -126 2 -184 7c-25 2 -51 19 -51 45c0 27 26 43 57 43h69c133 0 215 78 215 184zM269 445c54 0 91 -45 97 -100
c3 -27 3 -56 0 -83c-7 -59 -34 -92 -90 -92c-54 0 -91 47 -97 101c-3 27 -3 56 0 83c7 57 34 91 90 91zM231 713h86l94 -176h-45l-92 86l-92 -86h-45z" />
    <glyph glyph-name="Gbreve" unicode="&#x11e;" horiz-adv-x="811" 
d="M412 690c-99 2 -182 -56 -199 -226c-6 -61 -6 -130 1 -192c14 -127 91 -219 205 -219c70 0 118 38 133 73v106c0 14 -41 59 -50 59h-93v39h377v-38h-34c-9 0 -51 -44 -51 -58v-234h-9l-85 84c-38 -51 -99 -97 -193 -97c-234 0 -374 163 -373 385c1 215 145 377 361 369
c74 -3 132 -33 199 -33c16 0 36 6 46 20h40v-249h-41c0 36 -109 208 -234 211zM408 776c-101 0 -155 64 -152 145l36 6c2 -51 54 -69 114 -69c61 0 115 17 116 69l36 -6c3 -81 -50 -145 -150 -145z" />
    <glyph glyph-name="gbreve" unicode="&#x11f;" horiz-adv-x="588" 
d="M414 -79c-182 0 -249 18 -250 39c-23 -5 -59 -27 -59 -54c0 -35 141 -81 188 -81c40 1 167 5 167 62c0 19 -19 34 -46 34zM496 305c0 -106 -82 -184 -215 -184h-69c-31 0 -57 -16 -57 -43c0 -26 26 -43 51 -45c58 -5 117 -7 184 -7c91 0 153 -32 153 -105
c0 -96 -138 -138 -251 -138c-116 0 -272 27 -272 108c0 45 65 80 111 90c-39 5 -91 35 -91 80c0 57 83 83 137 91c-42 11 -129 62 -129 159c0 107 99 179 222 179c98 0 175 -59 192 -143h6c19 79 79 143 115 143v-130h-18c-15 0 -69 -38 -69 -55zM269 445
c-56 0 -83 -34 -90 -91c-3 -27 -3 -56 0 -83c6 -54 43 -101 97 -101c56 0 83 33 90 92c3 27 3 56 0 83c-6 55 -43 100 -97 100zM275 536c-101 0 -154 75 -151 156l35 6c0 -51 49 -79 114 -79c66 0 117 27 116 79l35 -6c3 -81 -49 -156 -149 -156z" />
    <glyph glyph-name="Gdotaccent" unicode="&#x120;" horiz-adv-x="811" 
d="M412 690c-99 2 -182 -56 -199 -226c-6 -61 -6 -130 1 -192c14 -127 91 -219 205 -219c70 0 118 38 133 73v106c0 14 -41 59 -50 59h-93v39h377v-38h-34c-9 0 -51 -44 -51 -58v-234h-9l-85 84c-38 -51 -99 -97 -193 -97c-234 0 -374 163 -373 385c1 215 145 377 361 369
c74 -3 132 -33 199 -33c16 0 36 6 46 20h40v-249h-41c0 36 -109 208 -234 211zM483 848c0 -43 -33 -77 -78 -77c-44 0 -78 34 -78 77s34 77 78 77c45 0 78 -34 78 -77z" />
    <glyph glyph-name="gdotaccent" unicode="&#x121;" horiz-adv-x="588" 
d="M414 -79c27 0 46 -15 46 -34c0 -57 -127 -61 -167 -62c-47 0 -188 46 -188 81c0 27 36 49 59 54c1 -21 68 -39 250 -39zM496 305c0 17 54 55 69 55h18v130c-36 0 -96 -64 -115 -143h-6c-17 84 -94 143 -192 143c-123 0 -222 -72 -222 -179c0 -97 87 -148 129 -159
c-54 -8 -137 -34 -137 -91c0 -45 52 -75 91 -80c-46 -10 -111 -45 -111 -90c0 -81 156 -108 272 -108c113 0 251 42 251 138c0 73 -62 105 -153 105c-67 0 -126 2 -184 7c-25 2 -51 19 -51 45c0 27 26 43 57 43h69c133 0 215 78 215 184zM269 445c54 0 91 -45 97 -100
c3 -27 3 -56 0 -83c-7 -59 -34 -92 -90 -92c-54 0 -91 47 -97 101c-3 27 -3 56 0 83c7 57 34 91 90 91zM358 633c0 -44 -37 -81 -83 -81s-83 37 -83 81s37 81 83 81s83 -37 83 -81z" />
    <glyph glyph-name="Gcommaaccent" unicode="&#x122;" horiz-adv-x="811" 
d="M412 690c-99 2 -182 -56 -199 -226c-6 -61 -6 -130 1 -192c14 -127 91 -219 205 -219c70 0 118 38 133 73v106c0 14 -41 59 -50 59h-93v39h377v-38h-34c-9 0 -51 -44 -51 -58v-234h-9l-85 84c-38 -51 -99 -97 -193 -97c-234 0 -374 163 -373 385c1 215 145 377 361 369
c74 -3 132 -33 199 -33c16 0 36 6 46 20h40v-249h-41c0 36 -109 208 -234 211zM480 -103v-28c1 -81 -68 -123 -123 -131v41c37 4 72 26 75 56h-31c-28 7 -51 33 -51 62c0 34 29 64 65 64s65 -30 65 -64z" />
    <glyph glyph-name="gcommaaccent" unicode="&#x123;" horiz-adv-x="588" 
d="M414 -79c27 0 46 -15 46 -34c0 -57 -127 -61 -167 -62c-47 0 -188 46 -188 81c0 27 36 49 59 54c1 -21 68 -39 250 -39zM496 305c0 17 54 55 69 55h18v130c-36 0 -96 -64 -115 -143h-6c-17 84 -94 143 -192 143c-123 0 -222 -72 -222 -179c0 -97 87 -148 129 -159
c-54 -8 -137 -34 -137 -91c0 -45 52 -75 91 -80c-46 -10 -111 -45 -111 -90c0 -81 156 -108 272 -108c113 0 251 42 251 138c0 73 -62 105 -153 105c-67 0 -126 2 -184 7c-25 2 -51 19 -51 45c0 27 26 43 57 43h69c133 0 215 78 215 184zM269 445c54 0 91 -45 97 -100
c3 -27 3 -56 0 -83c-7 -59 -34 -92 -90 -92c-54 0 -91 47 -97 101c-3 27 -3 56 0 83c7 57 34 91 90 91zM209 610v28c-1 81 68 123 123 131v-41c-37 -4 -72 -26 -75 -56h31c28 -7 51 -33 51 -62c0 -34 -29 -64 -65 -64s-65 30 -65 64z" />
    <glyph glyph-name="Hcircumflex" unicode="&#x124;" horiz-adv-x="811" 
d="M269 396h275v235c0 14 -46 60 -59 60h-28v37h314v-37h-15c-12 0 -55 -46 -55 -60v-534c0 -16 39 -60 53 -60h15v-37h-312v37h32c13 0 55 44 55 60v244h-275v-244c0 -16 42 -60 55 -60h31v-37h-315v37h16c13 0 53 44 53 60v534c0 14 -46 60 -55 60h-14v37h315v-37h-29
c-12 0 -57 -46 -57 -60v-235zM363 931h86l103 -154h-50l-96 73l-96 -73h-50z" />
    <glyph glyph-name="hcircumflex" unicode="&#x125;" horiz-adv-x="602" 
d="M197 973h86l94 -166h-45l-92 86l-92 -86h-45zM83 91v543c0 17 -36 48 -48 48h-19v31c105 23 195 57 195 57v-388c44 45 110 108 178 108c78 0 134 -75 134 -142v-257c0 -15 38 -55 51 -55h13v-36h-260v36h26c12 0 43 39 43 55v245c0 31 -28 68 -56 68
c-54 0 -129 -81 -129 -96v-217c0 -16 28 -55 40 -55h25v-36h-261v36h17c13 0 51 38 51 55z" />
    <glyph glyph-name="Hbar" unicode="&#x126;" horiz-adv-x="811" 
d="M771 503h-70v-406c0 -16 39 -60 53 -60h15v-37h-312v37h32c13 0 55 44 55 60v244h-275v-244c0 -16 42 -60 55 -60h31v-37h-315v37h16c13 0 53 44 53 60v406h-69v48h69v80c0 14 -46 60 -55 60h-14v37h315v-37h-29c-12 0 -57 -46 -57 -60v-80h275v80c0 14 -46 60 -59 60
h-28v37h314v-37h-15c-12 0 -55 -46 -55 -60v-80h70v-48zM269 396h275v107h-275v-107z" />
    <glyph glyph-name="hbar" unicode="&#x127;" horiz-adv-x="602" 
d="M83 91v445h-67v56h67v42c0 17 -36 48 -48 48h-19v31c105 23 195 57 195 57v-178h189v-56h-189v-154c44 45 110 108 178 108c78 0 134 -75 134 -142v-257c0 -15 38 -55 51 -55h13v-36h-260v36h26c12 0 43 39 43 55v245c0 31 -28 68 -56 68c-54 0 -129 -81 -129 -96v-217
c0 -16 28 -55 40 -55h25v-36h-261v36h17c13 0 51 38 51 55z" />
    <glyph glyph-name="Itilde" unicode="&#x128;" horiz-adv-x="418" 
d="M370 0h-324v37h30c14 0 55 44 55 60v534c0 15 -42 60 -56 60h-30v37h328v-37h-29c-15 0 -57 -45 -57 -60v-534c0 -16 39 -60 54 -60h29v-37zM367 815l-25 -20c-8 20 -25 39 -53 38c-47 -1 -87 -48 -144 -48c-51 0 -89 35 -93 94l24 19c6 -19 28 -31 54 -31
c56 0 88 51 144 51c51 0 91 -44 93 -103z" />
    <glyph glyph-name="itilde" unicode="&#x129;" horiz-adv-x="314" 
d="M97 347c0 16 -38 49 -50 49h-19v32c104 23 195 64 195 64v-400c0 -17 36 -56 48 -56h23v-36h-269v36h21c13 0 51 38 51 56v255zM321 587l-29 -23c-10 23 -21 41 -54 40c-52 -3 -83 -53 -145 -53c-56 0 -96 41 -99 104l28 23c6 -23 31 -40 55 -40c63 0 84 52 145 52
c56 0 97 -41 99 -103z" />
    <glyph glyph-name="Imacron" unicode="&#x12a;" horiz-adv-x="418" 
d="M370 0h-324v37h30c14 0 55 44 55 60v534c0 15 -42 60 -56 60h-30v37h328v-37h-29c-15 0 -57 -45 -57 -60v-534c0 -16 39 -60 54 -60h29v-37zM73 881h273v-81h-273v81z" />
    <glyph glyph-name="imacron" unicode="&#x12b;" horiz-adv-x="314" 
d="M97 347c0 16 -38 49 -50 49h-19v32c104 23 195 64 195 64v-400c0 -17 36 -56 48 -56h23v-36h-269v36h21c13 0 51 38 51 56v255zM9 654h274v-84h-274v84z" />
    <glyph glyph-name="Ibreve" unicode="&#x12c;" horiz-adv-x="418" 
d="M370 0h-324v37h30c14 0 55 44 55 60v534c0 15 -42 60 -56 60h-30v37h328v-37h-29c-15 0 -57 -45 -57 -60v-534c0 -16 39 -60 54 -60h29v-37zM210 776c-101 0 -155 64 -152 145l36 6c2 -51 54 -69 114 -69c61 0 115 17 116 69l36 -6c3 -81 -50 -145 -150 -145z" />
    <glyph glyph-name="ibreve" unicode="&#x12d;" horiz-adv-x="314" 
d="M97 347c0 16 -38 49 -50 49h-19v32c104 23 195 64 195 64v-400c0 -17 36 -56 48 -56h23v-36h-269v36h21c13 0 51 38 51 56v255zM158 536c-101 0 -154 75 -151 156l35 6c0 -51 49 -79 114 -79c66 0 117 27 116 79l35 -6c3 -81 -49 -156 -149 -156z" />
    <glyph glyph-name="Iogonek" unicode="&#x12e;" horiz-adv-x="418" 
d="M195 0h-149v37h30c14 0 55 44 55 60v534c0 15 -42 60 -56 60h-30v37h328v-37h-29c-15 0 -57 -45 -57 -60v-534c0 -16 39 -60 54 -60h29v-37h-123c-21 -24 -67 -79 -67 -119c0 -16 24 -37 38 -37c9 0 35 25 45 35l26 -26c-29 -35 -65 -84 -117 -84c-58 0 -98 45 -94 92
c4 49 90 121 117 139z" />
    <glyph glyph-name="iogonek" unicode="&#x12f;" horiz-adv-x="314" 
d="M147 0h-122v36h21c13 0 51 38 51 56v255c0 16 -38 49 -50 49h-19v32c104 23 195 64 195 64v-400c0 -17 36 -56 48 -56h23v-36h-95c-21 -24 -67 -79 -67 -119c0 -16 24 -37 38 -37c9 0 35 25 45 35l26 -26c-29 -35 -65 -84 -117 -84c-58 0 -98 45 -94 92
c4 49 90 121 117 139zM85 628c0 39 32 72 73 72c40 0 73 -33 73 -72s-33 -72 -73 -72c-41 0 -73 33 -73 72z" />
    <glyph glyph-name="Idotaccent" unicode="&#x130;" horiz-adv-x="418" 
d="M370 0h-324v37h30c14 0 55 44 55 60v534c0 15 -42 60 -56 60h-30v37h328v-37h-29c-15 0 -57 -45 -57 -60v-534c0 -16 39 -60 54 -60h29v-37zM287 848c0 -43 -33 -77 -78 -77c-44 0 -78 34 -78 77s34 77 78 77c45 0 78 -34 78 -77z" />
    <glyph glyph-name="dotlessi" unicode="&#x131;" horiz-adv-x="314" 
d="M97 347c0 16 -38 49 -50 49h-19v32c104 23 195 64 195 64v-400c0 -17 36 -56 48 -56h23v-36h-269v36h21c13 0 51 38 51 56v255z" />
    <glyph glyph-name="Jcircumflex" unicode="&#x134;" horiz-adv-x="451" 
d="M137 -146c-82 0 -137 48 -137 125v21h59v-23c0 -27 23 -50 54 -50c33 0 60 28 60 60v644c0 15 -46 61 -58 61h-58v36h344v-36h-15c-13 0 -53 -46 -53 -61v-568c0 -122 -78 -209 -196 -209zM188 931h86l103 -154h-50l-96 73l-96 -73h-50z" />
    <glyph glyph-name="jcircumflex" unicode="&#x135;" horiz-adv-x="323" 
d="M114 -132v457c0 17 -38 59 -51 59h-37v30c103 28 217 78 217 78v-513c0 -92 -65 -196 -156 -196c-49 0 -87 28 -87 82v70h45v-69c0 -18 15 -33 33 -33c19 0 36 15 36 35zM119 713h86l94 -176h-45l-92 86l-92 -86h-45z" />
    <glyph glyph-name="Kcommaaccent" unicode="&#x136;" horiz-adv-x="781" 
d="M352 331l-82 -93v-141c-1 -15 40 -60 53 -60h33v-37h-315v37h16c11 0 53 45 53 60v534c0 16 -42 60 -55 60h-15v37h316v-37h-32c-14 0 -55 -45 -55 -60v-308h7l254 299c11 13 -34 69 -48 69h-32v37h285v-37h-18c-15 0 -104 -63 -112 -73l-153 -173l231 -343
c11 -16 63 -65 77 -65h11v-37h-335v37h36c15 0 45 47 36 61zM455 -103v-28c1 -81 -68 -123 -123 -131v41c37 4 72 26 75 56h-31c-28 7 -51 33 -51 62c0 34 29 64 65 64s65 -30 65 -64z" />
    <glyph glyph-name="kcommaaccent" unicode="&#x137;" horiz-adv-x="598" 
d="M381 54l-115 162l-56 -50v-75c0 -15 28 -55 40 -55h14v-36h-248v36h16c13 0 51 41 51 56v528c0 15 -38 49 -50 49h-18v30c103 30 196 72 196 72v-543h4l149 142c15 15 -13 74 -29 74h-49v35h282v-35h-21c-12 0 -98 -62 -113 -76l-74 -68l142 -195c10 -14 59 -69 69 -69
h17v-36h-163s-26 29 -44 54zM383 -103v-28c1 -81 -68 -123 -123 -131v41c37 4 72 26 75 56h-31c-28 7 -51 33 -51 62c0 34 29 64 65 64s65 -30 65 -64z" />
    <glyph glyph-name="Lacute" unicode="&#x139;" horiz-adv-x="684" 
d="M40 728h335v-37h-45c-14 0 -57 -43 -57 -60v-543c0 -13 22 -34 32 -34h120c42 0 207 181 207 197h42l-53 -251h-581v37h19c14 0 53 43 53 59v535c0 17 -43 60 -56 60h-16v37zM229 917h165l-192 -140h-48z" />
    <glyph glyph-name="lacute" unicode="&#x13a;" horiz-adv-x="311" 
d="M91 633c0 15 -40 49 -52 49h-17v31c104 22 195 58 195 58v-680c0 -16 40 -55 52 -55h22v-36h-276v36h21c14 0 55 39 55 55v542zM148 927h165l-192 -140h-48z" />
    <glyph glyph-name="Lcommaaccent" unicode="&#x13b;" horiz-adv-x="684" 
d="M40 728h335v-37h-45c-14 0 -57 -43 -57 -60v-543c0 -13 22 -34 32 -34h120c42 0 207 181 207 197h42l-53 -251h-581v37h19c14 0 53 43 53 59v535c0 17 -43 60 -56 60h-16v37zM416 -103v-28c1 -81 -68 -123 -123 -131v41c37 4 72 26 75 56h-31c-28 7 -51 33 -51 62
c0 34 29 64 65 64s65 -30 65 -64z" />
    <glyph glyph-name="lcommaaccent" unicode="&#x13c;" horiz-adv-x="311" 
d="M91 633c0 15 -40 49 -52 49h-17v31c104 22 195 58 195 58v-680c0 -16 40 -55 52 -55h22v-36h-276v36h21c14 0 55 39 55 55v542zM220 -103v-28c1 -81 -68 -123 -123 -131v41c37 4 72 26 75 56h-31c-28 7 -51 33 -51 62c0 34 29 64 65 64s65 -30 65 -64z" />
    <glyph glyph-name="Lcaron" unicode="&#x13d;" horiz-adv-x="684" 
d="M40 728h335v-37h-45c-14 0 -57 -43 -57 -60v-543c0 -13 22 -34 32 -34h120c42 0 207 181 207 197h42l-53 -251h-581v37h19c14 0 53 43 53 59v535c0 17 -43 60 -56 60h-16v37zM567 748v-31c1 -89 -75 -136 -135 -144v45c41 4 79 29 82 62h-34c-30 7 -56 36 -56 68
c0 37 32 70 72 70c39 0 71 -33 71 -70z" />
    <glyph glyph-name="lcaron" unicode="&#x13e;" horiz-adv-x="409" 
d="M91 633c0 15 -40 49 -52 49h-17v31c104 22 195 58 195 58v-680c0 -16 40 -55 52 -55h22v-36h-276v36h21c14 0 55 39 55 55v542zM385 698v-28c1 -81 -68 -124 -123 -131v41c37 4 72 26 75 56h-31c-28 7 -51 33 -51 62c0 34 29 64 65 64s65 -30 65 -64z" />
    <glyph glyph-name="Ldot" unicode="&#x13f;" horiz-adv-x="684" 
d="M40 728h335v-37h-45c-14 0 -57 -43 -57 -60v-543c0 -13 22 -34 32 -34h120c42 0 207 181 207 197h42l-53 -251h-581v37h19c14 0 53 43 53 59v535c0 17 -43 60 -56 60h-16v37zM551 370c0 -44 -37 -81 -83 -81s-83 37 -83 81s37 81 83 81s83 -37 83 -81z" />
    <glyph glyph-name="ldot" unicode="&#x140;" horiz-adv-x="459" 
d="M91 633c0 15 -40 49 -52 49h-17v31c104 22 195 58 195 58v-680c0 -16 40 -55 52 -55h22v-36h-276v36h21c14 0 55 39 55 55v542zM459 340c0 -44 -37 -81 -83 -81s-83 37 -83 81s37 81 83 81s83 -37 83 -81z" />
    <glyph glyph-name="Lslash" unicode="&#x141;" horiz-adv-x="684" 
d="M40 728h335v-37h-45c-14 0 -57 -43 -57 -60v-241l195 123v-63l-195 -123v-239c0 -13 22 -34 32 -34h120c42 0 207 181 207 197h42l-53 -251h-581v37h19c14 0 53 43 53 59v130l-72 -45v63l72 45v342c0 17 -43 60 -56 60h-16v37z" />
    <glyph glyph-name="lslash" unicode="&#x142;" horiz-adv-x="311" 
d="M91 633c0 15 -40 49 -52 49h-17v31c104 22 195 58 195 58v-281l64 59v-74l-64 -59v-325c0 -16 40 -55 52 -55h22v-36h-276v36h21c14 0 55 39 55 55v209l-76 -69v76l76 69v257z" />
    <glyph glyph-name="Nacute" unicode="&#x143;" horiz-adv-x="817" 
d="M696 623v-642l-508 609h-3v-477c0 -16 58 -76 70 -76h37v-37h-252v37h14c13 0 70 60 70 76v512c0 15 -46 66 -56 66h-16v37h219l361 -446h5v341c0 16 -49 68 -61 68h-35v37h236v-37h-21c-13 0 -60 -52 -60 -68zM433 917h165l-192 -140h-48z" />
    <glyph glyph-name="nacute" unicode="&#x144;" horiz-adv-x="603" 
d="M394 490c78 0 134 -75 134 -142v-257c0 -15 32 -55 45 -55h15v-36h-254v36h23c12 0 45 39 45 55v245c0 31 -29 68 -57 68c-47 0 -129 -77 -129 -94v-219c0 -16 30 -55 42 -55h23v-36h-256v36h17c13 0 47 38 47 55v259c0 14 -40 48 -50 48h-19v30c86 26 163 64 163 64
l26 -125c42 46 115 123 185 123zM330 713h156l-194 -176h-42z" />
    <glyph glyph-name="Ncommaaccent" unicode="&#x145;" horiz-adv-x="817" 
d="M696 623v-642l-508 609h-3v-477c0 -16 58 -76 70 -76h37v-37h-252v37h14c13 0 70 60 70 76v512c0 15 -46 66 -56 66h-16v37h219l361 -446h5v341c0 16 -49 68 -61 68h-35v37h236v-37h-21c-13 0 -60 -52 -60 -68zM504 -103v-28c1 -81 -68 -123 -123 -131v41
c37 4 72 26 75 56h-31c-28 7 -51 33 -51 62c0 34 29 64 65 64s65 -30 65 -64z" />
    <glyph glyph-name="ncommaaccent" unicode="&#x146;" horiz-adv-x="603" 
d="M394 490c78 0 134 -75 134 -142v-257c0 -15 32 -55 45 -55h15v-36h-254v36h23c12 0 45 39 45 55v245c0 31 -29 68 -57 68c-47 0 -129 -77 -129 -94v-219c0 -16 30 -55 42 -55h23v-36h-256v36h17c13 0 47 38 47 55v259c0 14 -40 48 -50 48h-19v30c86 26 163 64 163 64
l26 -125c42 46 115 123 185 123zM366 -103v-28c1 -81 -68 -123 -123 -131v41c37 4 72 26 75 56h-31c-28 7 -51 33 -51 62c0 34 29 64 65 64s65 -30 65 -64z" />
    <glyph glyph-name="Ncaron" unicode="&#x147;" horiz-adv-x="817" 
d="M696 623v-642l-508 609h-3v-477c0 -16 58 -76 70 -76h37v-37h-252v37h14c13 0 70 60 70 76v512c0 15 -46 66 -56 66h-16v37h219l361 -446h5v341c0 16 -49 68 -61 68h-35v37h236v-37h-21c-13 0 -60 -52 -60 -68zM466 777h-96l-99 154h50l97 -76l97 76h50z" />
    <glyph glyph-name="ncaron" unicode="&#x148;" horiz-adv-x="603" 
d="M394 490c-70 0 -143 -77 -185 -123l-26 125s-77 -38 -163 -64v-30h19c10 0 50 -34 50 -48v-259c0 -17 -34 -55 -47 -55h-17v-36h256v36h-23c-12 0 -42 39 -42 55v219c0 17 82 94 129 94c28 0 57 -37 57 -68v-245c0 -16 -33 -55 -45 -55h-23v-36h254v36h-15
c-13 0 -45 40 -45 55v257c0 67 -56 142 -134 142zM349 537h-96l-94 176h45l97 -94l97 94h45z" />
    <glyph glyph-name="Eng" unicode="&#x14a;" horiz-adv-x="817" 
d="M547 -146c-77 0 -126 54 -126 125v21h59v-23c0 -27 22 -50 53 -50c34 0 60 23 60 60v118l-405 485h-3v-477c0 -16 58 -76 70 -76h57v-37h-272v37h14c13 0 70 60 70 76v512c0 15 -46 66 -56 66h-16v37h219l361 -446h5v341c0 16 -49 68 -61 68h-35v37h236v-37h-21
c-13 0 -60 -52 -60 -68v-611c0 -97 -62 -158 -149 -158z" />
    <glyph glyph-name="eng" unicode="&#x14b;" horiz-adv-x="603" 
d="M394 490c78 0 134 -75 134 -142v-369c0 -92 -62 -196 -153 -196c-49 0 -87 28 -87 82v70h45v-69c0 -18 15 -33 33 -33c19 0 36 15 36 35v468c0 31 -29 68 -57 68c-47 0 -129 -77 -129 -94v-219c0 -16 30 -55 42 -55h30v-36h-263v36h17c13 0 47 38 47 55v259
c0 14 -40 48 -50 48h-19v30c86 26 163 64 163 64l26 -125c42 46 115 123 185 123z" />
    <glyph glyph-name="Omacron" unicode="&#x14c;" horiz-adv-x="846" 
d="M426 -13c-214 0 -386 172 -386 375c0 216 165 379 380 379c214 0 386 -172 386 -375c0 -216 -165 -379 -380 -379zM427 47c119 0 191 74 209 200c9 65 9 154 0 218c-18 129 -97 221 -217 221c-117 0 -189 -75 -207 -200c-9 -65 -9 -154 0 -218c18 -129 95 -221 215 -221z
M286 881h273v-81h-273v81z" />
    <glyph glyph-name="omacron" unicode="&#x14d;" horiz-adv-x="583" 
d="M295 44c63 0 107 43 117 117c6 44 6 110 0 155c-10 73 -56 125 -122 125c-63 0 -106 -44 -116 -118c-6 -44 -6 -110 0 -155c10 -73 56 -124 121 -124zM293 -12c-126 0 -253 92 -253 250c0 152 128 253 252 253c132 0 251 -99 251 -251c0 -154 -120 -252 -250 -252z
M158 654h274v-84h-274v84z" />
    <glyph glyph-name="Obreve" unicode="&#x14e;" horiz-adv-x="846" 
d="M426 -13c-214 0 -386 172 -386 375c0 216 165 379 380 379c214 0 386 -172 386 -375c0 -216 -165 -379 -380 -379zM427 47c119 0 191 74 209 200c9 65 9 154 0 218c-18 129 -97 221 -217 221c-117 0 -189 -75 -207 -200c-9 -65 -9 -154 0 -218c18 -129 95 -221 215 -221z
M424 776c-101 0 -155 64 -152 145l36 6c2 -51 54 -69 114 -69c61 0 115 17 116 69l36 -6c3 -81 -50 -145 -150 -145z" />
    <glyph glyph-name="obreve" unicode="&#x14f;" horiz-adv-x="583" 
d="M295 44c63 0 107 43 117 117c6 44 6 110 0 155c-10 73 -56 125 -122 125c-63 0 -106 -44 -116 -118c-6 -44 -6 -110 0 -155c10 -73 56 -124 121 -124zM293 -12c-126 0 -253 92 -253 250c0 152 128 253 252 253c132 0 251 -99 251 -251c0 -154 -120 -252 -250 -252z
M296 536c-101 0 -154 75 -151 156l35 6c0 -51 49 -79 114 -79c66 0 117 27 116 79l35 -6c3 -81 -49 -156 -149 -156z" />
    <glyph glyph-name="Ohungarumlaut" unicode="&#x150;" horiz-adv-x="846" 
d="M426 -13c-214 0 -386 172 -386 375c0 216 165 379 380 379c214 0 386 -172 386 -375c0 -216 -165 -379 -380 -379zM427 47c119 0 191 74 209 200c9 65 9 154 0 218c-18 129 -97 221 -217 221c-117 0 -189 -75 -207 -200c-9 -65 -9 -154 0 -218c18 -129 95 -221 215 -221z
M537 917h152l-157 -140h-50zM357 917h148l-160 -140h-43z" />
    <glyph glyph-name="ohungarumlaut" unicode="&#x151;" horiz-adv-x="583" 
d="M293 -12c-126 0 -253 92 -253 250c0 152 128 253 252 253c132 0 251 -99 251 -251c0 -154 -120 -252 -250 -252zM295 44c63 0 107 43 117 117c6 44 6 110 0 155c-10 73 -56 125 -122 125c-63 0 -106 -44 -116 -118c-6 -44 -6 -110 0 -155c10 -73 56 -124 121 -124z
M425 713h141l-179 -176h-46zM247 713h137l-167 -176h-44z" />
    <glyph glyph-name="OE" unicode="&#x152;" horiz-adv-x="1073" 
d="M428 55h18c15 0 53 41 53 57v506c0 17 -42 60 -55 60h-17c-122 0 -204 -78 -217 -210c-6 -60 -6 -141 0 -200c13 -129 111 -213 218 -213zM428 728h558v-199h-37c0 20 -107 151 -124 151h-148c-6 0 -18 -14 -18 -20v-263h65c15 0 81 60 81 75v18h42v-239h-42v21
c0 16 -66 76 -81 76h-65v-276c0 -6 12 -22 17 -22h135c38 0 197 166 197 188h40l-46 -238h-574c-220 0 -388 149 -388 363c0 205 169 366 388 365z" />
    <glyph glyph-name="oe" unicode="&#x153;" horiz-adv-x="892" 
d="M830 262l-306 -25c2 -83 62 -154 146 -154c67 0 119 31 157 85h40c-39 -110 -127 -179 -230 -179c-79 0 -138 30 -177 77c-45 -50 -109 -77 -177 -77c-130 0 -243 101 -243 255c0 152 121 247 244 246c67 -1 132 -29 177 -80c43 51 107 80 183 80
c138 -1 194 -116 194 -195zM522 282l192 18c8 57 -10 145 -86 145c-80 0 -108 -90 -106 -163zM287 43c63 0 107 43 117 117c6 44 6 110 0 155c-10 73 -56 125 -122 125c-63 0 -106 -44 -116 -118c-6 -44 -6 -110 0 -155c10 -73 56 -124 121 -124z" />
    <glyph glyph-name="Racute" unicode="&#x154;" horiz-adv-x="765" 
d="M398 265c-12 20 -45 60 -62 60h-68v-228c0 -15 41 -60 55 -60h43v-37h-326v37h15c13 0 53 45 53 60v535c0 15 -43 59 -55 59h-13v37h310c165 0 286 -55 286 -193c0 -109 -111 -170 -197 -182l98 -18c80 -125 154 -242 197 -293c4 -5 12 -10 16 -10v-32h-172l-35 30
c-35 44 -97 155 -145 235zM268 649v-273h80c51 7 118 40 127 114c3 26 3 47 0 73c-9 74 -69 120 -129 120h-45c-12 0 -33 -22 -33 -34zM354 917h165l-192 -140h-48z" />
    <glyph glyph-name="racute" unicode="&#x155;" horiz-adv-x="449" 
d="M192 337l54 81c26 37 57 72 112 72c45 0 76 -33 76 -73c0 -35 -21 -65 -59 -75h-29c-29 6 -50 31 -56 57c-15 0 -70 -87 -70 -100v-205c0 -16 38 -58 51 -58h54v-36h-303v36h19c12 0 50 42 50 58v250c0 17 -36 50 -52 50h-19v30c80 28 134 68 134 68l34 -155h4zM267 713
h156l-194 -176h-42z" />
    <glyph glyph-name="Rcommaaccent" unicode="&#x156;" horiz-adv-x="765" 
d="M398 265c-12 20 -45 60 -62 60h-68v-228c0 -15 41 -60 55 -60h43v-37h-326v37h15c13 0 53 45 53 60v535c0 15 -43 59 -55 59h-13v37h310c165 0 286 -55 286 -193c0 -109 -111 -170 -197 -182l98 -18c80 -125 154 -242 197 -293c4 -5 12 -10 16 -10v-32h-172l-35 30
c-35 44 -97 155 -145 235zM268 649v-273h80c51 7 118 40 127 114c3 26 3 47 0 73c-9 74 -69 120 -129 120h-45c-12 0 -33 -22 -33 -34zM483 -103v-28c1 -81 -68 -123 -123 -131v41c37 4 72 26 75 56h-31c-28 7 -51 33 -51 62c0 34 29 64 65 64s65 -30 65 -64z" />
    <glyph glyph-name="rcommaaccent" unicode="&#x157;" horiz-adv-x="449" 
d="M192 337l54 81c26 37 57 72 112 72c45 0 76 -33 76 -73c0 -35 -21 -65 -59 -75h-29c-29 6 -50 31 -56 57c-15 0 -70 -87 -70 -100v-205c0 -16 38 -58 51 -58h54v-36h-303v36h19c12 0 50 42 50 58v250c0 17 -36 50 -52 50h-19v30c80 28 134 68 134 68l34 -155h4zM229 -103
v-28c1 -81 -68 -123 -123 -131v41c37 4 72 26 75 56h-31c-28 7 -51 33 -51 62c0 34 29 64 65 64s65 -30 65 -64z" />
    <glyph glyph-name="Rcaron" unicode="&#x158;" horiz-adv-x="765" 
d="M398 265c-12 20 -45 60 -62 60h-68v-228c0 -15 41 -60 55 -60h43v-37h-326v37h15c13 0 53 45 53 60v535c0 15 -43 59 -55 59h-13v37h310c165 0 286 -55 286 -193c0 -109 -111 -170 -197 -182l98 -18c80 -125 154 -242 197 -293c4 -5 12 -10 16 -10v-32h-172l-35 30
c-35 44 -97 155 -145 235zM268 649v-273h80c51 7 118 40 127 114c3 26 3 47 0 73c-9 74 -69 120 -129 120h-45c-12 0 -33 -22 -33 -34zM390 777h-96l-99 154h50l97 -76l97 76h50z" />
    <glyph glyph-name="rcaron" unicode="&#x159;" horiz-adv-x="449" 
d="M192 337l54 81c26 37 57 72 112 72c45 0 76 -33 76 -73c0 -35 -21 -65 -59 -75h-29c-29 6 -50 31 -56 57c-15 0 -70 -87 -70 -100v-205c0 -16 38 -58 51 -58h54v-36h-303v36h19c12 0 50 42 50 58v250c0 17 -36 50 -52 50h-19v30c80 28 134 68 134 68l34 -155h4zM280 537
h-96l-94 176h45l97 -94l97 94h45z" />
    <glyph glyph-name="Sacute" unicode="&#x15a;" horiz-adv-x="625" 
d="M520 728v-225h-39c-1 36 -105 185 -204 187c-69 1 -115 -32 -115 -92c0 -47 48 -86 86 -105c56 -28 122 -56 183 -81c93 -38 144 -106 144 -206c0 -131 -107 -219 -239 -219c-68 0 -119 39 -182 39c-23 0 -43 -8 -55 -26h-37v236h39c1 -39 136 -193 235 -193
c75 0 126 38 126 99c0 64 -52 90 -95 106c-63 24 -123 50 -182 82c-84 45 -135 113 -135 206c0 119 97 205 223 205c61 0 105 -31 160 -31c18 0 41 3 51 18h36zM314 917h165l-192 -140h-48z" />
    <glyph glyph-name="sacute" unicode="&#x15b;" horiz-adv-x="466" 
d="M58 166h29c0 -32 96 -125 171 -125c44 0 73 19 73 54c0 37 -35 55 -70 67c-37 13 -69 25 -107 43c-66 31 -107 77 -107 139c0 91 69 146 159 146c47 0 90 -25 124 -25c9 0 23 6 28 14h27v-152h-29c0 29 -84 117 -151 117c-45 0 -72 -21 -72 -55c0 -32 39 -51 75 -68
s70 -30 108 -44c59 -22 107 -65 107 -138c0 -93 -73 -152 -177 -150c-52 1 -98 28 -129 28c-11 0 -26 -8 -32 -17h-27v166zM257 713h156l-194 -176h-42z" />
    <glyph glyph-name="Scircumflex" unicode="&#x15c;" horiz-adv-x="625" 
d="M520 728v-225h-39c-1 36 -105 185 -204 187c-69 1 -115 -32 -115 -92c0 -47 48 -86 86 -105c56 -28 122 -56 183 -81c93 -38 144 -106 144 -206c0 -131 -107 -219 -239 -219c-68 0 -119 39 -182 39c-23 0 -43 -8 -55 -26h-37v236h39c1 -39 136 -193 235 -193
c75 0 126 38 126 99c0 64 -52 90 -95 106c-63 24 -123 50 -182 82c-84 45 -135 113 -135 206c0 119 97 205 223 205c61 0 105 -31 160 -31c18 0 41 3 51 18h36zM259 931h86l103 -154h-50l-96 73l-96 -73h-50z" />
    <glyph glyph-name="scircumflex" unicode="&#x15d;" horiz-adv-x="466" 
d="M58 166h29c0 -32 96 -125 171 -125c44 0 73 19 73 54c0 37 -35 55 -70 67c-37 13 -69 25 -107 43c-66 31 -107 77 -107 139c0 91 69 146 159 146c47 0 90 -25 124 -25c9 0 23 6 28 14h27v-152h-29c0 29 -84 117 -151 117c-45 0 -72 -21 -72 -55c0 -32 39 -51 75 -68
s70 -30 108 -44c59 -22 107 -65 107 -138c0 -93 -73 -152 -177 -150c-52 1 -98 28 -129 28c-11 0 -26 -8 -32 -17h-27v166zM180 713h86l94 -176h-45l-92 86l-92 -86h-45z" />
    <glyph glyph-name="Scedilla" unicode="&#x15e;" horiz-adv-x="625" 
d="M238 -75l31 73c-39 11 -74 28 -115 28c-23 0 -43 -8 -55 -26h-37v236h39c1 -39 136 -193 235 -193c75 0 126 38 126 99c0 64 -52 90 -95 106c-63 24 -123 50 -182 82c-84 45 -135 113 -135 206c0 119 97 205 223 205c61 0 105 -31 160 -31c18 0 41 3 51 18h36v-225h-39
c-1 36 -105 185 -204 187c-69 1 -115 -32 -115 -92c0 -47 48 -86 86 -105c56 -28 122 -56 183 -81c93 -38 144 -106 144 -206c0 -131 -107 -219 -239 -219c-9 0 -17 1 -25 2l-30 -46c14 10 31 14 45 14c47 0 83 -33 83 -79c0 -59 -52 -98 -120 -98c-63 0 -94 44 -102 59
l34 20c12 -18 34 -33 61 -33c30 0 52 18 52 44c0 27 -15 42 -40 42c-7 0 -16 -2 -27 -7z" />
    <glyph glyph-name="scedilla" unicode="&#x15f;" horiz-adv-x="466" 
d="M173 -75l29 70c-34 8 -63 22 -85 22c-11 0 -26 -8 -32 -17h-27v166h29c0 -32 96 -125 171 -125c44 0 73 19 73 54c0 37 -35 55 -70 67c-37 13 -69 25 -107 43c-66 31 -107 77 -107 139c0 91 69 146 159 146c47 0 90 -25 124 -25c9 0 23 6 28 14h27v-152h-29
c0 29 -84 117 -151 117c-45 0 -72 -21 -72 -55c0 -32 39 -51 75 -68s70 -30 108 -44c59 -22 107 -65 107 -138c0 -93 -73 -152 -177 -150l-30 -46c14 10 31 14 45 14c47 0 83 -33 83 -79c0 -59 -52 -98 -120 -98c-63 0 -94 44 -102 59l34 20c12 -18 34 -33 61 -33
c30 0 52 18 52 44c0 27 -15 42 -40 42c-7 0 -16 -2 -27 -7z" />
    <glyph glyph-name="Scaron" unicode="&#x160;" horiz-adv-x="625" 
d="M520 728v-225h-39c-1 36 -105 185 -204 187c-69 1 -115 -32 -115 -92c0 -47 48 -86 86 -105c56 -28 122 -56 183 -81c93 -38 144 -106 144 -206c0 -131 -107 -219 -239 -219c-68 0 -119 39 -182 39c-23 0 -43 -8 -55 -26h-37v236h39c1 -39 136 -193 235 -193
c75 0 126 38 126 99c0 64 -52 90 -95 106c-63 24 -123 50 -182 82c-84 45 -135 113 -135 206c0 119 97 205 223 205c61 0 105 -31 160 -31c18 0 41 3 51 18h36zM342 777h-96l-99 154h50l97 -76l97 76h50z" />
    <glyph glyph-name="scaron" unicode="&#x161;" horiz-adv-x="466" 
d="M58 166h29c0 -32 96 -125 171 -125c44 0 73 19 73 54c0 37 -35 55 -70 67c-37 13 -69 25 -107 43c-66 31 -107 77 -107 139c0 91 69 146 159 146c47 0 90 -25 124 -25c9 0 23 6 28 14h27v-152h-29c0 29 -84 117 -151 117c-45 0 -72 -21 -72 -55c0 -32 39 -51 75 -68
s70 -30 108 -44c59 -22 107 -65 107 -138c0 -93 -73 -152 -177 -150c-52 1 -98 28 -129 28c-11 0 -26 -8 -32 -17h-27v166zM269 537h-96l-94 176h45l97 -94l97 94h45z" />
    <glyph glyph-name="uni0162" unicode="&#x162;" horiz-adv-x="725" 
d="M307 -75l31 75h-161v37h49c11 0 55 46 55 60v582l-91 1c-25 1 -129 -181 -141 -201h-39s17 138 17 262h38c18 -11 104 -13 127 -13h342c23 0 102 2 126 13h38c0 -124 17 -262 17 -262h-39c-12 20 -116 202 -141 201l-93 -1v-582c0 -14 43 -60 54 -60h49v-37h-157l-38 -57
c14 10 31 14 45 14c47 0 83 -33 83 -79c0 -59 -52 -98 -120 -98c-63 0 -94 44 -102 59l34 20c12 -18 34 -33 61 -33c30 0 52 18 52 44c0 27 -15 42 -40 42c-7 0 -16 -2 -27 -7z" />
    <glyph glyph-name="uni0163" unicode="&#x163;" horiz-adv-x="377" 
d="M141 -75l29 71c-44 15 -77 57 -77 106v286c0 11 -24 36 -34 36h-54v55h28c32 0 157 154 157 182h28v-182h123v-57h-119v-306c0 -19 29 -46 46 -46c25 0 67 42 76 52l28 -31c-16 -23 -94 -101 -158 -103l-30 -45c14 10 31 14 45 14c47 0 83 -33 83 -79
c0 -59 -52 -98 -120 -98c-63 0 -94 44 -102 59l34 20c12 -18 34 -33 61 -33c30 0 52 18 52 44c0 27 -15 42 -40 42c-7 0 -16 -2 -27 -7z" />
    <glyph glyph-name="Tcaron" unicode="&#x164;" horiz-adv-x="725" 
d="M535 680l-93 -1v-582c0 -14 43 -60 54 -60h49v-37h-368v37h49c11 0 55 46 55 60v582l-91 1c-25 1 -129 -181 -141 -201h-39s17 138 17 262h38c18 -11 104 -13 127 -13h342c23 0 102 2 126 13h38c0 -124 17 -262 17 -262h-39c-12 20 -116 202 -141 201zM410 777h-96
l-99 154h50l97 -76l97 76h50z" />
    <glyph glyph-name="tcaron" unicode="&#x165;" horiz-adv-x="412" 
d="M222 422v-306c0 -19 29 -46 46 -46c25 0 67 42 76 52l28 -31c-16 -23 -95 -102 -159 -103s-120 50 -120 114v286c0 11 -24 36 -34 36h-54v55h28c32 0 157 154 157 182h28v-182h123v-57h-119zM393 698v-28c1 -81 -68 -124 -123 -131v41c37 4 72 26 75 56h-31
c-28 7 -51 33 -51 62c0 34 29 64 65 64s65 -30 65 -64z" />
    <glyph glyph-name="Tbar" unicode="&#x166;" horiz-adv-x="725" 
d="M535 680l-93 -1v-298h132v-48h-132v-236c0 -14 43 -60 54 -60h49v-37h-368v37h49c11 0 55 46 55 60v236h-131v48h131v298l-91 1c-25 1 -129 -181 -141 -201h-39s17 138 17 262h38c18 -11 104 -13 127 -13h342c23 0 102 2 126 13h38c0 -124 17 -262 17 -262h-39
c-12 20 -116 202 -141 201z" />
    <glyph glyph-name="tbar" unicode="&#x167;" horiz-adv-x="377" 
d="M222 422v-144h119v-56h-119v-106c0 -19 29 -46 46 -46c25 0 67 42 76 52l28 -31c-16 -23 -95 -102 -159 -103s-120 50 -120 114v120h-88v56h88v110c0 11 -24 36 -34 36h-54v55h28c32 0 157 154 157 182h28v-182h123v-57h-119z" />
    <glyph glyph-name="Utilde" unicode="&#x168;" horiz-adv-x="802" 
d="M692 614v-360c0 -163 -115 -267 -287 -267c-158 0 -300 123 -300 287v353c0 11 -47 64 -56 64h-19v37h328v-37h-37c-9 0 -56 -53 -56 -64v-366c0 -117 78 -192 186 -191c116 1 181 80 181 178v366c0 13 -57 77 -67 77h-39v37h246v-37h-16c-10 0 -64 -64 -64 -77zM605 815
l-25 -20c-8 20 -25 39 -53 38c-47 -1 -87 -48 -144 -48c-51 0 -89 35 -93 94l24 19c6 -19 28 -31 54 -31c56 0 88 51 144 51c51 0 91 -44 93 -103z" />
    <glyph glyph-name="utilde" unicode="&#x169;" horiz-adv-x="633" 
d="M402 84l-2 20c-51 -58 -133 -115 -191 -115c-74 0 -127 74 -127 141v258c0 14 -36 56 -49 56h-18v35h196v-334c0 -37 19 -69 56 -69c31 0 93 46 124 88v224c0 14 -37 56 -50 56h-33v35h212v-367c0 -13 23 -36 36 -36c11 0 35 24 46 34l26 -27c-16 -19 -77 -92 -124 -93
c-56 -1 -97 42 -102 94zM460 587l-29 -23c-10 23 -21 41 -54 40c-52 -3 -83 -53 -145 -53c-56 0 -96 41 -99 104l28 23c6 -23 31 -40 55 -40c63 0 84 52 145 52c56 0 97 -41 99 -103z" />
    <glyph glyph-name="Umacron" unicode="&#x16a;" horiz-adv-x="802" 
d="M692 614v-360c0 -163 -115 -267 -287 -267c-158 0 -300 123 -300 287v353c0 11 -47 64 -56 64h-19v37h328v-37h-37c-9 0 -56 -53 -56 -64v-366c0 -117 78 -192 186 -191c116 1 181 80 181 178v366c0 13 -57 77 -67 77h-39v37h246v-37h-16c-10 0 -64 -64 -64 -77zM307 881
h273v-81h-273v81z" />
    <glyph glyph-name="umacron" unicode="&#x16b;" horiz-adv-x="633" 
d="M402 84l-2 20c-51 -58 -133 -115 -191 -115c-74 0 -127 74 -127 141v258c0 14 -36 56 -49 56h-18v35h196v-334c0 -37 19 -69 56 -69c31 0 93 46 124 88v224c0 14 -37 56 -50 56h-33v35h212v-367c0 -13 23 -36 36 -36c11 0 35 24 46 34l26 -27c-16 -19 -77 -92 -124 -93
c-56 -1 -97 42 -102 94zM157 654h274v-84h-274v84z" />
    <glyph glyph-name="Ubreve" unicode="&#x16c;" horiz-adv-x="802" 
d="M692 614v-360c0 -163 -115 -267 -287 -267c-158 0 -300 123 -300 287v353c0 11 -47 64 -56 64h-19v37h328v-37h-37c-9 0 -56 -53 -56 -64v-366c0 -117 78 -192 186 -191c116 1 181 80 181 178v366c0 13 -57 77 -67 77h-39v37h246v-37h-16c-10 0 -64 -64 -64 -77zM443 776
c-101 0 -155 64 -152 145l36 6c2 -51 54 -69 114 -69c61 0 115 17 116 69l36 -6c3 -81 -50 -145 -150 -145z" />
    <glyph glyph-name="ubreve" unicode="&#x16d;" horiz-adv-x="633" 
d="M402 84l-2 20c-51 -58 -133 -115 -191 -115c-74 0 -127 74 -127 141v258c0 14 -36 56 -49 56h-18v35h196v-334c0 -37 19 -69 56 -69c31 0 93 46 124 88v224c0 14 -37 56 -50 56h-33v35h212v-367c0 -13 23 -36 36 -36c11 0 35 24 46 34l26 -27c-16 -19 -77 -92 -124 -93
c-56 -1 -97 42 -102 94zM304 536c-101 0 -154 75 -151 156l35 6c0 -51 49 -79 114 -79c66 0 117 27 116 79l35 -6c3 -81 -49 -156 -149 -156z" />
    <glyph glyph-name="Uring" unicode="&#x16e;" horiz-adv-x="802" 
d="M692 614v-360c0 -163 -115 -267 -287 -267c-158 0 -300 123 -300 287v353c0 11 -47 64 -56 64h-19v37h328v-37h-37c-9 0 -56 -53 -56 -64v-366c0 -117 78 -192 186 -191c116 1 181 80 181 178v366c0 13 -57 77 -67 77h-39v37h246v-37h-16c-10 0 -64 -64 -64 -77zM338 865
c0 59 54 108 111 108c58 0 110 -49 110 -108c0 -61 -52 -108 -110 -108c-57 0 -111 47 -111 108zM392 865c0 -34 23 -57 57 -57c33 0 56 23 56 57c0 33 -23 56 -56 56c-34 0 -57 -23 -57 -56z" />
    <glyph glyph-name="uring" unicode="&#x16f;" horiz-adv-x="633" 
d="M402 84l-2 20c-51 -58 -133 -115 -191 -115c-74 0 -127 74 -127 141v258c0 14 -36 56 -49 56h-18v35h196v-334c0 -37 19 -69 56 -69c31 0 93 46 124 88v224c0 14 -37 56 -50 56h-33v35h212v-367c0 -13 23 -36 36 -36c11 0 35 24 46 34l26 -27c-16 -19 -77 -92 -124 -93
c-56 -1 -97 42 -102 94zM188 636c0 59 52 107 109 107c58 0 108 -48 108 -107c0 -61 -50 -107 -108 -107c-57 0 -109 46 -109 107zM241 636c0 -31 25 -56 56 -56c30 0 55 25 55 56c0 30 -25 55 -55 55c-31 0 -56 -25 -56 -55z" />
    <glyph glyph-name="Uhungarumlaut" unicode="&#x170;" horiz-adv-x="802" 
d="M692 614v-360c0 -163 -115 -267 -287 -267c-158 0 -300 123 -300 287v353c0 11 -47 64 -56 64h-19v37h328v-37h-37c-9 0 -56 -53 -56 -64v-366c0 -117 78 -192 186 -191c116 1 181 80 181 178v366c0 13 -57 77 -67 77h-39v37h246v-37h-16c-10 0 -64 -64 -64 -77zM540 917
h152l-157 -140h-50zM360 917h148l-160 -140h-43z" />
    <glyph glyph-name="uhungarumlaut" unicode="&#x171;" horiz-adv-x="633" 
d="M402 84l-2 20c-51 -58 -133 -115 -191 -115c-74 0 -127 74 -127 141v258c0 14 -36 56 -49 56h-18v35h196v-334c0 -37 19 -69 56 -69c31 0 93 46 124 88v224c0 14 -37 56 -50 56h-33v35h212v-367c0 -13 23 -36 36 -36c11 0 35 24 46 34l26 -27c-16 -19 -77 -92 -124 -93
c-56 -1 -97 42 -102 94zM402 713h141l-179 -176h-46zM224 713h137l-167 -176h-44z" />
    <glyph glyph-name="Uogonek" unicode="&#x172;" horiz-adv-x="802" 
d="M692 614v-360c0 -95 -39 -170 -106 -216c-22 -26 -87 -117 -87 -157c0 -16 24 -37 38 -37c9 0 35 25 45 35l26 -26c-29 -35 -65 -84 -117 -84c-58 0 -98 45 -94 92c3 44 71 111 105 139c-30 -8 -62 -13 -97 -13c-158 0 -300 123 -300 287v353c0 11 -47 64 -56 64h-19v37
h328v-37h-37c-9 0 -56 -53 -56 -64v-366c0 -117 78 -192 186 -191c116 1 181 80 181 178v366c0 13 -57 77 -67 77h-39v37h246v-37h-16c-10 0 -64 -64 -64 -77z" />
    <glyph glyph-name="uogonek" unicode="&#x173;" horiz-adv-x="633" 
d="M402 84l-2 20c-51 -58 -133 -115 -191 -115c-74 0 -127 74 -127 141v258c0 14 -36 56 -49 56h-18v35h196v-334c0 -37 19 -69 56 -69c31 0 93 46 124 88v224c0 14 -37 56 -50 56h-33v35h212v-367c0 -13 23 -36 36 -36c11 0 35 24 46 34l26 -27c-8 -9 -24 -29 -44 -48
c-24 -28 -85 -115 -85 -154c0 -16 24 -37 38 -37c9 0 35 25 45 35l26 -26c-29 -35 -65 -84 -117 -84c-58 0 -98 45 -94 92c3 43 70 102 106 129c-56 0 -96 42 -101 94z" />
    <glyph glyph-name="Wcircumflex" unicode="&#x174;" horiz-adv-x="1062" 
d="M524 516l-142 -487l-61 -41l-222 618c-6 17 -64 85 -77 85h-12v37h343v-37h-38c-14 0 -51 -64 -52 -83l121 -362h3l101 355l121 146l166 -501h3l109 362c0 19 -44 83 -56 83h-41v37h262v-37h-14c-12 0 -82 -68 -89 -84l-184 -578l-62 -41l-173 528h-6zM529 931h86
l103 -154h-50l-96 73l-96 -73h-50z" />
    <glyph glyph-name="wcircumflex" unicode="&#x175;" horiz-adv-x="775" 
d="M570 181l76 205c-1 16 -21 58 -34 58h-35v35h193v-35h-17c-11 0 -46 -42 -55 -58l-142 -365l-47 -33l-121 333h-5l-106 -300l-51 -33l-153 397c-9 16 -44 59 -55 59h-13v35h269v-35h-32c-13 0 -32 -40 -33 -57l73 -205h4l75 217l87 80l118 -298h4zM375 713h86l94 -176
h-45l-92 86l-92 -86h-45z" />
    <glyph glyph-name="Ycircumflex" unicode="&#x176;" horiz-adv-x="708" 
d="M430 313v-216c0 -14 41 -60 52 -60h20v-37h-301v37h21c11 0 52 46 52 60v216l-163 298c-8 13 -73 80 -89 80h-12v37h347v-37h-36c-13 0 -46 -57 -48 -76l124 -236h6l127 233c-2 18 -31 79 -44 79h-36v37h248v-37h-10c-17 -3 -84 -64 -92 -80zM347 931h86l103 -154h-50
l-96 73l-96 -73h-50z" />
    <glyph glyph-name="ycircumflex" unicode="&#x177;" horiz-adv-x="551" 
d="M81 384l161 -356l-107 -208l55 -27l112 229l171 364c10 16 47 58 58 58h15v35h-189v-35h25c13 0 35 -39 34 -58l-99 -216h-6l-88 216c0 18 24 58 37 58h26v35h-276v-35h8c12 0 55 -45 63 -60zM262 713h86l94 -176h-45l-92 86l-92 -86h-45z" />
    <glyph glyph-name="Ydieresis" unicode="&#x178;" horiz-adv-x="708" 
d="M430 313v-216c0 -14 41 -60 52 -60h20v-37h-301v37h21c11 0 52 46 52 60v216l-163 298c-8 13 -73 80 -89 80h-12v37h347v-37h-36c-13 0 -46 -57 -48 -76l124 -236h6l127 233c-2 18 -31 79 -44 79h-36v37h248v-37h-10c-17 -3 -84 -64 -92 -80zM578 840
c0 -39 -31 -70 -71 -70s-72 31 -72 70c0 38 32 70 72 70s71 -32 71 -70zM364 840c0 -39 -31 -70 -71 -70s-72 31 -72 70c0 38 32 70 72 70s71 -32 71 -70z" />
    <glyph glyph-name="Zacute" unicode="&#x179;" horiz-adv-x="644" 
d="M409 679h-178c-20 0 -138 -136 -138 -153h-39l19 202h541l-411 -677h156c37 0 212 182 212 200h43l-36 -251h-558v41zM349 917h165l-192 -140h-48z" />
    <glyph glyph-name="zacute" unicode="&#x17a;" horiz-adv-x="469" 
d="M15 40l270 400h-126c-18 0 -94 -83 -94 -102h-31l6 141h414l-284 -433h116c32 0 136 102 137 120h31l-15 -166h-424v40zM267 713h156l-194 -176h-42z" />
    <glyph glyph-name="Zdotaccent" unicode="&#x17b;" horiz-adv-x="644" 
d="M409 679h-178c-20 0 -138 -136 -138 -153h-39l19 202h541l-411 -677h156c37 0 212 182 212 200h43l-36 -251h-558v41zM415 848c0 -43 -33 -77 -78 -77c-44 0 -78 34 -78 77s34 77 78 77c45 0 78 -34 78 -77z" />
    <glyph glyph-name="zdotaccent" unicode="&#x17c;" horiz-adv-x="469" 
d="M15 40l270 400h-126c-18 0 -94 -83 -94 -102h-31l6 141h414l-284 -433h116c32 0 136 102 137 120h31l-15 -166h-424v40zM336 633c0 -44 -37 -81 -83 -81s-83 37 -83 81s37 81 83 81s83 -37 83 -81z" />
    <glyph glyph-name="Zcaron" unicode="&#x17d;" horiz-adv-x="644" 
d="M409 679h-178c-20 0 -138 -136 -138 -153h-39l19 202h541l-411 -677h156c37 0 212 182 212 200h43l-36 -251h-558v41zM397 777h-96l-99 154h50l97 -76l97 76h50z" />
    <glyph glyph-name="zcaron" unicode="&#x17e;" horiz-adv-x="469" 
d="M15 40l270 400h-126c-18 0 -94 -83 -94 -102h-31l6 141h414l-284 -433h116c32 0 136 102 137 120h31l-15 -166h-424v40zM303 537h-96l-94 176h45l97 -94l97 94h45z" />
    <glyph glyph-name="florin" unicode="&#x192;" horiz-adv-x="447" 
d="M291 398v-604l-130 -11v615c-3 11 -21 33 -29 33h-127l35 48h121v53c0 120 95 209 203 209c45 0 78 -32 78 -73c0 -35 -21 -62 -59 -72h-29c-32 6 -58 35 -58 66h-28c-11 -7 -35 -34 -35 -58c0 -48 59 -60 58 -109v-16h148v-48h-119c-9 0 -27 -22 -29 -33z" />
    <glyph glyph-name="Aringacute" unicode="&#x1fa;" horiz-adv-x="752" 
d="M482 102l-45 109h-231l-40 -108c3 -17 35 -66 50 -66h34v-37h-240v37h13c14 1 69 48 80 66l228 603l60 35l262 -639c12 -16 61 -65 75 -65h14v-37h-349v37h35c15 1 54 48 54 65zM255 865c0 59 54 108 111 108c58 0 110 -49 110 -108c0 -61 -52 -108 -110 -108
c-57 0 -111 47 -111 108zM320 521h-4l-94 -260h196zM389 1136h165l-192 -140h-48zM309 865c0 -34 23 -57 57 -57c33 0 56 23 56 57c0 33 -23 56 -56 56c-34 0 -57 -23 -57 -56z" />
    <glyph glyph-name="aringacute" unicode="&#x1fb;" horiz-adv-x="562" 
d="M431 -9c-53 -1 -82 40 -93 87h-5c-23 -31 -85 -89 -144 -89c-79 0 -138 56 -138 133c0 95 90 128 156 142l116 24v58c0 50 -35 89 -104 89c-48 0 -80 -31 -75 -74s-34 -70 -84 -62l-21 22c0 118 113 169 207 169c115 0 204 -56 204 -151v-229c0 -16 24 -37 38 -37
c9 0 35 27 44 39l26 -26c-14 -22 -79 -94 -127 -95zM147 632c0 59 52 107 109 107c58 0 108 -48 108 -107c0 -61 -50 -107 -108 -107c-57 0 -109 46 -109 107zM324 141v107l-90 -25c-47 -13 -78 -39 -78 -85c0 -41 35 -72 76 -72c38 0 74 42 92 75zM284 946h156l-194 -176
h-42zM200 632c0 -31 25 -56 56 -56c30 0 55 25 55 56c0 30 -25 55 -55 55c-31 0 -56 -25 -56 -55z" />
    <glyph glyph-name="AEacute" unicode="&#x1fc;" horiz-adv-x="1020" 
d="M350 706l59 22h513v-199h-37c0 20 -107 151 -124 151h-303c-6 0 -19 -17 -17 -23l97 -258h144c15 0 79 60 79 75v16h42v-239h-42v23c0 16 -63 76 -78 76h-127l107 -278c2 -6 22 -22 27 -22h71c38 0 194 166 194 188h40l-46 -238h-554v37h32c15 1 54 48 54 65l-38 109
h-235l-42 -108c3 -17 34 -66 49 -66h34v-37h-239v37h13c14 1 69 48 80 66zM335 521h-4l-103 -260h198zM627 917h165l-192 -140h-48z" />
    <glyph glyph-name="aeacute" unicode="&#x1fd;" horiz-adv-x="807" 
d="M749 262l-308 -18c2 -83 63 -161 147 -161c67 0 122 31 160 85h39c-39 -110 -128 -179 -231 -179c-90 0 -153 39 -191 98h-22c-23 -31 -89 -95 -162 -95c-79 0 -138 56 -138 133c0 95 86 126 152 136l121 16v69c0 50 -33 91 -102 91c-59 0 -80 -25 -74 -68
c5 -38 -31 -70 -79 -66l-21 21c0 121 115 166 209 166c71 0 123 -21 151 -59c42 38 98 59 163 59c138 -1 194 -116 194 -195zM441 286l192 13c3 57 -10 146 -86 146c-80 0 -108 -86 -106 -159zM319 138v98l-94 -14c-50 -9 -78 -33 -78 -81c0 -44 42 -77 85 -72
c33 4 76 46 87 69zM445 713h156l-194 -176h-42z" />
    <glyph glyph-name="Oslashacute" unicode="&#x1fe;" horiz-adv-x="846" 
d="M426 -13c-79 0 -151 23 -212 62l-66 -87l-51 39l66 87c-76 69 -123 167 -123 274c0 216 165 379 380 379c73 0 142 -20 200 -55l66 86l51 -39l-65 -85c82 -69 134 -171 134 -282c0 -216 -165 -379 -380 -379zM427 47c119 0 191 74 209 200c9 65 9 154 0 218
c-5 36 -15 69 -29 98l-337 -441c37 -47 90 -75 157 -75zM419 686c-117 0 -189 -75 -207 -200c-9 -65 -9 -154 0 -218c4 -31 12 -60 23 -86l334 437c-37 42 -88 67 -150 67zM462 917h165l-192 -140h-48z" />
    <glyph glyph-name="oslashacute" unicode="&#x1ff;" horiz-adv-x="583" 
d="M140 37l-42 -47l-37 32l42 48c-39 42 -63 98 -63 168c0 152 128 253 252 253c52 0 102 -16 144 -44l37 43l38 -33l-37 -42c42 -43 69 -103 69 -175c0 -154 -120 -252 -250 -252c-55 0 -109 17 -153 49zM291 43c65 0 115 58 123 131c5 45 5 111 0 155l-3 15l-220 -249
c21 -34 57 -52 100 -52zM296 442c-66 0 -116 -59 -124 -132c-5 -45 -6 -111 -1 -155l1 -6l218 247c-21 30 -54 46 -94 46zM328 713h156l-194 -176h-42z" />
    <glyph glyph-name="uni0218" unicode="&#x218;" horiz-adv-x="625" 
d="M520 728v-225h-39c-1 36 -105 185 -204 187c-69 1 -115 -32 -115 -92c0 -47 48 -86 86 -105c56 -28 122 -56 183 -81c93 -38 144 -106 144 -206c0 -131 -107 -219 -239 -219c-68 0 -119 39 -182 39c-23 0 -43 -8 -55 -26h-37v236h39c1 -39 136 -193 235 -193
c75 0 126 38 126 99c0 64 -52 90 -95 106c-63 24 -123 50 -182 82c-84 45 -135 113 -135 206c0 119 97 205 223 205c61 0 105 -31 160 -31c18 0 41 3 51 18h36zM372 -103v-28c1 -81 -68 -123 -123 -131v41c37 4 72 26 75 56h-31c-28 7 -51 33 -51 62c0 34 29 64 65 64
s65 -30 65 -64z" />
    <glyph glyph-name="uni0219" unicode="&#x219;" horiz-adv-x="466" 
d="M58 166h29c0 -32 96 -125 171 -125c44 0 73 19 73 54c0 37 -35 55 -70 67c-37 13 -69 25 -107 43c-66 31 -107 77 -107 139c0 91 69 146 159 146c47 0 90 -25 124 -25c9 0 23 6 28 14h27v-152h-29c0 29 -84 117 -151 117c-45 0 -72 -21 -72 -55c0 -32 39 -51 75 -68
s70 -30 108 -44c59 -22 107 -65 107 -138c0 -93 -73 -152 -177 -150c-52 1 -98 28 -129 28c-11 0 -26 -8 -32 -17h-27v166zM297 -103v-28c1 -81 -68 -123 -123 -131v41c37 4 72 26 75 56h-31c-28 7 -51 33 -51 62c0 34 29 64 65 64s65 -30 65 -64z" />
    <glyph glyph-name="uni021A" unicode="&#x21a;" horiz-adv-x="725" 
d="M535 680l-93 -1v-582c0 -14 43 -60 54 -60h49v-37h-368v37h49c11 0 55 46 55 60v582l-91 1c-25 1 -129 -181 -141 -201h-39s17 138 17 262h38c18 -11 104 -13 127 -13h342c23 0 102 2 126 13h38c0 -124 17 -262 17 -262h-39c-12 20 -116 202 -141 201zM427 -103v-28
c1 -81 -68 -123 -123 -131v41c37 4 72 26 75 56h-31c-28 7 -51 33 -51 62c0 34 29 64 65 64s65 -30 65 -64z" />
    <glyph glyph-name="uni021B" unicode="&#x21b;" horiz-adv-x="377" 
d="M222 422v-306c0 -19 29 -46 46 -46c25 0 67 42 76 52l28 -31c-16 -23 -95 -102 -159 -103s-120 50 -120 114v286c0 11 -24 36 -34 36h-54v55h28c32 0 157 154 157 182h28v-182h123v-57h-119zM284 -103v-28c1 -81 -68 -123 -123 -131v41c37 4 72 26 75 56h-31
c-28 7 -51 33 -51 62c0 34 29 64 65 64s65 -30 65 -64z" />
    <glyph glyph-name="circumflex" unicode="&#x2c6;" horiz-adv-x="500" 
d="M207 713h86l94 -176h-45l-92 86l-92 -86h-45z" />
    <glyph glyph-name="caron" unicode="&#x2c7;" horiz-adv-x="500" 
d="M298 537h-96l-94 176h45l97 -94l97 94h45z" />
    <glyph glyph-name="breve" unicode="&#x2d8;" horiz-adv-x="500" 
d="M251 536c-101 0 -154 75 -151 156l35 6c0 -51 49 -79 114 -79c66 0 117 27 116 79l35 -6c3 -81 -49 -156 -149 -156z" />
    <glyph glyph-name="dotaccent" unicode="&#x2d9;" horiz-adv-x="500" 
d="M333 633c0 -44 -37 -81 -83 -81s-83 37 -83 81s37 81 83 81s83 -37 83 -81z" />
    <glyph glyph-name="ring" unicode="&#x2da;" horiz-adv-x="500" 
d="M142 636c0 59 52 107 109 107c58 0 108 -48 108 -107c0 -61 -50 -107 -108 -107c-57 0 -109 46 -109 107zM195 636c0 -31 25 -56 56 -56c30 0 55 25 55 56c0 30 -25 55 -55 55c-31 0 -56 -25 -56 -55z" />
    <glyph glyph-name="ogonek" unicode="&#x2db;" 
d="M196 0h52c-21 -24 -67 -79 -67 -119c0 -16 24 -37 38 -37c9 0 35 25 45 35l26 -26c-29 -35 -65 -84 -117 -84c-58 0 -98 45 -94 92c4 49 90 121 117 139z" />
    <glyph glyph-name="tilde" unicode="&#x2dc;" horiz-adv-x="500" 
d="M413 587l-29 -23c-10 23 -21 41 -54 40c-52 -3 -83 -53 -145 -53c-56 0 -96 41 -99 104l28 23c6 -23 31 -40 55 -40c63 0 84 52 145 52c56 0 97 -41 99 -103z" />
    <glyph glyph-name="hungarumlaut" unicode="&#x2dd;" horiz-adv-x="500" 
d="M370 713h141l-179 -176h-46zM192 713h137l-167 -176h-44z" />
    <glyph glyph-name="pi" unicode="&#x3c0;" horiz-adv-x="649" 
d="M138 92v309h-88l36 78h504v-78h-62v-309c0 -17 36 -56 48 -56h23v-36h-243v36h8c13 0 41 38 41 56v309h-144v-309c0 -17 26 -56 38 -56h8v-36h-232v36h12c13 0 51 38 51 56z" />
    <glyph glyph-name="Wgrave" unicode="&#x1e80;" horiz-adv-x="1062" 
d="M524 516l-142 -487l-61 -41l-222 618c-6 17 -64 85 -77 85h-12v37h343v-37h-38c-14 0 -51 -64 -52 -83l121 -362h3l101 355l121 146l166 -501h3l109 362c0 19 -44 83 -56 83h-41v37h262v-37h-14c-12 0 -82 -68 -89 -84l-184 -578l-62 -41l-173 528h-6zM418 917h165
l51 -140h-49z" />
    <glyph glyph-name="wgrave" unicode="&#x1e81;" horiz-adv-x="775" 
d="M570 181l76 205c-1 16 -21 58 -34 58h-35v35h193v-35h-17c-11 0 -46 -42 -55 -58l-142 -365l-47 -33l-121 333h-5l-106 -300l-51 -33l-153 397c-9 16 -44 59 -55 59h-13v35h269v-35h-32c-13 0 -32 -40 -33 -57l73 -205h4l75 217l87 80l118 -298h4zM262 713h150l50 -176
h-42z" />
    <glyph glyph-name="Wacute" unicode="&#x1e82;" horiz-adv-x="1062" 
d="M524 516l-142 -487l-61 -41l-222 618c-6 17 -64 85 -77 85h-12v37h343v-37h-38c-14 0 -51 -64 -52 -83l121 -362h3l101 355l121 146l166 -501h3l109 362c0 19 -44 83 -56 83h-41v37h262v-37h-14c-12 0 -82 -68 -89 -84l-184 -578l-62 -41l-173 528h-6zM606 917h165
l-192 -140h-48z" />
    <glyph glyph-name="wacute" unicode="&#x1e83;" horiz-adv-x="775" 
d="M570 181l76 205c-1 16 -21 58 -34 58h-35v35h193v-35h-17c-11 0 -46 -42 -55 -58l-142 -365l-47 -33l-121 333h-5l-106 -300l-51 -33l-153 397c-9 16 -44 59 -55 59h-13v35h269v-35h-32c-13 0 -32 -40 -33 -57l73 -205h4l75 217l87 80l118 -298h4zM463 713h156l-194 -176
h-42z" />
    <glyph glyph-name="Wdieresis" unicode="&#x1e84;" horiz-adv-x="1062" 
d="M524 516l-142 -487l-61 -41l-222 618c-6 17 -64 85 -77 85h-12v37h343v-37h-38c-14 0 -51 -64 -52 -83l121 -362h3l101 355l121 146l166 -501h3l109 362c0 19 -44 83 -56 83h-41v37h262v-37h-14c-12 0 -82 -68 -89 -84l-184 -578l-62 -41l-173 528h-6zM754 840
c0 -39 -31 -70 -71 -70s-72 31 -72 70c0 38 32 70 72 70s71 -32 71 -70zM540 840c0 -39 -31 -70 -71 -70s-72 31 -72 70c0 38 32 70 72 70s71 -32 71 -70z" />
    <glyph glyph-name="wdieresis" unicode="&#x1e85;" horiz-adv-x="775" 
d="M570 181l76 205c-1 16 -21 58 -34 58h-35v35h193v-35h-17c-11 0 -46 -42 -55 -58l-142 -365l-47 -33l-121 333h-5l-106 -300l-51 -33l-153 397c-9 16 -44 59 -55 59h-13v35h269v-35h-32c-13 0 -32 -40 -33 -57l73 -205h4l75 217l87 80l118 -298h4zM581 616
c0 -34 -28 -62 -63 -62s-63 28 -63 62s28 62 63 62s63 -28 63 -62zM373 616c0 -34 -28 -62 -63 -62s-63 28 -63 62s28 62 63 62s63 -28 63 -62z" />
    <glyph glyph-name="Ygrave" unicode="&#x1ef2;" horiz-adv-x="708" 
d="M430 313v-216c0 -14 41 -60 52 -60h20v-37h-301v37h21c11 0 52 46 52 60v216l-163 298c-8 13 -73 80 -89 80h-12v37h347v-37h-36c-13 0 -46 -57 -48 -76l124 -236h6l127 233c-2 18 -31 79 -44 79h-36v37h248v-37h-10c-17 -3 -84 -64 -92 -80zM228 917h165l51 -140h-49z
" />
    <glyph glyph-name="ygrave" unicode="&#x1ef3;" horiz-adv-x="551" 
d="M81 384l161 -356l-107 -208l55 -27l112 229l171 364c10 16 47 58 58 58h15v35h-189v-35h25c13 0 35 -39 34 -58l-99 -216h-6l-88 216c0 18 24 58 37 58h26v35h-276v-35h8c12 0 55 -45 63 -60zM156 713h150l50 -176h-42z" />
    <glyph glyph-name="endash" unicode="&#x2013;" horiz-adv-x="610" 
d="M25 330h560v-91h-560v91z" />
    <glyph glyph-name="emdash" unicode="&#x2014;" horiz-adv-x="890" 
d="M5 330h880v-79h-880v79z" />
    <glyph glyph-name="quoteleft" unicode="&#x2018;" horiz-adv-x="258" 
d="M60 546v30c0 113 96 159 177 151l1 -39c-60 7 -121 -26 -119 -73h30c34 -7 59 -35 59 -70c0 -39 -31 -70 -73 -70c-40 0 -75 31 -75 71z" />
    <glyph glyph-name="quoteright" unicode="&#x2019;" horiz-adv-x="260" 
d="M198 657v-30c0 -113 -96 -159 -177 -151l-1 39c60 -7 121 26 119 73h-30c-34 7 -59 35 -59 70c0 39 31 70 73 70c40 0 75 -31 75 -71z" />
    <glyph glyph-name="quotesinglbase" unicode="&#x201a;" horiz-adv-x="258" 
d="M198 69v-30c0 -113 -96 -159 -177 -151l-1 39c60 -7 121 26 119 73h-30c-34 7 -59 35 -59 70c0 39 31 70 73 70c40 0 75 -31 75 -71z" />
    <glyph glyph-name="quotedblleft" unicode="&#x201c;" horiz-adv-x="434" 
d="M238 548v29c0 112 95 158 175 150l1 -39c-59 7 -120 -26 -118 -72h30c34 -7 58 -35 58 -69c0 -39 -30 -70 -72 -70c-39 0 -74 31 -74 71zM60 548v29c0 101 74 149 149 151l1 -39c-51 -3 -95 -34 -93 -73h31c33 -7 57 -35 57 -69c0 -39 -31 -70 -72 -70
c-38 0 -73 31 -73 71z" />
    <glyph glyph-name="quotedblright" unicode="&#x201d;" horiz-adv-x="434" 
d="M196 657v-29c0 -112 -95 -158 -175 -150l-1 39c59 -7 120 26 118 72h-30c-34 7 -58 35 -58 69c0 39 30 70 72 70c39 0 74 -31 74 -71zM374 657v-29c0 -101 -74 -149 -149 -151l-1 39c51 3 95 34 93 73h-31c-33 7 -57 35 -57 69c0 39 31 70 72 70c38 0 73 -31 73 -71z" />
    <glyph glyph-name="quotedblbase" unicode="&#x201e;" horiz-adv-x="434" 
d="M196 68v-29c0 -112 -95 -158 -175 -150l-1 39c59 -7 120 26 118 72h-30c-34 7 -58 35 -58 69c0 39 30 70 72 70c39 0 74 -31 74 -71zM374 68v-29c0 -101 -74 -149 -149 -151l-1 39c51 3 95 34 93 73h-31c-33 7 -57 35 -57 69c0 39 31 70 72 70c38 0 73 -31 73 -71z" />
    <glyph glyph-name="dagger" unicode="&#x2020;" horiz-adv-x="515" 
d="M58 526l182 -33l-33 234l51 15l49 -15l-33 -234l183 33l18 -47l-18 -49l-182 32l25 -462v-99h-86v99l25 462l-181 -32l-18 49z" />
    <glyph glyph-name="daggerdbl" unicode="&#x2021;" horiz-adv-x="515" 
d="M300 251l-25 -71l182 32l18 -49l-18 -47l-183 33l33 -234l-49 -15l-51 15l33 234l-182 -33l-18 47l18 49l181 -32l-25 71l25 211l-181 -32l-18 49l18 47l182 -33l-33 234l51 15l49 -15l-33 -234l183 33l18 -47l-18 -49l-182 32z" />
    <glyph glyph-name="bullet" unicode="&#x2022;" horiz-adv-x="376" 
d="M188 534c77 0 138 -60 138 -136s-61 -136 -138 -136s-138 60 -138 136s61 136 138 136z" />
    <glyph glyph-name="ellipsis" unicode="&#x2026;" horiz-adv-x="806" 
d="M222 79c0 -43 -36 -79 -81 -79s-81 36 -81 79s36 79 81 79s81 -36 81 -79zM751 62c0 -34 -28 -62 -63 -62s-63 28 -63 62s28 62 63 62s63 -28 63 -62zM497 70c0 -39 -30 -70 -71 -70c-40 0 -71 31 -71 70s31 70 71 70c41 0 71 -31 71 -70z" />
    <glyph glyph-name="perthousand" unicode="&#x2030;" horiz-adv-x="1001" 
d="M645 728h79l-446 -514h-79zM793 -11c-49 0 -95 21 -127 58c-32 -37 -78 -58 -126 -58c-87 0 -169 67 -169 180c0 109 84 174 169 174c47 0 94 -21 126 -57c32 37 79 57 127 57c85 0 168 -65 168 -174c0 -113 -81 -180 -168 -180zM212 438c43 0 70 31 74 85
c2 30 2 58 0 87c-4 54 -35 83 -75 83c-45 0 -71 -29 -75 -84c-2 -29 -2 -57 0 -86c4 -53 34 -85 76 -85zM211 387c-87 0 -171 67 -171 180c0 109 86 174 171 174s168 -66 168 -175c0 -113 -81 -179 -168 -179zM541 40c43 0 70 31 74 85c2 30 2 58 0 87c-4 54 -35 83 -75 83
c-45 0 -71 -29 -75 -84c-2 -29 -2 -57 0 -86c4 -53 34 -85 76 -85zM793 40c43 0 70 31 74 85c2 30 2 58 0 87c-4 54 -35 83 -75 83c-45 0 -71 -29 -75 -84c-2 -29 -2 -57 0 -86c4 -53 34 -85 76 -85z" />
    <glyph glyph-name="guilsinglleft" unicode="&#x2039;" horiz-adv-x="360" 
d="M112 308l203 -170v-92l-280 236v51l280 236v-92z" />
    <glyph glyph-name="guilsinglright" unicode="&#x203a;" horiz-adv-x="360" 
d="M45 138l203 170l-203 169v92l280 -236v-51l-280 -236v92z" />
    <glyph glyph-name="interrobang" unicode="&#x203d;" horiz-adv-x="467" 
d="M61 289c0 53 43 87 95 115l-106 257c0 48 36 79 81 79c38 0 70 -23 79 -59c21 35 63 58 110 58c81 0 142 -52 142 -136c0 -129 -128 -183 -225 -222l7 -91c0 -57 -41 -92 -94 -92c-50 0 -89 39 -89 91zM356 575c0 42 -29 72 -70 72c-38 0 -67 -28 -67 -65l13 -140
c64 33 124 68 124 133zM200 294l-23 59c-29 -16 -48 -34 -48 -58c0 -21 15 -35 35 -35c18 0 36 13 36 34zM96 73c0 -40 34 -73 75 -73s75 33 75 73s-34 73 -75 73s-75 -33 -75 -73z" />
    <glyph glyph-name="fraction" unicode="&#x2044;" horiz-adv-x="610" 
d="M510 728h80l-491 -728h-79z" />
    <glyph glyph-name="zero.sups" unicode="&#x2070;" 
d="M199 932c99 0 172 -92 172 -200s-73 -208 -171 -208s-170 100 -170 203s70 205 169 205zM200 568c38 0 72 34 76 109c2 33 2 87 0 120c-3 66 -28 95 -77 95c-38 0 -72 -32 -76 -107c-2 -33 -2 -86 0 -120c3 -65 31 -97 77 -97z" />
    <glyph glyph-name="four.sups" unicode="&#x2074;" 
d="M196 596v23h-172v36l207 257l59 18v-265h50v-46h-50v-23c0 -10 21 -33 30 -33h16v-30h-184v30h14c7 0 30 23 30 33zM196 662v142l-117 -142h117z" />
    <glyph glyph-name="five.sups" unicode="&#x2075;" 
d="M299 930l17 -65s5 -7 -193 -3l-20 -97c33 24 69 47 118 47c73 0 121 -40 121 -107c0 -117 -164 -184 -275 -186l-4 44c81 4 196 48 196 124c0 43 -24 69 -74 69c-32 0 -70 -22 -97 -38l-27 16l32 190h34c178 0 172 6 172 6z" />
    <glyph glyph-name="six.sups" unicode="&#x2076;" 
d="M278 935l12 -37c-108 2 -170 -77 -167 -149c15 24 49 52 106 52c67 0 131 -51 131 -136c0 -76 -57 -140 -146 -140c-101 0 -165 90 -165 197c0 130 109 216 229 213zM138 684c0 -65 34 -113 82 -113c39 0 61 26 61 68c0 65 -35 109 -83 109c-39 0 -60 -32 -60 -64z" />
    <glyph glyph-name="seven.sups" unicode="&#x2077;" 
d="M184 533h-101c80 171 200 308 217 325c0 0 -27 -5 -180 -3c-10 0 -45 -38 -45 -38h-30l39 107h274l15 -24l-32 -42c-20 -27 -149 -280 -157 -325z" />
    <glyph glyph-name="eight.sups" unicode="&#x2078;" 
d="M288 614c0 46 -71 59 -119 87c-34 -15 -64 -36 -64 -77c0 -37 47 -57 92 -57c55 0 91 17 91 47zM226 775c26 13 49 31 49 57c0 39 -32 63 -82 63c-37 0 -63 -20 -63 -46c0 -34 43 -52 96 -74zM138 726c-51 23 -81 60 -81 103c0 64 68 103 143 103c71 0 139 -35 139 -96
c0 -45 -43 -69 -78 -82c52 -22 102 -52 102 -115c0 -68 -73 -116 -171 -116c-72 0 -154 31 -154 99c0 56 61 90 100 104z" />
    <glyph glyph-name="nine.sups" unicode="&#x2079;" 
d="M120 520l-12 38c108 -2 172 78 169 150c-15 -24 -49 -52 -106 -52c-67 0 -131 51 -131 136c0 76 57 140 146 140c101 0 165 -90 165 -197c0 -130 -111 -218 -231 -215zM262 776c0 65 -34 113 -82 113c-39 0 -61 -26 -61 -68c0 -65 35 -109 83 -109c39 0 60 32 60 64z" />
    <glyph glyph-name="zero.sinf" unicode="&#x2080;" 
d="M199 204c99 0 172 -92 172 -200s-73 -208 -171 -208s-170 100 -170 203s70 205 169 205zM200 -160c38 0 72 34 76 109c2 33 2 87 0 120c-3 66 -28 95 -77 95c-38 0 -72 -32 -76 -107c-2 -33 -2 -86 0 -120c3 -65 31 -97 77 -97z" />
    <glyph glyph-name="one.sinf" unicode="&#x2081;" horiz-adv-x="392" 
d="M250 196v-323c0 -10 22 -33 29 -33h33v-35h-222v35h34c7 0 30 23 30 33v198c0 9 -18 27 -25 27h-42v28c70 25 131 70 131 70h32z" />
    <glyph glyph-name="two.sinf" unicode="&#x2082;" 
d="M114 -126h162c8 0 37 28 37 28h28l-38 -97h-254v34c13 57 67 105 149 170c22 18 40 43 40 74c0 38 -26 64 -69 64c-35 0 -67 -29 -89 -57l-32 28c27 39 83 85 146 87c79 2 136 -47 136 -118c0 -63 -62 -109 -102 -132s-85 -40 -114 -81z" />
    <glyph glyph-name="three.sinf" unicode="&#x2083;" 
d="M130 6v31l50 18c26 16 36 29 36 54c-1 27 -23 43 -50 42c-29 0 -62 -22 -89 -42l-18 33c42 32 94 63 150 63c43 0 86 -23 88 -72c0 -46 -36 -72 -72 -87c34 1 99 -14 103 -74c7 -115 -172 -177 -241 -180l-9 46c42 6 155 30 156 111c1 52 -47 63 -104 57z" />
    <glyph glyph-name="four.sinf" unicode="&#x2084;" 
d="M196 -132v23h-172v36l207 257l59 18v-265h50v-46h-50v-23c0 -10 21 -33 30 -33h16v-30h-184v30h14c7 0 30 23 30 33zM196 -66v142l-117 -142h117z" />
    <glyph glyph-name="five.sinf" unicode="&#x2085;" 
d="M299 202l17 -65s5 -7 -193 -3l-20 -97c33 24 69 47 118 47c73 0 121 -40 121 -107c0 -117 -164 -184 -275 -186l-4 44c81 4 196 48 196 124c0 43 -24 69 -74 69c-32 0 -70 -22 -97 -38l-27 16l32 190h34c178 0 172 6 172 6z" />
    <glyph glyph-name="six.sinf" unicode="&#x2086;" 
d="M278 207l12 -37c-108 2 -170 -77 -167 -149c15 24 49 52 106 52c67 0 131 -51 131 -136c0 -76 -57 -140 -146 -140c-101 0 -165 90 -165 197c0 130 109 216 229 213zM138 -44c0 -65 34 -113 82 -113c39 0 61 26 61 68c0 65 -35 109 -83 109c-39 0 -60 -32 -60 -64z" />
    <glyph glyph-name="seven.sinf" unicode="&#x2087;" 
d="M184 -195h-101c80 171 200 308 217 325c0 0 -27 -5 -180 -3c-10 0 -45 -38 -45 -38h-30l39 107h274l15 -24l-32 -42c-20 -27 -149 -280 -157 -325z" />
    <glyph glyph-name="eight.sinf" unicode="&#x2088;" 
d="M288 -113c0 46 -71 59 -119 87c-34 -15 -64 -36 -64 -77c0 -37 47 -57 92 -57c55 0 91 17 91 47zM226 48c26 13 49 31 49 57c0 39 -32 63 -82 63c-37 0 -63 -20 -63 -46c0 -34 43 -52 96 -74zM138 -1c-51 23 -81 60 -81 103c0 64 68 103 143 103c71 0 139 -35 139 -96
c0 -45 -43 -69 -78 -82c52 -22 102 -52 102 -115c0 -68 -73 -116 -171 -116c-72 0 -154 31 -154 99c0 56 61 90 100 104z" />
    <glyph glyph-name="nine.sinf" unicode="&#x2089;" 
d="M120 -207l-12 38c108 -2 172 78 169 150c-15 -24 -49 -52 -106 -52c-67 0 -131 51 -131 136c0 76 57 140 146 140c101 0 165 -90 165 -197c0 -130 -111 -218 -231 -215zM262 49c0 65 -34 113 -82 113c-39 0 -61 -26 -61 -68c0 -65 35 -109 83 -109c39 0 60 32 60 64z" />
    <glyph glyph-name="Euro" unicode="&#x20ac;" horiz-adv-x="701" 
d="M403 691c-93 0 -166 -58 -166 -229v-23h236v-47h-237v-45h271v-47h-270v-25c0 -144 77 -223 180 -223c96 0 154 54 184 137h60c-37 -105 -101 -196 -266 -200c-162 -3 -278 139 -302 311h-53v47h52v45h-52v47h54c25 177 135 302 304 302c63 0 107 -31 156 -31
c17 0 32 4 45 18h41v-238h-43c-1 32 -78 201 -194 201z" />
    <glyph glyph-name="trademark" unicode="&#x2122;" horiz-adv-x="989" 
d="M263 698v-322c0 -8 20 -34 27 -34h30v-29h-207v29h20c6 0 31 26 31 34v322h-35c-12 0 -79 -126 -86 -137h-23c9 62 13 170 13 170l96 -3h170l97 3s5 -105 12 -170h-23c-7 11 -76 137 -86 137h-36zM661 301l-145 339v-264c0 -8 24 -34 30 -34h15v-29h-148v29h33
c6 0 29 26 29 34v290c0 9 -24 34 -30 34h-11v28h148l109 -261l107 261h151v-28h-19c-7 0 -31 -26 -31 -34v-290c0 -8 23 -34 30 -34h19v-29h-188v29h14c7 0 30 26 30 34v265z" />
    <glyph glyph-name="uni2126" unicode="&#x2126;" horiz-adv-x="704" 
d="M352 689c-85 0 -155 -51 -170 -177c-7 -61 -5 -147 3 -209c15 -120 119 -195 137 -210v-93h-200l-51 148h41s49 -48 64 -48h76c-85 52 -202 159 -202 313c0 179 127 325 302 325s302 -146 302 -325c0 -154 -117 -261 -202 -313h76c15 0 64 48 64 48h41l-51 -148h-200v93
c18 15 122 90 137 210c8 62 10 148 3 209c-15 126 -85 177 -170 177z" />
    <glyph glyph-name="partialdiff" unicode="&#x2202;" horiz-adv-x="614" 
d="M284 682c-69 0 -133 -90 -133 -135h-37v152c41 22 92 42 184 42c177 0 266 -151 266 -347c0 -201 -122 -405 -296 -405c-129 0 -218 89 -218 225c0 135 93 276 240 276c77 0 131 -44 162 -94c26 166 -50 286 -168 286zM423 298c0 61 -32 118 -112 120
c-98 2 -160 -116 -160 -241c0 -61 36 -118 111 -119c87 -1 161 112 161 240z" />
    <glyph glyph-name="uni2206" unicode="&#x2206;" horiz-adv-x="714" 
d="M580 100l-223 583l-223 -583h446zM304 728h106l244 -629l-20 -99h-554l-20 99z" />
    <glyph glyph-name="product" unicode="&#x220f;" horiz-adv-x="763" 
d="M50 728h663v-37h-15c-12 0 -55 -46 -55 -60v-740c0 -16 39 -60 53 -60h15v-37h-291v37h36c13 0 57 44 57 60v783h-261v-783c0 -16 44 -60 57 -60h36v-37h-295v37h16c13 0 53 44 53 60v740c0 14 -46 60 -55 60h-14v37z" />
    <glyph glyph-name="summation" unicode="&#x2211;" horiz-adv-x="638" 
d="M413 284v-46l-240 -395h248c20 0 138 136 138 153h39l-19 -202h-569l273 467l-273 467h569l19 -202h-39c0 17 -118 153 -138 153h-242z" />
    <glyph glyph-name="minus" unicode="&#x2212;" horiz-adv-x="640" 
d="M48 326h544v-75h-544v75z" />
    <glyph glyph-name="radical" unicode="&#x221a;" horiz-adv-x="708" 
d="M127 315h-97l31 78h169l147 -460l239 836h72l-273 -938l-111 -37z" />
    <glyph glyph-name="infinity" unicode="&#x221e;" horiz-adv-x="738" 
d="M369 345c35 45 94 91 164 96c89 4 165 -60 165 -163c0 -102 -78 -166 -167 -162c-70 5 -128 52 -162 96c-34 -44 -93 -91 -163 -96c-89 -4 -166 60 -166 162c0 103 77 167 166 163c70 -5 128 -51 163 -96zM414 279c25 -44 64 -93 117 -95c54 -2 95 36 95 94
c0 57 -41 98 -95 96c-53 -2 -92 -53 -117 -95zM323 279c-25 42 -63 94 -117 96s-94 -40 -94 -97c0 -58 40 -96 94 -94s92 51 117 95z" />
    <glyph glyph-name="integral" unicode="&#x222b;" horiz-adv-x="528" 
d="M204 28v541c0 120 103 209 211 209c45 0 78 -32 78 -73c0 -35 -21 -62 -59 -72h-29c-32 6 -58 35 -58 66h-36c-11 -7 -35 -34 -35 -58c0 -48 58 -60 58 -109v-541c0 -120 -103 -209 -211 -209c-45 0 -78 32 -78 73c0 35 21 62 59 72h29c32 -6 58 -35 58 -66h36
c11 7 35 34 35 58c0 48 -58 60 -58 109z" />
    <glyph glyph-name="therefore" unicode="&#x2234;" horiz-adv-x="755" 
d="M458 557c0 -43 -36 -79 -81 -79s-81 36 -81 79s36 79 81 79s81 -36 81 -79zM715 62c0 -34 -28 -62 -63 -62s-63 28 -63 62s28 62 63 62s63 -28 63 -62zM182 70c0 -39 -30 -70 -71 -70c-40 0 -71 31 -71 70s31 70 71 70c41 0 71 -31 71 -70z" />
    <glyph glyph-name="because" unicode="&#x2235;" horiz-adv-x="755" 
d="M297 79c0 43 36 79 81 79s81 -36 81 -79s-36 -79 -81 -79s-81 36 -81 79zM40 574c0 34 28 62 63 62s63 -28 63 -62s-28 -62 -63 -62s-63 28 -63 62zM573 566c0 39 30 70 71 70c40 0 71 -31 71 -70s-31 -70 -71 -70c-41 0 -71 31 -71 70z" />
    <glyph glyph-name="approxequal" unicode="&#x2248;" horiz-adv-x="548" 
d="M165 440c105 0 168 -71 234 -71c45 0 78 27 77 64l41 -8c1 -73 -32 -141 -134 -141c-87 0 -156 71 -234 71c-45 0 -78 -27 -77 -64l-41 8c-1 72 35 141 134 141zM165 266c105 0 168 -71 234 -71c45 0 78 27 77 64l41 -8c1 -73 -32 -141 -134 -141c-87 0 -156 71 -234 71
c-45 0 -78 -27 -77 -64l-41 8c-1 72 35 141 134 141z" />
    <glyph glyph-name="notequal" unicode="&#x2260;" horiz-adv-x="640" 
d="M48 242h195l64 95h-259v77h311l126 187h76l-126 -187h157v-77h-208l-64 -95h272v-77h-323l-111 -165h-77l111 165h-144v77z" />
    <glyph glyph-name="lessequal" unicode="&#x2264;" horiz-adv-x="500" 
d="M35 70l302 -1l-307 205v51l440 273v-87l-347 -211l295 -203v-97h-383v70z" />
    <glyph glyph-name="greaterequal" unicode="&#x2265;" horiz-adv-x="500" 
d="M162 69l303 1v-70h-383v97l295 203l-347 211v87l440 -273v-51z" />
    <glyph glyph-name="lozenge" unicode="&#x25ca;" horiz-adv-x="574" 
d="M340 0h-106l-174 364l174 364h106l174 -364zM287 45l152 319l-152 319l-152 -319z" />
    <glyph glyph-name="commaaccent" unicode="&#xf6c3;" horiz-adv-x="251" 
d="M190 -103v-28c1 -81 -68 -123 -123 -131v41c37 4 72 26 75 56h-31c-28 7 -51 33 -51 62c0 34 29 64 65 64s65 -30 65 -64z" />
    <glyph glyph-name="interfinity" horiz-adv-x="438" 
d="M386 587c0 -82 -73 -139 -116 -186c36 -34 59 -65 59 -107c0 -61 -48 -97 -109 -97c-62 0 -108 39 -108 100c0 41 27 85 60 121c-58 42 -115 91 -115 166c0 90 72 155 169 155c88 0 160 -61 160 -152zM117 578c0 -55 40 -89 85 -125c36 39 71 77 71 122
c0 44 -35 74 -79 74c-46 0 -77 -31 -77 -71zM279 293c0 28 -17 50 -40 72c-19 -24 -37 -45 -37 -72c0 -21 14 -36 38 -36s39 15 39 36zM146 67c0 -37 31 -67 69 -67s69 30 69 67s-31 67 -69 67s-69 -30 -69 -67z" />
    <glyph glyph-name="at.case" horiz-adv-x="876" 
d="M504 249v88l-84 -18c-37 -8 -71 -31 -71 -71c0 -43 29 -66 72 -66c32 0 78 44 83 67zM684 -60h-216c-255 0 -422 179 -422 419c0 224 178 393 405 393c224 0 381 -169 381 -393c0 -144 -86 -253 -206 -253c-49 0 -95 38 -109 85c-21 -32 -84 -86 -140 -86
c-77 0 -131 52 -131 127c0 91 82 112 145 125l114 22v79c0 52 -53 79 -88 79s-85 -18 -74 -60c13 -52 -24 -78 -76 -77l-21 18c-15 117 110 163 187 161c108 -1 187 -46 187 -129v-244c0 -16 24 -37 37 -37c61 0 111 74 111 190c0 197 -132 338 -318 338
c-190 0 -340 -142 -340 -338c0 -211 143 -359 355 -359h219v-60z" />
    <glyph glyph-name="zero.tnum" horiz-adv-x="628" 
d="M313 741c172 0 285 -185 285 -369c0 -190 -110 -385 -284 -385c-171 0 -284 186 -284 375c0 186 109 379 283 379zM314 46c68 0 125 68 132 207c3 61 3 194 0 256c-6 121 -43 176 -132 176c-68 0 -127 -61 -134 -200c-3 -61 -3 -194 0 -256c6 -121 45 -183 134 -183z" />
    <glyph glyph-name="one.tnum" horiz-adv-x="628" 
d="M393 739v-642c0 -17 40 -60 55 -60h42v-37h-338v37h43c14 0 57 42 57 60v421c0 16 -33 48 -45 48h-62v35c64 21 131 69 168 108z" />
    <glyph glyph-name="two.tnum" horiz-adv-x="628" 
d="M173 109h269c14 0 67 36 67 48h39l-62 -157h-429v34c34 90 160 224 266 334c37 39 67 94 63 149c-5 75 -58 129 -138 129c-64 0 -118 -50 -160 -103l-38 38c51 72 138 158 249 160c143 2 231 -82 230 -221c-1 -103 -82 -173 -155 -229c-78 -61 -177 -142 -201 -182z" />
    <glyph glyph-name="three.tnum" horiz-adv-x="628" 
d="M174 378v37l106 39c43 27 70 57 70 100c0 58 -43 99 -103 99c-55 0 -121 -37 -165 -73l-37 43c57 59 163 118 267 118c91 0 172 -48 172 -141c0 -83 -78 -135 -140 -161c85 2 201 -42 201 -165c0 -215 -301 -313 -454 -313l-10 61c106 2 324 67 324 233
c0 107 -103 152 -231 123z" />
    <glyph glyph-name="four.tnum" horiz-adv-x="628" 
d="M320 251l1 306h-5c-22 -34 -112 -185 -204 -306h208zM318 97v83h-293v52c149 195 245 357 304 452c68 25 131 55 131 55v-488h108v-71h-108v-83c0 -18 40 -60 55 -60h18v-37h-323v37h52c14 0 56 42 56 60z" />
    <glyph glyph-name="five.tnum" horiz-adv-x="628" 
d="M472 738l26 -113s-7 -13 -316 -5l-30 -184c54 39 115 78 193 78c115 0 205 -68 205 -193c0 -216 -279 -342 -453 -345l-7 62c127 7 332 106 332 247c0 92 -56 135 -143 135c-54 0 -106 -33 -148 -61l-42 23l50 346h53c278 -5 280 10 280 10z" />
    <glyph glyph-name="six.tnum" horiz-adv-x="628" 
d="M442 747l17 -57c-180 5 -286 -161 -278 -292c26 45 84 94 179 94c111 0 221 -89 221 -246c0 -141 -102 -259 -249 -259c-169 0 -277 167 -277 365c0 240 187 400 387 395zM199 298c0 -124 65 -243 146 -243c69 0 108 52 108 134c0 125 -65 223 -146 223
c-77 0 -108 -59 -108 -114z" />
    <glyph glyph-name="seven.tnum" horiz-adv-x="628" 
d="M278 0h-149c177 391 325 591 350 623c0 0 -71 -9 -303 -5c-15 0 -69 -71 -69 -71h-41l61 181h423l20 -34l-45 -79c-30 -49 -235 -533 -247 -615z" />
    <glyph glyph-name="eight.tnum" horiz-adv-x="628" 
d="M466 160c0 68 -99 106 -151 134c-24 13 -51 30 -51 30c-55 -29 -117 -59 -117 -145c0 -84 90 -132 162 -132c83 0 157 43 157 113zM340 447l19 -9c43 25 87 62 87 119c0 81 -63 132 -145 132c-61 0 -115 -38 -115 -92c0 -66 87 -118 154 -150zM210 361
c-49 32 -141 101 -141 193c0 114 126 187 246 187c113 0 228 -62 228 -176c0 -86 -74 -135 -130 -159c83 -45 169 -87 169 -204s-122 -215 -280 -215c-116 0 -257 59 -257 189c0 103 103 159 165 185z" />
    <glyph glyph-name="nine.tnum" horiz-adv-x="628" 
d="M188 -11l-14 61c119 0 273 141 266 290c-21 -32 -76 -87 -165 -88c-111 -1 -214 83 -222 251c-7 143 92 238 233 238c162 0 282 -146 282 -340c0 -251 -203 -412 -380 -412zM425 457c0 119 -74 225 -152 225s-106 -52 -106 -113c0 -125 78 -233 159 -231
c77 2 99 64 99 119z" />
    <glyph glyph-name="zero.onum" horiz-adv-x="581" 
d="M40 239c0 145 111 252 250 252s251 -107 251 -252s-112 -251 -251 -251s-250 106 -250 251zM110 239c0 -104 70 -175 180 -175s181 71 181 175s-71 176 -181 176s-180 -72 -180 -176z" />
    <glyph glyph-name="one.onum" horiz-adv-x="485" 
d="M312 382v-285c0 -17 40 -60 55 -60h53v-37h-356v37h54c14 0 57 42 57 60v285c0 18 -43 60 -57 60h-54v37h356v-37h-53c-15 0 -55 -43 -55 -60z" />
    <glyph glyph-name="two.onum" horiz-adv-x="535" 
d="M135 103h267c14 0 69 42 69 54h39l-62 -157h-423v34c21 85 111 142 228 202c47 24 85 57 85 101c0 46 -34 78 -88 78c-67 0 -124 -52 -167 -103l-43 37c51 70 134 143 243 143c98 0 167 -52 167 -137c0 -83 -69 -137 -172 -177c-80 -31 -124 -50 -143 -75z" />
    <glyph glyph-name="three.onum" horiz-adv-x="565" 
d="M151 158v37l106 39c43 27 74 51 74 94c0 57 -45 84 -105 84c-55 0 -126 -42 -169 -81l-35 44c57 59 157 118 261 118c90 0 175 -40 175 -123s-75 -125 -137 -151c106 12 200 -33 200 -147c0 -215 -301 -307 -454 -307l-10 61c106 2 327 58 327 224
c0 107 -103 140 -233 108z" />
    <glyph glyph-name="four.onum" horiz-adv-x="608" 
d="M325 71v252h-5c-65 -89 -126 -159 -206 -252h211zM325 -206v206h-300v52c137 160 194 230 308 385c68 25 129 55 129 55v-421h106v-71h-106v-166z" />
    <glyph glyph-name="five.onum" horiz-adv-x="560" 
d="M430 489l30 -113s-10 -13 -294 -6l-47 -169c59 46 127 84 198 85c108 2 194 -68 194 -179c0 -199 -224 -324 -444 -343l-18 61c163 10 347 118 347 259c0 77 -49 119 -130 119c-54 0 -125 -43 -169 -75l-46 27l83 324h51c241 -3 245 10 245 10z" />
    <glyph glyph-name="six.onum" horiz-adv-x="600" 
d="M493 746l17 -55c-236 16 -346 -141 -336 -293c26 45 80 94 175 94c111 0 211 -89 211 -246c0 -141 -86 -259 -233 -259c-169 0 -277 167 -277 365c0 254 185 416 443 394zM192 298c0 -124 65 -244 146 -244c69 0 105 53 105 135c0 125 -66 224 -147 224
c-77 0 -104 -60 -104 -115z" />
    <glyph glyph-name="seven.onum" horiz-adv-x="519" 
d="M262 -206h-92c88 242 151 382 249 580c0 0 -44 -9 -276 -5c-15 0 -72 -71 -72 -71h-41l64 181h388l20 -34l-31 -76c-84 -193 -137 -333 -209 -575z" />
    <glyph glyph-name="eight.onum" horiz-adv-x="595" 
d="M447 160c0 68 -96 109 -147 137c-24 13 -51 30 -51 30c-54 -29 -115 -62 -115 -148c0 -84 89 -132 159 -132c81 0 154 43 154 113zM322 444l19 -9c42 25 86 65 86 122c0 81 -61 132 -142 132c-60 0 -112 -38 -112 -92c0 -66 84 -121 149 -153zM200 362
c-48 32 -142 100 -142 192c0 114 123 187 241 187c111 0 223 -62 223 -176c0 -86 -76 -136 -131 -160c81 -45 169 -86 169 -203s-119 -215 -274 -215c-113 0 -251 59 -251 189c0 103 104 160 165 186z" />
    <glyph glyph-name="nine.onum" horiz-adv-x="600" 
d="M105 -236l-14 59c215 -11 347 122 340 271c-21 -32 -78 -88 -167 -88c-142 0 -224 139 -224 264c0 134 99 222 229 222c162 0 281 -146 281 -340c0 -251 -193 -396 -445 -388zM413 208c0 119 -78 226 -156 226s-102 -56 -102 -117c0 -125 74 -231 155 -229
c77 2 103 65 103 120z" />
    <glyph glyph-name="zero.numr" 
d="M199 736c99 0 172 -92 172 -200s-73 -208 -171 -208s-170 100 -170 203s70 205 169 205zM200 372c38 0 72 34 76 109c2 33 2 87 0 120c-3 66 -28 95 -77 95c-38 0 -72 -32 -76 -107c-2 -33 -2 -86 0 -120c3 -65 31 -97 77 -97z" />
    <glyph glyph-name="one.numr" horiz-adv-x="375" 
d="M233 728v-323c0 -10 22 -33 29 -33h33v-35h-222v35h34c7 0 30 23 30 33v198c0 9 -18 27 -25 27h-42v28c70 25 131 70 131 70h32z" />
    <glyph glyph-name="two.numr" 
d="M114 406h162c8 0 37 28 37 28h28l-38 -97h-254v34c13 57 67 105 149 170c22 18 40 43 40 74c0 38 -26 64 -69 64c-35 0 -67 -29 -89 -57l-32 28c27 39 83 85 146 87c79 2 136 -47 136 -118c0 -63 -62 -109 -102 -132s-85 -40 -114 -81z" />
    <glyph glyph-name="three.numr" 
d="M130 537v31l50 18c26 16 36 29 36 54c-1 27 -23 43 -50 42c-29 0 -62 -22 -89 -42l-18 33c42 32 94 63 150 63c43 0 86 -23 88 -72c0 -46 -36 -72 -72 -87c34 1 99 -14 103 -74c7 -115 -172 -177 -241 -180l-9 46c42 6 155 30 156 111c1 52 -47 63 -104 57z" />
    <glyph glyph-name="four.numr" 
d="M196 400v23h-172v36l207 257l59 18v-265h50v-46h-50v-23c0 -10 21 -33 30 -33h16v-30h-184v30h14c7 0 30 23 30 33zM196 466v142l-117 -142h117z" />
    <glyph glyph-name="five.numr" 
d="M299 734l17 -65s5 -7 -193 -3l-20 -97c33 24 69 47 118 47c73 0 121 -40 121 -107c0 -117 -164 -184 -275 -186l-4 44c81 4 196 48 196 124c0 43 -24 69 -74 69c-32 0 -70 -22 -97 -38l-27 16l32 190h34c178 0 172 6 172 6z" />
    <glyph glyph-name="six.numr" 
d="M278 739l12 -37c-108 2 -170 -77 -167 -149c15 24 49 52 106 52c67 0 131 -51 131 -136c0 -76 -57 -140 -146 -140c-101 0 -165 90 -165 197c0 130 109 216 229 213zM138 488c0 -65 34 -113 82 -113c39 0 61 26 61 68c0 65 -35 109 -83 109c-39 0 -60 -32 -60 -64z" />
    <glyph glyph-name="seven.numr" 
d="M184 337h-101c80 171 200 308 217 325c0 0 -27 -5 -180 -3c-10 0 -45 -38 -45 -38h-30l39 107h274l15 -24l-32 -42c-20 -27 -149 -280 -157 -325z" />
    <glyph glyph-name="eight.numr" 
d="M288 418c0 46 -71 59 -119 87c-34 -15 -64 -36 -64 -77c0 -37 47 -57 92 -57c55 0 91 17 91 47zM226 579c26 13 49 31 49 57c0 39 -32 63 -82 63c-37 0 -63 -20 -63 -46c0 -34 43 -52 96 -74zM138 530c-51 23 -81 60 -81 103c0 64 68 103 143 103c71 0 139 -35 139 -96
c0 -45 -43 -69 -78 -82c52 -22 102 -52 102 -115c0 -68 -73 -116 -171 -116c-72 0 -154 31 -154 99c0 56 61 90 100 104z" />
    <glyph glyph-name="nine.numr" 
d="M120 324l-12 38c108 -2 172 78 169 150c-15 -24 -49 -52 -106 -52c-67 0 -131 51 -131 136c0 76 57 140 146 140c101 0 165 -90 165 -197c0 -130 -111 -218 -231 -215zM262 580c0 65 -34 113 -82 113c-39 0 -61 -26 -61 -68c0 -65 35 -109 83 -109c39 0 60 32 60 64z" />
    <glyph glyph-name="zero.dnom" 
d="M199 399c99 0 172 -92 172 -200s-73 -208 -171 -208s-170 100 -170 203s70 205 169 205zM200 35c38 0 72 34 76 109c2 33 2 87 0 120c-3 66 -28 95 -77 95c-38 0 -72 -32 -76 -107c-2 -33 -2 -86 0 -120c3 -65 31 -97 77 -97z" />
    <glyph glyph-name="one.dnom" horiz-adv-x="392" 
d="M250 391v-323c0 -10 22 -33 29 -33h33v-35h-222v35h34c7 0 30 23 30 33v198c0 9 -18 27 -25 27h-42v28c70 25 131 70 131 70h32z" />
    <glyph glyph-name="two.dnom" 
d="M114 69h162c8 0 37 28 37 28h28l-38 -97h-254v34c13 57 67 105 149 170c22 18 40 43 40 74c0 38 -26 64 -69 64c-35 0 -67 -29 -89 -57l-32 28c27 39 83 85 146 87c79 2 136 -47 136 -118c0 -63 -62 -109 -102 -132s-85 -40 -114 -81z" />
    <glyph glyph-name="three.dnom" 
d="M130 201v31l50 18c26 16 36 29 36 54c-1 27 -23 43 -50 42c-29 0 -62 -22 -89 -42l-18 33c42 32 94 63 150 63c43 0 86 -23 88 -72c0 -46 -36 -72 -72 -87c34 1 99 -14 103 -74c7 -115 -172 -177 -241 -180l-9 46c42 6 155 30 156 111c1 52 -47 63 -104 57z" />
    <glyph glyph-name="four.dnom" 
d="M196 63v23h-172v36l207 257l59 18v-265h50v-46h-50v-23c0 -10 21 -33 30 -33h16v-30h-184v30h14c7 0 30 23 30 33zM196 129v142l-117 -142h117z" />
    <glyph glyph-name="five.dnom" 
d="M299 397l17 -65s5 -7 -193 -3l-20 -97c33 24 69 47 118 47c73 0 121 -40 121 -107c0 -117 -164 -184 -275 -186l-4 44c81 4 196 48 196 124c0 43 -24 69 -74 69c-32 0 -70 -22 -97 -38l-27 16l32 190h34c178 0 172 6 172 6z" />
    <glyph glyph-name="six.dnom" 
d="M278 402l12 -37c-108 2 -170 -77 -167 -149c15 24 49 52 106 52c67 0 131 -51 131 -136c0 -76 -57 -140 -146 -140c-101 0 -165 90 -165 197c0 130 109 216 229 213zM138 151c0 -65 34 -113 82 -113c39 0 61 26 61 68c0 65 -35 109 -83 109c-39 0 -60 -32 -60 -64z" />
    <glyph glyph-name="seven.dnom" 
d="M184 0h-101c80 171 200 308 217 325c0 0 -27 -5 -180 -3c-10 0 -45 -38 -45 -38h-30l39 107h274l15 -24l-32 -42c-20 -27 -149 -280 -157 -325z" />
    <glyph glyph-name="eight.dnom" 
d="M288 82c0 46 -71 59 -119 87c-34 -15 -64 -36 -64 -77c0 -37 47 -57 92 -57c55 0 91 17 91 47zM226 243c26 13 49 31 49 57c0 39 -32 63 -82 63c-37 0 -63 -20 -63 -46c0 -34 43 -52 96 -74zM138 194c-51 23 -81 60 -81 103c0 64 68 103 143 103c71 0 139 -35 139 -96
c0 -45 -43 -69 -78 -82c52 -22 102 -52 102 -115c0 -68 -73 -116 -171 -116c-72 0 -154 31 -154 99c0 56 61 90 100 104z" />
    <glyph glyph-name="nine.dnom" 
d="M120 -12l-12 38c108 -2 172 78 169 150c-15 -24 -49 -52 -106 -52c-67 0 -131 51 -131 136c0 76 57 140 146 140c101 0 165 -90 165 -197c0 -130 -111 -218 -231 -215zM262 244c0 65 -34 113 -82 113c-39 0 -61 -26 -61 -68c0 -65 35 -109 83 -109c39 0 60 32 60 64z" />
    <glyph glyph-name="commaaccent.salt" horiz-adv-x="251" 
d="M61 610v28c-1 81 68 123 123 131v-41c-37 -4 -72 -26 -75 -56h31c28 -7 51 -33 51 -62c0 -34 -29 -64 -65 -64s-65 30 -65 64z" />
    <glyph glyph-name="caron.salt" horiz-adv-x="259" 
d="M192 698v-28c1 -81 -68 -124 -123 -131v41c37 4 72 26 75 56h-31c-28 7 -51 33 -51 62c0 34 29 64 65 64s65 -30 65 -64z" />
    <glyph glyph-name="caron.case" horiz-adv-x="500" 
d="M298 777h-96l-99 154h50l97 -76l97 76h50z" />
    <glyph glyph-name="circumflex.case" horiz-adv-x="500" 
d="M207 931h86l103 -154h-50l-96 73l-96 -73h-50z" />
    <glyph glyph-name="acute.case" horiz-adv-x="500" 
d="M290 917h165l-192 -140h-48z" />
    <glyph glyph-name="grave.case" horiz-adv-x="500" 
d="M80 917h165l51 -140h-49z" />
    <glyph glyph-name="macron.case" horiz-adv-x="500" 
d="M114 881h273v-81h-273v81z" />
    <glyph glyph-name="breve.case" horiz-adv-x="500" 
d="M251 776c-101 0 -155 64 -152 145l36 6c2 -51 54 -69 114 -69c61 0 115 17 116 69l36 -6c3 -81 -50 -145 -150 -145z" />
    <glyph glyph-name="ring.case" horiz-adv-x="500" 
d="M140 865c0 59 54 108 111 108c58 0 110 -49 110 -108c0 -61 -52 -108 -110 -108c-57 0 -111 47 -111 108zM194 865c0 -34 23 -57 57 -57c33 0 56 23 56 57c0 33 -23 56 -56 56c-34 0 -57 -23 -57 -56z" />
    <glyph glyph-name="tilde.case" horiz-adv-x="500" 
d="M408 815l-25 -20c-8 20 -25 39 -53 38c-47 -1 -87 -48 -144 -48c-51 0 -89 35 -93 94l24 19c6 -19 28 -31 54 -31c56 0 88 51 144 51c51 0 91 -44 93 -103z" />
    <glyph glyph-name="dotaccent.case" horiz-adv-x="500" 
d="M328 848c0 -43 -33 -77 -78 -77c-44 0 -78 34 -78 77s34 77 78 77c45 0 78 -34 78 -77z" />
    <glyph glyph-name="hungarumlaut.case" horiz-adv-x="500" 
d="M337 917h152l-157 -140h-50zM157 917h148l-160 -140h-43z" />
    <glyph glyph-name="dieresis.case" horiz-adv-x="500" 
d="M428 840c0 -39 -31 -70 -71 -70s-72 31 -72 70c0 38 32 70 72 70s71 -32 71 -70zM214 840c0 -39 -31 -70 -71 -70s-72 31 -72 70c0 38 32 70 72 70s71 -32 71 -70z" />
    <glyph glyph-name="germandbls.ss02" horiz-adv-x="645" 
d="M233 286v-195c0 -18 40 -55 52 -55h53v-36h-299v36h19c14 0 51 37 51 55v301c0 11 -20 36 -29 36h-65v51h93v56c0 120 70 217 179 217c46 0 77 -33 77 -73c0 -35 -21 -62 -59 -72h-28c-32 6 -59 34 -59 65h-20c-11 -7 -24 -26 -24 -50c0 -44 53 -60 53 -110v-171l95 138
h270v-34l-115 -193l43 -18c71 -26 98 -90 94 -156c-9 -143 -174 -293 -352 -294c-35 0 -72 5 -99 24l82 112h36c23 -22 58 -35 101 -34c86 2 142 68 142 139c0 44 -27 90 -90 117l-42 18v36l95 176h-152c-13 0 -85 -68 -102 -86z" />
    <glyph glyph-name="colon.ss01" horiz-adv-x="272" 
d="M73 406c0 34 28 62 63 62s63 -28 63 -62s-28 -62 -63 -62s-63 28 -63 62zM55 89c0 43 36 79 81 79s81 -36 81 -79s-36 -79 -81 -79s-81 36 -81 79z" />
    <glyph glyph-name="ellipsis.ss01" horiz-adv-x="806" 
d="M589 79c0 43 36 79 81 79s81 -36 81 -79s-36 -79 -81 -79s-81 36 -81 79zM60 62c0 34 28 62 63 62s63 -28 63 -62s-28 -62 -63 -62s-63 28 -63 62zM314 70c0 39 30 70 71 70c40 0 71 -31 71 -70s-31 -70 -71 -70c-41 0 -71 31 -71 70z" />
    <glyph glyph-name="arrow_right" horiz-adv-x="876" 
d="M40 250v82l676 -1l-33 25l-205 191h124s113 -120 244 -232v-46c-128 -108 -243 -232 -243 -232h-124l204 190l33 24z" />
    <glyph glyph-name="arrow_left" horiz-adv-x="876" 
d="M836 332v-82l-676 1l33 -24l204 -190h-124s-115 124 -243 232v46c131 112 244 232 244 232h124l-205 -191l-33 -25z" />
    <glyph glyph-name="arrow_down" horiz-adv-x="630" 
d="M275 728h82l-1 -676l24 33l190 204v-124s-124 -115 -232 -243h-46c-112 131 -232 244 -232 244v124l191 -205l25 -33z" />
    <glyph glyph-name="arrow_up" horiz-adv-x="630" 
d="M357 -78h-82l1 676l-25 -33l-191 -205v124s120 113 232 244h46c108 -128 232 -243 232 -243v-124l-190 204l-24 33z" />
    <glyph glyph-name="arrow_left_up" horiz-adv-x="756" 
d="M696 118l-58 -58l-478 478l6 -41l10 -280l-88 88s5 165 -8 337l32 32c167 -14 336 -8 336 -8l88 -87l-279 10l-40 6z" />
    <glyph glyph-name="arrow_left_down" horiz-adv-x="756" 
d="M638 674l58 -58l-479 -477l40 6l279 10l-88 -87s-169 6 -336 -8l-32 32c13 172 8 337 8 337l88 88l-10 -280l-6 -41z" />
    <glyph glyph-name="arrow_right_up" horiz-adv-x="756" 
d="M118 60l-58 58l479 477l-40 -6l-279 -10l88 87s169 -6 336 8l32 -32c-13 -172 -8 -337 -8 -337l-88 -88l10 280l6 41z" />
    <glyph glyph-name="arrow_right_down" horiz-adv-x="756" 
d="M60 616l58 58l478 -478l-6 41l-10 280l88 -88s-5 -165 8 -337l-32 -32c-167 14 -336 8 -336 8l-88 87l279 -10l40 -6z" />
    <glyph glyph-name="RP" horiz-adv-x="810" 
d="M361 433l-140 246l6 4l140 -247zM450 433l140 246l-6 4l-140 -247zM361 297l-140 -246l6 -4l140 247zM450 297l140 -246l-6 -4l-140 247zM338 319l-230 -164l4 -6l230 165zM473 411l230 164l-4 6l-230 -165zM338 411l-230 164l4 6l230 -165zM473 319l230 -164l-4 -6
l-230 165zM377 441l-87 269l7 2l86 -269zM377 289l-87 -269l7 -2l86 269zM434 441l87 269l-7 2l-86 -269zM434 289l87 -269l-7 -2l-86 269zM349 307l-190 -210l5 -5l190 211zM349 423l-190 210l5 5l190 -211zM462 423l190 210l-5 5l-190 -211zM462 307l190 -210l-5 -5
l-190 211zM330 335l-260 -114l3 -6l260 114zM481 395l260 114l-3 6l-260 -114zM481 335l260 -114l-3 -6l-260 114zM330 395l-260 114l3 6l260 -114zM325 379l-277 57l2 7l276 -58zM325 351l-277 -57l2 -7l276 58zM486 379l277 57l-2 7l-276 -58zM486 351l277 -57l-2 -7
l-276 58zM394 285l-31 -281l7 -1l30 281zM417 445l31 281l-7 1l-30 -281zM417 285l31 -281l-7 -1l-30 281zM394 445l-31 281l7 1l30 -281zM40 368h284v-6h-284v6zM770 368h-283v-6h283v6zM490 476l133 181l-6 5l-133 -182zM321 476l-133 181l6 5l133 -182zM321 254
l-133 -181l6 -5l133 182zM490 254l133 -181l-6 -5l-133 182zM373 501l-46 219l7 2l46 -220zM373 229l-46 -219l7 -2l46 220zM438 501l46 219l-7 2l-46 -220zM438 229l46 -219l-7 -2l-46 220zM402 225v-225h7v225h-7zM402 505v225h7v-225h-7zM528 299l196 -112l-3 -6
l-197 112zM283 299l-196 -112l3 -6l197 112zM283 431l-196 112l3 6l197 -112zM528 431l196 112l-3 6l-197 -112zM540 325l214 -68l-2 -7l-214 69zM540 405l214 68l-2 7l-214 -69zM271 325l-214 -68l2 -7l214 69zM271 405l-214 68l2 7l214 -69zM679 606l-5 5l-167 -151l4 -5z
M132 606l5 5l167 -151l-4 -5zM679 124l-5 -5l-167 151l4 5zM132 124l5 -5l167 151l-4 5zM347 491l-92 206l6 3l92 -206zM464 491l92 206l-6 3l-92 -206zM464 239l92 -206l-6 -3l-92 206zM347 239l-92 -206l6 -3l92 206zM769 331l-1 -7l-224 24l1 6zM42 399l1 7l224 -24
l-1 -6zM769 399l-1 7l-224 -24l1 -6zM42 331l1 -7l224 24l-1 6z" />
    <glyph glyph-name="threestars" horiz-adv-x="1086" 
d="M543 395l-37 36c5 34 22 93 27 135c-25 -36 -47 -83 -72 -114h-51v45c28 22 86 56 120 80c-45 -5 -100 -22 -140 -26l-32 32l32 32c39 -3 96 -21 140 -26c-36 27 -89 56 -120 79v46h51c23 -27 50 -79 72 -112c-5 38 -21 102 -25 133l35 35l35 -35
c-4 -35 -21 -92 -26 -133c27 38 46 79 73 112h51v-46c-32 -24 -85 -52 -121 -79c43 4 100 22 141 26l32 -32l-32 -32c-41 3 -97 21 -141 26c37 -26 89 -54 121 -80v-45h-51c-24 29 -50 80 -74 114c5 -42 22 -101 27 -135zM861 0l-37 36c5 34 22 93 27 135
c-25 -36 -47 -83 -72 -114h-51v45c28 22 86 56 120 80c-45 -5 -100 -22 -140 -26l-32 32l32 32c39 -3 96 -21 140 -26c-36 27 -89 56 -120 79v46h51c23 -27 50 -79 72 -112c-5 38 -21 102 -25 133l35 35l35 -35c-4 -35 -21 -92 -26 -133c27 38 46 79 73 112h51v-46
c-32 -24 -85 -52 -121 -79c43 4 100 22 141 26l32 -32l-32 -32c-41 3 -97 21 -141 26c37 -26 89 -54 121 -80v-45h-51c-24 29 -50 80 -74 114c5 -42 22 -101 27 -135zM225 0l-37 36c5 34 22 93 27 135c-25 -36 -47 -83 -72 -114h-51v45c28 22 86 56 120 80
c-45 -5 -100 -22 -140 -26l-32 32l32 32c39 -3 96 -21 140 -26c-36 27 -89 56 -120 79v46h51c23 -27 50 -79 72 -112c-5 38 -21 102 -25 133l35 35l35 -35c-4 -35 -21 -92 -26 -133c27 38 46 79 73 112h51v-46c-32 -24 -85 -52 -121 -79c43 4 100 22 141 26l32 -32l-32 -32
c-41 3 -97 21 -141 26c37 -26 89 -54 121 -80v-45h-51c-24 29 -50 80 -74 114c5 -42 22 -101 27 -135z" />
    </font>
</defs>
</svg>
